<?xml version="1.0" encoding="utf-8" standalone="no"?>
<!DOCTYPE svg PUBLIC "-//W3C//DTD SVG 1.1//EN"
  "http://www.w3.org/Graphics/SVG/1.1/DTD/svg11.dtd">
<!-- Created with matplotlib (https://matplotlib.org/) -->
<svg height="360pt" version="1.1" viewBox="0 0 792 360" width="792pt" xmlns="http://www.w3.org/2000/svg" xmlns:xlink="http://www.w3.org/1999/xlink">
 <metadata>
  <rdf:RDF xmlns:cc="http://creativecommons.org/ns#" xmlns:dc="http://purl.org/dc/elements/1.1/" xmlns:rdf="http://www.w3.org/1999/02/22-rdf-syntax-ns#">
   <cc:Work>
    <dc:type rdf:resource="http://purl.org/dc/dcmitype/StillImage"/>
    <dc:date>2021-02-25T13:33:16.469632</dc:date>
    <dc:format>image/svg+xml</dc:format>
    <dc:creator>
     <cc:Agent>
      <dc:title>Matplotlib v3.3.3, https://matplotlib.org/</dc:title>
     </cc:Agent>
    </dc:creator>
   </cc:Work>
  </rdf:RDF>
 </metadata>
 <defs>
  <style type="text/css">*{stroke-linecap:butt;stroke-linejoin:round;}</style>
 </defs>
 <g id="figure_1">
  <g id="patch_1">
   <path d="M 0 360 
L 792 360 
L 792 0 
L 0 0 
z
" style="fill:#ffffff;"/>
  </g>
  <g id="axes_1">
   <g id="patch_2">
    <path d="M 99 320.4 
L 378 320.4 
L 378 43.2 
L 99 43.2 
z
" style="fill:#ffffff;"/>
   </g>
   <g id="matplotlib.axis_1">
    <g id="xtick_1">
     <g id="line2d_1">
      <defs>
       <path d="M 0 0 
L 0 4 
" id="m612fc3fd3f" style="stroke:#000000;"/>
      </defs>
      <g>
       <use style="stroke:#000000;" x="111.681818" xlink:href="#m612fc3fd3f" y="320.4"/>
      </g>
     </g>
     <g id="line2d_2">
      <defs>
       <path d="M 0 0 
L 0 -4 
" id="m889d2f8002" style="stroke:#000000;"/>
      </defs>
      <g>
       <use style="stroke:#000000;" x="111.681818" xlink:href="#m889d2f8002" y="43.2"/>
      </g>
     </g>
     <g id="text_1">
      <!-- 0 -->
      <g transform="translate(108.902462 335.070568)scale(0.09996 -0.09996)">
       <defs>
        <path d="M 27.046875 69.921875 
Q 40.625 69.921875 46.6875 58.734375 
Q 51.375 50.09375 51.375 35.0625 
Q 51.375 20.796875 47.125 11.46875 
Q 40.96875 -1.90625 27 -1.90625 
Q 14.40625 -1.90625 8.25 9.03125 
Q 3.125 18.171875 3.125 33.546875 
Q 3.125 45.453125 6.203125 54 
Q 11.96875 69.921875 27.046875 69.921875 
z
M 26.953125 6.109375 
Q 33.796875 6.109375 37.84375 12.15625 
Q 41.890625 18.21875 41.890625 34.71875 
Q 41.890625 46.625 38.953125 54.3125 
Q 36.03125 62.015625 27.59375 62.015625 
Q 19.828125 62.015625 16.234375 54.703125 
Q 12.640625 47.40625 12.640625 33.203125 
Q 12.640625 22.515625 14.9375 16.015625 
Q 18.453125 6.109375 26.953125 6.109375 
z
" id="Helvetica-48"/>
       </defs>
       <use xlink:href="#Helvetica-48"/>
      </g>
     </g>
    </g>
    <g id="xtick_2">
     <g id="line2d_3">
      <g>
       <use style="stroke:#000000;" x="164.522727" xlink:href="#m612fc3fd3f" y="320.4"/>
      </g>
     </g>
     <g id="line2d_4">
      <g>
       <use style="stroke:#000000;" x="164.522727" xlink:href="#m889d2f8002" y="43.2"/>
      </g>
     </g>
     <g id="text_2">
      <!-- 5 -->
      <g transform="translate(161.743371 335.070568)scale(0.09996 -0.09996)">
       <defs>
        <path d="M 12.359375 17.828125 
Q 13.234375 10.296875 19.34375 7.421875 
Q 22.46875 5.953125 26.5625 5.953125 
Q 34.375 5.953125 38.125 10.9375 
Q 41.890625 15.921875 41.890625 21.96875 
Q 41.890625 29.296875 37.421875 33.296875 
Q 32.953125 37.3125 26.703125 37.3125 
Q 22.171875 37.3125 18.921875 35.546875 
Q 15.671875 33.796875 13.375 30.671875 
L 5.765625 31.109375 
L 11.078125 68.75 
L 47.40625 68.75 
L 47.40625 60.25 
L 17.671875 60.25 
L 14.703125 40.828125 
Q 17.140625 42.671875 19.34375 43.609375 
Q 23.25 45.21875 28.375 45.21875 
Q 37.984375 45.21875 44.671875 39.015625 
Q 51.375 32.8125 51.375 23.296875 
Q 51.375 13.375 45.234375 5.796875 
Q 39.109375 -1.765625 25.6875 -1.765625 
Q 17.140625 -1.765625 10.5625 3.046875 
Q 4 7.859375 3.21875 17.828125 
z
" id="Helvetica-53"/>
       </defs>
       <use xlink:href="#Helvetica-53"/>
      </g>
     </g>
    </g>
    <g id="xtick_3">
     <g id="line2d_5">
      <g>
       <use style="stroke:#000000;" x="217.363636" xlink:href="#m612fc3fd3f" y="320.4"/>
      </g>
     </g>
     <g id="line2d_6">
      <g>
       <use style="stroke:#000000;" x="217.363636" xlink:href="#m889d2f8002" y="43.2"/>
      </g>
     </g>
     <g id="text_3">
      <!-- 10 -->
      <g transform="translate(211.804923 335.070568)scale(0.09996 -0.09996)">
       <defs>
        <path d="M 9.578125 49.515625 
L 9.578125 56.25 
Q 19.09375 57.171875 22.84375 59.34375 
Q 26.609375 61.53125 28.46875 69.625 
L 35.40625 69.625 
L 35.40625 0 
L 26.03125 0 
L 26.03125 49.515625 
z
" id="Helvetica-49"/>
       </defs>
       <use xlink:href="#Helvetica-49"/>
       <use x="55.615234" xlink:href="#Helvetica-48"/>
      </g>
     </g>
    </g>
    <g id="xtick_4">
     <g id="line2d_7">
      <g>
       <use style="stroke:#000000;" x="270.204545" xlink:href="#m612fc3fd3f" y="320.4"/>
      </g>
     </g>
     <g id="line2d_8">
      <g>
       <use style="stroke:#000000;" x="270.204545" xlink:href="#m889d2f8002" y="43.2"/>
      </g>
     </g>
     <g id="text_4">
      <!-- 15 -->
      <g transform="translate(264.645832 335.070568)scale(0.09996 -0.09996)">
       <use xlink:href="#Helvetica-49"/>
       <use x="55.615234" xlink:href="#Helvetica-53"/>
      </g>
     </g>
    </g>
    <g id="xtick_5">
     <g id="line2d_9">
      <g>
       <use style="stroke:#000000;" x="323.045455" xlink:href="#m612fc3fd3f" y="320.4"/>
      </g>
     </g>
     <g id="line2d_10">
      <g>
       <use style="stroke:#000000;" x="323.045455" xlink:href="#m889d2f8002" y="43.2"/>
      </g>
     </g>
     <g id="text_5">
      <!-- 20 -->
      <g transform="translate(317.486741 335.070568)scale(0.09996 -0.09996)">
       <defs>
        <path d="M 3.125 0 
Q 3.609375 9.03125 6.859375 15.71875 
Q 10.109375 22.40625 19.53125 27.875 
L 28.90625 33.296875 
Q 35.203125 36.96875 37.75 39.546875 
Q 41.75 43.609375 41.75 48.828125 
Q 41.75 54.9375 38.078125 58.515625 
Q 34.421875 62.109375 28.328125 62.109375 
Q 19.28125 62.109375 15.828125 55.28125 
Q 13.96875 51.609375 13.765625 45.125 
L 4.828125 45.125 
Q 4.984375 54.25 8.203125 60.015625 
Q 13.921875 70.171875 28.375 70.171875 
Q 40.375 70.171875 45.921875 63.671875 
Q 51.46875 57.171875 51.46875 49.21875 
Q 51.46875 40.828125 45.5625 34.859375 
Q 42.140625 31.390625 33.296875 26.46875 
L 26.609375 22.75 
Q 21.828125 20.125 19.09375 17.71875 
Q 14.203125 13.484375 12.9375 8.296875 
L 51.125 8.296875 
L 51.125 0 
L 3.125 0 
z
" id="Helvetica-50"/>
       </defs>
       <use xlink:href="#Helvetica-50"/>
       <use x="55.615234" xlink:href="#Helvetica-48"/>
      </g>
     </g>
    </g>
    <g id="xtick_6">
     <g id="line2d_11">
      <g>
       <use style="stroke:#000000;" x="375.886364" xlink:href="#m612fc3fd3f" y="320.4"/>
      </g>
     </g>
     <g id="line2d_12">
      <g>
       <use style="stroke:#000000;" x="375.886364" xlink:href="#m889d2f8002" y="43.2"/>
      </g>
     </g>
     <g id="text_6">
      <!-- 25 -->
      <g transform="translate(370.327651 335.070568)scale(0.09996 -0.09996)">
       <use xlink:href="#Helvetica-50"/>
       <use x="55.615234" xlink:href="#Helvetica-53"/>
      </g>
     </g>
    </g>
    <g id="xtick_7">
     <g id="line2d_13">
      <defs>
       <path d="M 0 0 
L 0 2 
" id="m9b39b8bf91" style="stroke:#000000;"/>
      </defs>
      <g>
       <use style="stroke:#000000;" x="101.113636" xlink:href="#m9b39b8bf91" y="320.4"/>
      </g>
     </g>
     <g id="line2d_14">
      <defs>
       <path d="M 0 0 
L 0 -2 
" id="mb863cfdb0f" style="stroke:#000000;"/>
      </defs>
      <g>
       <use style="stroke:#000000;" x="101.113636" xlink:href="#mb863cfdb0f" y="43.2"/>
      </g>
     </g>
    </g>
    <g id="xtick_8">
     <g id="line2d_15">
      <g>
       <use style="stroke:#000000;" x="122.25" xlink:href="#m9b39b8bf91" y="320.4"/>
      </g>
     </g>
     <g id="line2d_16">
      <g>
       <use style="stroke:#000000;" x="122.25" xlink:href="#mb863cfdb0f" y="43.2"/>
      </g>
     </g>
    </g>
    <g id="xtick_9">
     <g id="line2d_17">
      <g>
       <use style="stroke:#000000;" x="132.818182" xlink:href="#m9b39b8bf91" y="320.4"/>
      </g>
     </g>
     <g id="line2d_18">
      <g>
       <use style="stroke:#000000;" x="132.818182" xlink:href="#mb863cfdb0f" y="43.2"/>
      </g>
     </g>
    </g>
    <g id="xtick_10">
     <g id="line2d_19">
      <g>
       <use style="stroke:#000000;" x="143.386364" xlink:href="#m9b39b8bf91" y="320.4"/>
      </g>
     </g>
     <g id="line2d_20">
      <g>
       <use style="stroke:#000000;" x="143.386364" xlink:href="#mb863cfdb0f" y="43.2"/>
      </g>
     </g>
    </g>
    <g id="xtick_11">
     <g id="line2d_21">
      <g>
       <use style="stroke:#000000;" x="153.954545" xlink:href="#m9b39b8bf91" y="320.4"/>
      </g>
     </g>
     <g id="line2d_22">
      <g>
       <use style="stroke:#000000;" x="153.954545" xlink:href="#mb863cfdb0f" y="43.2"/>
      </g>
     </g>
    </g>
    <g id="xtick_12">
     <g id="line2d_23">
      <g>
       <use style="stroke:#000000;" x="175.090909" xlink:href="#m9b39b8bf91" y="320.4"/>
      </g>
     </g>
     <g id="line2d_24">
      <g>
       <use style="stroke:#000000;" x="175.090909" xlink:href="#mb863cfdb0f" y="43.2"/>
      </g>
     </g>
    </g>
    <g id="xtick_13">
     <g id="line2d_25">
      <g>
       <use style="stroke:#000000;" x="185.659091" xlink:href="#m9b39b8bf91" y="320.4"/>
      </g>
     </g>
     <g id="line2d_26">
      <g>
       <use style="stroke:#000000;" x="185.659091" xlink:href="#mb863cfdb0f" y="43.2"/>
      </g>
     </g>
    </g>
    <g id="xtick_14">
     <g id="line2d_27">
      <g>
       <use style="stroke:#000000;" x="196.227273" xlink:href="#m9b39b8bf91" y="320.4"/>
      </g>
     </g>
     <g id="line2d_28">
      <g>
       <use style="stroke:#000000;" x="196.227273" xlink:href="#mb863cfdb0f" y="43.2"/>
      </g>
     </g>
    </g>
    <g id="xtick_15">
     <g id="line2d_29">
      <g>
       <use style="stroke:#000000;" x="206.795455" xlink:href="#m9b39b8bf91" y="320.4"/>
      </g>
     </g>
     <g id="line2d_30">
      <g>
       <use style="stroke:#000000;" x="206.795455" xlink:href="#mb863cfdb0f" y="43.2"/>
      </g>
     </g>
    </g>
    <g id="xtick_16">
     <g id="line2d_31">
      <g>
       <use style="stroke:#000000;" x="227.931818" xlink:href="#m9b39b8bf91" y="320.4"/>
      </g>
     </g>
     <g id="line2d_32">
      <g>
       <use style="stroke:#000000;" x="227.931818" xlink:href="#mb863cfdb0f" y="43.2"/>
      </g>
     </g>
    </g>
    <g id="xtick_17">
     <g id="line2d_33">
      <g>
       <use style="stroke:#000000;" x="238.5" xlink:href="#m9b39b8bf91" y="320.4"/>
      </g>
     </g>
     <g id="line2d_34">
      <g>
       <use style="stroke:#000000;" x="238.5" xlink:href="#mb863cfdb0f" y="43.2"/>
      </g>
     </g>
    </g>
    <g id="xtick_18">
     <g id="line2d_35">
      <g>
       <use style="stroke:#000000;" x="249.068182" xlink:href="#m9b39b8bf91" y="320.4"/>
      </g>
     </g>
     <g id="line2d_36">
      <g>
       <use style="stroke:#000000;" x="249.068182" xlink:href="#mb863cfdb0f" y="43.2"/>
      </g>
     </g>
    </g>
    <g id="xtick_19">
     <g id="line2d_37">
      <g>
       <use style="stroke:#000000;" x="259.636364" xlink:href="#m9b39b8bf91" y="320.4"/>
      </g>
     </g>
     <g id="line2d_38">
      <g>
       <use style="stroke:#000000;" x="259.636364" xlink:href="#mb863cfdb0f" y="43.2"/>
      </g>
     </g>
    </g>
    <g id="xtick_20">
     <g id="line2d_39">
      <g>
       <use style="stroke:#000000;" x="280.772727" xlink:href="#m9b39b8bf91" y="320.4"/>
      </g>
     </g>
     <g id="line2d_40">
      <g>
       <use style="stroke:#000000;" x="280.772727" xlink:href="#mb863cfdb0f" y="43.2"/>
      </g>
     </g>
    </g>
    <g id="xtick_21">
     <g id="line2d_41">
      <g>
       <use style="stroke:#000000;" x="291.340909" xlink:href="#m9b39b8bf91" y="320.4"/>
      </g>
     </g>
     <g id="line2d_42">
      <g>
       <use style="stroke:#000000;" x="291.340909" xlink:href="#mb863cfdb0f" y="43.2"/>
      </g>
     </g>
    </g>
    <g id="xtick_22">
     <g id="line2d_43">
      <g>
       <use style="stroke:#000000;" x="301.909091" xlink:href="#m9b39b8bf91" y="320.4"/>
      </g>
     </g>
     <g id="line2d_44">
      <g>
       <use style="stroke:#000000;" x="301.909091" xlink:href="#mb863cfdb0f" y="43.2"/>
      </g>
     </g>
    </g>
    <g id="xtick_23">
     <g id="line2d_45">
      <g>
       <use style="stroke:#000000;" x="312.477273" xlink:href="#m9b39b8bf91" y="320.4"/>
      </g>
     </g>
     <g id="line2d_46">
      <g>
       <use style="stroke:#000000;" x="312.477273" xlink:href="#mb863cfdb0f" y="43.2"/>
      </g>
     </g>
    </g>
    <g id="xtick_24">
     <g id="line2d_47">
      <g>
       <use style="stroke:#000000;" x="333.613636" xlink:href="#m9b39b8bf91" y="320.4"/>
      </g>
     </g>
     <g id="line2d_48">
      <g>
       <use style="stroke:#000000;" x="333.613636" xlink:href="#mb863cfdb0f" y="43.2"/>
      </g>
     </g>
    </g>
    <g id="xtick_25">
     <g id="line2d_49">
      <g>
       <use style="stroke:#000000;" x="344.181818" xlink:href="#m9b39b8bf91" y="320.4"/>
      </g>
     </g>
     <g id="line2d_50">
      <g>
       <use style="stroke:#000000;" x="344.181818" xlink:href="#mb863cfdb0f" y="43.2"/>
      </g>
     </g>
    </g>
    <g id="xtick_26">
     <g id="line2d_51">
      <g>
       <use style="stroke:#000000;" x="354.75" xlink:href="#m9b39b8bf91" y="320.4"/>
      </g>
     </g>
     <g id="line2d_52">
      <g>
       <use style="stroke:#000000;" x="354.75" xlink:href="#mb863cfdb0f" y="43.2"/>
      </g>
     </g>
    </g>
    <g id="xtick_27">
     <g id="line2d_53">
      <g>
       <use style="stroke:#000000;" x="365.318182" xlink:href="#m9b39b8bf91" y="320.4"/>
      </g>
     </g>
     <g id="line2d_54">
      <g>
       <use style="stroke:#000000;" x="365.318182" xlink:href="#mb863cfdb0f" y="43.2"/>
      </g>
     </g>
    </g>
   </g>
   <g id="matplotlib.axis_2">
    <g id="ytick_1">
     <g id="line2d_55">
      <defs>
       <path d="M 0 0 
L -4 0 
" id="mae142fb742" style="stroke:#000000;"/>
      </defs>
      <g>
       <use style="stroke:#000000;" x="99" xlink:href="#mae142fb742" y="290.634788"/>
      </g>
     </g>
     <g id="line2d_56">
      <defs>
       <path d="M 0 0 
L 4 0 
" id="m18e74d2f1f" style="stroke:#000000;"/>
      </defs>
      <g>
       <use style="stroke:#000000;" x="378" xlink:href="#m18e74d2f1f" y="290.634788"/>
      </g>
     </g>
     <g id="text_7">
      <!-- $\mathdefault{10^{7}}$ -->
      <g transform="translate(76.10616 294.220073)scale(0.09996 -0.09996)">
       <defs>
        <path d="M 52.296875 68.75 
L 52.296875 61.078125 
Q 48.921875 57.8125 43.328125 49.703125 
Q 37.75 41.609375 33.453125 32.234375 
Q 29.203125 23.09375 27 15.578125 
Q 25.59375 10.75 23.34375 0 
L 13.625 0 
Q 16.9375 20.015625 28.265625 39.84375 
Q 34.96875 51.46875 42.328125 59.90625 
L 3.65625 59.90625 
L 3.65625 68.75 
z
" id="Helvetica-55"/>
       </defs>
       <use transform="translate(0 0.267188)" xlink:href="#Helvetica-49"/>
       <use transform="translate(55.615234 0.267188)" xlink:href="#Helvetica-48"/>
       <use transform="translate(112.145664 36.875)scale(0.7)" xlink:href="#Helvetica-55"/>
      </g>
     </g>
    </g>
    <g id="ytick_2">
     <g id="line2d_57">
      <g>
       <use style="stroke:#000000;" x="99" xlink:href="#mae142fb742" y="259.017336"/>
      </g>
     </g>
     <g id="line2d_58">
      <g>
       <use style="stroke:#000000;" x="378" xlink:href="#m18e74d2f1f" y="259.017336"/>
      </g>
     </g>
     <g id="text_8">
      <!-- $\mathdefault{10^{22}}$ -->
      <g transform="translate(72.20772 262.60262)scale(0.09996 -0.09996)">
       <use transform="translate(0 0.271875)" xlink:href="#Helvetica-49"/>
       <use transform="translate(55.615234 0.271875)" xlink:href="#Helvetica-48"/>
       <use transform="translate(112.145664 36.879688)scale(0.7)" xlink:href="#Helvetica-50"/>
       <use transform="translate(151.076328 36.879688)scale(0.7)" xlink:href="#Helvetica-50"/>
      </g>
     </g>
    </g>
    <g id="ytick_3">
     <g id="line2d_59">
      <g>
       <use style="stroke:#000000;" x="99" xlink:href="#mae142fb742" y="227.399884"/>
      </g>
     </g>
     <g id="line2d_60">
      <g>
       <use style="stroke:#000000;" x="378" xlink:href="#m18e74d2f1f" y="227.399884"/>
      </g>
     </g>
     <g id="text_9">
      <!-- $\mathdefault{10^{37}}$ -->
      <g transform="translate(72.20772 230.985168)scale(0.09996 -0.09996)">
       <defs>
        <path d="M 25.984375 -1.90625 
Q 13.578125 -1.90625 7.984375 4.90625 
Q 2.390625 11.71875 2.390625 21.484375 
L 11.578125 21.484375 
Q 12.15625 14.703125 14.109375 11.625 
Q 17.53125 6.109375 26.46875 6.109375 
Q 33.40625 6.109375 37.59375 9.8125 
Q 41.796875 13.53125 41.796875 19.390625 
Q 41.796875 26.609375 37.375 29.484375 
Q 32.953125 32.375 25.09375 32.375 
Q 24.21875 32.375 23.3125 32.34375 
Q 22.40625 32.328125 21.484375 32.28125 
L 21.484375 40.046875 
Q 22.859375 39.890625 23.78125 39.84375 
Q 24.703125 39.796875 25.78125 39.796875 
Q 30.71875 39.796875 33.890625 41.359375 
Q 39.453125 44.09375 39.453125 51.125 
Q 39.453125 56.34375 35.734375 59.171875 
Q 32.03125 62.015625 27.09375 62.015625 
Q 18.3125 62.015625 14.9375 56.15625 
Q 13.09375 52.9375 12.84375 46.96875 
L 4.15625 46.96875 
Q 4.15625 54.78125 7.28125 60.25 
Q 12.640625 70.015625 26.171875 70.015625 
Q 36.859375 70.015625 42.71875 65.25 
Q 48.578125 60.5 48.578125 51.46875 
Q 48.578125 45.015625 45.125 41.015625 
Q 42.96875 38.53125 39.546875 37.109375 
Q 45.0625 35.59375 48.15625 31.265625 
Q 51.265625 26.953125 51.265625 20.703125 
Q 51.265625 10.6875 44.671875 4.390625 
Q 38.09375 -1.90625 25.984375 -1.90625 
z
" id="Helvetica-51"/>
       </defs>
       <use transform="translate(0 0.38125)" xlink:href="#Helvetica-49"/>
       <use transform="translate(55.615234 0.38125)" xlink:href="#Helvetica-48"/>
       <use transform="translate(112.145664 36.989063)scale(0.7)" xlink:href="#Helvetica-51"/>
       <use transform="translate(151.076328 36.989063)scale(0.7)" xlink:href="#Helvetica-55"/>
      </g>
     </g>
    </g>
    <g id="ytick_4">
     <g id="line2d_61">
      <g>
       <use style="stroke:#000000;" x="99" xlink:href="#mae142fb742" y="195.782432"/>
      </g>
     </g>
     <g id="line2d_62">
      <g>
       <use style="stroke:#000000;" x="378" xlink:href="#m18e74d2f1f" y="195.782432"/>
      </g>
     </g>
     <g id="text_10">
      <!-- $\mathdefault{10^{52}}$ -->
      <g transform="translate(72.20772 199.367716)scale(0.09996 -0.09996)">
       <use transform="translate(0 0.271875)" xlink:href="#Helvetica-49"/>
       <use transform="translate(55.615234 0.271875)" xlink:href="#Helvetica-48"/>
       <use transform="translate(112.145664 36.879688)scale(0.7)" xlink:href="#Helvetica-53"/>
       <use transform="translate(151.076328 36.879688)scale(0.7)" xlink:href="#Helvetica-50"/>
      </g>
     </g>
    </g>
    <g id="ytick_5">
     <g id="line2d_63">
      <g>
       <use style="stroke:#000000;" x="99" xlink:href="#mae142fb742" y="164.16498"/>
      </g>
     </g>
     <g id="line2d_64">
      <g>
       <use style="stroke:#000000;" x="378" xlink:href="#m18e74d2f1f" y="164.16498"/>
      </g>
     </g>
     <g id="text_11">
      <!-- $\mathdefault{10^{67}}$ -->
      <g transform="translate(72.20772 167.750264)scale(0.09996 -0.09996)">
       <defs>
        <path d="M 29.25 70.21875 
Q 40.96875 70.21875 45.578125 64.140625 
Q 50.203125 58.0625 50.203125 51.609375 
L 41.5 51.609375 
Q 40.71875 55.765625 39.015625 58.109375 
Q 35.84375 62.5 29.390625 62.5 
Q 22.015625 62.5 17.671875 55.6875 
Q 13.328125 48.875 12.84375 36.1875 
Q 15.875 40.625 20.453125 42.828125 
Q 24.65625 44.78125 29.828125 44.78125 
Q 38.625 44.78125 45.15625 39.15625 
Q 51.703125 33.546875 51.703125 22.40625 
Q 51.703125 12.890625 45.5 5.53125 
Q 39.3125 -1.8125 27.828125 -1.8125 
Q 18.015625 -1.8125 10.890625 5.640625 
Q 3.765625 13.09375 3.765625 30.71875 
Q 3.765625 43.75 6.9375 52.828125 
Q 13.03125 70.21875 29.25 70.21875 
z
M 28.609375 6 
Q 35.546875 6 38.984375 10.65625 
Q 42.4375 15.328125 42.4375 21.6875 
Q 42.4375 27.046875 39.359375 31.90625 
Q 36.28125 36.765625 28.171875 36.765625 
Q 22.515625 36.765625 18.234375 33 
Q 13.96875 29.25 13.96875 21.6875 
Q 13.96875 15.046875 17.84375 10.515625 
Q 21.734375 6 28.609375 6 
z
" id="Helvetica-54"/>
       </defs>
       <use transform="translate(0 0.239063)" xlink:href="#Helvetica-49"/>
       <use transform="translate(55.615234 0.239063)" xlink:href="#Helvetica-48"/>
       <use transform="translate(112.145664 36.846875)scale(0.7)" xlink:href="#Helvetica-54"/>
       <use transform="translate(151.076328 36.846875)scale(0.7)" xlink:href="#Helvetica-55"/>
      </g>
     </g>
    </g>
    <g id="ytick_6">
     <g id="line2d_65">
      <g>
       <use style="stroke:#000000;" x="99" xlink:href="#mae142fb742" y="132.547528"/>
      </g>
     </g>
     <g id="line2d_66">
      <g>
       <use style="stroke:#000000;" x="378" xlink:href="#m18e74d2f1f" y="132.547528"/>
      </g>
     </g>
     <g id="text_12">
      <!-- $\mathdefault{10^{82}}$ -->
      <g transform="translate(72.20772 136.132812)scale(0.09996 -0.09996)">
       <defs>
        <path d="M 27.203125 40.625 
Q 33.015625 40.625 36.28125 43.875 
Q 39.546875 47.125 39.546875 51.609375 
Q 39.546875 55.515625 36.421875 58.78125 
Q 33.296875 62.0625 26.90625 62.0625 
Q 20.5625 62.0625 17.71875 58.78125 
Q 14.890625 55.515625 14.890625 51.125 
Q 14.890625 46.1875 18.546875 43.40625 
Q 22.21875 40.625 27.203125 40.625 
z
M 27.734375 6 
Q 33.84375 6 37.859375 9.296875 
Q 41.890625 12.59375 41.890625 19.140625 
Q 41.890625 25.921875 37.734375 29.4375 
Q 33.59375 32.953125 27.09375 32.953125 
Q 20.796875 32.953125 16.8125 29.359375 
Q 12.84375 25.78125 12.84375 19.4375 
Q 12.84375 13.96875 16.484375 9.984375 
Q 20.125 6 27.734375 6 
z
M 15.234375 37.25 
Q 11.578125 38.8125 9.515625 40.921875 
Q 5.671875 44.828125 5.671875 51.078125 
Q 5.671875 58.890625 11.328125 64.5 
Q 17 70.125 27.390625 70.125 
Q 37.453125 70.125 43.15625 64.8125 
Q 48.875 59.515625 48.875 52.4375 
Q 48.875 45.90625 45.5625 41.84375 
Q 43.703125 39.546875 39.796875 37.359375 
Q 44.140625 35.359375 46.625 32.765625 
Q 51.265625 27.875 51.265625 20.0625 
Q 51.265625 10.84375 45.0625 4.421875 
Q 38.875 -2 27.546875 -2 
Q 17.328125 -2 10.265625 3.53125 
Q 3.21875 9.078125 3.21875 19.625 
Q 3.21875 25.828125 6.25 30.34375 
Q 9.28125 34.859375 15.234375 37.25 
z
" id="Helvetica-56"/>
       </defs>
       <use transform="translate(0 0.271875)" xlink:href="#Helvetica-49"/>
       <use transform="translate(55.615234 0.271875)" xlink:href="#Helvetica-48"/>
       <use transform="translate(112.145664 36.879688)scale(0.7)" xlink:href="#Helvetica-56"/>
       <use transform="translate(151.076328 36.879688)scale(0.7)" xlink:href="#Helvetica-50"/>
      </g>
     </g>
    </g>
    <g id="ytick_7">
     <g id="line2d_67">
      <g>
       <use style="stroke:#000000;" x="99" xlink:href="#mae142fb742" y="100.930075"/>
      </g>
     </g>
     <g id="line2d_68">
      <g>
       <use style="stroke:#000000;" x="378" xlink:href="#m18e74d2f1f" y="100.930075"/>
      </g>
     </g>
     <g id="text_13">
      <!-- $\mathdefault{10^{97}}$ -->
      <g transform="translate(72.20772 104.51536)scale(0.09996 -0.09996)">
       <defs>
        <path d="M 13.28125 16.890625 
Q 13.671875 9.625 18.890625 6.84375 
Q 21.578125 5.375 24.953125 5.375 
Q 31.25 5.375 35.6875 10.625 
Q 40.140625 15.875 42 31.9375 
Q 39.0625 27.296875 34.734375 25.40625 
Q 30.421875 23.53125 25.4375 23.53125 
Q 15.328125 23.53125 9.4375 29.828125 
Q 3.5625 36.140625 3.5625 46.046875 
Q 3.5625 55.5625 9.375 62.78125 
Q 15.1875 70.015625 26.515625 70.015625 
Q 41.796875 70.015625 47.609375 56.25 
Q 50.828125 48.6875 50.828125 37.3125 
Q 50.828125 24.46875 46.96875 14.546875 
Q 40.578125 -1.953125 25.296875 -1.953125 
Q 15.046875 -1.953125 9.71875 3.421875 
Q 4.390625 8.796875 4.390625 16.890625 
z
M 26.609375 31.25 
Q 31.84375 31.25 36.15625 34.6875 
Q 40.484375 38.140625 40.484375 46.734375 
Q 40.484375 54.4375 36.59375 58.21875 
Q 32.71875 62.015625 26.703125 62.015625 
Q 20.265625 62.015625 16.484375 57.6875 
Q 12.703125 53.375 12.703125 46.140625 
Q 12.703125 39.3125 16.015625 35.28125 
Q 19.34375 31.25 26.609375 31.25 
z
" id="Helvetica-57"/>
       </defs>
       <use transform="translate(0 0.38125)" xlink:href="#Helvetica-49"/>
       <use transform="translate(55.615234 0.38125)" xlink:href="#Helvetica-48"/>
       <use transform="translate(112.145664 36.989063)scale(0.7)" xlink:href="#Helvetica-57"/>
       <use transform="translate(151.076328 36.989063)scale(0.7)" xlink:href="#Helvetica-55"/>
      </g>
     </g>
    </g>
    <g id="ytick_8">
     <g id="line2d_69">
      <g>
       <use style="stroke:#000000;" x="99" xlink:href="#mae142fb742" y="69.312623"/>
      </g>
     </g>
     <g id="line2d_70">
      <g>
       <use style="stroke:#000000;" x="378" xlink:href="#m18e74d2f1f" y="69.312623"/>
      </g>
     </g>
     <g id="text_14">
      <!-- $\mathdefault{10^{112}}$ -->
      <g transform="translate(68.30928 72.897907)scale(0.09996 -0.09996)">
       <use transform="translate(0 0.271875)" xlink:href="#Helvetica-49"/>
       <use transform="translate(55.615234 0.271875)" xlink:href="#Helvetica-48"/>
       <use transform="translate(112.145664 36.879688)scale(0.7)" xlink:href="#Helvetica-49"/>
       <use transform="translate(151.076328 36.879688)scale(0.7)" xlink:href="#Helvetica-49"/>
       <use transform="translate(190.006992 36.879688)scale(0.7)" xlink:href="#Helvetica-50"/>
      </g>
     </g>
    </g>
   </g>
   <g id="line2d_71">
    <path clip-path="url(#pcc14766a6d)" d="M 111.681818 305.389599 
L 122.25 305.389599 
L 132.818182 305.390336 
L 143.386364 305.390704 
L 153.954545 305.394383 
L 164.522727 305.431291 
L 175.090909 305.810267 
L 185.659091 307.8 
L 196.227273 305.459214 
L 206.795455 305.441953 
L 217.363636 307.61981 
L 227.931818 307.751909 
L 238.5 307.739703 
L 249.068182 307.742749 
L 259.636364 307.74435 
L 270.204545 307.759628 
L 280.772727 307.717946 
L 291.340909 302.150481 
L 301.909091 307.507559 
L 312.477273 282.305624 
L 323.045455 282.311902 
L 333.613636 225.312222 
L 344.181818 223.833808 
L 354.75 59.408179 
L 365.318182 55.8 
" style="fill:none;stroke:#1f77b4;stroke-linecap:square;stroke-width:1.5;"/>
   </g>
   <g id="patch_3">
    <path d="M 99 320.4 
L 99 43.2 
" style="fill:none;stroke:#000000;stroke-linecap:square;stroke-linejoin:miter;"/>
   </g>
   <g id="patch_4">
    <path d="M 378 320.4 
L 378 43.2 
" style="fill:none;stroke:#000000;stroke-linecap:square;stroke-linejoin:miter;"/>
   </g>
   <g id="patch_5">
    <path d="M 99 320.4 
L 378 320.4 
" style="fill:none;stroke:#000000;stroke-linecap:square;stroke-linejoin:miter;"/>
   </g>
   <g id="patch_6">
    <path d="M 99 43.2 
L 378 43.2 
" style="fill:none;stroke:#000000;stroke-linecap:square;stroke-linejoin:miter;"/>
   </g>
   <g id="text_15">
    <!-- Misfit Convergence x4 -->
    <g transform="translate(179.145 37.2)scale(0.12 -0.12)">
     <defs>
      <path d="M 7.375 71.734375 
L 21.296875 71.734375 
L 41.890625 11.078125 
L 62.359375 71.734375 
L 76.125 71.734375 
L 76.125 0 
L 66.890625 0 
L 66.890625 42.328125 
Q 66.890625 44.53125 66.984375 49.609375 
Q 67.09375 54.6875 67.09375 60.5 
L 46.625 0 
L 37.015625 0 
L 16.40625 60.5 
L 16.40625 58.296875 
Q 16.40625 55.671875 16.53125 50.265625 
Q 16.65625 44.875 16.65625 42.328125 
L 16.65625 0 
L 7.375 0 
z
" id="Helvetica-77"/>
      <path d="M 6.453125 52.046875 
L 15.375 52.046875 
L 15.375 0 
L 6.453125 0 
z
M 6.453125 71.734375 
L 15.375 71.734375 
L 15.375 61.765625 
L 6.453125 61.765625 
z
" id="Helvetica-105"/>
      <path d="M 11.671875 16.40625 
Q 12.0625 12.015625 13.875 9.671875 
Q 17.1875 5.421875 25.390625 5.421875 
Q 30.28125 5.421875 33.984375 7.546875 
Q 37.703125 9.671875 37.703125 14.109375 
Q 37.703125 17.484375 34.71875 19.234375 
Q 32.8125 20.3125 27.203125 21.734375 
L 20.21875 23.484375 
Q 13.53125 25.140625 10.359375 27.203125 
Q 4.6875 30.765625 4.6875 37.0625 
Q 4.6875 44.484375 10.03125 49.0625 
Q 15.375 53.65625 24.421875 53.65625 
Q 36.234375 53.65625 41.453125 46.734375 
Q 44.734375 42.328125 44.625 37.25 
L 36.328125 37.25 
Q 36.078125 40.234375 34.234375 42.671875 
Q 31.203125 46.140625 23.734375 46.140625 
Q 18.75 46.140625 16.1875 44.234375 
Q 13.625 42.328125 13.625 39.203125 
Q 13.625 35.796875 17 33.734375 
Q 18.953125 32.515625 22.75 31.59375 
L 28.5625 30.171875 
Q 38.03125 27.875 41.265625 25.734375 
Q 46.390625 22.359375 46.390625 15.140625 
Q 46.390625 8.15625 41.09375 3.078125 
Q 35.796875 -2 24.953125 -2 
Q 13.28125 -2 8.421875 3.296875 
Q 3.5625 8.59375 3.21875 16.40625 
z
M 24.65625 53.5625 
z
" id="Helvetica-115"/>
      <path d="M 8.640625 60.25 
Q 8.84375 65.71875 10.546875 68.265625 
Q 13.625 72.75 22.40625 72.75 
Q 23.25 72.75 24.125 72.703125 
Q 25 72.65625 26.125 72.5625 
L 26.125 64.546875 
Q 24.75 64.65625 24.140625 64.671875 
Q 23.53125 64.703125 23 64.703125 
Q 19 64.703125 18.21875 62.625 
Q 17.4375 60.546875 17.4375 52.046875 
L 26.125 52.046875 
L 26.125 45.125 
L 17.328125 45.125 
L 17.328125 0 
L 8.640625 0 
L 8.640625 45.125 
L 1.375 45.125 
L 1.375 52.046875 
L 8.640625 52.046875 
L 8.640625 60.25 
z
" id="Helvetica-102"/>
      <path d="M 8.203125 66.890625 
L 17.09375 66.890625 
L 17.09375 52.296875 
L 25.4375 52.296875 
L 25.4375 45.125 
L 17.09375 45.125 
L 17.09375 10.984375 
Q 17.09375 8.25 18.953125 7.328125 
Q 19.96875 6.78125 22.359375 6.78125 
Q 23 6.78125 23.734375 6.8125 
Q 24.46875 6.84375 25.4375 6.9375 
L 25.4375 0 
Q 23.921875 -0.4375 22.28125 -0.625 
Q 20.65625 -0.828125 18.75 -0.828125 
Q 12.59375 -0.828125 10.390625 2.3125 
Q 8.203125 5.46875 8.203125 10.5 
L 8.203125 45.125 
L 1.125 45.125 
L 1.125 52.296875 
L 8.203125 52.296875 
z
" id="Helvetica-116"/>
      <path id="Helvetica-32"/>
      <path d="M 37.84375 73.6875 
Q 51.46875 73.6875 58.984375 66.5 
Q 66.5 59.328125 67.328125 50.203125 
L 57.859375 50.203125 
Q 56.25 57.125 51.4375 61.171875 
Q 46.625 65.234375 37.9375 65.234375 
Q 27.34375 65.234375 20.828125 57.78125 
Q 14.3125 50.34375 14.3125 34.96875 
Q 14.3125 22.359375 20.1875 14.515625 
Q 26.078125 6.6875 37.75 6.6875 
Q 48.484375 6.6875 54.109375 14.9375 
Q 57.078125 19.28125 58.546875 26.375 
L 68.015625 26.375 
Q 66.75 15.046875 59.625 7.375 
Q 51.078125 -1.859375 36.578125 -1.859375 
Q 24.078125 -1.859375 15.578125 5.71875 
Q 4.390625 15.71875 4.390625 36.625 
Q 4.390625 52.484375 12.796875 62.640625 
Q 21.875 73.6875 37.84375 73.6875 
z
M 35.890625 73.6875 
z
" id="Helvetica-67"/>
      <path d="M 27.203125 5.671875 
Q 35.9375 5.671875 39.1875 12.28125 
Q 42.4375 18.890625 42.4375 27 
Q 42.4375 34.328125 40.09375 38.921875 
Q 36.375 46.140625 27.296875 46.140625 
Q 19.234375 46.140625 15.578125 39.984375 
Q 11.921875 33.84375 11.921875 25.140625 
Q 11.921875 16.796875 15.578125 11.234375 
Q 19.234375 5.671875 27.203125 5.671875 
z
M 27.546875 53.8125 
Q 37.640625 53.8125 44.625 47.0625 
Q 51.609375 40.328125 51.609375 27.25 
Q 51.609375 14.59375 45.453125 6.34375 
Q 39.3125 -1.90625 26.375 -1.90625 
Q 15.578125 -1.90625 9.21875 5.390625 
Q 2.875 12.703125 2.875 25 
Q 2.875 38.1875 9.5625 46 
Q 16.265625 53.8125 27.546875 53.8125 
z
M 27.25 53.5625 
z
" id="Helvetica-111"/>
      <path d="M 6.453125 52.296875 
L 14.796875 52.296875 
L 14.796875 44.875 
Q 18.5 49.46875 22.65625 51.46875 
Q 26.8125 53.46875 31.890625 53.46875 
Q 43.015625 53.46875 46.921875 45.703125 
Q 49.078125 41.453125 49.078125 33.546875 
L 49.078125 0 
L 40.140625 0 
L 40.140625 32.953125 
Q 40.140625 37.75 38.71875 40.671875 
Q 36.375 45.5625 30.21875 45.5625 
Q 27.09375 45.5625 25.09375 44.921875 
Q 21.484375 43.84375 18.75 40.625 
Q 16.546875 38.03125 15.890625 35.265625 
Q 15.234375 32.515625 15.234375 27.390625 
L 15.234375 0 
L 6.453125 0 
z
M 27.09375 53.5625 
z
" id="Helvetica-110"/>
      <path d="M 10.75 52.296875 
L 24.703125 9.71875 
L 39.3125 52.296875 
L 48.921875 52.296875 
L 29.203125 0 
L 19.828125 0 
L 0.53125 52.296875 
z
" id="Helvetica-118"/>
      <path d="M 28.21875 53.46875 
Q 33.796875 53.46875 39.015625 50.859375 
Q 44.234375 48.25 46.96875 44.09375 
Q 49.609375 40.140625 50.484375 34.859375 
Q 51.265625 31.25 51.265625 23.34375 
L 12.9375 23.34375 
Q 13.1875 15.375 16.703125 10.5625 
Q 20.21875 5.765625 27.59375 5.765625 
Q 34.46875 5.765625 38.578125 10.296875 
Q 40.921875 12.9375 41.890625 16.40625 
L 50.53125 16.40625 
Q 50.203125 13.53125 48.265625 9.984375 
Q 46.34375 6.453125 43.953125 4.203125 
Q 39.9375 0.296875 34.03125 -1.078125 
Q 30.859375 -1.859375 26.859375 -1.859375 
Q 17.09375 -1.859375 10.296875 5.25 
Q 3.515625 12.359375 3.515625 25.140625 
Q 3.515625 37.75 10.34375 45.609375 
Q 17.1875 53.46875 28.21875 53.46875 
z
M 42.234375 30.328125 
Q 41.703125 36.03125 39.75 39.453125 
Q 36.140625 45.796875 27.6875 45.796875 
Q 21.625 45.796875 17.515625 41.421875 
Q 13.421875 37.0625 13.1875 30.328125 
z
M 27.390625 53.5625 
z
" id="Helvetica-101"/>
      <path d="M 6.6875 52.296875 
L 15.046875 52.296875 
L 15.046875 43.265625 
Q 16.0625 45.90625 20.0625 49.6875 
Q 24.078125 53.46875 29.296875 53.46875 
Q 29.546875 53.46875 30.125 53.421875 
Q 30.71875 53.375 32.125 53.21875 
L 32.125 43.953125 
Q 31.34375 44.09375 30.6875 44.140625 
Q 30.03125 44.1875 29.25 44.1875 
Q 22.609375 44.1875 19.046875 39.90625 
Q 15.484375 35.640625 15.484375 30.078125 
L 15.484375 0 
L 6.6875 0 
z
" id="Helvetica-114"/>
      <path d="M 24.90625 53.21875 
Q 31.0625 53.21875 35.640625 50.203125 
Q 38.140625 48.484375 40.71875 45.21875 
L 40.71875 51.8125 
L 48.828125 51.8125 
L 48.828125 4.25 
Q 48.828125 -5.71875 45.90625 -11.46875 
Q 40.4375 -22.125 25.25 -22.125 
Q 16.796875 -22.125 11.03125 -18.328125 
Q 5.28125 -14.546875 4.59375 -6.5 
L 13.53125 -6.5 
Q 14.15625 -10.015625 16.0625 -11.921875 
Q 19.046875 -14.84375 25.4375 -14.84375 
Q 35.546875 -14.84375 38.671875 -7.71875 
Q 40.53125 -3.515625 40.375 7.28125 
Q 37.75 3.265625 34.03125 1.3125 
Q 30.328125 -0.640625 24.21875 -0.640625 
Q 15.71875 -0.640625 9.34375 5.390625 
Q 2.984375 11.421875 2.984375 25.34375 
Q 2.984375 38.484375 9.40625 45.84375 
Q 15.828125 53.21875 24.90625 53.21875 
z
M 40.71875 26.375 
Q 40.71875 36.078125 36.71875 40.765625 
Q 32.71875 45.453125 26.515625 45.453125 
Q 17.234375 45.453125 13.8125 36.765625 
Q 12.015625 32.125 12.015625 24.609375 
Q 12.015625 15.765625 15.59375 11.15625 
Q 19.1875 6.546875 25.25 6.546875 
Q 34.71875 6.546875 38.578125 15.09375 
Q 40.71875 19.921875 40.71875 26.375 
z
M 25.921875 53.5625 
z
" id="Helvetica-103"/>
      <path d="M 26.609375 53.8125 
Q 35.453125 53.8125 40.984375 49.515625 
Q 46.53125 45.21875 47.65625 34.71875 
L 39.109375 34.71875 
Q 38.328125 39.546875 35.546875 42.75 
Q 32.765625 45.953125 26.609375 45.953125 
Q 18.21875 45.953125 14.59375 37.75 
Q 12.25 32.421875 12.25 24.609375 
Q 12.25 16.75 15.5625 11.375 
Q 18.890625 6 26.03125 6 
Q 31.5 6 34.6875 9.34375 
Q 37.890625 12.703125 39.109375 18.5 
L 47.65625 18.5 
Q 46.1875 8.109375 40.328125 3.296875 
Q 34.46875 -1.515625 25.34375 -1.515625 
Q 15.09375 -1.515625 8.984375 5.984375 
Q 2.875 13.484375 2.875 24.703125 
Q 2.875 38.484375 9.5625 46.140625 
Q 16.265625 53.8125 26.609375 53.8125 
z
M 25.25 53.5625 
z
" id="Helvetica-99"/>
      <path d="M 1.46875 52.296875 
L 12.84375 52.296875 
L 24.859375 33.890625 
L 37.015625 52.296875 
L 47.703125 52.046875 
L 30.078125 26.8125 
L 48.484375 0 
L 37.25 0 
L 24.265625 19.625 
L 11.671875 0 
L 0.53125 0 
L 18.953125 26.8125 
z
" id="Helvetica-120"/>
      <path d="M 33.0625 24.75 
L 33.0625 56.453125 
L 10.640625 24.75 
z
M 33.203125 0 
L 33.203125 17.09375 
L 2.546875 17.09375 
L 2.546875 25.6875 
L 34.578125 70.125 
L 42 70.125 
L 42 24.75 
L 52.296875 24.75 
L 52.296875 17.09375 
L 42 17.09375 
L 42 0 
z
" id="Helvetica-52"/>
     </defs>
     <use xlink:href="#Helvetica-77"/>
     <use x="83.300781" xlink:href="#Helvetica-105"/>
     <use x="105.517578" xlink:href="#Helvetica-115"/>
     <use x="155.517578" xlink:href="#Helvetica-102"/>
     <use x="183.300781" xlink:href="#Helvetica-105"/>
     <use x="205.517578" xlink:href="#Helvetica-116"/>
     <use x="233.300781" xlink:href="#Helvetica-32"/>
     <use x="261.083984" xlink:href="#Helvetica-67"/>
     <use x="333.300781" xlink:href="#Helvetica-111"/>
     <use x="388.916016" xlink:href="#Helvetica-110"/>
     <use x="444.53125" xlink:href="#Helvetica-118"/>
     <use x="494.53125" xlink:href="#Helvetica-101"/>
     <use x="550.146484" xlink:href="#Helvetica-114"/>
     <use x="583.447266" xlink:href="#Helvetica-103"/>
     <use x="639.0625" xlink:href="#Helvetica-101"/>
     <use x="694.677734" xlink:href="#Helvetica-110"/>
     <use x="750.292969" xlink:href="#Helvetica-99"/>
     <use x="800.292969" xlink:href="#Helvetica-101"/>
     <use x="855.908203" xlink:href="#Helvetica-32"/>
     <use x="883.691406" xlink:href="#Helvetica-120"/>
     <use x="933.691406" xlink:href="#Helvetica-52"/>
    </g>
   </g>
   <g id="legend_1">
    <g id="patch_7">
     <path d="M 325.898974 315.402 
L 373.002 315.402 
L 373.002 298.023017 
L 325.898974 298.023017 
z
" style="fill:#ffffff;stroke:#000000;stroke-linejoin:miter;"/>
    </g>
    <g id="line2d_72">
     <path d="M 329.897374 305.693385 
L 349.889374 305.693385 
" style="fill:none;stroke:#1f77b4;stroke-linecap:square;stroke-width:1.5;"/>
    </g>
    <g id="line2d_73"/>
    <g id="text_16">
     <!-- gn -->
     <g transform="translate(357.886174 309.191985)scale(0.09996 -0.09996)">
      <use xlink:href="#Helvetica-103"/>
      <use x="55.615234" xlink:href="#Helvetica-110"/>
     </g>
    </g>
   </g>
  </g>
  <g id="axes_2">
   <g id="patch_8">
    <path d="M 433.8 320.4 
L 712.8 320.4 
L 712.8 43.2 
L 433.8 43.2 
z
" style="fill:#ffffff;"/>
   </g>
   <g id="matplotlib.axis_3">
    <g id="xtick_28">
     <g id="line2d_74">
      <g>
       <use style="stroke:#000000;" x="456.734189" xlink:href="#m612fc3fd3f" y="320.4"/>
      </g>
     </g>
     <g id="line2d_75">
      <g>
       <use style="stroke:#000000;" x="456.734189" xlink:href="#m889d2f8002" y="43.2"/>
      </g>
     </g>
     <g id="text_17">
      <!-- -1.2 -->
      <g transform="translate(448.122791 335.070568)scale(0.09996 -0.09996)">
       <defs>
        <path d="M 4.15625 32.375 
L 28.65625 32.375 
L 28.65625 23.34375 
L 4.15625 23.34375 
z
" id="Helvetica-45"/>
        <path d="M 8.546875 10.640625 
L 18.75 10.640625 
L 18.75 0 
L 8.546875 0 
z
" id="Helvetica-46"/>
       </defs>
       <use xlink:href="#Helvetica-45"/>
       <use x="33.300781" xlink:href="#Helvetica-49"/>
       <use x="88.916016" xlink:href="#Helvetica-46"/>
       <use x="116.699219" xlink:href="#Helvetica-50"/>
      </g>
     </g>
    </g>
    <g id="xtick_29">
     <g id="line2d_76">
      <g>
       <use style="stroke:#000000;" x="497.298187" xlink:href="#m612fc3fd3f" y="320.4"/>
      </g>
     </g>
     <g id="line2d_77">
      <g>
       <use style="stroke:#000000;" x="497.298187" xlink:href="#m889d2f8002" y="43.2"/>
      </g>
     </g>
     <g id="text_18">
      <!-- -1.0 -->
      <g transform="translate(488.68679 335.070568)scale(0.09996 -0.09996)">
       <use xlink:href="#Helvetica-45"/>
       <use x="33.300781" xlink:href="#Helvetica-49"/>
       <use x="88.916016" xlink:href="#Helvetica-46"/>
       <use x="116.699219" xlink:href="#Helvetica-48"/>
      </g>
     </g>
    </g>
    <g id="xtick_30">
     <g id="line2d_78">
      <g>
       <use style="stroke:#000000;" x="537.862186" xlink:href="#m612fc3fd3f" y="320.4"/>
      </g>
     </g>
     <g id="line2d_79">
      <g>
       <use style="stroke:#000000;" x="537.862186" xlink:href="#m889d2f8002" y="43.2"/>
      </g>
     </g>
     <g id="text_19">
      <!-- -0.8 -->
      <g transform="translate(529.250789 335.070568)scale(0.09996 -0.09996)">
       <use xlink:href="#Helvetica-45"/>
       <use x="33.300781" xlink:href="#Helvetica-48"/>
       <use x="88.916016" xlink:href="#Helvetica-46"/>
       <use x="116.699219" xlink:href="#Helvetica-56"/>
      </g>
     </g>
    </g>
    <g id="xtick_31">
     <g id="line2d_80">
      <g>
       <use style="stroke:#000000;" x="578.426185" xlink:href="#m612fc3fd3f" y="320.4"/>
      </g>
     </g>
     <g id="line2d_81">
      <g>
       <use style="stroke:#000000;" x="578.426185" xlink:href="#m889d2f8002" y="43.2"/>
      </g>
     </g>
     <g id="text_20">
      <!-- -0.6 -->
      <g transform="translate(569.814787 335.070568)scale(0.09996 -0.09996)">
       <use xlink:href="#Helvetica-45"/>
       <use x="33.300781" xlink:href="#Helvetica-48"/>
       <use x="88.916016" xlink:href="#Helvetica-46"/>
       <use x="116.699219" xlink:href="#Helvetica-54"/>
      </g>
     </g>
    </g>
    <g id="xtick_32">
     <g id="line2d_82">
      <g>
       <use style="stroke:#000000;" x="618.990184" xlink:href="#m612fc3fd3f" y="320.4"/>
      </g>
     </g>
     <g id="line2d_83">
      <g>
       <use style="stroke:#000000;" x="618.990184" xlink:href="#m889d2f8002" y="43.2"/>
      </g>
     </g>
     <g id="text_21">
      <!-- -0.4 -->
      <g transform="translate(610.378786 335.070568)scale(0.09996 -0.09996)">
       <use xlink:href="#Helvetica-45"/>
       <use x="33.300781" xlink:href="#Helvetica-48"/>
       <use x="88.916016" xlink:href="#Helvetica-46"/>
       <use x="116.699219" xlink:href="#Helvetica-52"/>
      </g>
     </g>
    </g>
    <g id="xtick_33">
     <g id="line2d_84">
      <g>
       <use style="stroke:#000000;" x="659.554183" xlink:href="#m612fc3fd3f" y="320.4"/>
      </g>
     </g>
     <g id="line2d_85">
      <g>
       <use style="stroke:#000000;" x="659.554183" xlink:href="#m889d2f8002" y="43.2"/>
      </g>
     </g>
     <g id="text_22">
      <!-- -0.2 -->
      <g transform="translate(650.942785 335.070568)scale(0.09996 -0.09996)">
       <use xlink:href="#Helvetica-45"/>
       <use x="33.300781" xlink:href="#Helvetica-48"/>
       <use x="88.916016" xlink:href="#Helvetica-46"/>
       <use x="116.699219" xlink:href="#Helvetica-50"/>
      </g>
     </g>
    </g>
    <g id="xtick_34">
     <g id="line2d_86">
      <g>
       <use style="stroke:#000000;" x="700.118182" xlink:href="#m612fc3fd3f" y="320.4"/>
      </g>
     </g>
     <g id="line2d_87">
      <g>
       <use style="stroke:#000000;" x="700.118182" xlink:href="#m889d2f8002" y="43.2"/>
      </g>
     </g>
     <g id="text_23">
      <!-- 0.0 -->
      <g transform="translate(693.170962 335.070568)scale(0.09996 -0.09996)">
       <use xlink:href="#Helvetica-48"/>
       <use x="55.615234" xlink:href="#Helvetica-46"/>
       <use x="83.398438" xlink:href="#Helvetica-48"/>
      </g>
     </g>
    </g>
    <g id="xtick_35">
     <g id="line2d_88">
      <g>
       <use style="stroke:#000000;" x="436.452189" xlink:href="#m9b39b8bf91" y="320.4"/>
      </g>
     </g>
     <g id="line2d_89">
      <g>
       <use style="stroke:#000000;" x="436.452189" xlink:href="#mb863cfdb0f" y="43.2"/>
      </g>
     </g>
    </g>
    <g id="xtick_36">
     <g id="line2d_90">
      <g>
       <use style="stroke:#000000;" x="446.593189" xlink:href="#m9b39b8bf91" y="320.4"/>
      </g>
     </g>
     <g id="line2d_91">
      <g>
       <use style="stroke:#000000;" x="446.593189" xlink:href="#mb863cfdb0f" y="43.2"/>
      </g>
     </g>
    </g>
    <g id="xtick_37">
     <g id="line2d_92">
      <g>
       <use style="stroke:#000000;" x="466.875188" xlink:href="#m9b39b8bf91" y="320.4"/>
      </g>
     </g>
     <g id="line2d_93">
      <g>
       <use style="stroke:#000000;" x="466.875188" xlink:href="#mb863cfdb0f" y="43.2"/>
      </g>
     </g>
    </g>
    <g id="xtick_38">
     <g id="line2d_94">
      <g>
       <use style="stroke:#000000;" x="477.016188" xlink:href="#m9b39b8bf91" y="320.4"/>
      </g>
     </g>
     <g id="line2d_95">
      <g>
       <use style="stroke:#000000;" x="477.016188" xlink:href="#mb863cfdb0f" y="43.2"/>
      </g>
     </g>
    </g>
    <g id="xtick_39">
     <g id="line2d_96">
      <g>
       <use style="stroke:#000000;" x="487.157188" xlink:href="#m9b39b8bf91" y="320.4"/>
      </g>
     </g>
     <g id="line2d_97">
      <g>
       <use style="stroke:#000000;" x="487.157188" xlink:href="#mb863cfdb0f" y="43.2"/>
      </g>
     </g>
    </g>
    <g id="xtick_40">
     <g id="line2d_98">
      <g>
       <use style="stroke:#000000;" x="507.439187" xlink:href="#m9b39b8bf91" y="320.4"/>
      </g>
     </g>
     <g id="line2d_99">
      <g>
       <use style="stroke:#000000;" x="507.439187" xlink:href="#mb863cfdb0f" y="43.2"/>
      </g>
     </g>
    </g>
    <g id="xtick_41">
     <g id="line2d_100">
      <g>
       <use style="stroke:#000000;" x="517.580187" xlink:href="#m9b39b8bf91" y="320.4"/>
      </g>
     </g>
     <g id="line2d_101">
      <g>
       <use style="stroke:#000000;" x="517.580187" xlink:href="#mb863cfdb0f" y="43.2"/>
      </g>
     </g>
    </g>
    <g id="xtick_42">
     <g id="line2d_102">
      <g>
       <use style="stroke:#000000;" x="527.721187" xlink:href="#m9b39b8bf91" y="320.4"/>
      </g>
     </g>
     <g id="line2d_103">
      <g>
       <use style="stroke:#000000;" x="527.721187" xlink:href="#mb863cfdb0f" y="43.2"/>
      </g>
     </g>
    </g>
    <g id="xtick_43">
     <g id="line2d_104">
      <g>
       <use style="stroke:#000000;" x="548.003186" xlink:href="#m9b39b8bf91" y="320.4"/>
      </g>
     </g>
     <g id="line2d_105">
      <g>
       <use style="stroke:#000000;" x="548.003186" xlink:href="#mb863cfdb0f" y="43.2"/>
      </g>
     </g>
    </g>
    <g id="xtick_44">
     <g id="line2d_106">
      <g>
       <use style="stroke:#000000;" x="558.144186" xlink:href="#m9b39b8bf91" y="320.4"/>
      </g>
     </g>
     <g id="line2d_107">
      <g>
       <use style="stroke:#000000;" x="558.144186" xlink:href="#mb863cfdb0f" y="43.2"/>
      </g>
     </g>
    </g>
    <g id="xtick_45">
     <g id="line2d_108">
      <g>
       <use style="stroke:#000000;" x="568.285185" xlink:href="#m9b39b8bf91" y="320.4"/>
      </g>
     </g>
     <g id="line2d_109">
      <g>
       <use style="stroke:#000000;" x="568.285185" xlink:href="#mb863cfdb0f" y="43.2"/>
      </g>
     </g>
    </g>
    <g id="xtick_46">
     <g id="line2d_110">
      <g>
       <use style="stroke:#000000;" x="588.567185" xlink:href="#m9b39b8bf91" y="320.4"/>
      </g>
     </g>
     <g id="line2d_111">
      <g>
       <use style="stroke:#000000;" x="588.567185" xlink:href="#mb863cfdb0f" y="43.2"/>
      </g>
     </g>
    </g>
    <g id="xtick_47">
     <g id="line2d_112">
      <g>
       <use style="stroke:#000000;" x="598.708185" xlink:href="#m9b39b8bf91" y="320.4"/>
      </g>
     </g>
     <g id="line2d_113">
      <g>
       <use style="stroke:#000000;" x="598.708185" xlink:href="#mb863cfdb0f" y="43.2"/>
      </g>
     </g>
    </g>
    <g id="xtick_48">
     <g id="line2d_114">
      <g>
       <use style="stroke:#000000;" x="608.849184" xlink:href="#m9b39b8bf91" y="320.4"/>
      </g>
     </g>
     <g id="line2d_115">
      <g>
       <use style="stroke:#000000;" x="608.849184" xlink:href="#mb863cfdb0f" y="43.2"/>
      </g>
     </g>
    </g>
    <g id="xtick_49">
     <g id="line2d_116">
      <g>
       <use style="stroke:#000000;" x="629.131184" xlink:href="#m9b39b8bf91" y="320.4"/>
      </g>
     </g>
     <g id="line2d_117">
      <g>
       <use style="stroke:#000000;" x="629.131184" xlink:href="#mb863cfdb0f" y="43.2"/>
      </g>
     </g>
    </g>
    <g id="xtick_50">
     <g id="line2d_118">
      <g>
       <use style="stroke:#000000;" x="639.272184" xlink:href="#m9b39b8bf91" y="320.4"/>
      </g>
     </g>
     <g id="line2d_119">
      <g>
       <use style="stroke:#000000;" x="639.272184" xlink:href="#mb863cfdb0f" y="43.2"/>
      </g>
     </g>
    </g>
    <g id="xtick_51">
     <g id="line2d_120">
      <g>
       <use style="stroke:#000000;" x="649.413183" xlink:href="#m9b39b8bf91" y="320.4"/>
      </g>
     </g>
     <g id="line2d_121">
      <g>
       <use style="stroke:#000000;" x="649.413183" xlink:href="#mb863cfdb0f" y="43.2"/>
      </g>
     </g>
    </g>
    <g id="xtick_52">
     <g id="line2d_122">
      <g>
       <use style="stroke:#000000;" x="669.695183" xlink:href="#m9b39b8bf91" y="320.4"/>
      </g>
     </g>
     <g id="line2d_123">
      <g>
       <use style="stroke:#000000;" x="669.695183" xlink:href="#mb863cfdb0f" y="43.2"/>
      </g>
     </g>
    </g>
    <g id="xtick_53">
     <g id="line2d_124">
      <g>
       <use style="stroke:#000000;" x="679.836182" xlink:href="#m9b39b8bf91" y="320.4"/>
      </g>
     </g>
     <g id="line2d_125">
      <g>
       <use style="stroke:#000000;" x="679.836182" xlink:href="#mb863cfdb0f" y="43.2"/>
      </g>
     </g>
    </g>
    <g id="xtick_54">
     <g id="line2d_126">
      <g>
       <use style="stroke:#000000;" x="689.977182" xlink:href="#m9b39b8bf91" y="320.4"/>
      </g>
     </g>
     <g id="line2d_127">
      <g>
       <use style="stroke:#000000;" x="689.977182" xlink:href="#mb863cfdb0f" y="43.2"/>
      </g>
     </g>
    </g>
    <g id="xtick_55">
     <g id="line2d_128">
      <g>
       <use style="stroke:#000000;" x="710.259182" xlink:href="#m9b39b8bf91" y="320.4"/>
      </g>
     </g>
     <g id="line2d_129">
      <g>
       <use style="stroke:#000000;" x="710.259182" xlink:href="#mb863cfdb0f" y="43.2"/>
      </g>
     </g>
    </g>
    <g id="text_24">
     <!-- 1e30 -->
     <g transform="translate(690.565147 347.324678)scale(0.09996 -0.09996)">
      <use xlink:href="#Helvetica-49"/>
      <use x="55.615234" xlink:href="#Helvetica-101"/>
      <use x="111.230469" xlink:href="#Helvetica-51"/>
      <use x="166.845703" xlink:href="#Helvetica-48"/>
     </g>
    </g>
   </g>
   <g id="matplotlib.axis_4">
    <g id="ytick_9">
     <g id="line2d_130">
      <g>
       <use style="stroke:#000000;" x="433.8" xlink:href="#mae142fb742" y="307.8"/>
      </g>
     </g>
     <g id="line2d_131">
      <g>
       <use style="stroke:#000000;" x="712.8" xlink:href="#m18e74d2f1f" y="307.8"/>
      </g>
     </g>
     <g id="text_25">
      <!-- 0.0 -->
      <g transform="translate(412.40556 311.385284)scale(0.09996 -0.09996)">
       <use xlink:href="#Helvetica-48"/>
       <use x="55.615234" xlink:href="#Helvetica-46"/>
       <use x="83.398438" xlink:href="#Helvetica-48"/>
      </g>
     </g>
    </g>
    <g id="ytick_10">
     <g id="line2d_132">
      <g>
       <use style="stroke:#000000;" x="433.8" xlink:href="#mae142fb742" y="256.280987"/>
      </g>
     </g>
     <g id="line2d_133">
      <g>
       <use style="stroke:#000000;" x="712.8" xlink:href="#m18e74d2f1f" y="256.280987"/>
      </g>
     </g>
     <g id="text_26">
      <!-- 0.5 -->
      <g transform="translate(412.40556 259.866271)scale(0.09996 -0.09996)">
       <use xlink:href="#Helvetica-48"/>
       <use x="55.615234" xlink:href="#Helvetica-46"/>
       <use x="83.398438" xlink:href="#Helvetica-53"/>
      </g>
     </g>
    </g>
    <g id="ytick_11">
     <g id="line2d_134">
      <g>
       <use style="stroke:#000000;" x="433.8" xlink:href="#mae142fb742" y="204.761973"/>
      </g>
     </g>
     <g id="line2d_135">
      <g>
       <use style="stroke:#000000;" x="712.8" xlink:href="#m18e74d2f1f" y="204.761973"/>
      </g>
     </g>
     <g id="text_27">
      <!-- 1.0 -->
      <g transform="translate(412.40556 208.347257)scale(0.09996 -0.09996)">
       <use xlink:href="#Helvetica-49"/>
       <use x="55.615234" xlink:href="#Helvetica-46"/>
       <use x="83.398438" xlink:href="#Helvetica-48"/>
      </g>
     </g>
    </g>
    <g id="ytick_12">
     <g id="line2d_136">
      <g>
       <use style="stroke:#000000;" x="433.8" xlink:href="#mae142fb742" y="153.24296"/>
      </g>
     </g>
     <g id="line2d_137">
      <g>
       <use style="stroke:#000000;" x="712.8" xlink:href="#m18e74d2f1f" y="153.24296"/>
      </g>
     </g>
     <g id="text_28">
      <!-- 1.5 -->
      <g transform="translate(412.40556 156.828244)scale(0.09996 -0.09996)">
       <use xlink:href="#Helvetica-49"/>
       <use x="55.615234" xlink:href="#Helvetica-46"/>
       <use x="83.398438" xlink:href="#Helvetica-53"/>
      </g>
     </g>
    </g>
    <g id="ytick_13">
     <g id="line2d_138">
      <g>
       <use style="stroke:#000000;" x="433.8" xlink:href="#mae142fb742" y="101.723946"/>
      </g>
     </g>
     <g id="line2d_139">
      <g>
       <use style="stroke:#000000;" x="712.8" xlink:href="#m18e74d2f1f" y="101.723946"/>
      </g>
     </g>
     <g id="text_29">
      <!-- 2.0 -->
      <g transform="translate(412.40556 105.30923)scale(0.09996 -0.09996)">
       <use xlink:href="#Helvetica-50"/>
       <use x="55.615234" xlink:href="#Helvetica-46"/>
       <use x="83.398438" xlink:href="#Helvetica-48"/>
      </g>
     </g>
    </g>
    <g id="ytick_14">
     <g id="line2d_140">
      <g>
       <use style="stroke:#000000;" x="433.8" xlink:href="#mae142fb742" y="50.204933"/>
      </g>
     </g>
     <g id="line2d_141">
      <g>
       <use style="stroke:#000000;" x="712.8" xlink:href="#m18e74d2f1f" y="50.204933"/>
      </g>
     </g>
     <g id="text_30">
      <!-- 2.5 -->
      <g transform="translate(412.40556 53.790217)scale(0.09996 -0.09996)">
       <use xlink:href="#Helvetica-50"/>
       <use x="55.615234" xlink:href="#Helvetica-46"/>
       <use x="83.398438" xlink:href="#Helvetica-53"/>
      </g>
     </g>
    </g>
    <g id="ytick_15">
     <g id="line2d_142">
      <defs>
       <path d="M 0 0 
L -2 0 
" id="mca268129c4" style="stroke:#000000;"/>
      </defs>
      <g>
       <use style="stroke:#000000;" x="433.8" xlink:href="#mca268129c4" y="318.103803"/>
      </g>
     </g>
     <g id="line2d_143">
      <defs>
       <path d="M 0 0 
L 2 0 
" id="md1576da19e" style="stroke:#000000;"/>
      </defs>
      <g>
       <use style="stroke:#000000;" x="712.8" xlink:href="#md1576da19e" y="318.103803"/>
      </g>
     </g>
    </g>
    <g id="ytick_16">
     <g id="line2d_144">
      <g>
       <use style="stroke:#000000;" x="433.8" xlink:href="#mca268129c4" y="297.496197"/>
      </g>
     </g>
     <g id="line2d_145">
      <g>
       <use style="stroke:#000000;" x="712.8" xlink:href="#md1576da19e" y="297.496197"/>
      </g>
     </g>
    </g>
    <g id="ytick_17">
     <g id="line2d_146">
      <g>
       <use style="stroke:#000000;" x="433.8" xlink:href="#mca268129c4" y="287.192395"/>
      </g>
     </g>
     <g id="line2d_147">
      <g>
       <use style="stroke:#000000;" x="712.8" xlink:href="#md1576da19e" y="287.192395"/>
      </g>
     </g>
    </g>
    <g id="ytick_18">
     <g id="line2d_148">
      <g>
       <use style="stroke:#000000;" x="433.8" xlink:href="#mca268129c4" y="276.888592"/>
      </g>
     </g>
     <g id="line2d_149">
      <g>
       <use style="stroke:#000000;" x="712.8" xlink:href="#md1576da19e" y="276.888592"/>
      </g>
     </g>
    </g>
    <g id="ytick_19">
     <g id="line2d_150">
      <g>
       <use style="stroke:#000000;" x="433.8" xlink:href="#mca268129c4" y="266.584789"/>
      </g>
     </g>
     <g id="line2d_151">
      <g>
       <use style="stroke:#000000;" x="712.8" xlink:href="#md1576da19e" y="266.584789"/>
      </g>
     </g>
    </g>
    <g id="ytick_20">
     <g id="line2d_152">
      <g>
       <use style="stroke:#000000;" x="433.8" xlink:href="#mca268129c4" y="245.977184"/>
      </g>
     </g>
     <g id="line2d_153">
      <g>
       <use style="stroke:#000000;" x="712.8" xlink:href="#md1576da19e" y="245.977184"/>
      </g>
     </g>
    </g>
    <g id="ytick_21">
     <g id="line2d_154">
      <g>
       <use style="stroke:#000000;" x="433.8" xlink:href="#mca268129c4" y="235.673381"/>
      </g>
     </g>
     <g id="line2d_155">
      <g>
       <use style="stroke:#000000;" x="712.8" xlink:href="#md1576da19e" y="235.673381"/>
      </g>
     </g>
    </g>
    <g id="ytick_22">
     <g id="line2d_156">
      <g>
       <use style="stroke:#000000;" x="433.8" xlink:href="#mca268129c4" y="225.369579"/>
      </g>
     </g>
     <g id="line2d_157">
      <g>
       <use style="stroke:#000000;" x="712.8" xlink:href="#md1576da19e" y="225.369579"/>
      </g>
     </g>
    </g>
    <g id="ytick_23">
     <g id="line2d_158">
      <g>
       <use style="stroke:#000000;" x="433.8" xlink:href="#mca268129c4" y="215.065776"/>
      </g>
     </g>
     <g id="line2d_159">
      <g>
       <use style="stroke:#000000;" x="712.8" xlink:href="#md1576da19e" y="215.065776"/>
      </g>
     </g>
    </g>
    <g id="ytick_24">
     <g id="line2d_160">
      <g>
       <use style="stroke:#000000;" x="433.8" xlink:href="#mca268129c4" y="194.45817"/>
      </g>
     </g>
     <g id="line2d_161">
      <g>
       <use style="stroke:#000000;" x="712.8" xlink:href="#md1576da19e" y="194.45817"/>
      </g>
     </g>
    </g>
    <g id="ytick_25">
     <g id="line2d_162">
      <g>
       <use style="stroke:#000000;" x="433.8" xlink:href="#mca268129c4" y="184.154368"/>
      </g>
     </g>
     <g id="line2d_163">
      <g>
       <use style="stroke:#000000;" x="712.8" xlink:href="#md1576da19e" y="184.154368"/>
      </g>
     </g>
    </g>
    <g id="ytick_26">
     <g id="line2d_164">
      <g>
       <use style="stroke:#000000;" x="433.8" xlink:href="#mca268129c4" y="173.850565"/>
      </g>
     </g>
     <g id="line2d_165">
      <g>
       <use style="stroke:#000000;" x="712.8" xlink:href="#md1576da19e" y="173.850565"/>
      </g>
     </g>
    </g>
    <g id="ytick_27">
     <g id="line2d_166">
      <g>
       <use style="stroke:#000000;" x="433.8" xlink:href="#mca268129c4" y="163.546762"/>
      </g>
     </g>
     <g id="line2d_167">
      <g>
       <use style="stroke:#000000;" x="712.8" xlink:href="#md1576da19e" y="163.546762"/>
      </g>
     </g>
    </g>
    <g id="ytick_28">
     <g id="line2d_168">
      <g>
       <use style="stroke:#000000;" x="433.8" xlink:href="#mca268129c4" y="142.939157"/>
      </g>
     </g>
     <g id="line2d_169">
      <g>
       <use style="stroke:#000000;" x="712.8" xlink:href="#md1576da19e" y="142.939157"/>
      </g>
     </g>
    </g>
    <g id="ytick_29">
     <g id="line2d_170">
      <g>
       <use style="stroke:#000000;" x="433.8" xlink:href="#mca268129c4" y="132.635354"/>
      </g>
     </g>
     <g id="line2d_171">
      <g>
       <use style="stroke:#000000;" x="712.8" xlink:href="#md1576da19e" y="132.635354"/>
      </g>
     </g>
    </g>
    <g id="ytick_30">
     <g id="line2d_172">
      <g>
       <use style="stroke:#000000;" x="433.8" xlink:href="#mca268129c4" y="122.331552"/>
      </g>
     </g>
     <g id="line2d_173">
      <g>
       <use style="stroke:#000000;" x="712.8" xlink:href="#md1576da19e" y="122.331552"/>
      </g>
     </g>
    </g>
    <g id="ytick_31">
     <g id="line2d_174">
      <g>
       <use style="stroke:#000000;" x="433.8" xlink:href="#mca268129c4" y="112.027749"/>
      </g>
     </g>
     <g id="line2d_175">
      <g>
       <use style="stroke:#000000;" x="712.8" xlink:href="#md1576da19e" y="112.027749"/>
      </g>
     </g>
    </g>
    <g id="ytick_32">
     <g id="line2d_176">
      <g>
       <use style="stroke:#000000;" x="433.8" xlink:href="#mca268129c4" y="91.420144"/>
      </g>
     </g>
     <g id="line2d_177">
      <g>
       <use style="stroke:#000000;" x="712.8" xlink:href="#md1576da19e" y="91.420144"/>
      </g>
     </g>
    </g>
    <g id="ytick_33">
     <g id="line2d_178">
      <g>
       <use style="stroke:#000000;" x="433.8" xlink:href="#mca268129c4" y="81.116341"/>
      </g>
     </g>
     <g id="line2d_179">
      <g>
       <use style="stroke:#000000;" x="712.8" xlink:href="#md1576da19e" y="81.116341"/>
      </g>
     </g>
    </g>
    <g id="ytick_34">
     <g id="line2d_180">
      <g>
       <use style="stroke:#000000;" x="433.8" xlink:href="#mca268129c4" y="70.812538"/>
      </g>
     </g>
     <g id="line2d_181">
      <g>
       <use style="stroke:#000000;" x="712.8" xlink:href="#md1576da19e" y="70.812538"/>
      </g>
     </g>
    </g>
    <g id="ytick_35">
     <g id="line2d_182">
      <g>
       <use style="stroke:#000000;" x="433.8" xlink:href="#mca268129c4" y="60.508736"/>
      </g>
     </g>
     <g id="line2d_183">
      <g>
       <use style="stroke:#000000;" x="712.8" xlink:href="#md1576da19e" y="60.508736"/>
      </g>
     </g>
    </g>
    <g id="text_31">
     <!-- 1e120 -->
     <g transform="translate(433.8 40.2)scale(0.09996 -0.09996)">
      <use xlink:href="#Helvetica-49"/>
      <use x="55.615234" xlink:href="#Helvetica-101"/>
      <use x="111.230469" xlink:href="#Helvetica-49"/>
      <use x="166.845703" xlink:href="#Helvetica-50"/>
      <use x="222.460938" xlink:href="#Helvetica-48"/>
     </g>
    </g>
   </g>
   <g id="line2d_184">
    <path clip-path="url(#p6b6ac3c564)" d="M 700.118182 307.8 
L 700.118182 307.8 
L 700.118182 307.8 
L 700.118182 307.8 
L 700.118182 307.8 
L 700.118182 307.8 
L 700.118182 307.8 
L 700.118182 307.8 
L 700.118182 307.8 
L 700.118182 307.8 
L 700.118182 307.8 
L 700.118182 307.8 
L 700.118182 307.8 
L 700.118182 307.8 
L 700.118182 307.8 
L 700.118182 307.8 
L 700.118182 307.8 
L 700.118182 307.8 
L 700.118182 307.8 
L 700.118182 307.8 
L 700.118182 307.8 
L 700.118182 307.8 
L 605.437349 302.90669 
L 446.481818 55.8 
" style="fill:none;stroke:#1f77b4;stroke-linecap:square;stroke-width:1.5;"/>
   </g>
   <g id="line2d_185">
    <path clip-path="url(#p6b6ac3c564)" d="M 700.118182 307.8 
L 700.118182 307.8 
" style="fill:none;stroke:#ff7f0e;stroke-linecap:square;stroke-width:1.5;"/>
   </g>
   <g id="patch_9">
    <path d="M 433.8 320.4 
L 433.8 43.2 
" style="fill:none;stroke:#000000;stroke-linecap:square;stroke-linejoin:miter;"/>
   </g>
   <g id="patch_10">
    <path d="M 712.8 320.4 
L 712.8 43.2 
" style="fill:none;stroke:#000000;stroke-linecap:square;stroke-linejoin:miter;"/>
   </g>
   <g id="patch_11">
    <path d="M 433.8 320.4 
L 712.8 320.4 
" style="fill:none;stroke:#000000;stroke-linecap:square;stroke-linejoin:miter;"/>
   </g>
   <g id="patch_12">
    <path d="M 433.8 43.2 
L 712.8 43.2 
" style="fill:none;stroke:#000000;stroke-linecap:square;stroke-linejoin:miter;"/>
   </g>
   <g id="text_32">
    <!-- Model Movement -->
    <g transform="translate(527.28375 37.2)scale(0.12 -0.12)">
     <defs>
      <path d="M 12.015625 25.53125 
Q 12.015625 17.140625 15.578125 11.46875 
Q 19.140625 5.8125 27 5.8125 
Q 33.109375 5.8125 37.03125 11.0625 
Q 40.96875 16.3125 40.96875 26.125 
Q 40.96875 36.03125 36.90625 40.796875 
Q 32.859375 45.5625 26.90625 45.5625 
Q 20.265625 45.5625 16.140625 40.484375 
Q 12.015625 35.40625 12.015625 25.53125 
z
M 25.25 53.21875 
Q 31.25 53.21875 35.296875 50.6875 
Q 37.640625 49.21875 40.625 45.5625 
L 40.625 71.96875 
L 49.078125 71.96875 
L 49.078125 0 
L 41.15625 0 
L 41.15625 7.28125 
Q 38.09375 2.4375 33.890625 0.28125 
Q 29.6875 -1.859375 24.265625 -1.859375 
Q 15.53125 -1.859375 9.125 5.484375 
Q 2.734375 12.84375 2.734375 25.046875 
Q 2.734375 36.46875 8.5625 44.84375 
Q 14.40625 53.21875 25.25 53.21875 
z
" id="Helvetica-100"/>
      <path d="M 6.6875 71.734375 
L 15.484375 71.734375 
L 15.484375 0 
L 6.6875 0 
z
" id="Helvetica-108"/>
      <path d="M 6.453125 52.296875 
L 15.140625 52.296875 
L 15.140625 44.875 
Q 18.265625 48.734375 20.796875 50.484375 
Q 25.140625 53.46875 30.671875 53.46875 
Q 36.921875 53.46875 40.71875 50.390625 
Q 42.875 48.640625 44.625 45.21875 
Q 47.5625 49.421875 51.515625 51.4375 
Q 55.46875 53.46875 60.40625 53.46875 
Q 70.953125 53.46875 74.75 45.84375 
Q 76.8125 41.75 76.8125 34.8125 
L 76.8125 0 
L 67.671875 0 
L 67.671875 36.328125 
Q 67.671875 41.546875 65.0625 43.5 
Q 62.453125 45.453125 58.6875 45.453125 
Q 53.515625 45.453125 49.78125 41.984375 
Q 46.046875 38.53125 46.046875 30.421875 
L 46.046875 0 
L 37.109375 0 
L 37.109375 34.125 
Q 37.109375 39.453125 35.84375 41.890625 
Q 33.84375 45.5625 28.375 45.5625 
Q 23.390625 45.5625 19.3125 41.703125 
Q 15.234375 37.84375 15.234375 27.734375 
L 15.234375 0 
L 6.453125 0 
z
" id="Helvetica-109"/>
     </defs>
     <use xlink:href="#Helvetica-77"/>
     <use x="83.300781" xlink:href="#Helvetica-111"/>
     <use x="138.916016" xlink:href="#Helvetica-100"/>
     <use x="194.53125" xlink:href="#Helvetica-101"/>
     <use x="250.146484" xlink:href="#Helvetica-108"/>
     <use x="272.363281" xlink:href="#Helvetica-32"/>
     <use x="300.146484" xlink:href="#Helvetica-77"/>
     <use x="383.447266" xlink:href="#Helvetica-111"/>
     <use x="439.0625" xlink:href="#Helvetica-118"/>
     <use x="489.0625" xlink:href="#Helvetica-101"/>
     <use x="544.677734" xlink:href="#Helvetica-109"/>
     <use x="627.978516" xlink:href="#Helvetica-101"/>
     <use x="683.59375" xlink:href="#Helvetica-110"/>
     <use x="739.208984" xlink:href="#Helvetica-116"/>
    </g>
   </g>
   <g id="legend_2">
    <g id="patch_13">
     <path d="M 576.95436 81.070783 
L 707.802 81.070783 
L 707.802 48.198 
L 576.95436 48.198 
z
" style="fill:#ffffff;stroke:#000000;stroke-linejoin:miter;"/>
    </g>
    <g id="line2d_186">
     <path d="M 580.95276 55.868368 
L 600.94476 55.868368 
" style="fill:none;stroke:#1f77b4;stroke-linecap:square;stroke-width:1.5;"/>
    </g>
    <g id="line2d_187"/>
    <g id="text_33">
     <!-- gn -->
     <g transform="translate(608.94156 59.366968)scale(0.09996 -0.09996)">
      <use xlink:href="#Helvetica-103"/>
      <use x="55.615234" xlink:href="#Helvetica-110"/>
     </g>
    </g>
    <g id="line2d_188">
     <path d="M 580.95276 71.490242 
L 600.94476 71.490242 
" style="fill:none;stroke:#ff7f0e;stroke-linecap:square;stroke-width:1.5;"/>
    </g>
    <g id="line2d_189"/>
    <g id="text_34">
     <!-- $f(x) = x^4 - 4x^2 -2x$ -->
     <g transform="translate(608.94156 74.988842)scale(0.09996 -0.09996)">
      <defs>
       <path d="M 47.796875 75.984375 
L 46.390625 68.5 
L 37.796875 68.5 
Q 32.90625 68.5 30.6875 66.578125 
Q 28.46875 64.65625 27.390625 59.515625 
L 26.421875 54.6875 
L 41.21875 54.6875 
L 39.890625 47.703125 
L 25.09375 47.703125 
L 15.828125 0 
L 6.78125 0 
L 16.109375 47.703125 
L 7.515625 47.703125 
L 8.796875 54.6875 
L 17.390625 54.6875 
L 18.109375 58.5 
Q 19.96875 68.171875 24.625 72.078125 
Q 29.296875 75.984375 39.3125 75.984375 
z
" id="DejaVuSans-Oblique-102"/>
       <path d="M 31 75.875 
Q 24.46875 64.65625 21.28125 53.65625 
Q 18.109375 42.671875 18.109375 31.390625 
Q 18.109375 20.125 21.3125 9.0625 
Q 24.515625 -2 31 -13.1875 
L 23.1875 -13.1875 
Q 15.875 -1.703125 12.234375 9.375 
Q 8.59375 20.453125 8.59375 31.390625 
Q 8.59375 42.28125 12.203125 53.3125 
Q 15.828125 64.359375 23.1875 75.875 
z
" id="DejaVuSans-40"/>
       <path d="M 60.015625 54.6875 
L 34.90625 27.875 
L 50.296875 0 
L 39.984375 0 
L 28.421875 21.6875 
L 8.296875 0 
L -2.59375 0 
L 24.3125 28.8125 
L 10.015625 54.6875 
L 20.3125 54.6875 
L 30.8125 34.90625 
L 49.125 54.6875 
z
" id="DejaVuSans-Oblique-120"/>
       <path d="M 8.015625 75.875 
L 15.828125 75.875 
Q 23.140625 64.359375 26.78125 53.3125 
Q 30.421875 42.28125 30.421875 31.390625 
Q 30.421875 20.453125 26.78125 9.375 
Q 23.140625 -1.703125 15.828125 -13.1875 
L 8.015625 -13.1875 
Q 14.5 -2 17.703125 9.0625 
Q 20.90625 20.125 20.90625 31.390625 
Q 20.90625 42.671875 17.703125 53.65625 
Q 14.5 64.65625 8.015625 75.875 
z
" id="DejaVuSans-41"/>
       <path d="M 10.59375 45.40625 
L 73.1875 45.40625 
L 73.1875 37.203125 
L 10.59375 37.203125 
z
M 10.59375 25.484375 
L 73.1875 25.484375 
L 73.1875 17.1875 
L 10.59375 17.1875 
z
" id="DejaVuSans-61"/>
       <path d="M 37.796875 64.3125 
L 12.890625 25.390625 
L 37.796875 25.390625 
z
M 35.203125 72.90625 
L 47.609375 72.90625 
L 47.609375 25.390625 
L 58.015625 25.390625 
L 58.015625 17.1875 
L 47.609375 17.1875 
L 47.609375 0 
L 37.796875 0 
L 37.796875 17.1875 
L 4.890625 17.1875 
L 4.890625 26.703125 
z
" id="DejaVuSans-52"/>
       <path d="M 10.59375 35.5 
L 73.1875 35.5 
L 73.1875 27.203125 
L 10.59375 27.203125 
z
" id="DejaVuSans-8722"/>
       <path d="M 19.1875 8.296875 
L 53.609375 8.296875 
L 53.609375 0 
L 7.328125 0 
L 7.328125 8.296875 
Q 12.9375 14.109375 22.625 23.890625 
Q 32.328125 33.6875 34.8125 36.53125 
Q 39.546875 41.84375 41.421875 45.53125 
Q 43.3125 49.21875 43.3125 52.78125 
Q 43.3125 58.59375 39.234375 62.25 
Q 35.15625 65.921875 28.609375 65.921875 
Q 23.96875 65.921875 18.8125 64.3125 
Q 13.671875 62.703125 7.8125 59.421875 
L 7.8125 69.390625 
Q 13.765625 71.78125 18.9375 73 
Q 24.125 74.21875 28.421875 74.21875 
Q 39.75 74.21875 46.484375 68.546875 
Q 53.21875 62.890625 53.21875 53.421875 
Q 53.21875 48.921875 51.53125 44.890625 
Q 49.859375 40.875 45.40625 35.40625 
Q 44.1875 33.984375 37.640625 27.21875 
Q 31.109375 20.453125 19.1875 8.296875 
z
" id="DejaVuSans-50"/>
      </defs>
      <use transform="translate(0 0.765625)" xlink:href="#DejaVuSans-Oblique-102"/>
      <use transform="translate(35.205078 0.765625)" xlink:href="#DejaVuSans-40"/>
      <use transform="translate(74.21875 0.765625)" xlink:href="#DejaVuSans-Oblique-120"/>
      <use transform="translate(133.398438 0.765625)" xlink:href="#DejaVuSans-41"/>
      <use transform="translate(191.894531 0.765625)" xlink:href="#DejaVuSans-61"/>
      <use transform="translate(295.166016 0.765625)" xlink:href="#DejaVuSans-Oblique-120"/>
      <use transform="translate(358.811849 39.046875)scale(0.7)" xlink:href="#DejaVuSans-52"/>
      <use transform="translate(425.564779 0.765625)" xlink:href="#DejaVuSans-8722"/>
      <use transform="translate(528.836263 0.765625)" xlink:href="#DejaVuSans-52"/>
      <use transform="translate(592.45931 0.765625)" xlink:href="#DejaVuSans-Oblique-120"/>
      <use transform="translate(656.105143 39.046875)scale(0.7)" xlink:href="#DejaVuSans-50"/>
      <use transform="translate(722.858073 0.765625)" xlink:href="#DejaVuSans-8722"/>
      <use transform="translate(826.129557 0.765625)" xlink:href="#DejaVuSans-50"/>
      <use transform="translate(889.752604 0.765625)" xlink:href="#DejaVuSans-Oblique-120"/>
     </g>
    </g>
   </g>
  </g>
 </g>
 <defs>
  <clipPath id="pcc14766a6d">
   <rect height="277.2" width="279" x="99" y="43.2"/>
  </clipPath>
  <clipPath id="p6b6ac3c564">
   <rect height="277.2" width="279" x="433.8" y="43.2"/>
  </clipPath>
 </defs>
</svg>
