<?xml version="1.0" encoding="utf-8" standalone="no"?>
<!DOCTYPE svg PUBLIC "-//W3C//DTD SVG 1.1//EN"
  "http://www.w3.org/Graphics/SVG/1.1/DTD/svg11.dtd">
<!-- Created with matplotlib (https://matplotlib.org/) -->
<svg height="360pt" version="1.1" viewBox="0 0 792 360" width="792pt" xmlns="http://www.w3.org/2000/svg" xmlns:xlink="http://www.w3.org/1999/xlink">
 <metadata>
  <rdf:RDF xmlns:cc="http://creativecommons.org/ns#" xmlns:dc="http://purl.org/dc/elements/1.1/" xmlns:rdf="http://www.w3.org/1999/02/22-rdf-syntax-ns#">
   <cc:Work>
    <dc:type rdf:resource="http://purl.org/dc/dcmitype/StillImage"/>
    <dc:date>2020-10-26T20:24:03.250607</dc:date>
    <dc:format>image/svg+xml</dc:format>
    <dc:creator>
     <cc:Agent>
      <dc:title>Matplotlib v3.3.2, https://matplotlib.org/</dc:title>
     </cc:Agent>
    </dc:creator>
   </cc:Work>
  </rdf:RDF>
 </metadata>
 <defs>
  <style type="text/css">*{stroke-linecap:butt;stroke-linejoin:round;}</style>
 </defs>
 <g id="figure_1">
  <g id="patch_1">
   <path d="M 0 360 
L 792 360 
L 792 0 
L 0 0 
z
" style="fill:#ffffff;"/>
  </g>
  <g id="axes_1">
   <g id="patch_2">
    <path d="M 99 320.4 
L 378 320.4 
L 378 43.2 
L 99 43.2 
z
" style="fill:#ffffff;"/>
   </g>
   <g id="matplotlib.axis_1">
    <g id="xtick_1">
     <g id="line2d_1">
      <path clip-path="url(#p8057aa9360)" d="M 111.681818 320.4 
L 111.681818 43.2 
" style="fill:none;stroke:#d3d3d3;stroke-linecap:square;stroke-width:0.8;"/>
     </g>
     <g id="line2d_2">
      <defs>
       <path d="M 0 4 
L 0 -4 
" id="me82d8093d5" style="stroke:#000000;"/>
      </defs>
      <g>
       <use style="stroke:#000000;" x="111.681818" xlink:href="#me82d8093d5" y="320.4"/>
      </g>
     </g>
     <g id="line2d_3">
      <g>
       <use style="stroke:#000000;" x="111.681818" xlink:href="#me82d8093d5" y="43.2"/>
      </g>
     </g>
     <g id="text_1">
      <!-- 0 -->
      <g transform="translate(108.500568 335.498438)scale(0.1 -0.1)">
       <defs>
        <path d="M 31.78125 66.40625 
Q 24.171875 66.40625 20.328125 58.90625 
Q 16.5 51.421875 16.5 36.375 
Q 16.5 21.390625 20.328125 13.890625 
Q 24.171875 6.390625 31.78125 6.390625 
Q 39.453125 6.390625 43.28125 13.890625 
Q 47.125 21.390625 47.125 36.375 
Q 47.125 51.421875 43.28125 58.90625 
Q 39.453125 66.40625 31.78125 66.40625 
z
M 31.78125 74.21875 
Q 44.046875 74.21875 50.515625 64.515625 
Q 56.984375 54.828125 56.984375 36.375 
Q 56.984375 17.96875 50.515625 8.265625 
Q 44.046875 -1.421875 31.78125 -1.421875 
Q 19.53125 -1.421875 13.0625 8.265625 
Q 6.59375 17.96875 6.59375 36.375 
Q 6.59375 54.828125 13.0625 64.515625 
Q 19.53125 74.21875 31.78125 74.21875 
z
" id="DejaVuSans-48"/>
       </defs>
       <use xlink:href="#DejaVuSans-48"/>
      </g>
     </g>
    </g>
    <g id="xtick_2">
     <g id="line2d_4">
      <path clip-path="url(#p8057aa9360)" d="M 162.409091 320.4 
L 162.409091 43.2 
" style="fill:none;stroke:#d3d3d3;stroke-linecap:square;stroke-width:0.8;"/>
     </g>
     <g id="line2d_5">
      <g>
       <use style="stroke:#000000;" x="162.409091" xlink:href="#me82d8093d5" y="320.4"/>
      </g>
     </g>
     <g id="line2d_6">
      <g>
       <use style="stroke:#000000;" x="162.409091" xlink:href="#me82d8093d5" y="43.2"/>
      </g>
     </g>
     <g id="text_2">
      <!-- 10 -->
      <g transform="translate(156.046591 335.498438)scale(0.1 -0.1)">
       <defs>
        <path d="M 12.40625 8.296875 
L 28.515625 8.296875 
L 28.515625 63.921875 
L 10.984375 60.40625 
L 10.984375 69.390625 
L 28.421875 72.90625 
L 38.28125 72.90625 
L 38.28125 8.296875 
L 54.390625 8.296875 
L 54.390625 0 
L 12.40625 0 
z
" id="DejaVuSans-49"/>
       </defs>
       <use xlink:href="#DejaVuSans-49"/>
       <use x="63.623047" xlink:href="#DejaVuSans-48"/>
      </g>
     </g>
    </g>
    <g id="xtick_3">
     <g id="line2d_7">
      <path clip-path="url(#p8057aa9360)" d="M 213.136364 320.4 
L 213.136364 43.2 
" style="fill:none;stroke:#d3d3d3;stroke-linecap:square;stroke-width:0.8;"/>
     </g>
     <g id="line2d_8">
      <g>
       <use style="stroke:#000000;" x="213.136364" xlink:href="#me82d8093d5" y="320.4"/>
      </g>
     </g>
     <g id="line2d_9">
      <g>
       <use style="stroke:#000000;" x="213.136364" xlink:href="#me82d8093d5" y="43.2"/>
      </g>
     </g>
     <g id="text_3">
      <!-- 20 -->
      <g transform="translate(206.773864 335.498438)scale(0.1 -0.1)">
       <defs>
        <path d="M 19.1875 8.296875 
L 53.609375 8.296875 
L 53.609375 0 
L 7.328125 0 
L 7.328125 8.296875 
Q 12.9375 14.109375 22.625 23.890625 
Q 32.328125 33.6875 34.8125 36.53125 
Q 39.546875 41.84375 41.421875 45.53125 
Q 43.3125 49.21875 43.3125 52.78125 
Q 43.3125 58.59375 39.234375 62.25 
Q 35.15625 65.921875 28.609375 65.921875 
Q 23.96875 65.921875 18.8125 64.3125 
Q 13.671875 62.703125 7.8125 59.421875 
L 7.8125 69.390625 
Q 13.765625 71.78125 18.9375 73 
Q 24.125 74.21875 28.421875 74.21875 
Q 39.75 74.21875 46.484375 68.546875 
Q 53.21875 62.890625 53.21875 53.421875 
Q 53.21875 48.921875 51.53125 44.890625 
Q 49.859375 40.875 45.40625 35.40625 
Q 44.1875 33.984375 37.640625 27.21875 
Q 31.109375 20.453125 19.1875 8.296875 
z
" id="DejaVuSans-50"/>
       </defs>
       <use xlink:href="#DejaVuSans-50"/>
       <use x="63.623047" xlink:href="#DejaVuSans-48"/>
      </g>
     </g>
    </g>
    <g id="xtick_4">
     <g id="line2d_10">
      <path clip-path="url(#p8057aa9360)" d="M 263.863636 320.4 
L 263.863636 43.2 
" style="fill:none;stroke:#d3d3d3;stroke-linecap:square;stroke-width:0.8;"/>
     </g>
     <g id="line2d_11">
      <g>
       <use style="stroke:#000000;" x="263.863636" xlink:href="#me82d8093d5" y="320.4"/>
      </g>
     </g>
     <g id="line2d_12">
      <g>
       <use style="stroke:#000000;" x="263.863636" xlink:href="#me82d8093d5" y="43.2"/>
      </g>
     </g>
     <g id="text_4">
      <!-- 30 -->
      <g transform="translate(257.501136 335.498438)scale(0.1 -0.1)">
       <defs>
        <path d="M 40.578125 39.3125 
Q 47.65625 37.796875 51.625 33 
Q 55.609375 28.21875 55.609375 21.1875 
Q 55.609375 10.40625 48.1875 4.484375 
Q 40.765625 -1.421875 27.09375 -1.421875 
Q 22.515625 -1.421875 17.65625 -0.515625 
Q 12.796875 0.390625 7.625 2.203125 
L 7.625 11.71875 
Q 11.71875 9.328125 16.59375 8.109375 
Q 21.484375 6.890625 26.8125 6.890625 
Q 36.078125 6.890625 40.9375 10.546875 
Q 45.796875 14.203125 45.796875 21.1875 
Q 45.796875 27.640625 41.28125 31.265625 
Q 36.765625 34.90625 28.71875 34.90625 
L 20.21875 34.90625 
L 20.21875 43.015625 
L 29.109375 43.015625 
Q 36.375 43.015625 40.234375 45.921875 
Q 44.09375 48.828125 44.09375 54.296875 
Q 44.09375 59.90625 40.109375 62.90625 
Q 36.140625 65.921875 28.71875 65.921875 
Q 24.65625 65.921875 20.015625 65.03125 
Q 15.375 64.15625 9.8125 62.3125 
L 9.8125 71.09375 
Q 15.4375 72.65625 20.34375 73.4375 
Q 25.25 74.21875 29.59375 74.21875 
Q 40.828125 74.21875 47.359375 69.109375 
Q 53.90625 64.015625 53.90625 55.328125 
Q 53.90625 49.265625 50.4375 45.09375 
Q 46.96875 40.921875 40.578125 39.3125 
z
" id="DejaVuSans-51"/>
       </defs>
       <use xlink:href="#DejaVuSans-51"/>
       <use x="63.623047" xlink:href="#DejaVuSans-48"/>
      </g>
     </g>
    </g>
    <g id="xtick_5">
     <g id="line2d_13">
      <path clip-path="url(#p8057aa9360)" d="M 314.590909 320.4 
L 314.590909 43.2 
" style="fill:none;stroke:#d3d3d3;stroke-linecap:square;stroke-width:0.8;"/>
     </g>
     <g id="line2d_14">
      <g>
       <use style="stroke:#000000;" x="314.590909" xlink:href="#me82d8093d5" y="320.4"/>
      </g>
     </g>
     <g id="line2d_15">
      <g>
       <use style="stroke:#000000;" x="314.590909" xlink:href="#me82d8093d5" y="43.2"/>
      </g>
     </g>
     <g id="text_5">
      <!-- 40 -->
      <g transform="translate(308.228409 335.498438)scale(0.1 -0.1)">
       <defs>
        <path d="M 37.796875 64.3125 
L 12.890625 25.390625 
L 37.796875 25.390625 
z
M 35.203125 72.90625 
L 47.609375 72.90625 
L 47.609375 25.390625 
L 58.015625 25.390625 
L 58.015625 17.1875 
L 47.609375 17.1875 
L 47.609375 0 
L 37.796875 0 
L 37.796875 17.1875 
L 4.890625 17.1875 
L 4.890625 26.703125 
z
" id="DejaVuSans-52"/>
       </defs>
       <use xlink:href="#DejaVuSans-52"/>
       <use x="63.623047" xlink:href="#DejaVuSans-48"/>
      </g>
     </g>
    </g>
    <g id="xtick_6">
     <g id="line2d_16">
      <path clip-path="url(#p8057aa9360)" d="M 365.318182 320.4 
L 365.318182 43.2 
" style="fill:none;stroke:#d3d3d3;stroke-linecap:square;stroke-width:0.8;"/>
     </g>
     <g id="line2d_17">
      <g>
       <use style="stroke:#000000;" x="365.318182" xlink:href="#me82d8093d5" y="320.4"/>
      </g>
     </g>
     <g id="line2d_18">
      <g>
       <use style="stroke:#000000;" x="365.318182" xlink:href="#me82d8093d5" y="43.2"/>
      </g>
     </g>
     <g id="text_6">
      <!-- 50 -->
      <g transform="translate(358.955682 335.498438)scale(0.1 -0.1)">
       <defs>
        <path d="M 10.796875 72.90625 
L 49.515625 72.90625 
L 49.515625 64.59375 
L 19.828125 64.59375 
L 19.828125 46.734375 
Q 21.96875 47.46875 24.109375 47.828125 
Q 26.265625 48.1875 28.421875 48.1875 
Q 40.625 48.1875 47.75 41.5 
Q 54.890625 34.8125 54.890625 23.390625 
Q 54.890625 11.625 47.5625 5.09375 
Q 40.234375 -1.421875 26.90625 -1.421875 
Q 22.3125 -1.421875 17.546875 -0.640625 
Q 12.796875 0.140625 7.71875 1.703125 
L 7.71875 11.625 
Q 12.109375 9.234375 16.796875 8.0625 
Q 21.484375 6.890625 26.703125 6.890625 
Q 35.15625 6.890625 40.078125 11.328125 
Q 45.015625 15.765625 45.015625 23.390625 
Q 45.015625 31 40.078125 35.4375 
Q 35.15625 39.890625 26.703125 39.890625 
Q 22.75 39.890625 18.8125 39.015625 
Q 14.890625 38.140625 10.796875 36.28125 
z
" id="DejaVuSans-53"/>
       </defs>
       <use xlink:href="#DejaVuSans-53"/>
       <use x="63.623047" xlink:href="#DejaVuSans-48"/>
      </g>
     </g>
    </g>
    <g id="xtick_7">
     <g id="line2d_19">
      <defs>
       <path d="M 0 2 
L 0 -2 
" id="mf6ba6cdf37" style="stroke:#000000;"/>
      </defs>
      <g>
       <use style="stroke:#000000;" x="101.536364" xlink:href="#mf6ba6cdf37" y="320.4"/>
      </g>
     </g>
     <g id="line2d_20">
      <g>
       <use style="stroke:#000000;" x="101.536364" xlink:href="#mf6ba6cdf37" y="43.2"/>
      </g>
     </g>
    </g>
    <g id="xtick_8">
     <g id="line2d_21">
      <g>
       <use style="stroke:#000000;" x="121.827273" xlink:href="#mf6ba6cdf37" y="320.4"/>
      </g>
     </g>
     <g id="line2d_22">
      <g>
       <use style="stroke:#000000;" x="121.827273" xlink:href="#mf6ba6cdf37" y="43.2"/>
      </g>
     </g>
    </g>
    <g id="xtick_9">
     <g id="line2d_23">
      <g>
       <use style="stroke:#000000;" x="131.972727" xlink:href="#mf6ba6cdf37" y="320.4"/>
      </g>
     </g>
     <g id="line2d_24">
      <g>
       <use style="stroke:#000000;" x="131.972727" xlink:href="#mf6ba6cdf37" y="43.2"/>
      </g>
     </g>
    </g>
    <g id="xtick_10">
     <g id="line2d_25">
      <g>
       <use style="stroke:#000000;" x="142.118182" xlink:href="#mf6ba6cdf37" y="320.4"/>
      </g>
     </g>
     <g id="line2d_26">
      <g>
       <use style="stroke:#000000;" x="142.118182" xlink:href="#mf6ba6cdf37" y="43.2"/>
      </g>
     </g>
    </g>
    <g id="xtick_11">
     <g id="line2d_27">
      <g>
       <use style="stroke:#000000;" x="152.263636" xlink:href="#mf6ba6cdf37" y="320.4"/>
      </g>
     </g>
     <g id="line2d_28">
      <g>
       <use style="stroke:#000000;" x="152.263636" xlink:href="#mf6ba6cdf37" y="43.2"/>
      </g>
     </g>
    </g>
    <g id="xtick_12">
     <g id="line2d_29">
      <g>
       <use style="stroke:#000000;" x="172.554545" xlink:href="#mf6ba6cdf37" y="320.4"/>
      </g>
     </g>
     <g id="line2d_30">
      <g>
       <use style="stroke:#000000;" x="172.554545" xlink:href="#mf6ba6cdf37" y="43.2"/>
      </g>
     </g>
    </g>
    <g id="xtick_13">
     <g id="line2d_31">
      <g>
       <use style="stroke:#000000;" x="182.7" xlink:href="#mf6ba6cdf37" y="320.4"/>
      </g>
     </g>
     <g id="line2d_32">
      <g>
       <use style="stroke:#000000;" x="182.7" xlink:href="#mf6ba6cdf37" y="43.2"/>
      </g>
     </g>
    </g>
    <g id="xtick_14">
     <g id="line2d_33">
      <g>
       <use style="stroke:#000000;" x="192.845455" xlink:href="#mf6ba6cdf37" y="320.4"/>
      </g>
     </g>
     <g id="line2d_34">
      <g>
       <use style="stroke:#000000;" x="192.845455" xlink:href="#mf6ba6cdf37" y="43.2"/>
      </g>
     </g>
    </g>
    <g id="xtick_15">
     <g id="line2d_35">
      <g>
       <use style="stroke:#000000;" x="202.990909" xlink:href="#mf6ba6cdf37" y="320.4"/>
      </g>
     </g>
     <g id="line2d_36">
      <g>
       <use style="stroke:#000000;" x="202.990909" xlink:href="#mf6ba6cdf37" y="43.2"/>
      </g>
     </g>
    </g>
    <g id="xtick_16">
     <g id="line2d_37">
      <g>
       <use style="stroke:#000000;" x="223.281818" xlink:href="#mf6ba6cdf37" y="320.4"/>
      </g>
     </g>
     <g id="line2d_38">
      <g>
       <use style="stroke:#000000;" x="223.281818" xlink:href="#mf6ba6cdf37" y="43.2"/>
      </g>
     </g>
    </g>
    <g id="xtick_17">
     <g id="line2d_39">
      <g>
       <use style="stroke:#000000;" x="233.427273" xlink:href="#mf6ba6cdf37" y="320.4"/>
      </g>
     </g>
     <g id="line2d_40">
      <g>
       <use style="stroke:#000000;" x="233.427273" xlink:href="#mf6ba6cdf37" y="43.2"/>
      </g>
     </g>
    </g>
    <g id="xtick_18">
     <g id="line2d_41">
      <g>
       <use style="stroke:#000000;" x="243.572727" xlink:href="#mf6ba6cdf37" y="320.4"/>
      </g>
     </g>
     <g id="line2d_42">
      <g>
       <use style="stroke:#000000;" x="243.572727" xlink:href="#mf6ba6cdf37" y="43.2"/>
      </g>
     </g>
    </g>
    <g id="xtick_19">
     <g id="line2d_43">
      <g>
       <use style="stroke:#000000;" x="253.718182" xlink:href="#mf6ba6cdf37" y="320.4"/>
      </g>
     </g>
     <g id="line2d_44">
      <g>
       <use style="stroke:#000000;" x="253.718182" xlink:href="#mf6ba6cdf37" y="43.2"/>
      </g>
     </g>
    </g>
    <g id="xtick_20">
     <g id="line2d_45">
      <g>
       <use style="stroke:#000000;" x="274.009091" xlink:href="#mf6ba6cdf37" y="320.4"/>
      </g>
     </g>
     <g id="line2d_46">
      <g>
       <use style="stroke:#000000;" x="274.009091" xlink:href="#mf6ba6cdf37" y="43.2"/>
      </g>
     </g>
    </g>
    <g id="xtick_21">
     <g id="line2d_47">
      <g>
       <use style="stroke:#000000;" x="284.154545" xlink:href="#mf6ba6cdf37" y="320.4"/>
      </g>
     </g>
     <g id="line2d_48">
      <g>
       <use style="stroke:#000000;" x="284.154545" xlink:href="#mf6ba6cdf37" y="43.2"/>
      </g>
     </g>
    </g>
    <g id="xtick_22">
     <g id="line2d_49">
      <g>
       <use style="stroke:#000000;" x="294.3" xlink:href="#mf6ba6cdf37" y="320.4"/>
      </g>
     </g>
     <g id="line2d_50">
      <g>
       <use style="stroke:#000000;" x="294.3" xlink:href="#mf6ba6cdf37" y="43.2"/>
      </g>
     </g>
    </g>
    <g id="xtick_23">
     <g id="line2d_51">
      <g>
       <use style="stroke:#000000;" x="304.445455" xlink:href="#mf6ba6cdf37" y="320.4"/>
      </g>
     </g>
     <g id="line2d_52">
      <g>
       <use style="stroke:#000000;" x="304.445455" xlink:href="#mf6ba6cdf37" y="43.2"/>
      </g>
     </g>
    </g>
    <g id="xtick_24">
     <g id="line2d_53">
      <g>
       <use style="stroke:#000000;" x="324.736364" xlink:href="#mf6ba6cdf37" y="320.4"/>
      </g>
     </g>
     <g id="line2d_54">
      <g>
       <use style="stroke:#000000;" x="324.736364" xlink:href="#mf6ba6cdf37" y="43.2"/>
      </g>
     </g>
    </g>
    <g id="xtick_25">
     <g id="line2d_55">
      <g>
       <use style="stroke:#000000;" x="334.881818" xlink:href="#mf6ba6cdf37" y="320.4"/>
      </g>
     </g>
     <g id="line2d_56">
      <g>
       <use style="stroke:#000000;" x="334.881818" xlink:href="#mf6ba6cdf37" y="43.2"/>
      </g>
     </g>
    </g>
    <g id="xtick_26">
     <g id="line2d_57">
      <g>
       <use style="stroke:#000000;" x="345.027273" xlink:href="#mf6ba6cdf37" y="320.4"/>
      </g>
     </g>
     <g id="line2d_58">
      <g>
       <use style="stroke:#000000;" x="345.027273" xlink:href="#mf6ba6cdf37" y="43.2"/>
      </g>
     </g>
    </g>
    <g id="xtick_27">
     <g id="line2d_59">
      <g>
       <use style="stroke:#000000;" x="355.172727" xlink:href="#mf6ba6cdf37" y="320.4"/>
      </g>
     </g>
     <g id="line2d_60">
      <g>
       <use style="stroke:#000000;" x="355.172727" xlink:href="#mf6ba6cdf37" y="43.2"/>
      </g>
     </g>
    </g>
    <g id="xtick_28">
     <g id="line2d_61">
      <g>
       <use style="stroke:#000000;" x="375.463636" xlink:href="#mf6ba6cdf37" y="320.4"/>
      </g>
     </g>
     <g id="line2d_62">
      <g>
       <use style="stroke:#000000;" x="375.463636" xlink:href="#mf6ba6cdf37" y="43.2"/>
      </g>
     </g>
    </g>
   </g>
   <g id="matplotlib.axis_2">
    <g id="ytick_1">
     <g id="line2d_63">
      <path clip-path="url(#p8057aa9360)" d="M 99 283.70807 
L 378 283.70807 
" style="fill:none;stroke:#d3d3d3;stroke-linecap:square;stroke-width:0.8;"/>
     </g>
     <g id="line2d_64">
      <defs>
       <path d="M 4 0 
L -4 -0 
" id="m8e69c1ed73" style="stroke:#000000;"/>
      </defs>
      <g>
       <use style="stroke:#000000;" x="99" xlink:href="#m8e69c1ed73" y="283.70807"/>
      </g>
     </g>
     <g id="line2d_65">
      <g>
       <use style="stroke:#000000;" x="378" xlink:href="#m8e69c1ed73" y="283.70807"/>
      </g>
     </g>
     <g id="text_7">
      <!-- $\mathdefault{10^{-1}}$ -->
      <g transform="translate(68 287.507289)scale(0.1 -0.1)">
       <defs>
        <path d="M 10.59375 35.5 
L 73.1875 35.5 
L 73.1875 27.203125 
L 10.59375 27.203125 
z
" id="DejaVuSans-8722"/>
       </defs>
       <use transform="translate(0 0.684375)" xlink:href="#DejaVuSans-49"/>
       <use transform="translate(63.623047 0.684375)" xlink:href="#DejaVuSans-48"/>
       <use transform="translate(128.203125 38.965625)scale(0.7)" xlink:href="#DejaVuSans-8722"/>
       <use transform="translate(186.855469 38.965625)scale(0.7)" xlink:href="#DejaVuSans-49"/>
      </g>
     </g>
    </g>
    <g id="ytick_2">
     <g id="line2d_66">
      <path clip-path="url(#p8057aa9360)" d="M 99 117.110602 
L 378 117.110602 
" style="fill:none;stroke:#d3d3d3;stroke-linecap:square;stroke-width:0.8;"/>
     </g>
     <g id="line2d_67">
      <g>
       <use style="stroke:#000000;" x="99" xlink:href="#m8e69c1ed73" y="117.110602"/>
      </g>
     </g>
     <g id="line2d_68">
      <g>
       <use style="stroke:#000000;" x="378" xlink:href="#m8e69c1ed73" y="117.110602"/>
      </g>
     </g>
     <g id="text_8">
      <!-- $\mathdefault{10^{0}}$ -->
      <g transform="translate(73.9 120.909821)scale(0.1 -0.1)">
       <use transform="translate(0 0.765625)" xlink:href="#DejaVuSans-49"/>
       <use transform="translate(63.623047 0.765625)" xlink:href="#DejaVuSans-48"/>
       <use transform="translate(128.203125 39.046875)scale(0.7)" xlink:href="#DejaVuSans-48"/>
      </g>
     </g>
    </g>
    <g id="ytick_3">
     <g id="line2d_69">
      <defs>
       <path d="M 2 0 
L -2 -0 
" id="m60479983a4" style="stroke:#000000;"/>
      </defs>
      <g>
       <use style="stroke:#000000;" x="99" xlink:href="#m60479983a4" y="309.514345"/>
      </g>
     </g>
     <g id="line2d_70">
      <g>
       <use style="stroke:#000000;" x="378" xlink:href="#m60479983a4" y="309.514345"/>
      </g>
     </g>
    </g>
    <g id="ytick_4">
     <g id="line2d_71">
      <g>
       <use style="stroke:#000000;" x="99" xlink:href="#m60479983a4" y="299.853033"/>
      </g>
     </g>
     <g id="line2d_72">
      <g>
       <use style="stroke:#000000;" x="378" xlink:href="#m60479983a4" y="299.853033"/>
      </g>
     </g>
    </g>
    <g id="ytick_5">
     <g id="line2d_73">
      <g>
       <use style="stroke:#000000;" x="99" xlink:href="#m60479983a4" y="291.331152"/>
      </g>
     </g>
     <g id="line2d_74">
      <g>
       <use style="stroke:#000000;" x="378" xlink:href="#m60479983a4" y="291.331152"/>
      </g>
     </g>
    </g>
    <g id="ytick_6">
     <g id="line2d_75">
      <g>
       <use style="stroke:#000000;" x="99" xlink:href="#m60479983a4" y="233.557235"/>
      </g>
     </g>
     <g id="line2d_76">
      <g>
       <use style="stroke:#000000;" x="378" xlink:href="#m60479983a4" y="233.557235"/>
      </g>
     </g>
    </g>
    <g id="ytick_7">
     <g id="line2d_77">
      <g>
       <use style="stroke:#000000;" x="99" xlink:href="#m60479983a4" y="204.220877"/>
      </g>
     </g>
     <g id="line2d_78">
      <g>
       <use style="stroke:#000000;" x="378" xlink:href="#m60479983a4" y="204.220877"/>
      </g>
     </g>
    </g>
    <g id="ytick_8">
     <g id="line2d_79">
      <g>
       <use style="stroke:#000000;" x="99" xlink:href="#m60479983a4" y="183.4064"/>
      </g>
     </g>
     <g id="line2d_80">
      <g>
       <use style="stroke:#000000;" x="378" xlink:href="#m60479983a4" y="183.4064"/>
      </g>
     </g>
    </g>
    <g id="ytick_9">
     <g id="line2d_81">
      <g>
       <use style="stroke:#000000;" x="99" xlink:href="#m60479983a4" y="167.261437"/>
      </g>
     </g>
     <g id="line2d_82">
      <g>
       <use style="stroke:#000000;" x="378" xlink:href="#m60479983a4" y="167.261437"/>
      </g>
     </g>
    </g>
    <g id="ytick_10">
     <g id="line2d_83">
      <g>
       <use style="stroke:#000000;" x="99" xlink:href="#m60479983a4" y="154.070042"/>
      </g>
     </g>
     <g id="line2d_84">
      <g>
       <use style="stroke:#000000;" x="378" xlink:href="#m60479983a4" y="154.070042"/>
      </g>
     </g>
    </g>
    <g id="ytick_11">
     <g id="line2d_85">
      <g>
       <use style="stroke:#000000;" x="99" xlink:href="#m60479983a4" y="142.916876"/>
      </g>
     </g>
     <g id="line2d_86">
      <g>
       <use style="stroke:#000000;" x="378" xlink:href="#m60479983a4" y="142.916876"/>
      </g>
     </g>
    </g>
    <g id="ytick_12">
     <g id="line2d_87">
      <g>
       <use style="stroke:#000000;" x="99" xlink:href="#m60479983a4" y="133.255565"/>
      </g>
     </g>
     <g id="line2d_88">
      <g>
       <use style="stroke:#000000;" x="378" xlink:href="#m60479983a4" y="133.255565"/>
      </g>
     </g>
    </g>
    <g id="ytick_13">
     <g id="line2d_89">
      <g>
       <use style="stroke:#000000;" x="99" xlink:href="#m60479983a4" y="124.733684"/>
      </g>
     </g>
     <g id="line2d_90">
      <g>
       <use style="stroke:#000000;" x="378" xlink:href="#m60479983a4" y="124.733684"/>
      </g>
     </g>
    </g>
    <g id="ytick_14">
     <g id="line2d_91">
      <g>
       <use style="stroke:#000000;" x="99" xlink:href="#m60479983a4" y="66.959767"/>
      </g>
     </g>
     <g id="line2d_92">
      <g>
       <use style="stroke:#000000;" x="378" xlink:href="#m60479983a4" y="66.959767"/>
      </g>
     </g>
    </g>
   </g>
   <g id="line2d_93">
    <path clip-path="url(#p8057aa9360)" d="M 111.681818 117.110602 
L 116.754545 183.161377 
L 121.827273 296.141842 
L 126.9 296.141842 
" style="fill:none;stroke:#1f77b4;stroke-linecap:square;stroke-width:1.5;"/>
   </g>
   <g id="line2d_94">
    <path clip-path="url(#p8057aa9360)" d="M 111.681818 117.110602 
L 116.754545 183.161377 
L 121.827273 296.141842 
L 126.9 296.141842 
L 131.972727 296.141842 
" style="fill:none;stroke:#ff7f0e;stroke-linecap:square;stroke-width:1.5;"/>
   </g>
   <g id="line2d_95">
    <path clip-path="url(#p8057aa9360)" d="M 111.681818 117.110602 
L 116.754545 183.161377 
L 121.827273 211.975657 
L 126.9 229.369379 
L 131.972727 241.018679 
L 137.045455 249.313892 
L 142.118182 255.482882 
L 147.190909 260.227022 
L 152.263636 263.975737 
L 157.336364 267.005639 
L 162.409091 269.502132 
L 167.481818 285.010718 
L 172.554545 288.944131 
L 177.627273 301.702995 
L 182.7 304.70519 
L 187.772727 307.692319 
L 192.845455 307.795246 
L 197.918182 307.799559 
L 202.990909 307.799965 
L 208.063636 307.799997 
L 213.136364 307.8 
L 218.209091 307.8 
L 223.281818 307.8 
L 228.354545 307.8 
L 233.427273 307.8 
L 238.5 307.8 
L 243.572727 307.8 
L 248.645455 307.8 
L 253.718182 307.8 
L 258.790909 307.8 
L 263.863636 307.8 
L 268.936364 307.8 
L 274.009091 307.8 
L 279.081818 307.8 
L 284.154545 307.8 
L 289.227273 307.8 
L 294.3 307.8 
L 299.372727 307.8 
L 304.445455 307.8 
L 309.518182 307.8 
L 314.590909 307.8 
L 319.663636 307.8 
L 324.736364 307.8 
L 329.809091 307.8 
L 334.881818 307.8 
L 339.954545 307.8 
L 345.027273 307.8 
L 350.1 307.8 
L 355.172727 307.8 
L 360.245455 307.8 
L 365.318182 307.8 
" style="fill:none;stroke:#2ca02c;stroke-linecap:square;stroke-width:1.5;"/>
   </g>
   <g id="line2d_96">
    <path clip-path="url(#p8057aa9360)" d="M 111.681818 117.110602 
L 116.754545 296.141842 
" style="fill:none;stroke:#d62728;stroke-linecap:square;stroke-width:1.5;"/>
   </g>
   <g id="line2d_97">
    <path clip-path="url(#p8057aa9360)" d="M 111.681818 117.110602 
L 116.754545 183.161377 
L 121.827273 260.476159 
L 126.9 284.159242 
L 131.972727 290.505592 
L 137.045455 293.308182 
L 142.118182 294.713647 
L 147.190909 295.424379 
L 152.263636 295.782231 
L 157.336364 295.961814 
L 162.409091 296.051772 
L 167.481818 296.096793 
L 172.554545 296.119314 
L 177.627273 296.130577 
L 182.7 296.136209 
L 187.772727 296.139026 
L 192.845455 296.140434 
L 197.918182 296.141138 
L 202.990909 296.14149 
L 208.063636 296.141666 
L 213.136364 296.141754 
L 218.209091 296.141798 
L 223.281818 296.14182 
L 228.354545 296.141831 
L 233.427273 296.141837 
L 238.5 296.141839 
L 243.572727 296.141841 
L 248.645455 296.141841 
L 253.718182 296.141842 
L 258.790909 296.141842 
L 263.863636 296.141842 
L 268.936364 296.141842 
L 274.009091 296.141842 
L 279.081818 296.141842 
L 284.154545 296.141842 
L 289.227273 296.141842 
L 294.3 296.141842 
L 299.372727 296.141842 
L 304.445455 296.141842 
L 309.518182 296.141842 
L 314.590909 296.141842 
L 319.663636 296.141842 
L 324.736364 296.141842 
L 329.809091 296.141842 
L 334.881818 296.141842 
L 339.954545 296.141842 
L 345.027273 296.141842 
L 350.1 296.141842 
L 355.172727 296.141842 
L 360.245455 296.141842 
L 365.318182 296.141842 
" style="fill:none;stroke:#9467bd;stroke-linecap:square;stroke-width:1.5;"/>
   </g>
   <g id="line2d_98">
    <path clip-path="url(#p8057aa9360)" d="M 111.681818 117.110602 
L 116.754545 183.161377 
L 121.827273 260.476159 
L 126.9 284.159242 
L 131.972727 290.505592 
L 137.045455 293.308182 
L 142.118182 294.713647 
L 147.190909 295.424379 
L 152.263636 295.782231 
L 157.336364 295.961814 
L 162.409091 296.051772 
L 167.481818 296.096793 
L 172.554545 296.119314 
L 177.627273 296.130577 
L 182.7 296.136209 
L 187.772727 296.139026 
L 192.845455 296.140434 
L 197.918182 296.141138 
L 202.990909 296.14149 
L 208.063636 296.141666 
L 213.136364 296.141754 
L 218.209091 296.141798 
L 223.281818 296.14182 
L 228.354545 296.141831 
L 233.427273 296.141837 
L 238.5 296.141839 
L 243.572727 296.141841 
L 248.645455 296.141841 
L 253.718182 296.141842 
L 258.790909 296.141842 
L 263.863636 296.141842 
L 268.936364 296.141842 
L 274.009091 296.141842 
L 279.081818 296.141842 
L 284.154545 296.141842 
L 289.227273 296.141842 
L 294.3 296.141842 
L 299.372727 296.141842 
L 304.445455 296.141842 
L 309.518182 296.141842 
L 314.590909 296.141842 
L 319.663636 296.141842 
L 324.736364 296.141842 
L 329.809091 296.141842 
L 334.881818 296.141842 
L 339.954545 296.141842 
L 345.027273 296.141842 
L 350.1 296.141842 
L 355.172727 296.141842 
L 360.245455 296.141842 
L 365.318182 296.141842 
" style="fill:none;stroke:#8c564b;stroke-linecap:square;stroke-width:1.5;"/>
   </g>
   <g id="line2d_99">
    <path clip-path="url(#p8057aa9360)" d="M 111.681818 117.110602 
L 116.754545 207.125406 
L 121.827273 259.749731 
L 126.9 281.326665 
L 131.972727 292.522948 
L 137.045455 55.8 
L 142.118182 167.513189 
L 147.190909 256.599414 
L 152.263636 298.242569 
L 157.336364 307.033221 
L 162.409091 307.78718 
L 167.481818 307.799994 
L 172.554545 307.8 
L 177.627273 307.8 
L 182.7 307.8 
L 187.772727 307.8 
L 192.845455 307.8 
L 197.918182 307.8 
L 202.990909 307.8 
L 208.063636 307.8 
L 213.136364 307.8 
L 218.209091 307.8 
L 223.281818 307.8 
L 228.354545 307.8 
L 233.427273 307.8 
L 238.5 307.8 
L 243.572727 307.8 
L 248.645455 307.8 
L 253.718182 307.8 
L 258.790909 307.8 
L 263.863636 307.8 
L 268.936364 307.8 
L 274.009091 307.8 
L 279.081818 307.8 
L 284.154545 307.8 
L 289.227273 307.8 
L 294.3 307.8 
L 299.372727 307.8 
L 304.445455 307.8 
L 309.518182 307.8 
L 314.590909 307.8 
L 319.663636 307.8 
L 324.736364 307.8 
L 329.809091 307.8 
L 334.881818 307.8 
L 339.954545 307.8 
L 345.027273 307.8 
L 350.1 307.8 
L 355.172727 307.8 
L 360.245455 307.8 
L 365.318182 307.8 
" style="fill:none;stroke:#e377c2;stroke-linecap:square;stroke-width:1.5;"/>
   </g>
   <g id="patch_3">
    <path d="M 99 320.4 
L 99 43.2 
" style="fill:none;stroke:#000000;stroke-linecap:square;stroke-linejoin:miter;"/>
   </g>
   <g id="patch_4">
    <path d="M 378 320.4 
L 378 43.2 
" style="fill:none;stroke:#000000;stroke-linecap:square;stroke-linejoin:miter;"/>
   </g>
   <g id="patch_5">
    <path d="M 99 320.4 
L 378 320.4 
" style="fill:none;stroke:#000000;stroke-linecap:square;stroke-linejoin:miter;"/>
   </g>
   <g id="patch_6">
    <path d="M 99 43.2 
L 378 43.2 
" style="fill:none;stroke:#000000;stroke-linecap:square;stroke-linejoin:miter;"/>
   </g>
   <g id="text_9">
    <!-- Misfit Convergence x4 -->
    <g transform="translate(166.083906 37.2)scale(0.13 -0.13)">
     <defs>
      <path d="M 9.8125 72.90625 
L 24.515625 72.90625 
L 43.109375 23.296875 
L 61.8125 72.90625 
L 76.515625 72.90625 
L 76.515625 0 
L 66.890625 0 
L 66.890625 64.015625 
L 48.09375 14.015625 
L 38.1875 14.015625 
L 19.390625 64.015625 
L 19.390625 0 
L 9.8125 0 
z
" id="DejaVuSans-77"/>
      <path d="M 9.421875 54.6875 
L 18.40625 54.6875 
L 18.40625 0 
L 9.421875 0 
z
M 9.421875 75.984375 
L 18.40625 75.984375 
L 18.40625 64.59375 
L 9.421875 64.59375 
z
" id="DejaVuSans-105"/>
      <path d="M 44.28125 53.078125 
L 44.28125 44.578125 
Q 40.484375 46.53125 36.375 47.5 
Q 32.28125 48.484375 27.875 48.484375 
Q 21.1875 48.484375 17.84375 46.4375 
Q 14.5 44.390625 14.5 40.28125 
Q 14.5 37.15625 16.890625 35.375 
Q 19.28125 33.59375 26.515625 31.984375 
L 29.59375 31.296875 
Q 39.15625 29.25 43.1875 25.515625 
Q 47.21875 21.78125 47.21875 15.09375 
Q 47.21875 7.46875 41.1875 3.015625 
Q 35.15625 -1.421875 24.609375 -1.421875 
Q 20.21875 -1.421875 15.453125 -0.5625 
Q 10.6875 0.296875 5.421875 2 
L 5.421875 11.28125 
Q 10.40625 8.6875 15.234375 7.390625 
Q 20.0625 6.109375 24.8125 6.109375 
Q 31.15625 6.109375 34.5625 8.28125 
Q 37.984375 10.453125 37.984375 14.40625 
Q 37.984375 18.0625 35.515625 20.015625 
Q 33.0625 21.96875 24.703125 23.78125 
L 21.578125 24.515625 
Q 13.234375 26.265625 9.515625 29.90625 
Q 5.8125 33.546875 5.8125 39.890625 
Q 5.8125 47.609375 11.28125 51.796875 
Q 16.75 56 26.8125 56 
Q 31.78125 56 36.171875 55.265625 
Q 40.578125 54.546875 44.28125 53.078125 
z
" id="DejaVuSans-115"/>
      <path d="M 37.109375 75.984375 
L 37.109375 68.5 
L 28.515625 68.5 
Q 23.6875 68.5 21.796875 66.546875 
Q 19.921875 64.59375 19.921875 59.515625 
L 19.921875 54.6875 
L 34.71875 54.6875 
L 34.71875 47.703125 
L 19.921875 47.703125 
L 19.921875 0 
L 10.890625 0 
L 10.890625 47.703125 
L 2.296875 47.703125 
L 2.296875 54.6875 
L 10.890625 54.6875 
L 10.890625 58.5 
Q 10.890625 67.625 15.140625 71.796875 
Q 19.390625 75.984375 28.609375 75.984375 
z
" id="DejaVuSans-102"/>
      <path d="M 18.3125 70.21875 
L 18.3125 54.6875 
L 36.8125 54.6875 
L 36.8125 47.703125 
L 18.3125 47.703125 
L 18.3125 18.015625 
Q 18.3125 11.328125 20.140625 9.421875 
Q 21.96875 7.515625 27.59375 7.515625 
L 36.8125 7.515625 
L 36.8125 0 
L 27.59375 0 
Q 17.1875 0 13.234375 3.875 
Q 9.28125 7.765625 9.28125 18.015625 
L 9.28125 47.703125 
L 2.6875 47.703125 
L 2.6875 54.6875 
L 9.28125 54.6875 
L 9.28125 70.21875 
z
" id="DejaVuSans-116"/>
      <path id="DejaVuSans-32"/>
      <path d="M 64.40625 67.28125 
L 64.40625 56.890625 
Q 59.421875 61.53125 53.78125 63.8125 
Q 48.140625 66.109375 41.796875 66.109375 
Q 29.296875 66.109375 22.65625 58.46875 
Q 16.015625 50.828125 16.015625 36.375 
Q 16.015625 21.96875 22.65625 14.328125 
Q 29.296875 6.6875 41.796875 6.6875 
Q 48.140625 6.6875 53.78125 8.984375 
Q 59.421875 11.28125 64.40625 15.921875 
L 64.40625 5.609375 
Q 59.234375 2.09375 53.4375 0.328125 
Q 47.65625 -1.421875 41.21875 -1.421875 
Q 24.65625 -1.421875 15.125 8.703125 
Q 5.609375 18.84375 5.609375 36.375 
Q 5.609375 53.953125 15.125 64.078125 
Q 24.65625 74.21875 41.21875 74.21875 
Q 47.75 74.21875 53.53125 72.484375 
Q 59.328125 70.75 64.40625 67.28125 
z
" id="DejaVuSans-67"/>
      <path d="M 30.609375 48.390625 
Q 23.390625 48.390625 19.1875 42.75 
Q 14.984375 37.109375 14.984375 27.296875 
Q 14.984375 17.484375 19.15625 11.84375 
Q 23.34375 6.203125 30.609375 6.203125 
Q 37.796875 6.203125 41.984375 11.859375 
Q 46.1875 17.53125 46.1875 27.296875 
Q 46.1875 37.015625 41.984375 42.703125 
Q 37.796875 48.390625 30.609375 48.390625 
z
M 30.609375 56 
Q 42.328125 56 49.015625 48.375 
Q 55.71875 40.765625 55.71875 27.296875 
Q 55.71875 13.875 49.015625 6.21875 
Q 42.328125 -1.421875 30.609375 -1.421875 
Q 18.84375 -1.421875 12.171875 6.21875 
Q 5.515625 13.875 5.515625 27.296875 
Q 5.515625 40.765625 12.171875 48.375 
Q 18.84375 56 30.609375 56 
z
" id="DejaVuSans-111"/>
      <path d="M 54.890625 33.015625 
L 54.890625 0 
L 45.90625 0 
L 45.90625 32.71875 
Q 45.90625 40.484375 42.875 44.328125 
Q 39.84375 48.1875 33.796875 48.1875 
Q 26.515625 48.1875 22.3125 43.546875 
Q 18.109375 38.921875 18.109375 30.90625 
L 18.109375 0 
L 9.078125 0 
L 9.078125 54.6875 
L 18.109375 54.6875 
L 18.109375 46.1875 
Q 21.34375 51.125 25.703125 53.5625 
Q 30.078125 56 35.796875 56 
Q 45.21875 56 50.046875 50.171875 
Q 54.890625 44.34375 54.890625 33.015625 
z
" id="DejaVuSans-110"/>
      <path d="M 2.984375 54.6875 
L 12.5 54.6875 
L 29.59375 8.796875 
L 46.6875 54.6875 
L 56.203125 54.6875 
L 35.6875 0 
L 23.484375 0 
z
" id="DejaVuSans-118"/>
      <path d="M 56.203125 29.59375 
L 56.203125 25.203125 
L 14.890625 25.203125 
Q 15.484375 15.921875 20.484375 11.0625 
Q 25.484375 6.203125 34.421875 6.203125 
Q 39.59375 6.203125 44.453125 7.46875 
Q 49.3125 8.734375 54.109375 11.28125 
L 54.109375 2.78125 
Q 49.265625 0.734375 44.1875 -0.34375 
Q 39.109375 -1.421875 33.890625 -1.421875 
Q 20.796875 -1.421875 13.15625 6.1875 
Q 5.515625 13.8125 5.515625 26.8125 
Q 5.515625 40.234375 12.765625 48.109375 
Q 20.015625 56 32.328125 56 
Q 43.359375 56 49.78125 48.890625 
Q 56.203125 41.796875 56.203125 29.59375 
z
M 47.21875 32.234375 
Q 47.125 39.59375 43.09375 43.984375 
Q 39.0625 48.390625 32.421875 48.390625 
Q 24.90625 48.390625 20.390625 44.140625 
Q 15.875 39.890625 15.1875 32.171875 
z
" id="DejaVuSans-101"/>
      <path d="M 41.109375 46.296875 
Q 39.59375 47.171875 37.8125 47.578125 
Q 36.03125 48 33.890625 48 
Q 26.265625 48 22.1875 43.046875 
Q 18.109375 38.09375 18.109375 28.8125 
L 18.109375 0 
L 9.078125 0 
L 9.078125 54.6875 
L 18.109375 54.6875 
L 18.109375 46.1875 
Q 20.953125 51.171875 25.484375 53.578125 
Q 30.03125 56 36.53125 56 
Q 37.453125 56 38.578125 55.875 
Q 39.703125 55.765625 41.0625 55.515625 
z
" id="DejaVuSans-114"/>
      <path d="M 45.40625 27.984375 
Q 45.40625 37.75 41.375 43.109375 
Q 37.359375 48.484375 30.078125 48.484375 
Q 22.859375 48.484375 18.828125 43.109375 
Q 14.796875 37.75 14.796875 27.984375 
Q 14.796875 18.265625 18.828125 12.890625 
Q 22.859375 7.515625 30.078125 7.515625 
Q 37.359375 7.515625 41.375 12.890625 
Q 45.40625 18.265625 45.40625 27.984375 
z
M 54.390625 6.78125 
Q 54.390625 -7.171875 48.1875 -13.984375 
Q 42 -20.796875 29.203125 -20.796875 
Q 24.46875 -20.796875 20.265625 -20.09375 
Q 16.0625 -19.390625 12.109375 -17.921875 
L 12.109375 -9.1875 
Q 16.0625 -11.328125 19.921875 -12.34375 
Q 23.78125 -13.375 27.78125 -13.375 
Q 36.625 -13.375 41.015625 -8.765625 
Q 45.40625 -4.15625 45.40625 5.171875 
L 45.40625 9.625 
Q 42.625 4.78125 38.28125 2.390625 
Q 33.9375 0 27.875 0 
Q 17.828125 0 11.671875 7.65625 
Q 5.515625 15.328125 5.515625 27.984375 
Q 5.515625 40.671875 11.671875 48.328125 
Q 17.828125 56 27.875 56 
Q 33.9375 56 38.28125 53.609375 
Q 42.625 51.21875 45.40625 46.390625 
L 45.40625 54.6875 
L 54.390625 54.6875 
z
" id="DejaVuSans-103"/>
      <path d="M 48.78125 52.59375 
L 48.78125 44.1875 
Q 44.96875 46.296875 41.140625 47.34375 
Q 37.3125 48.390625 33.40625 48.390625 
Q 24.65625 48.390625 19.8125 42.84375 
Q 14.984375 37.3125 14.984375 27.296875 
Q 14.984375 17.28125 19.8125 11.734375 
Q 24.65625 6.203125 33.40625 6.203125 
Q 37.3125 6.203125 41.140625 7.25 
Q 44.96875 8.296875 48.78125 10.40625 
L 48.78125 2.09375 
Q 45.015625 0.34375 40.984375 -0.53125 
Q 36.96875 -1.421875 32.421875 -1.421875 
Q 20.0625 -1.421875 12.78125 6.34375 
Q 5.515625 14.109375 5.515625 27.296875 
Q 5.515625 40.671875 12.859375 48.328125 
Q 20.21875 56 33.015625 56 
Q 37.15625 56 41.109375 55.140625 
Q 45.0625 54.296875 48.78125 52.59375 
z
" id="DejaVuSans-99"/>
      <path d="M 54.890625 54.6875 
L 35.109375 28.078125 
L 55.90625 0 
L 45.3125 0 
L 29.390625 21.484375 
L 13.484375 0 
L 2.875 0 
L 24.125 28.609375 
L 4.6875 54.6875 
L 15.28125 54.6875 
L 29.78125 35.203125 
L 44.28125 54.6875 
z
" id="DejaVuSans-120"/>
     </defs>
     <use xlink:href="#DejaVuSans-77"/>
     <use x="86.279297" xlink:href="#DejaVuSans-105"/>
     <use x="114.0625" xlink:href="#DejaVuSans-115"/>
     <use x="166.162109" xlink:href="#DejaVuSans-102"/>
     <use x="201.367188" xlink:href="#DejaVuSans-105"/>
     <use x="229.150391" xlink:href="#DejaVuSans-116"/>
     <use x="268.359375" xlink:href="#DejaVuSans-32"/>
     <use x="300.146484" xlink:href="#DejaVuSans-67"/>
     <use x="369.970703" xlink:href="#DejaVuSans-111"/>
     <use x="431.152344" xlink:href="#DejaVuSans-110"/>
     <use x="494.53125" xlink:href="#DejaVuSans-118"/>
     <use x="553.710938" xlink:href="#DejaVuSans-101"/>
     <use x="615.234375" xlink:href="#DejaVuSans-114"/>
     <use x="654.597656" xlink:href="#DejaVuSans-103"/>
     <use x="718.074219" xlink:href="#DejaVuSans-101"/>
     <use x="779.597656" xlink:href="#DejaVuSans-110"/>
     <use x="842.976562" xlink:href="#DejaVuSans-99"/>
     <use x="897.957031" xlink:href="#DejaVuSans-101"/>
     <use x="959.480469" xlink:href="#DejaVuSans-32"/>
     <use x="991.267578" xlink:href="#DejaVuSans-120"/>
     <use x="1050.447266" xlink:href="#DejaVuSans-52"/>
    </g>
   </g>
   <g id="legend_1">
    <g id="patch_7">
     <path d="M 302.867188 315.4 
L 373 315.4 
L 373 209.653125 
L 302.867188 209.653125 
z
" style="fill:#ffffff;stroke:#000000;stroke-linejoin:miter;"/>
    </g>
    <g id="line2d_100">
     <path d="M 306.867188 217.751563 
L 326.867188 217.751563 
" style="fill:none;stroke:#1f77b4;stroke-linecap:square;stroke-width:1.5;"/>
    </g>
    <g id="line2d_101"/>
    <g id="text_10">
     <!-- bfgs -->
     <g transform="translate(334.867188 221.251563)scale(0.1 -0.1)">
      <defs>
       <path d="M 48.6875 27.296875 
Q 48.6875 37.203125 44.609375 42.84375 
Q 40.53125 48.484375 33.40625 48.484375 
Q 26.265625 48.484375 22.1875 42.84375 
Q 18.109375 37.203125 18.109375 27.296875 
Q 18.109375 17.390625 22.1875 11.75 
Q 26.265625 6.109375 33.40625 6.109375 
Q 40.53125 6.109375 44.609375 11.75 
Q 48.6875 17.390625 48.6875 27.296875 
z
M 18.109375 46.390625 
Q 20.953125 51.265625 25.265625 53.625 
Q 29.59375 56 35.59375 56 
Q 45.5625 56 51.78125 48.09375 
Q 58.015625 40.1875 58.015625 27.296875 
Q 58.015625 14.40625 51.78125 6.484375 
Q 45.5625 -1.421875 35.59375 -1.421875 
Q 29.59375 -1.421875 25.265625 0.953125 
Q 20.953125 3.328125 18.109375 8.203125 
L 18.109375 0 
L 9.078125 0 
L 9.078125 75.984375 
L 18.109375 75.984375 
z
" id="DejaVuSans-98"/>
      </defs>
      <use xlink:href="#DejaVuSans-98"/>
      <use x="63.476562" xlink:href="#DejaVuSans-102"/>
      <use x="98.681641" xlink:href="#DejaVuSans-103"/>
      <use x="162.158203" xlink:href="#DejaVuSans-115"/>
     </g>
    </g>
    <g id="line2d_102">
     <path d="M 306.867188 232.429688 
L 326.867188 232.429688 
" style="fill:none;stroke:#ff7f0e;stroke-linecap:square;stroke-width:1.5;"/>
    </g>
    <g id="line2d_103"/>
    <g id="text_11">
     <!-- pbfgs -->
     <g transform="translate(334.867188 235.929688)scale(0.1 -0.1)">
      <defs>
       <path d="M 18.109375 8.203125 
L 18.109375 -20.796875 
L 9.078125 -20.796875 
L 9.078125 54.6875 
L 18.109375 54.6875 
L 18.109375 46.390625 
Q 20.953125 51.265625 25.265625 53.625 
Q 29.59375 56 35.59375 56 
Q 45.5625 56 51.78125 48.09375 
Q 58.015625 40.1875 58.015625 27.296875 
Q 58.015625 14.40625 51.78125 6.484375 
Q 45.5625 -1.421875 35.59375 -1.421875 
Q 29.59375 -1.421875 25.265625 0.953125 
Q 20.953125 3.328125 18.109375 8.203125 
z
M 48.6875 27.296875 
Q 48.6875 37.203125 44.609375 42.84375 
Q 40.53125 48.484375 33.40625 48.484375 
Q 26.265625 48.484375 22.1875 42.84375 
Q 18.109375 37.203125 18.109375 27.296875 
Q 18.109375 17.390625 22.1875 11.75 
Q 26.265625 6.109375 33.40625 6.109375 
Q 40.53125 6.109375 44.609375 11.75 
Q 48.6875 17.390625 48.6875 27.296875 
z
" id="DejaVuSans-112"/>
      </defs>
      <use xlink:href="#DejaVuSans-112"/>
      <use x="63.476562" xlink:href="#DejaVuSans-98"/>
      <use x="126.953125" xlink:href="#DejaVuSans-102"/>
      <use x="162.158203" xlink:href="#DejaVuSans-103"/>
      <use x="225.634766" xlink:href="#DejaVuSans-115"/>
     </g>
    </g>
    <g id="line2d_104">
     <path d="M 306.867188 247.107813 
L 326.867188 247.107813 
" style="fill:none;stroke:#2ca02c;stroke-linecap:square;stroke-width:1.5;"/>
    </g>
    <g id="line2d_105"/>
    <g id="text_12">
     <!-- steep -->
     <g transform="translate(334.867188 250.607813)scale(0.1 -0.1)">
      <use xlink:href="#DejaVuSans-115"/>
      <use x="52.099609" xlink:href="#DejaVuSans-116"/>
      <use x="91.308594" xlink:href="#DejaVuSans-101"/>
      <use x="152.832031" xlink:href="#DejaVuSans-101"/>
      <use x="214.355469" xlink:href="#DejaVuSans-112"/>
     </g>
    </g>
    <g id="line2d_106">
     <path d="M 306.867188 261.785938 
L 326.867188 261.785938 
" style="fill:none;stroke:#d62728;stroke-linecap:square;stroke-width:1.5;"/>
    </g>
    <g id="line2d_107"/>
    <g id="text_13">
     <!-- psteep -->
     <g transform="translate(334.867188 265.285938)scale(0.1 -0.1)">
      <use xlink:href="#DejaVuSans-112"/>
      <use x="63.476562" xlink:href="#DejaVuSans-115"/>
      <use x="115.576172" xlink:href="#DejaVuSans-116"/>
      <use x="154.785156" xlink:href="#DejaVuSans-101"/>
      <use x="216.308594" xlink:href="#DejaVuSans-101"/>
      <use x="277.832031" xlink:href="#DejaVuSans-112"/>
     </g>
    </g>
    <g id="line2d_108">
     <path d="M 306.867188 276.464063 
L 326.867188 276.464063 
" style="fill:none;stroke:#9467bd;stroke-linecap:square;stroke-width:1.5;"/>
    </g>
    <g id="line2d_109"/>
    <g id="text_14">
     <!-- nlcg -->
     <g transform="translate(334.867188 279.964063)scale(0.1 -0.1)">
      <defs>
       <path d="M 9.421875 75.984375 
L 18.40625 75.984375 
L 18.40625 0 
L 9.421875 0 
z
" id="DejaVuSans-108"/>
      </defs>
      <use xlink:href="#DejaVuSans-110"/>
      <use x="63.378906" xlink:href="#DejaVuSans-108"/>
      <use x="91.162109" xlink:href="#DejaVuSans-99"/>
      <use x="146.142578" xlink:href="#DejaVuSans-103"/>
     </g>
    </g>
    <g id="line2d_110">
     <path d="M 306.867188 291.142188 
L 326.867188 291.142188 
" style="fill:none;stroke:#8c564b;stroke-linecap:square;stroke-width:1.5;"/>
    </g>
    <g id="line2d_111"/>
    <g id="text_15">
     <!-- pnlcg -->
     <g transform="translate(334.867188 294.642188)scale(0.1 -0.1)">
      <use xlink:href="#DejaVuSans-112"/>
      <use x="63.476562" xlink:href="#DejaVuSans-110"/>
      <use x="126.855469" xlink:href="#DejaVuSans-108"/>
      <use x="154.638672" xlink:href="#DejaVuSans-99"/>
      <use x="209.619141" xlink:href="#DejaVuSans-103"/>
     </g>
    </g>
    <g id="line2d_112">
     <path d="M 306.867188 305.820312 
L 326.867188 305.820312 
" style="fill:none;stroke:#e377c2;stroke-linecap:square;stroke-width:1.5;"/>
    </g>
    <g id="line2d_113"/>
    <g id="text_16">
     <!-- gn -->
     <g transform="translate(334.867188 309.320312)scale(0.1 -0.1)">
      <use xlink:href="#DejaVuSans-103"/>
      <use x="63.476562" xlink:href="#DejaVuSans-110"/>
     </g>
    </g>
   </g>
  </g>
  <g id="axes_2">
   <g id="patch_8">
    <path d="M 433.8 320.4 
L 712.8 320.4 
L 712.8 43.2 
L 433.8 43.2 
z
" style="fill:#ffffff;"/>
   </g>
   <g id="matplotlib.axis_3">
    <g id="xtick_29">
     <g id="line2d_114">
      <path clip-path="url(#p9fcedf0090)" d="M 446.481818 320.4 
L 446.481818 43.2 
" style="fill:none;stroke:#d3d3d3;stroke-linecap:square;stroke-width:0.8;"/>
     </g>
     <g id="line2d_115">
      <g>
       <use style="stroke:#000000;" x="446.481818" xlink:href="#me82d8093d5" y="320.4"/>
      </g>
     </g>
     <g id="line2d_116">
      <g>
       <use style="stroke:#000000;" x="446.481818" xlink:href="#me82d8093d5" y="43.2"/>
      </g>
     </g>
     <g id="text_17">
      <!-- −3 -->
      <g transform="translate(439.110724 335.498438)scale(0.1 -0.1)">
       <use xlink:href="#DejaVuSans-8722"/>
       <use x="83.789062" xlink:href="#DejaVuSans-51"/>
      </g>
     </g>
    </g>
    <g id="xtick_30">
     <g id="line2d_117">
      <path clip-path="url(#p9fcedf0090)" d="M 483.469041 320.4 
L 483.469041 43.2 
" style="fill:none;stroke:#d3d3d3;stroke-linecap:square;stroke-width:0.8;"/>
     </g>
     <g id="line2d_118">
      <g>
       <use style="stroke:#000000;" x="483.469041" xlink:href="#me82d8093d5" y="320.4"/>
      </g>
     </g>
     <g id="line2d_119">
      <g>
       <use style="stroke:#000000;" x="483.469041" xlink:href="#me82d8093d5" y="43.2"/>
      </g>
     </g>
     <g id="text_18">
      <!-- −2 -->
      <g transform="translate(476.097947 335.498438)scale(0.1 -0.1)">
       <use xlink:href="#DejaVuSans-8722"/>
       <use x="83.789062" xlink:href="#DejaVuSans-50"/>
      </g>
     </g>
    </g>
    <g id="xtick_31">
     <g id="line2d_120">
      <path clip-path="url(#p9fcedf0090)" d="M 520.456263 320.4 
L 520.456263 43.2 
" style="fill:none;stroke:#d3d3d3;stroke-linecap:square;stroke-width:0.8;"/>
     </g>
     <g id="line2d_121">
      <g>
       <use style="stroke:#000000;" x="520.456263" xlink:href="#me82d8093d5" y="320.4"/>
      </g>
     </g>
     <g id="line2d_122">
      <g>
       <use style="stroke:#000000;" x="520.456263" xlink:href="#me82d8093d5" y="43.2"/>
      </g>
     </g>
     <g id="text_19">
      <!-- −1 -->
      <g transform="translate(513.085169 335.498438)scale(0.1 -0.1)">
       <use xlink:href="#DejaVuSans-8722"/>
       <use x="83.789062" xlink:href="#DejaVuSans-49"/>
      </g>
     </g>
    </g>
    <g id="xtick_32">
     <g id="line2d_123">
      <path clip-path="url(#p9fcedf0090)" d="M 557.443485 320.4 
L 557.443485 43.2 
" style="fill:none;stroke:#d3d3d3;stroke-linecap:square;stroke-width:0.8;"/>
     </g>
     <g id="line2d_124">
      <g>
       <use style="stroke:#000000;" x="557.443485" xlink:href="#me82d8093d5" y="320.4"/>
      </g>
     </g>
     <g id="line2d_125">
      <g>
       <use style="stroke:#000000;" x="557.443485" xlink:href="#me82d8093d5" y="43.2"/>
      </g>
     </g>
     <g id="text_20">
      <!-- 0 -->
      <g transform="translate(554.262235 335.498438)scale(0.1 -0.1)">
       <use xlink:href="#DejaVuSans-48"/>
      </g>
     </g>
    </g>
    <g id="xtick_33">
     <g id="line2d_126">
      <path clip-path="url(#p9fcedf0090)" d="M 594.430708 320.4 
L 594.430708 43.2 
" style="fill:none;stroke:#d3d3d3;stroke-linecap:square;stroke-width:0.8;"/>
     </g>
     <g id="line2d_127">
      <g>
       <use style="stroke:#000000;" x="594.430708" xlink:href="#me82d8093d5" y="320.4"/>
      </g>
     </g>
     <g id="line2d_128">
      <g>
       <use style="stroke:#000000;" x="594.430708" xlink:href="#me82d8093d5" y="43.2"/>
      </g>
     </g>
     <g id="text_21">
      <!-- 1 -->
      <g transform="translate(591.249458 335.498438)scale(0.1 -0.1)">
       <use xlink:href="#DejaVuSans-49"/>
      </g>
     </g>
    </g>
    <g id="xtick_34">
     <g id="line2d_129">
      <path clip-path="url(#p9fcedf0090)" d="M 631.41793 320.4 
L 631.41793 43.2 
" style="fill:none;stroke:#d3d3d3;stroke-linecap:square;stroke-width:0.8;"/>
     </g>
     <g id="line2d_130">
      <g>
       <use style="stroke:#000000;" x="631.41793" xlink:href="#me82d8093d5" y="320.4"/>
      </g>
     </g>
     <g id="line2d_131">
      <g>
       <use style="stroke:#000000;" x="631.41793" xlink:href="#me82d8093d5" y="43.2"/>
      </g>
     </g>
     <g id="text_22">
      <!-- 2 -->
      <g transform="translate(628.23668 335.498438)scale(0.1 -0.1)">
       <use xlink:href="#DejaVuSans-50"/>
      </g>
     </g>
    </g>
    <g id="xtick_35">
     <g id="line2d_132">
      <path clip-path="url(#p9fcedf0090)" d="M 668.405153 320.4 
L 668.405153 43.2 
" style="fill:none;stroke:#d3d3d3;stroke-linecap:square;stroke-width:0.8;"/>
     </g>
     <g id="line2d_133">
      <g>
       <use style="stroke:#000000;" x="668.405153" xlink:href="#me82d8093d5" y="320.4"/>
      </g>
     </g>
     <g id="line2d_134">
      <g>
       <use style="stroke:#000000;" x="668.405153" xlink:href="#me82d8093d5" y="43.2"/>
      </g>
     </g>
     <g id="text_23">
      <!-- 3 -->
      <g transform="translate(665.223903 335.498438)scale(0.1 -0.1)">
       <use xlink:href="#DejaVuSans-51"/>
      </g>
     </g>
    </g>
    <g id="xtick_36">
     <g id="line2d_135">
      <path clip-path="url(#p9fcedf0090)" d="M 705.392375 320.4 
L 705.392375 43.2 
" style="fill:none;stroke:#d3d3d3;stroke-linecap:square;stroke-width:0.8;"/>
     </g>
     <g id="line2d_136">
      <g>
       <use style="stroke:#000000;" x="705.392375" xlink:href="#me82d8093d5" y="320.4"/>
      </g>
     </g>
     <g id="line2d_137">
      <g>
       <use style="stroke:#000000;" x="705.392375" xlink:href="#me82d8093d5" y="43.2"/>
      </g>
     </g>
     <g id="text_24">
      <!-- 4 -->
      <g transform="translate(702.211125 335.498438)scale(0.1 -0.1)">
       <use xlink:href="#DejaVuSans-52"/>
      </g>
     </g>
    </g>
    <g id="xtick_37">
     <g id="line2d_138">
      <g>
       <use style="stroke:#000000;" x="439.084374" xlink:href="#mf6ba6cdf37" y="320.4"/>
      </g>
     </g>
     <g id="line2d_139">
      <g>
       <use style="stroke:#000000;" x="439.084374" xlink:href="#mf6ba6cdf37" y="43.2"/>
      </g>
     </g>
    </g>
    <g id="xtick_38">
     <g id="line2d_140">
      <g>
       <use style="stroke:#000000;" x="453.879263" xlink:href="#mf6ba6cdf37" y="320.4"/>
      </g>
     </g>
     <g id="line2d_141">
      <g>
       <use style="stroke:#000000;" x="453.879263" xlink:href="#mf6ba6cdf37" y="43.2"/>
      </g>
     </g>
    </g>
    <g id="xtick_39">
     <g id="line2d_142">
      <g>
       <use style="stroke:#000000;" x="461.276707" xlink:href="#mf6ba6cdf37" y="320.4"/>
      </g>
     </g>
     <g id="line2d_143">
      <g>
       <use style="stroke:#000000;" x="461.276707" xlink:href="#mf6ba6cdf37" y="43.2"/>
      </g>
     </g>
    </g>
    <g id="xtick_40">
     <g id="line2d_144">
      <g>
       <use style="stroke:#000000;" x="468.674152" xlink:href="#mf6ba6cdf37" y="320.4"/>
      </g>
     </g>
     <g id="line2d_145">
      <g>
       <use style="stroke:#000000;" x="468.674152" xlink:href="#mf6ba6cdf37" y="43.2"/>
      </g>
     </g>
    </g>
    <g id="xtick_41">
     <g id="line2d_146">
      <g>
       <use style="stroke:#000000;" x="476.071596" xlink:href="#mf6ba6cdf37" y="320.4"/>
      </g>
     </g>
     <g id="line2d_147">
      <g>
       <use style="stroke:#000000;" x="476.071596" xlink:href="#mf6ba6cdf37" y="43.2"/>
      </g>
     </g>
    </g>
    <g id="xtick_42">
     <g id="line2d_148">
      <g>
       <use style="stroke:#000000;" x="490.866485" xlink:href="#mf6ba6cdf37" y="320.4"/>
      </g>
     </g>
     <g id="line2d_149">
      <g>
       <use style="stroke:#000000;" x="490.866485" xlink:href="#mf6ba6cdf37" y="43.2"/>
      </g>
     </g>
    </g>
    <g id="xtick_43">
     <g id="line2d_150">
      <g>
       <use style="stroke:#000000;" x="498.26393" xlink:href="#mf6ba6cdf37" y="320.4"/>
      </g>
     </g>
     <g id="line2d_151">
      <g>
       <use style="stroke:#000000;" x="498.26393" xlink:href="#mf6ba6cdf37" y="43.2"/>
      </g>
     </g>
    </g>
    <g id="xtick_44">
     <g id="line2d_152">
      <g>
       <use style="stroke:#000000;" x="505.661374" xlink:href="#mf6ba6cdf37" y="320.4"/>
      </g>
     </g>
     <g id="line2d_153">
      <g>
       <use style="stroke:#000000;" x="505.661374" xlink:href="#mf6ba6cdf37" y="43.2"/>
      </g>
     </g>
    </g>
    <g id="xtick_45">
     <g id="line2d_154">
      <g>
       <use style="stroke:#000000;" x="513.058818" xlink:href="#mf6ba6cdf37" y="320.4"/>
      </g>
     </g>
     <g id="line2d_155">
      <g>
       <use style="stroke:#000000;" x="513.058818" xlink:href="#mf6ba6cdf37" y="43.2"/>
      </g>
     </g>
    </g>
    <g id="xtick_46">
     <g id="line2d_156">
      <g>
       <use style="stroke:#000000;" x="527.853707" xlink:href="#mf6ba6cdf37" y="320.4"/>
      </g>
     </g>
     <g id="line2d_157">
      <g>
       <use style="stroke:#000000;" x="527.853707" xlink:href="#mf6ba6cdf37" y="43.2"/>
      </g>
     </g>
    </g>
    <g id="xtick_47">
     <g id="line2d_158">
      <g>
       <use style="stroke:#000000;" x="535.251152" xlink:href="#mf6ba6cdf37" y="320.4"/>
      </g>
     </g>
     <g id="line2d_159">
      <g>
       <use style="stroke:#000000;" x="535.251152" xlink:href="#mf6ba6cdf37" y="43.2"/>
      </g>
     </g>
    </g>
    <g id="xtick_48">
     <g id="line2d_160">
      <g>
       <use style="stroke:#000000;" x="542.648596" xlink:href="#mf6ba6cdf37" y="320.4"/>
      </g>
     </g>
     <g id="line2d_161">
      <g>
       <use style="stroke:#000000;" x="542.648596" xlink:href="#mf6ba6cdf37" y="43.2"/>
      </g>
     </g>
    </g>
    <g id="xtick_49">
     <g id="line2d_162">
      <g>
       <use style="stroke:#000000;" x="550.046041" xlink:href="#mf6ba6cdf37" y="320.4"/>
      </g>
     </g>
     <g id="line2d_163">
      <g>
       <use style="stroke:#000000;" x="550.046041" xlink:href="#mf6ba6cdf37" y="43.2"/>
      </g>
     </g>
    </g>
    <g id="xtick_50">
     <g id="line2d_164">
      <g>
       <use style="stroke:#000000;" x="564.84093" xlink:href="#mf6ba6cdf37" y="320.4"/>
      </g>
     </g>
     <g id="line2d_165">
      <g>
       <use style="stroke:#000000;" x="564.84093" xlink:href="#mf6ba6cdf37" y="43.2"/>
      </g>
     </g>
    </g>
    <g id="xtick_51">
     <g id="line2d_166">
      <g>
       <use style="stroke:#000000;" x="572.238374" xlink:href="#mf6ba6cdf37" y="320.4"/>
      </g>
     </g>
     <g id="line2d_167">
      <g>
       <use style="stroke:#000000;" x="572.238374" xlink:href="#mf6ba6cdf37" y="43.2"/>
      </g>
     </g>
    </g>
    <g id="xtick_52">
     <g id="line2d_168">
      <g>
       <use style="stroke:#000000;" x="579.635819" xlink:href="#mf6ba6cdf37" y="320.4"/>
      </g>
     </g>
     <g id="line2d_169">
      <g>
       <use style="stroke:#000000;" x="579.635819" xlink:href="#mf6ba6cdf37" y="43.2"/>
      </g>
     </g>
    </g>
    <g id="xtick_53">
     <g id="line2d_170">
      <g>
       <use style="stroke:#000000;" x="587.033263" xlink:href="#mf6ba6cdf37" y="320.4"/>
      </g>
     </g>
     <g id="line2d_171">
      <g>
       <use style="stroke:#000000;" x="587.033263" xlink:href="#mf6ba6cdf37" y="43.2"/>
      </g>
     </g>
    </g>
    <g id="xtick_54">
     <g id="line2d_172">
      <g>
       <use style="stroke:#000000;" x="601.828152" xlink:href="#mf6ba6cdf37" y="320.4"/>
      </g>
     </g>
     <g id="line2d_173">
      <g>
       <use style="stroke:#000000;" x="601.828152" xlink:href="#mf6ba6cdf37" y="43.2"/>
      </g>
     </g>
    </g>
    <g id="xtick_55">
     <g id="line2d_174">
      <g>
       <use style="stroke:#000000;" x="609.225597" xlink:href="#mf6ba6cdf37" y="320.4"/>
      </g>
     </g>
     <g id="line2d_175">
      <g>
       <use style="stroke:#000000;" x="609.225597" xlink:href="#mf6ba6cdf37" y="43.2"/>
      </g>
     </g>
    </g>
    <g id="xtick_56">
     <g id="line2d_176">
      <g>
       <use style="stroke:#000000;" x="616.623041" xlink:href="#mf6ba6cdf37" y="320.4"/>
      </g>
     </g>
     <g id="line2d_177">
      <g>
       <use style="stroke:#000000;" x="616.623041" xlink:href="#mf6ba6cdf37" y="43.2"/>
      </g>
     </g>
    </g>
    <g id="xtick_57">
     <g id="line2d_178">
      <g>
       <use style="stroke:#000000;" x="624.020486" xlink:href="#mf6ba6cdf37" y="320.4"/>
      </g>
     </g>
     <g id="line2d_179">
      <g>
       <use style="stroke:#000000;" x="624.020486" xlink:href="#mf6ba6cdf37" y="43.2"/>
      </g>
     </g>
    </g>
    <g id="xtick_58">
     <g id="line2d_180">
      <g>
       <use style="stroke:#000000;" x="638.815375" xlink:href="#mf6ba6cdf37" y="320.4"/>
      </g>
     </g>
     <g id="line2d_181">
      <g>
       <use style="stroke:#000000;" x="638.815375" xlink:href="#mf6ba6cdf37" y="43.2"/>
      </g>
     </g>
    </g>
    <g id="xtick_59">
     <g id="line2d_182">
      <g>
       <use style="stroke:#000000;" x="646.212819" xlink:href="#mf6ba6cdf37" y="320.4"/>
      </g>
     </g>
     <g id="line2d_183">
      <g>
       <use style="stroke:#000000;" x="646.212819" xlink:href="#mf6ba6cdf37" y="43.2"/>
      </g>
     </g>
    </g>
    <g id="xtick_60">
     <g id="line2d_184">
      <g>
       <use style="stroke:#000000;" x="653.610264" xlink:href="#mf6ba6cdf37" y="320.4"/>
      </g>
     </g>
     <g id="line2d_185">
      <g>
       <use style="stroke:#000000;" x="653.610264" xlink:href="#mf6ba6cdf37" y="43.2"/>
      </g>
     </g>
    </g>
    <g id="xtick_61">
     <g id="line2d_186">
      <g>
       <use style="stroke:#000000;" x="661.007708" xlink:href="#mf6ba6cdf37" y="320.4"/>
      </g>
     </g>
     <g id="line2d_187">
      <g>
       <use style="stroke:#000000;" x="661.007708" xlink:href="#mf6ba6cdf37" y="43.2"/>
      </g>
     </g>
    </g>
    <g id="xtick_62">
     <g id="line2d_188">
      <g>
       <use style="stroke:#000000;" x="675.802597" xlink:href="#mf6ba6cdf37" y="320.4"/>
      </g>
     </g>
     <g id="line2d_189">
      <g>
       <use style="stroke:#000000;" x="675.802597" xlink:href="#mf6ba6cdf37" y="43.2"/>
      </g>
     </g>
    </g>
    <g id="xtick_63">
     <g id="line2d_190">
      <g>
       <use style="stroke:#000000;" x="683.200041" xlink:href="#mf6ba6cdf37" y="320.4"/>
      </g>
     </g>
     <g id="line2d_191">
      <g>
       <use style="stroke:#000000;" x="683.200041" xlink:href="#mf6ba6cdf37" y="43.2"/>
      </g>
     </g>
    </g>
    <g id="xtick_64">
     <g id="line2d_192">
      <g>
       <use style="stroke:#000000;" x="690.597486" xlink:href="#mf6ba6cdf37" y="320.4"/>
      </g>
     </g>
     <g id="line2d_193">
      <g>
       <use style="stroke:#000000;" x="690.597486" xlink:href="#mf6ba6cdf37" y="43.2"/>
      </g>
     </g>
    </g>
    <g id="xtick_65">
     <g id="line2d_194">
      <g>
       <use style="stroke:#000000;" x="697.99493" xlink:href="#mf6ba6cdf37" y="320.4"/>
      </g>
     </g>
     <g id="line2d_195">
      <g>
       <use style="stroke:#000000;" x="697.99493" xlink:href="#mf6ba6cdf37" y="43.2"/>
      </g>
     </g>
    </g>
    <g id="xtick_66">
     <g id="line2d_196">
      <g>
       <use style="stroke:#000000;" x="712.789819" xlink:href="#mf6ba6cdf37" y="320.4"/>
      </g>
     </g>
     <g id="line2d_197">
      <g>
       <use style="stroke:#000000;" x="712.789819" xlink:href="#mf6ba6cdf37" y="43.2"/>
      </g>
     </g>
    </g>
   </g>
   <g id="matplotlib.axis_4">
    <g id="ytick_15">
     <g id="line2d_198">
      <path clip-path="url(#p9fcedf0090)" d="M 433.8 315.78586 
L 712.8 315.78586 
" style="fill:none;stroke:#d3d3d3;stroke-linecap:square;stroke-width:0.8;"/>
     </g>
     <g id="line2d_199">
      <g>
       <use style="stroke:#000000;" x="433.8" xlink:href="#m8e69c1ed73" y="315.78586"/>
      </g>
     </g>
     <g id="line2d_200">
      <g>
       <use style="stroke:#000000;" x="712.8" xlink:href="#m8e69c1ed73" y="315.78586"/>
      </g>
     </g>
     <g id="text_25">
      <!-- 0 -->
      <g transform="translate(419.9375 319.585079)scale(0.1 -0.1)">
       <use xlink:href="#DejaVuSans-48"/>
      </g>
     </g>
    </g>
    <g id="ytick_16">
     <g id="line2d_201">
      <path clip-path="url(#p9fcedf0090)" d="M 433.8 257.147783 
L 712.8 257.147783 
" style="fill:none;stroke:#d3d3d3;stroke-linecap:square;stroke-width:0.8;"/>
     </g>
     <g id="line2d_202">
      <g>
       <use style="stroke:#000000;" x="433.8" xlink:href="#m8e69c1ed73" y="257.147783"/>
      </g>
     </g>
     <g id="line2d_203">
      <g>
       <use style="stroke:#000000;" x="712.8" xlink:href="#m8e69c1ed73" y="257.147783"/>
      </g>
     </g>
     <g id="text_26">
      <!-- 50 -->
      <g transform="translate(413.575 260.947002)scale(0.1 -0.1)">
       <use xlink:href="#DejaVuSans-53"/>
       <use x="63.623047" xlink:href="#DejaVuSans-48"/>
      </g>
     </g>
    </g>
    <g id="ytick_17">
     <g id="line2d_204">
      <path clip-path="url(#p9fcedf0090)" d="M 433.8 198.509706 
L 712.8 198.509706 
" style="fill:none;stroke:#d3d3d3;stroke-linecap:square;stroke-width:0.8;"/>
     </g>
     <g id="line2d_205">
      <g>
       <use style="stroke:#000000;" x="433.8" xlink:href="#m8e69c1ed73" y="198.509706"/>
      </g>
     </g>
     <g id="line2d_206">
      <g>
       <use style="stroke:#000000;" x="712.8" xlink:href="#m8e69c1ed73" y="198.509706"/>
      </g>
     </g>
     <g id="text_27">
      <!-- 100 -->
      <g transform="translate(407.2125 202.308925)scale(0.1 -0.1)">
       <use xlink:href="#DejaVuSans-49"/>
       <use x="63.623047" xlink:href="#DejaVuSans-48"/>
       <use x="127.246094" xlink:href="#DejaVuSans-48"/>
      </g>
     </g>
    </g>
    <g id="ytick_18">
     <g id="line2d_207">
      <path clip-path="url(#p9fcedf0090)" d="M 433.8 139.87163 
L 712.8 139.87163 
" style="fill:none;stroke:#d3d3d3;stroke-linecap:square;stroke-width:0.8;"/>
     </g>
     <g id="line2d_208">
      <g>
       <use style="stroke:#000000;" x="433.8" xlink:href="#m8e69c1ed73" y="139.87163"/>
      </g>
     </g>
     <g id="line2d_209">
      <g>
       <use style="stroke:#000000;" x="712.8" xlink:href="#m8e69c1ed73" y="139.87163"/>
      </g>
     </g>
     <g id="text_28">
      <!-- 150 -->
      <g transform="translate(407.2125 143.670848)scale(0.1 -0.1)">
       <use xlink:href="#DejaVuSans-49"/>
       <use x="63.623047" xlink:href="#DejaVuSans-53"/>
       <use x="127.246094" xlink:href="#DejaVuSans-48"/>
      </g>
     </g>
    </g>
    <g id="ytick_19">
     <g id="line2d_210">
      <path clip-path="url(#p9fcedf0090)" d="M 433.8 81.233553 
L 712.8 81.233553 
" style="fill:none;stroke:#d3d3d3;stroke-linecap:square;stroke-width:0.8;"/>
     </g>
     <g id="line2d_211">
      <g>
       <use style="stroke:#000000;" x="433.8" xlink:href="#m8e69c1ed73" y="81.233553"/>
      </g>
     </g>
     <g id="line2d_212">
      <g>
       <use style="stroke:#000000;" x="712.8" xlink:href="#m8e69c1ed73" y="81.233553"/>
      </g>
     </g>
     <g id="text_29">
      <!-- 200 -->
      <g transform="translate(407.2125 85.032771)scale(0.1 -0.1)">
       <use xlink:href="#DejaVuSans-50"/>
       <use x="63.623047" xlink:href="#DejaVuSans-48"/>
       <use x="127.246094" xlink:href="#DejaVuSans-48"/>
      </g>
     </g>
    </g>
    <g id="ytick_20">
     <g id="line2d_213">
      <g>
       <use style="stroke:#000000;" x="433.8" xlink:href="#m60479983a4" y="304.058245"/>
      </g>
     </g>
     <g id="line2d_214">
      <g>
       <use style="stroke:#000000;" x="712.8" xlink:href="#m60479983a4" y="304.058245"/>
      </g>
     </g>
    </g>
    <g id="ytick_21">
     <g id="line2d_215">
      <g>
       <use style="stroke:#000000;" x="433.8" xlink:href="#m60479983a4" y="292.330629"/>
      </g>
     </g>
     <g id="line2d_216">
      <g>
       <use style="stroke:#000000;" x="712.8" xlink:href="#m60479983a4" y="292.330629"/>
      </g>
     </g>
    </g>
    <g id="ytick_22">
     <g id="line2d_217">
      <g>
       <use style="stroke:#000000;" x="433.8" xlink:href="#m60479983a4" y="280.603014"/>
      </g>
     </g>
     <g id="line2d_218">
      <g>
       <use style="stroke:#000000;" x="712.8" xlink:href="#m60479983a4" y="280.603014"/>
      </g>
     </g>
    </g>
    <g id="ytick_23">
     <g id="line2d_219">
      <g>
       <use style="stroke:#000000;" x="433.8" xlink:href="#m60479983a4" y="268.875399"/>
      </g>
     </g>
     <g id="line2d_220">
      <g>
       <use style="stroke:#000000;" x="712.8" xlink:href="#m60479983a4" y="268.875399"/>
      </g>
     </g>
    </g>
    <g id="ytick_24">
     <g id="line2d_221">
      <g>
       <use style="stroke:#000000;" x="433.8" xlink:href="#m60479983a4" y="245.420168"/>
      </g>
     </g>
     <g id="line2d_222">
      <g>
       <use style="stroke:#000000;" x="712.8" xlink:href="#m60479983a4" y="245.420168"/>
      </g>
     </g>
    </g>
    <g id="ytick_25">
     <g id="line2d_223">
      <g>
       <use style="stroke:#000000;" x="433.8" xlink:href="#m60479983a4" y="233.692553"/>
      </g>
     </g>
     <g id="line2d_224">
      <g>
       <use style="stroke:#000000;" x="712.8" xlink:href="#m60479983a4" y="233.692553"/>
      </g>
     </g>
    </g>
    <g id="ytick_26">
     <g id="line2d_225">
      <g>
       <use style="stroke:#000000;" x="433.8" xlink:href="#m60479983a4" y="221.964937"/>
      </g>
     </g>
     <g id="line2d_226">
      <g>
       <use style="stroke:#000000;" x="712.8" xlink:href="#m60479983a4" y="221.964937"/>
      </g>
     </g>
    </g>
    <g id="ytick_27">
     <g id="line2d_227">
      <g>
       <use style="stroke:#000000;" x="433.8" xlink:href="#m60479983a4" y="210.237322"/>
      </g>
     </g>
     <g id="line2d_228">
      <g>
       <use style="stroke:#000000;" x="712.8" xlink:href="#m60479983a4" y="210.237322"/>
      </g>
     </g>
    </g>
    <g id="ytick_28">
     <g id="line2d_229">
      <g>
       <use style="stroke:#000000;" x="433.8" xlink:href="#m60479983a4" y="186.782091"/>
      </g>
     </g>
     <g id="line2d_230">
      <g>
       <use style="stroke:#000000;" x="712.8" xlink:href="#m60479983a4" y="186.782091"/>
      </g>
     </g>
    </g>
    <g id="ytick_29">
     <g id="line2d_231">
      <g>
       <use style="stroke:#000000;" x="433.8" xlink:href="#m60479983a4" y="175.054476"/>
      </g>
     </g>
     <g id="line2d_232">
      <g>
       <use style="stroke:#000000;" x="712.8" xlink:href="#m60479983a4" y="175.054476"/>
      </g>
     </g>
    </g>
    <g id="ytick_30">
     <g id="line2d_233">
      <g>
       <use style="stroke:#000000;" x="433.8" xlink:href="#m60479983a4" y="163.32686"/>
      </g>
     </g>
     <g id="line2d_234">
      <g>
       <use style="stroke:#000000;" x="712.8" xlink:href="#m60479983a4" y="163.32686"/>
      </g>
     </g>
    </g>
    <g id="ytick_31">
     <g id="line2d_235">
      <g>
       <use style="stroke:#000000;" x="433.8" xlink:href="#m60479983a4" y="151.599245"/>
      </g>
     </g>
     <g id="line2d_236">
      <g>
       <use style="stroke:#000000;" x="712.8" xlink:href="#m60479983a4" y="151.599245"/>
      </g>
     </g>
    </g>
    <g id="ytick_32">
     <g id="line2d_237">
      <g>
       <use style="stroke:#000000;" x="433.8" xlink:href="#m60479983a4" y="128.144014"/>
      </g>
     </g>
     <g id="line2d_238">
      <g>
       <use style="stroke:#000000;" x="712.8" xlink:href="#m60479983a4" y="128.144014"/>
      </g>
     </g>
    </g>
    <g id="ytick_33">
     <g id="line2d_239">
      <g>
       <use style="stroke:#000000;" x="433.8" xlink:href="#m60479983a4" y="116.416399"/>
      </g>
     </g>
     <g id="line2d_240">
      <g>
       <use style="stroke:#000000;" x="712.8" xlink:href="#m60479983a4" y="116.416399"/>
      </g>
     </g>
    </g>
    <g id="ytick_34">
     <g id="line2d_241">
      <g>
       <use style="stroke:#000000;" x="433.8" xlink:href="#m60479983a4" y="104.688783"/>
      </g>
     </g>
     <g id="line2d_242">
      <g>
       <use style="stroke:#000000;" x="712.8" xlink:href="#m60479983a4" y="104.688783"/>
      </g>
     </g>
    </g>
    <g id="ytick_35">
     <g id="line2d_243">
      <g>
       <use style="stroke:#000000;" x="433.8" xlink:href="#m60479983a4" y="92.961168"/>
      </g>
     </g>
     <g id="line2d_244">
      <g>
       <use style="stroke:#000000;" x="712.8" xlink:href="#m60479983a4" y="92.961168"/>
      </g>
     </g>
    </g>
    <g id="ytick_36">
     <g id="line2d_245">
      <g>
       <use style="stroke:#000000;" x="433.8" xlink:href="#m60479983a4" y="69.505937"/>
      </g>
     </g>
     <g id="line2d_246">
      <g>
       <use style="stroke:#000000;" x="712.8" xlink:href="#m60479983a4" y="69.505937"/>
      </g>
     </g>
    </g>
    <g id="ytick_37">
     <g id="line2d_247">
      <g>
       <use style="stroke:#000000;" x="433.8" xlink:href="#m60479983a4" y="57.778322"/>
      </g>
     </g>
     <g id="line2d_248">
      <g>
       <use style="stroke:#000000;" x="712.8" xlink:href="#m60479983a4" y="57.778322"/>
      </g>
     </g>
    </g>
    <g id="ytick_38">
     <g id="line2d_249">
      <g>
       <use style="stroke:#000000;" x="433.8" xlink:href="#m60479983a4" y="46.050707"/>
      </g>
     </g>
     <g id="line2d_250">
      <g>
       <use style="stroke:#000000;" x="712.8" xlink:href="#m60479983a4" y="46.050707"/>
      </g>
     </g>
    </g>
   </g>
   <g id="line2d_251">
    <path clip-path="url(#p9fcedf0090)" d="M 446.481818 204.373514 
L 474.222235 271.069745 
L 557.443485 306.403768 
L 557.443485 306.403768 
" style="fill:none;stroke:#1f77b4;stroke-linecap:square;stroke-width:1.5;"/>
   </g>
   <g id="line2d_252">
    <path clip-path="url(#p9fcedf0090)" d="M 446.481818 204.373514 
L 474.222235 271.069745 
L 557.443485 306.403768 
L 557.443485 306.403768 
L 557.443485 306.403768 
" style="fill:none;stroke:#ff7f0e;stroke-linecap:square;stroke-width:1.5;"/>
   </g>
   <g id="line2d_253">
    <path clip-path="url(#p9fcedf0090)" d="M 446.481818 204.373514 
L 474.222235 271.069745 
L 486.216813 285.759232 
L 493.924842 292.175594 
L 499.53813 295.686786 
L 503.913128 297.863958 
L 507.475415 299.328704 
L 510.466941 300.373181 
L 513.037969 301.151407 
L 515.287905 301.7516 
L 517.285725 302.227588 
L 535.239655 304.84342 
L 542.465639 305.422421 
L 599.601194 307.097878 
L 574.868598 307.451001 
L 584.840989 307.788106 
L 587.200877 307.799475 
L 586.677587 307.799951 
L 586.835002 307.799996 
L 586.790186 307.8 
L 586.803167 307.8 
L 586.799425 307.8 
L 586.800505 307.8 
L 586.800193 307.8 
L 586.800283 307.8 
L 586.800257 307.8 
L 586.800265 307.8 
L 586.800263 307.8 
L 586.800263 307.8 
L 586.800263 307.8 
L 586.800263 307.8 
L 586.800263 307.8 
L 586.800263 307.8 
L 586.800263 307.8 
L 586.800263 307.8 
L 586.800263 307.8 
L 586.800263 307.8 
L 586.800263 307.8 
L 586.800263 307.8 
L 586.800263 307.8 
L 586.800263 307.8 
L 586.800263 307.8 
L 586.800263 307.8 
L 586.800263 307.8 
L 586.800263 307.8 
L 586.800263 307.8 
L 586.800263 307.8 
L 586.800263 307.8 
L 586.800263 307.8 
L 586.800263 307.8 
" style="fill:none;stroke:#2ca02c;stroke-linecap:square;stroke-width:1.5;"/>
   </g>
   <g id="line2d_254">
    <path clip-path="url(#p9fcedf0090)" d="M 446.481818 204.373514 
L 557.443485 306.403768 
" style="fill:none;stroke:#d62728;stroke-linecap:square;stroke-width:1.5;"/>
   </g>
   <g id="line2d_255">
    <path clip-path="url(#p9fcedf0090)" d="M 446.481818 204.373514 
L 474.222235 271.069745 
L 510.631532 300.426162 
L 533.854649 304.713883 
L 545.648707 305.643682 
L 551.546096 306.02903 
L 554.494791 306.216731 
L 555.969138 306.31027 
L 556.706312 306.35702 
L 557.074899 306.380394 
L 557.259192 306.392081 
L 557.351339 306.397924 
L 557.397412 306.400846 
L 557.420449 306.402307 
L 557.431967 306.403037 
L 557.437726 306.403403 
L 557.440606 306.403585 
L 557.442046 306.403677 
L 557.442765 306.403722 
L 557.443125 306.403745 
L 557.443305 306.403756 
L 557.443395 306.403762 
L 557.44344 306.403765 
L 557.443463 306.403766 
L 557.443474 306.403767 
L 557.44348 306.403767 
L 557.443483 306.403768 
L 557.443484 306.403768 
L 557.443485 306.403768 
L 557.443485 306.403768 
L 557.443485 306.403768 
L 557.443485 306.403768 
L 557.443485 306.403768 
L 557.443485 306.403768 
L 557.443485 306.403768 
L 557.443485 306.403768 
L 557.443485 306.403768 
L 557.443485 306.403768 
L 557.443485 306.403768 
L 557.443485 306.403768 
L 557.443485 306.403768 
L 557.443485 306.403768 
L 557.443485 306.403768 
L 557.443485 306.403768 
L 557.443485 306.403768 
L 557.443485 306.403768 
L 557.443485 306.403768 
L 557.443485 306.403768 
L 557.443485 306.403768 
L 557.443485 306.403768 
" style="fill:none;stroke:#9467bd;stroke-linecap:square;stroke-width:1.5;"/>
   </g>
   <g id="line2d_256">
    <path clip-path="url(#p9fcedf0090)" d="M 446.481818 204.373514 
L 474.222235 271.069745 
L 510.631532 300.426162 
L 533.854649 304.713883 
L 545.648707 305.643682 
L 551.546096 306.02903 
L 554.494791 306.216731 
L 555.969138 306.31027 
L 556.706312 306.35702 
L 557.074899 306.380394 
L 557.259192 306.392081 
L 557.351339 306.397924 
L 557.397412 306.400846 
L 557.420449 306.402307 
L 557.431967 306.403037 
L 557.437726 306.403403 
L 557.440606 306.403585 
L 557.442046 306.403677 
L 557.442765 306.403722 
L 557.443125 306.403745 
L 557.443305 306.403756 
L 557.443395 306.403762 
L 557.44344 306.403765 
L 557.443463 306.403766 
L 557.443474 306.403767 
L 557.44348 306.403767 
L 557.443483 306.403768 
L 557.443484 306.403768 
L 557.443485 306.403768 
L 557.443485 306.403768 
L 557.443485 306.403768 
L 557.443485 306.403768 
L 557.443485 306.403768 
L 557.443485 306.403768 
L 557.443485 306.403768 
L 557.443485 306.403768 
L 557.443485 306.403768 
L 557.443485 306.403768 
L 557.443485 306.403768 
L 557.443485 306.403768 
L 557.443485 306.403768 
L 557.443485 306.403768 
L 557.443485 306.403768 
L 557.443485 306.403768 
L 557.443485 306.403768 
L 557.443485 306.403768 
L 557.443485 306.403768 
L 557.443485 306.403768 
L 557.443485 306.403768 
L 557.443485 306.403768 
" style="fill:none;stroke:#8c564b;stroke-linecap:square;stroke-width:1.5;"/>
   </g>
   <g id="line2d_257">
    <path clip-path="url(#p9fcedf0090)" d="M 446.481818 204.373514 
L 484.153989 283.67735 
L 510.153896 300.271171 
L 529.688234 304.271821 
L 549.88745 305.922564 
L 700.118182 55.8 
L 652.974245 260.273181 
L 622.054755 299.580719 
L 602.537833 306.672257 
L 591.653629 307.714917 
L 587.456245 307.798585 
L 586.814496 307.799999 
L 586.80027 307.8 
L 586.800263 307.8 
L 586.800263 307.8 
L 586.800263 307.8 
L 586.800263 307.8 
L 586.800263 307.8 
L 586.800263 307.8 
L 586.800263 307.8 
L 586.800263 307.8 
L 586.800263 307.8 
L 586.800263 307.8 
L 586.800263 307.8 
L 586.800263 307.8 
L 586.800263 307.8 
L 586.800263 307.8 
L 586.800263 307.8 
L 586.800263 307.8 
L 586.800263 307.8 
L 586.800263 307.8 
L 586.800263 307.8 
L 586.800263 307.8 
L 586.800263 307.8 
L 586.800263 307.8 
L 586.800263 307.8 
L 586.800263 307.8 
L 586.800263 307.8 
L 586.800263 307.8 
L 586.800263 307.8 
L 586.800263 307.8 
L 586.800263 307.8 
L 586.800263 307.8 
L 586.800263 307.8 
L 586.800263 307.8 
L 586.800263 307.8 
L 586.800263 307.8 
L 586.800263 307.8 
L 586.800263 307.8 
L 586.800263 307.8 
" style="fill:none;stroke:#e377c2;stroke-linecap:square;stroke-width:1.5;"/>
   </g>
   <g id="line2d_258">
    <path clip-path="url(#p9fcedf0090)" d="M 446.481818 204.373514 
L 449.687997 215.089246 
L 452.894176 224.907337 
L 456.100355 233.880403 
L 459.306533 242.059468 
L 462.512712 249.493969 
L 465.718891 256.231754 
L 468.92507 262.31908 
L 472.131249 267.800617 
L 475.337428 272.719443 
L 478.543606 277.117051 
L 481.749785 281.033341 
L 484.955964 284.506626 
L 488.162143 287.573629 
L 491.368322 290.269484 
L 494.574501 292.627736 
L 497.780679 294.68034 
L 500.986858 296.457664 
L 504.193037 297.988484 
L 507.399216 299.299989 
L 510.605395 300.417778 
L 514.8803 301.648098 
L 519.155205 302.629053 
L 524.498836 303.576456 
L 529.842468 304.289799 
L 537.323552 305.025189 
L 548.010814 305.80064 
L 574.728971 307.443976 
L 583.278781 307.762936 
L 589.691139 307.7711 
L 595.03477 307.536326 
L 599.309676 307.133573 
L 603.584581 306.489542 
L 606.790759 305.817269 
L 609.996938 304.956635 
L 613.203117 303.882386 
L 616.409296 302.567679 
L 619.615475 300.984082 
L 622.821654 299.101575 
L 626.027832 296.888547 
L 629.234011 294.311798 
L 632.44019 291.33654 
L 635.646369 287.926396 
L 638.852548 284.043398 
L 642.058727 279.64799 
L 645.264905 274.699027 
L 648.471084 269.153775 
L 651.677263 262.96791 
L 654.883442 256.09552 
L 658.089621 248.489103 
L 659.158347 245.782075 
L 659.158347 245.782075 
" style="fill:none;stroke:#7f7f7f;stroke-linecap:square;stroke-width:1.5;"/>
   </g>
   <g id="patch_9">
    <path d="M 433.8 320.4 
L 433.8 43.2 
" style="fill:none;stroke:#000000;stroke-linecap:square;stroke-linejoin:miter;"/>
   </g>
   <g id="patch_10">
    <path d="M 712.8 320.4 
L 712.8 43.2 
" style="fill:none;stroke:#000000;stroke-linecap:square;stroke-linejoin:miter;"/>
   </g>
   <g id="patch_11">
    <path d="M 433.8 320.4 
L 712.8 320.4 
" style="fill:none;stroke:#000000;stroke-linecap:square;stroke-linejoin:miter;"/>
   </g>
   <g id="patch_12">
    <path d="M 433.8 43.2 
L 712.8 43.2 
" style="fill:none;stroke:#000000;stroke-linecap:square;stroke-linejoin:miter;"/>
   </g>
   <g id="text_30">
    <!-- Model Movement -->
    <g transform="translate(517.28625 37.2)scale(0.13 -0.13)">
     <defs>
      <path d="M 45.40625 46.390625 
L 45.40625 75.984375 
L 54.390625 75.984375 
L 54.390625 0 
L 45.40625 0 
L 45.40625 8.203125 
Q 42.578125 3.328125 38.25 0.953125 
Q 33.9375 -1.421875 27.875 -1.421875 
Q 17.96875 -1.421875 11.734375 6.484375 
Q 5.515625 14.40625 5.515625 27.296875 
Q 5.515625 40.1875 11.734375 48.09375 
Q 17.96875 56 27.875 56 
Q 33.9375 56 38.25 53.625 
Q 42.578125 51.265625 45.40625 46.390625 
z
M 14.796875 27.296875 
Q 14.796875 17.390625 18.875 11.75 
Q 22.953125 6.109375 30.078125 6.109375 
Q 37.203125 6.109375 41.296875 11.75 
Q 45.40625 17.390625 45.40625 27.296875 
Q 45.40625 37.203125 41.296875 42.84375 
Q 37.203125 48.484375 30.078125 48.484375 
Q 22.953125 48.484375 18.875 42.84375 
Q 14.796875 37.203125 14.796875 27.296875 
z
" id="DejaVuSans-100"/>
      <path d="M 52 44.1875 
Q 55.375 50.25 60.0625 53.125 
Q 64.75 56 71.09375 56 
Q 79.640625 56 84.28125 50.015625 
Q 88.921875 44.046875 88.921875 33.015625 
L 88.921875 0 
L 79.890625 0 
L 79.890625 32.71875 
Q 79.890625 40.578125 77.09375 44.375 
Q 74.3125 48.1875 68.609375 48.1875 
Q 61.625 48.1875 57.5625 43.546875 
Q 53.515625 38.921875 53.515625 30.90625 
L 53.515625 0 
L 44.484375 0 
L 44.484375 32.71875 
Q 44.484375 40.625 41.703125 44.40625 
Q 38.921875 48.1875 33.109375 48.1875 
Q 26.21875 48.1875 22.15625 43.53125 
Q 18.109375 38.875 18.109375 30.90625 
L 18.109375 0 
L 9.078125 0 
L 9.078125 54.6875 
L 18.109375 54.6875 
L 18.109375 46.1875 
Q 21.1875 51.21875 25.484375 53.609375 
Q 29.78125 56 35.6875 56 
Q 41.65625 56 45.828125 52.96875 
Q 50 49.953125 52 44.1875 
z
" id="DejaVuSans-109"/>
     </defs>
     <use xlink:href="#DejaVuSans-77"/>
     <use x="86.279297" xlink:href="#DejaVuSans-111"/>
     <use x="147.460938" xlink:href="#DejaVuSans-100"/>
     <use x="210.9375" xlink:href="#DejaVuSans-101"/>
     <use x="272.460938" xlink:href="#DejaVuSans-108"/>
     <use x="300.244141" xlink:href="#DejaVuSans-32"/>
     <use x="332.03125" xlink:href="#DejaVuSans-77"/>
     <use x="418.310547" xlink:href="#DejaVuSans-111"/>
     <use x="479.492188" xlink:href="#DejaVuSans-118"/>
     <use x="538.671875" xlink:href="#DejaVuSans-101"/>
     <use x="600.195312" xlink:href="#DejaVuSans-109"/>
     <use x="697.607422" xlink:href="#DejaVuSans-101"/>
     <use x="759.130859" xlink:href="#DejaVuSans-110"/>
     <use x="822.509766" xlink:href="#DejaVuSans-116"/>
    </g>
   </g>
   <g id="legend_2">
    <g id="patch_13">
     <path d="M 576.9 169.446875 
L 707.8 169.446875 
L 707.8 48.2 
L 576.9 48.2 
z
" style="fill:#ffffff;stroke:#000000;stroke-linejoin:miter;"/>
    </g>
    <g id="line2d_259">
     <path d="M 580.9 56.298437 
L 600.9 56.298437 
" style="fill:none;stroke:#1f77b4;stroke-linecap:square;stroke-width:1.5;"/>
    </g>
    <g id="line2d_260"/>
    <g id="text_31">
     <!-- bfgs -->
     <g transform="translate(608.9 59.798437)scale(0.1 -0.1)">
      <use xlink:href="#DejaVuSans-98"/>
      <use x="63.476562" xlink:href="#DejaVuSans-102"/>
      <use x="98.681641" xlink:href="#DejaVuSans-103"/>
      <use x="162.158203" xlink:href="#DejaVuSans-115"/>
     </g>
    </g>
    <g id="line2d_261">
     <path d="M 580.9 70.976562 
L 600.9 70.976562 
" style="fill:none;stroke:#ff7f0e;stroke-linecap:square;stroke-width:1.5;"/>
    </g>
    <g id="line2d_262"/>
    <g id="text_32">
     <!-- pbfgs -->
     <g transform="translate(608.9 74.476562)scale(0.1 -0.1)">
      <use xlink:href="#DejaVuSans-112"/>
      <use x="63.476562" xlink:href="#DejaVuSans-98"/>
      <use x="126.953125" xlink:href="#DejaVuSans-102"/>
      <use x="162.158203" xlink:href="#DejaVuSans-103"/>
      <use x="225.634766" xlink:href="#DejaVuSans-115"/>
     </g>
    </g>
    <g id="line2d_263">
     <path d="M 580.9 85.654687 
L 600.9 85.654687 
" style="fill:none;stroke:#2ca02c;stroke-linecap:square;stroke-width:1.5;"/>
    </g>
    <g id="line2d_264"/>
    <g id="text_33">
     <!-- steep -->
     <g transform="translate(608.9 89.154687)scale(0.1 -0.1)">
      <use xlink:href="#DejaVuSans-115"/>
      <use x="52.099609" xlink:href="#DejaVuSans-116"/>
      <use x="91.308594" xlink:href="#DejaVuSans-101"/>
      <use x="152.832031" xlink:href="#DejaVuSans-101"/>
      <use x="214.355469" xlink:href="#DejaVuSans-112"/>
     </g>
    </g>
    <g id="line2d_265">
     <path d="M 580.9 100.332812 
L 600.9 100.332812 
" style="fill:none;stroke:#d62728;stroke-linecap:square;stroke-width:1.5;"/>
    </g>
    <g id="line2d_266"/>
    <g id="text_34">
     <!-- psteep -->
     <g transform="translate(608.9 103.832812)scale(0.1 -0.1)">
      <use xlink:href="#DejaVuSans-112"/>
      <use x="63.476562" xlink:href="#DejaVuSans-115"/>
      <use x="115.576172" xlink:href="#DejaVuSans-116"/>
      <use x="154.785156" xlink:href="#DejaVuSans-101"/>
      <use x="216.308594" xlink:href="#DejaVuSans-101"/>
      <use x="277.832031" xlink:href="#DejaVuSans-112"/>
     </g>
    </g>
    <g id="line2d_267">
     <path d="M 580.9 115.010937 
L 600.9 115.010937 
" style="fill:none;stroke:#9467bd;stroke-linecap:square;stroke-width:1.5;"/>
    </g>
    <g id="line2d_268"/>
    <g id="text_35">
     <!-- steep -->
     <g transform="translate(608.9 118.510937)scale(0.1 -0.1)">
      <use xlink:href="#DejaVuSans-115"/>
      <use x="52.099609" xlink:href="#DejaVuSans-116"/>
      <use x="91.308594" xlink:href="#DejaVuSans-101"/>
      <use x="152.832031" xlink:href="#DejaVuSans-101"/>
      <use x="214.355469" xlink:href="#DejaVuSans-112"/>
     </g>
    </g>
    <g id="line2d_269">
     <path d="M 580.9 129.689062 
L 600.9 129.689062 
" style="fill:none;stroke:#8c564b;stroke-linecap:square;stroke-width:1.5;"/>
    </g>
    <g id="line2d_270"/>
    <g id="text_36">
     <!-- psteep -->
     <g transform="translate(608.9 133.189062)scale(0.1 -0.1)">
      <use xlink:href="#DejaVuSans-112"/>
      <use x="63.476562" xlink:href="#DejaVuSans-115"/>
      <use x="115.576172" xlink:href="#DejaVuSans-116"/>
      <use x="154.785156" xlink:href="#DejaVuSans-101"/>
      <use x="216.308594" xlink:href="#DejaVuSans-101"/>
      <use x="277.832031" xlink:href="#DejaVuSans-112"/>
     </g>
    </g>
    <g id="line2d_271">
     <path d="M 580.9 144.367187 
L 600.9 144.367187 
" style="fill:none;stroke:#e377c2;stroke-linecap:square;stroke-width:1.5;"/>
    </g>
    <g id="line2d_272"/>
    <g id="text_37">
     <!-- gn -->
     <g transform="translate(608.9 147.867187)scale(0.1 -0.1)">
      <use xlink:href="#DejaVuSans-103"/>
      <use x="63.476562" xlink:href="#DejaVuSans-110"/>
     </g>
    </g>
    <g id="line2d_273">
     <path d="M 580.9 159.867187 
L 600.9 159.867187 
" style="fill:none;stroke:#7f7f7f;stroke-linecap:square;stroke-width:1.5;"/>
    </g>
    <g id="line2d_274"/>
    <g id="text_38">
     <!-- $f(x) = x^4 - 4x^2 -2x$ -->
     <g transform="translate(608.9 163.367187)scale(0.1 -0.1)">
      <defs>
       <path d="M 47.796875 75.984375 
L 46.390625 68.5 
L 37.796875 68.5 
Q 32.90625 68.5 30.6875 66.578125 
Q 28.46875 64.65625 27.390625 59.515625 
L 26.421875 54.6875 
L 41.21875 54.6875 
L 39.890625 47.703125 
L 25.09375 47.703125 
L 15.828125 0 
L 6.78125 0 
L 16.109375 47.703125 
L 7.515625 47.703125 
L 8.796875 54.6875 
L 17.390625 54.6875 
L 18.109375 58.5 
Q 19.96875 68.171875 24.625 72.078125 
Q 29.296875 75.984375 39.3125 75.984375 
z
" id="DejaVuSans-Oblique-102"/>
       <path d="M 31 75.875 
Q 24.46875 64.65625 21.28125 53.65625 
Q 18.109375 42.671875 18.109375 31.390625 
Q 18.109375 20.125 21.3125 9.0625 
Q 24.515625 -2 31 -13.1875 
L 23.1875 -13.1875 
Q 15.875 -1.703125 12.234375 9.375 
Q 8.59375 20.453125 8.59375 31.390625 
Q 8.59375 42.28125 12.203125 53.3125 
Q 15.828125 64.359375 23.1875 75.875 
z
" id="DejaVuSans-40"/>
       <path d="M 60.015625 54.6875 
L 34.90625 27.875 
L 50.296875 0 
L 39.984375 0 
L 28.421875 21.6875 
L 8.296875 0 
L -2.59375 0 
L 24.3125 28.8125 
L 10.015625 54.6875 
L 20.3125 54.6875 
L 30.8125 34.90625 
L 49.125 54.6875 
z
" id="DejaVuSans-Oblique-120"/>
       <path d="M 8.015625 75.875 
L 15.828125 75.875 
Q 23.140625 64.359375 26.78125 53.3125 
Q 30.421875 42.28125 30.421875 31.390625 
Q 30.421875 20.453125 26.78125 9.375 
Q 23.140625 -1.703125 15.828125 -13.1875 
L 8.015625 -13.1875 
Q 14.5 -2 17.703125 9.0625 
Q 20.90625 20.125 20.90625 31.390625 
Q 20.90625 42.671875 17.703125 53.65625 
Q 14.5 64.65625 8.015625 75.875 
z
" id="DejaVuSans-41"/>
       <path d="M 10.59375 45.40625 
L 73.1875 45.40625 
L 73.1875 37.203125 
L 10.59375 37.203125 
z
M 10.59375 25.484375 
L 73.1875 25.484375 
L 73.1875 17.1875 
L 10.59375 17.1875 
z
" id="DejaVuSans-61"/>
      </defs>
      <use transform="translate(0 0.765625)" xlink:href="#DejaVuSans-Oblique-102"/>
      <use transform="translate(35.205078 0.765625)" xlink:href="#DejaVuSans-40"/>
      <use transform="translate(74.21875 0.765625)" xlink:href="#DejaVuSans-Oblique-120"/>
      <use transform="translate(133.398438 0.765625)" xlink:href="#DejaVuSans-41"/>
      <use transform="translate(191.894531 0.765625)" xlink:href="#DejaVuSans-61"/>
      <use transform="translate(295.166016 0.765625)" xlink:href="#DejaVuSans-Oblique-120"/>
      <use transform="translate(358.811849 39.046875)scale(0.7)" xlink:href="#DejaVuSans-52"/>
      <use transform="translate(425.564779 0.765625)" xlink:href="#DejaVuSans-8722"/>
      <use transform="translate(528.836263 0.765625)" xlink:href="#DejaVuSans-52"/>
      <use transform="translate(592.45931 0.765625)" xlink:href="#DejaVuSans-Oblique-120"/>
      <use transform="translate(656.105143 39.046875)scale(0.7)" xlink:href="#DejaVuSans-50"/>
      <use transform="translate(722.858073 0.765625)" xlink:href="#DejaVuSans-8722"/>
      <use transform="translate(826.129557 0.765625)" xlink:href="#DejaVuSans-50"/>
      <use transform="translate(889.752604 0.765625)" xlink:href="#DejaVuSans-Oblique-120"/>
     </g>
    </g>
   </g>
  </g>
 </g>
 <defs>
  <clipPath id="p8057aa9360">
   <rect height="277.2" width="279" x="99" y="43.2"/>
  </clipPath>
  <clipPath id="p9fcedf0090">
   <rect height="277.2" width="279" x="433.8" y="43.2"/>
  </clipPath>
 </defs>
</svg>
