<?xml version="1.0" encoding="utf-8" standalone="no"?>
<!DOCTYPE svg PUBLIC "-//W3C//DTD SVG 1.1//EN"
  "http://www.w3.org/Graphics/SVG/1.1/DTD/svg11.dtd">
<!-- Created with matplotlib (https://matplotlib.org/) -->
<svg height="360pt" version="1.1" viewBox="0 0 792 360" width="792pt" xmlns="http://www.w3.org/2000/svg" xmlns:xlink="http://www.w3.org/1999/xlink">
 <metadata>
  <rdf:RDF xmlns:cc="http://creativecommons.org/ns#" xmlns:dc="http://purl.org/dc/elements/1.1/" xmlns:rdf="http://www.w3.org/1999/02/22-rdf-syntax-ns#">
   <cc:Work>
    <dc:type rdf:resource="http://purl.org/dc/dcmitype/StillImage"/>
    <dc:date>2020-10-26T06:07:25.806838</dc:date>
    <dc:format>image/svg+xml</dc:format>
    <dc:creator>
     <cc:Agent>
      <dc:title>Matplotlib v3.3.2, https://matplotlib.org/</dc:title>
     </cc:Agent>
    </dc:creator>
   </cc:Work>
  </rdf:RDF>
 </metadata>
 <defs>
  <style type="text/css">*{stroke-linecap:butt;stroke-linejoin:round;}</style>
 </defs>
 <g id="figure_1">
  <g id="patch_1">
   <path d="M 0 360 
L 792 360 
L 792 0 
L 0 0 
z
" style="fill:#ffffff;"/>
  </g>
  <g id="axes_1">
   <g id="patch_2">
    <path d="M 99 320.4 
L 378 320.4 
L 378 43.2 
L 99 43.2 
z
" style="fill:#ffffff;"/>
   </g>
   <g id="matplotlib.axis_1">
    <g id="xtick_1">
     <g id="line2d_1">
      <path clip-path="url(#p8774ec6797)" d="M 111.681818 320.4 
L 111.681818 43.2 
" style="fill:none;stroke:#d3d3d3;stroke-linecap:square;stroke-width:0.8;"/>
     </g>
     <g id="line2d_2">
      <defs>
       <path d="M 0 4 
L 0 -4 
" id="m3906ce7e56" style="stroke:#000000;"/>
      </defs>
      <g>
       <use style="stroke:#000000;" x="111.681818" xlink:href="#m3906ce7e56" y="320.4"/>
      </g>
     </g>
     <g id="line2d_3">
      <g>
       <use style="stroke:#000000;" x="111.681818" xlink:href="#m3906ce7e56" y="43.2"/>
      </g>
     </g>
     <g id="text_1">
      <!-- 0 -->
      <g transform="translate(108.500568 335.498438)scale(0.1 -0.1)">
       <defs>
        <path d="M 31.78125 66.40625 
Q 24.171875 66.40625 20.328125 58.90625 
Q 16.5 51.421875 16.5 36.375 
Q 16.5 21.390625 20.328125 13.890625 
Q 24.171875 6.390625 31.78125 6.390625 
Q 39.453125 6.390625 43.28125 13.890625 
Q 47.125 21.390625 47.125 36.375 
Q 47.125 51.421875 43.28125 58.90625 
Q 39.453125 66.40625 31.78125 66.40625 
z
M 31.78125 74.21875 
Q 44.046875 74.21875 50.515625 64.515625 
Q 56.984375 54.828125 56.984375 36.375 
Q 56.984375 17.96875 50.515625 8.265625 
Q 44.046875 -1.421875 31.78125 -1.421875 
Q 19.53125 -1.421875 13.0625 8.265625 
Q 6.59375 17.96875 6.59375 36.375 
Q 6.59375 54.828125 13.0625 64.515625 
Q 19.53125 74.21875 31.78125 74.21875 
z
" id="DejaVuSans-48"/>
       </defs>
       <use xlink:href="#DejaVuSans-48"/>
      </g>
     </g>
    </g>
    <g id="xtick_2">
     <g id="line2d_4">
      <path clip-path="url(#p8774ec6797)" d="M 162.409091 320.4 
L 162.409091 43.2 
" style="fill:none;stroke:#d3d3d3;stroke-linecap:square;stroke-width:0.8;"/>
     </g>
     <g id="line2d_5">
      <g>
       <use style="stroke:#000000;" x="162.409091" xlink:href="#m3906ce7e56" y="320.4"/>
      </g>
     </g>
     <g id="line2d_6">
      <g>
       <use style="stroke:#000000;" x="162.409091" xlink:href="#m3906ce7e56" y="43.2"/>
      </g>
     </g>
     <g id="text_2">
      <!-- 10 -->
      <g transform="translate(156.046591 335.498438)scale(0.1 -0.1)">
       <defs>
        <path d="M 12.40625 8.296875 
L 28.515625 8.296875 
L 28.515625 63.921875 
L 10.984375 60.40625 
L 10.984375 69.390625 
L 28.421875 72.90625 
L 38.28125 72.90625 
L 38.28125 8.296875 
L 54.390625 8.296875 
L 54.390625 0 
L 12.40625 0 
z
" id="DejaVuSans-49"/>
       </defs>
       <use xlink:href="#DejaVuSans-49"/>
       <use x="63.623047" xlink:href="#DejaVuSans-48"/>
      </g>
     </g>
    </g>
    <g id="xtick_3">
     <g id="line2d_7">
      <path clip-path="url(#p8774ec6797)" d="M 213.136364 320.4 
L 213.136364 43.2 
" style="fill:none;stroke:#d3d3d3;stroke-linecap:square;stroke-width:0.8;"/>
     </g>
     <g id="line2d_8">
      <g>
       <use style="stroke:#000000;" x="213.136364" xlink:href="#m3906ce7e56" y="320.4"/>
      </g>
     </g>
     <g id="line2d_9">
      <g>
       <use style="stroke:#000000;" x="213.136364" xlink:href="#m3906ce7e56" y="43.2"/>
      </g>
     </g>
     <g id="text_3">
      <!-- 20 -->
      <g transform="translate(206.773864 335.498438)scale(0.1 -0.1)">
       <defs>
        <path d="M 19.1875 8.296875 
L 53.609375 8.296875 
L 53.609375 0 
L 7.328125 0 
L 7.328125 8.296875 
Q 12.9375 14.109375 22.625 23.890625 
Q 32.328125 33.6875 34.8125 36.53125 
Q 39.546875 41.84375 41.421875 45.53125 
Q 43.3125 49.21875 43.3125 52.78125 
Q 43.3125 58.59375 39.234375 62.25 
Q 35.15625 65.921875 28.609375 65.921875 
Q 23.96875 65.921875 18.8125 64.3125 
Q 13.671875 62.703125 7.8125 59.421875 
L 7.8125 69.390625 
Q 13.765625 71.78125 18.9375 73 
Q 24.125 74.21875 28.421875 74.21875 
Q 39.75 74.21875 46.484375 68.546875 
Q 53.21875 62.890625 53.21875 53.421875 
Q 53.21875 48.921875 51.53125 44.890625 
Q 49.859375 40.875 45.40625 35.40625 
Q 44.1875 33.984375 37.640625 27.21875 
Q 31.109375 20.453125 19.1875 8.296875 
z
" id="DejaVuSans-50"/>
       </defs>
       <use xlink:href="#DejaVuSans-50"/>
       <use x="63.623047" xlink:href="#DejaVuSans-48"/>
      </g>
     </g>
    </g>
    <g id="xtick_4">
     <g id="line2d_10">
      <path clip-path="url(#p8774ec6797)" d="M 263.863636 320.4 
L 263.863636 43.2 
" style="fill:none;stroke:#d3d3d3;stroke-linecap:square;stroke-width:0.8;"/>
     </g>
     <g id="line2d_11">
      <g>
       <use style="stroke:#000000;" x="263.863636" xlink:href="#m3906ce7e56" y="320.4"/>
      </g>
     </g>
     <g id="line2d_12">
      <g>
       <use style="stroke:#000000;" x="263.863636" xlink:href="#m3906ce7e56" y="43.2"/>
      </g>
     </g>
     <g id="text_4">
      <!-- 30 -->
      <g transform="translate(257.501136 335.498438)scale(0.1 -0.1)">
       <defs>
        <path d="M 40.578125 39.3125 
Q 47.65625 37.796875 51.625 33 
Q 55.609375 28.21875 55.609375 21.1875 
Q 55.609375 10.40625 48.1875 4.484375 
Q 40.765625 -1.421875 27.09375 -1.421875 
Q 22.515625 -1.421875 17.65625 -0.515625 
Q 12.796875 0.390625 7.625 2.203125 
L 7.625 11.71875 
Q 11.71875 9.328125 16.59375 8.109375 
Q 21.484375 6.890625 26.8125 6.890625 
Q 36.078125 6.890625 40.9375 10.546875 
Q 45.796875 14.203125 45.796875 21.1875 
Q 45.796875 27.640625 41.28125 31.265625 
Q 36.765625 34.90625 28.71875 34.90625 
L 20.21875 34.90625 
L 20.21875 43.015625 
L 29.109375 43.015625 
Q 36.375 43.015625 40.234375 45.921875 
Q 44.09375 48.828125 44.09375 54.296875 
Q 44.09375 59.90625 40.109375 62.90625 
Q 36.140625 65.921875 28.71875 65.921875 
Q 24.65625 65.921875 20.015625 65.03125 
Q 15.375 64.15625 9.8125 62.3125 
L 9.8125 71.09375 
Q 15.4375 72.65625 20.34375 73.4375 
Q 25.25 74.21875 29.59375 74.21875 
Q 40.828125 74.21875 47.359375 69.109375 
Q 53.90625 64.015625 53.90625 55.328125 
Q 53.90625 49.265625 50.4375 45.09375 
Q 46.96875 40.921875 40.578125 39.3125 
z
" id="DejaVuSans-51"/>
       </defs>
       <use xlink:href="#DejaVuSans-51"/>
       <use x="63.623047" xlink:href="#DejaVuSans-48"/>
      </g>
     </g>
    </g>
    <g id="xtick_5">
     <g id="line2d_13">
      <path clip-path="url(#p8774ec6797)" d="M 314.590909 320.4 
L 314.590909 43.2 
" style="fill:none;stroke:#d3d3d3;stroke-linecap:square;stroke-width:0.8;"/>
     </g>
     <g id="line2d_14">
      <g>
       <use style="stroke:#000000;" x="314.590909" xlink:href="#m3906ce7e56" y="320.4"/>
      </g>
     </g>
     <g id="line2d_15">
      <g>
       <use style="stroke:#000000;" x="314.590909" xlink:href="#m3906ce7e56" y="43.2"/>
      </g>
     </g>
     <g id="text_5">
      <!-- 40 -->
      <g transform="translate(308.228409 335.498438)scale(0.1 -0.1)">
       <defs>
        <path d="M 37.796875 64.3125 
L 12.890625 25.390625 
L 37.796875 25.390625 
z
M 35.203125 72.90625 
L 47.609375 72.90625 
L 47.609375 25.390625 
L 58.015625 25.390625 
L 58.015625 17.1875 
L 47.609375 17.1875 
L 47.609375 0 
L 37.796875 0 
L 37.796875 17.1875 
L 4.890625 17.1875 
L 4.890625 26.703125 
z
" id="DejaVuSans-52"/>
       </defs>
       <use xlink:href="#DejaVuSans-52"/>
       <use x="63.623047" xlink:href="#DejaVuSans-48"/>
      </g>
     </g>
    </g>
    <g id="xtick_6">
     <g id="line2d_16">
      <path clip-path="url(#p8774ec6797)" d="M 365.318182 320.4 
L 365.318182 43.2 
" style="fill:none;stroke:#d3d3d3;stroke-linecap:square;stroke-width:0.8;"/>
     </g>
     <g id="line2d_17">
      <g>
       <use style="stroke:#000000;" x="365.318182" xlink:href="#m3906ce7e56" y="320.4"/>
      </g>
     </g>
     <g id="line2d_18">
      <g>
       <use style="stroke:#000000;" x="365.318182" xlink:href="#m3906ce7e56" y="43.2"/>
      </g>
     </g>
     <g id="text_6">
      <!-- 50 -->
      <g transform="translate(358.955682 335.498438)scale(0.1 -0.1)">
       <defs>
        <path d="M 10.796875 72.90625 
L 49.515625 72.90625 
L 49.515625 64.59375 
L 19.828125 64.59375 
L 19.828125 46.734375 
Q 21.96875 47.46875 24.109375 47.828125 
Q 26.265625 48.1875 28.421875 48.1875 
Q 40.625 48.1875 47.75 41.5 
Q 54.890625 34.8125 54.890625 23.390625 
Q 54.890625 11.625 47.5625 5.09375 
Q 40.234375 -1.421875 26.90625 -1.421875 
Q 22.3125 -1.421875 17.546875 -0.640625 
Q 12.796875 0.140625 7.71875 1.703125 
L 7.71875 11.625 
Q 12.109375 9.234375 16.796875 8.0625 
Q 21.484375 6.890625 26.703125 6.890625 
Q 35.15625 6.890625 40.078125 11.328125 
Q 45.015625 15.765625 45.015625 23.390625 
Q 45.015625 31 40.078125 35.4375 
Q 35.15625 39.890625 26.703125 39.890625 
Q 22.75 39.890625 18.8125 39.015625 
Q 14.890625 38.140625 10.796875 36.28125 
z
" id="DejaVuSans-53"/>
       </defs>
       <use xlink:href="#DejaVuSans-53"/>
       <use x="63.623047" xlink:href="#DejaVuSans-48"/>
      </g>
     </g>
    </g>
    <g id="xtick_7">
     <g id="line2d_19">
      <defs>
       <path d="M 0 2 
L 0 -2 
" id="m15308bb93e" style="stroke:#000000;"/>
      </defs>
      <g>
       <use style="stroke:#000000;" x="101.536364" xlink:href="#m15308bb93e" y="320.4"/>
      </g>
     </g>
     <g id="line2d_20">
      <g>
       <use style="stroke:#000000;" x="101.536364" xlink:href="#m15308bb93e" y="43.2"/>
      </g>
     </g>
    </g>
    <g id="xtick_8">
     <g id="line2d_21">
      <g>
       <use style="stroke:#000000;" x="121.827273" xlink:href="#m15308bb93e" y="320.4"/>
      </g>
     </g>
     <g id="line2d_22">
      <g>
       <use style="stroke:#000000;" x="121.827273" xlink:href="#m15308bb93e" y="43.2"/>
      </g>
     </g>
    </g>
    <g id="xtick_9">
     <g id="line2d_23">
      <g>
       <use style="stroke:#000000;" x="131.972727" xlink:href="#m15308bb93e" y="320.4"/>
      </g>
     </g>
     <g id="line2d_24">
      <g>
       <use style="stroke:#000000;" x="131.972727" xlink:href="#m15308bb93e" y="43.2"/>
      </g>
     </g>
    </g>
    <g id="xtick_10">
     <g id="line2d_25">
      <g>
       <use style="stroke:#000000;" x="142.118182" xlink:href="#m15308bb93e" y="320.4"/>
      </g>
     </g>
     <g id="line2d_26">
      <g>
       <use style="stroke:#000000;" x="142.118182" xlink:href="#m15308bb93e" y="43.2"/>
      </g>
     </g>
    </g>
    <g id="xtick_11">
     <g id="line2d_27">
      <g>
       <use style="stroke:#000000;" x="152.263636" xlink:href="#m15308bb93e" y="320.4"/>
      </g>
     </g>
     <g id="line2d_28">
      <g>
       <use style="stroke:#000000;" x="152.263636" xlink:href="#m15308bb93e" y="43.2"/>
      </g>
     </g>
    </g>
    <g id="xtick_12">
     <g id="line2d_29">
      <g>
       <use style="stroke:#000000;" x="172.554545" xlink:href="#m15308bb93e" y="320.4"/>
      </g>
     </g>
     <g id="line2d_30">
      <g>
       <use style="stroke:#000000;" x="172.554545" xlink:href="#m15308bb93e" y="43.2"/>
      </g>
     </g>
    </g>
    <g id="xtick_13">
     <g id="line2d_31">
      <g>
       <use style="stroke:#000000;" x="182.7" xlink:href="#m15308bb93e" y="320.4"/>
      </g>
     </g>
     <g id="line2d_32">
      <g>
       <use style="stroke:#000000;" x="182.7" xlink:href="#m15308bb93e" y="43.2"/>
      </g>
     </g>
    </g>
    <g id="xtick_14">
     <g id="line2d_33">
      <g>
       <use style="stroke:#000000;" x="192.845455" xlink:href="#m15308bb93e" y="320.4"/>
      </g>
     </g>
     <g id="line2d_34">
      <g>
       <use style="stroke:#000000;" x="192.845455" xlink:href="#m15308bb93e" y="43.2"/>
      </g>
     </g>
    </g>
    <g id="xtick_15">
     <g id="line2d_35">
      <g>
       <use style="stroke:#000000;" x="202.990909" xlink:href="#m15308bb93e" y="320.4"/>
      </g>
     </g>
     <g id="line2d_36">
      <g>
       <use style="stroke:#000000;" x="202.990909" xlink:href="#m15308bb93e" y="43.2"/>
      </g>
     </g>
    </g>
    <g id="xtick_16">
     <g id="line2d_37">
      <g>
       <use style="stroke:#000000;" x="223.281818" xlink:href="#m15308bb93e" y="320.4"/>
      </g>
     </g>
     <g id="line2d_38">
      <g>
       <use style="stroke:#000000;" x="223.281818" xlink:href="#m15308bb93e" y="43.2"/>
      </g>
     </g>
    </g>
    <g id="xtick_17">
     <g id="line2d_39">
      <g>
       <use style="stroke:#000000;" x="233.427273" xlink:href="#m15308bb93e" y="320.4"/>
      </g>
     </g>
     <g id="line2d_40">
      <g>
       <use style="stroke:#000000;" x="233.427273" xlink:href="#m15308bb93e" y="43.2"/>
      </g>
     </g>
    </g>
    <g id="xtick_18">
     <g id="line2d_41">
      <g>
       <use style="stroke:#000000;" x="243.572727" xlink:href="#m15308bb93e" y="320.4"/>
      </g>
     </g>
     <g id="line2d_42">
      <g>
       <use style="stroke:#000000;" x="243.572727" xlink:href="#m15308bb93e" y="43.2"/>
      </g>
     </g>
    </g>
    <g id="xtick_19">
     <g id="line2d_43">
      <g>
       <use style="stroke:#000000;" x="253.718182" xlink:href="#m15308bb93e" y="320.4"/>
      </g>
     </g>
     <g id="line2d_44">
      <g>
       <use style="stroke:#000000;" x="253.718182" xlink:href="#m15308bb93e" y="43.2"/>
      </g>
     </g>
    </g>
    <g id="xtick_20">
     <g id="line2d_45">
      <g>
       <use style="stroke:#000000;" x="274.009091" xlink:href="#m15308bb93e" y="320.4"/>
      </g>
     </g>
     <g id="line2d_46">
      <g>
       <use style="stroke:#000000;" x="274.009091" xlink:href="#m15308bb93e" y="43.2"/>
      </g>
     </g>
    </g>
    <g id="xtick_21">
     <g id="line2d_47">
      <g>
       <use style="stroke:#000000;" x="284.154545" xlink:href="#m15308bb93e" y="320.4"/>
      </g>
     </g>
     <g id="line2d_48">
      <g>
       <use style="stroke:#000000;" x="284.154545" xlink:href="#m15308bb93e" y="43.2"/>
      </g>
     </g>
    </g>
    <g id="xtick_22">
     <g id="line2d_49">
      <g>
       <use style="stroke:#000000;" x="294.3" xlink:href="#m15308bb93e" y="320.4"/>
      </g>
     </g>
     <g id="line2d_50">
      <g>
       <use style="stroke:#000000;" x="294.3" xlink:href="#m15308bb93e" y="43.2"/>
      </g>
     </g>
    </g>
    <g id="xtick_23">
     <g id="line2d_51">
      <g>
       <use style="stroke:#000000;" x="304.445455" xlink:href="#m15308bb93e" y="320.4"/>
      </g>
     </g>
     <g id="line2d_52">
      <g>
       <use style="stroke:#000000;" x="304.445455" xlink:href="#m15308bb93e" y="43.2"/>
      </g>
     </g>
    </g>
    <g id="xtick_24">
     <g id="line2d_53">
      <g>
       <use style="stroke:#000000;" x="324.736364" xlink:href="#m15308bb93e" y="320.4"/>
      </g>
     </g>
     <g id="line2d_54">
      <g>
       <use style="stroke:#000000;" x="324.736364" xlink:href="#m15308bb93e" y="43.2"/>
      </g>
     </g>
    </g>
    <g id="xtick_25">
     <g id="line2d_55">
      <g>
       <use style="stroke:#000000;" x="334.881818" xlink:href="#m15308bb93e" y="320.4"/>
      </g>
     </g>
     <g id="line2d_56">
      <g>
       <use style="stroke:#000000;" x="334.881818" xlink:href="#m15308bb93e" y="43.2"/>
      </g>
     </g>
    </g>
    <g id="xtick_26">
     <g id="line2d_57">
      <g>
       <use style="stroke:#000000;" x="345.027273" xlink:href="#m15308bb93e" y="320.4"/>
      </g>
     </g>
     <g id="line2d_58">
      <g>
       <use style="stroke:#000000;" x="345.027273" xlink:href="#m15308bb93e" y="43.2"/>
      </g>
     </g>
    </g>
    <g id="xtick_27">
     <g id="line2d_59">
      <g>
       <use style="stroke:#000000;" x="355.172727" xlink:href="#m15308bb93e" y="320.4"/>
      </g>
     </g>
     <g id="line2d_60">
      <g>
       <use style="stroke:#000000;" x="355.172727" xlink:href="#m15308bb93e" y="43.2"/>
      </g>
     </g>
    </g>
    <g id="xtick_28">
     <g id="line2d_61">
      <g>
       <use style="stroke:#000000;" x="375.463636" xlink:href="#m15308bb93e" y="320.4"/>
      </g>
     </g>
     <g id="line2d_62">
      <g>
       <use style="stroke:#000000;" x="375.463636" xlink:href="#m15308bb93e" y="43.2"/>
      </g>
     </g>
    </g>
   </g>
   <g id="matplotlib.axis_2">
    <g id="ytick_1">
     <g id="line2d_63">
      <path clip-path="url(#p8774ec6797)" d="M 99 275.962014 
L 378 275.962014 
" style="fill:none;stroke:#d3d3d3;stroke-linecap:square;stroke-width:0.8;"/>
     </g>
     <g id="line2d_64">
      <defs>
       <path d="M 4 0 
L -4 -0 
" id="meac3724087" style="stroke:#000000;"/>
      </defs>
      <g>
       <use style="stroke:#000000;" x="99" xlink:href="#meac3724087" y="275.962014"/>
      </g>
     </g>
     <g id="line2d_65">
      <g>
       <use style="stroke:#000000;" x="378" xlink:href="#meac3724087" y="275.962014"/>
      </g>
     </g>
     <g id="text_7">
      <!-- $\mathdefault{10^{-1}}$ -->
      <g transform="translate(68 279.761233)scale(0.1 -0.1)">
       <defs>
        <path d="M 10.59375 35.5 
L 73.1875 35.5 
L 73.1875 27.203125 
L 10.59375 27.203125 
z
" id="DejaVuSans-8722"/>
       </defs>
       <use transform="translate(0 0.684375)" xlink:href="#DejaVuSans-49"/>
       <use transform="translate(63.623047 0.684375)" xlink:href="#DejaVuSans-48"/>
       <use transform="translate(128.203125 38.965625)scale(0.7)" xlink:href="#DejaVuSans-8722"/>
       <use transform="translate(186.855469 38.965625)scale(0.7)" xlink:href="#DejaVuSans-49"/>
      </g>
     </g>
    </g>
    <g id="ytick_2">
     <g id="line2d_66">
      <path clip-path="url(#p8774ec6797)" d="M 99 55.8 
L 378 55.8 
" style="fill:none;stroke:#d3d3d3;stroke-linecap:square;stroke-width:0.8;"/>
     </g>
     <g id="line2d_67">
      <g>
       <use style="stroke:#000000;" x="99" xlink:href="#meac3724087" y="55.8"/>
      </g>
     </g>
     <g id="line2d_68">
      <g>
       <use style="stroke:#000000;" x="378" xlink:href="#meac3724087" y="55.8"/>
      </g>
     </g>
     <g id="text_8">
      <!-- $\mathdefault{10^{0}}$ -->
      <g transform="translate(73.9 59.599219)scale(0.1 -0.1)">
       <use transform="translate(0 0.765625)" xlink:href="#DejaVuSans-49"/>
       <use transform="translate(63.623047 0.765625)" xlink:href="#DejaVuSans-48"/>
       <use transform="translate(128.203125 39.046875)scale(0.7)" xlink:href="#DejaVuSans-48"/>
      </g>
     </g>
    </g>
    <g id="ytick_3">
     <g id="line2d_69">
      <defs>
       <path d="M 2 0 
L -2 -0 
" id="m19593473a9" style="stroke:#000000;"/>
      </defs>
      <g>
       <use style="stroke:#000000;" x="99" xlink:href="#m19593473a9" y="310.065542"/>
      </g>
     </g>
     <g id="line2d_70">
      <g>
       <use style="stroke:#000000;" x="378" xlink:href="#m19593473a9" y="310.065542"/>
      </g>
     </g>
    </g>
    <g id="ytick_4">
     <g id="line2d_71">
      <g>
       <use style="stroke:#000000;" x="99" xlink:href="#m19593473a9" y="297.297918"/>
      </g>
     </g>
     <g id="line2d_72">
      <g>
       <use style="stroke:#000000;" x="378" xlink:href="#m19593473a9" y="297.297918"/>
      </g>
     </g>
    </g>
    <g id="ytick_5">
     <g id="line2d_73">
      <g>
       <use style="stroke:#000000;" x="99" xlink:href="#m19593473a9" y="286.036076"/>
      </g>
     </g>
     <g id="line2d_74">
      <g>
       <use style="stroke:#000000;" x="378" xlink:href="#m19593473a9" y="286.036076"/>
      </g>
     </g>
    </g>
    <g id="ytick_6">
     <g id="line2d_75">
      <g>
       <use style="stroke:#000000;" x="99" xlink:href="#m19593473a9" y="209.686644"/>
      </g>
     </g>
     <g id="line2d_76">
      <g>
       <use style="stroke:#000000;" x="378" xlink:href="#m19593473a9" y="209.686644"/>
      </g>
     </g>
    </g>
    <g id="ytick_7">
     <g id="line2d_77">
      <g>
       <use style="stroke:#000000;" x="99" xlink:href="#m19593473a9" y="170.918038"/>
      </g>
     </g>
     <g id="line2d_78">
      <g>
       <use style="stroke:#000000;" x="378" xlink:href="#m19593473a9" y="170.918038"/>
      </g>
     </g>
    </g>
    <g id="ytick_8">
     <g id="line2d_79">
      <g>
       <use style="stroke:#000000;" x="99" xlink:href="#m19593473a9" y="143.411274"/>
      </g>
     </g>
     <g id="line2d_80">
      <g>
       <use style="stroke:#000000;" x="378" xlink:href="#m19593473a9" y="143.411274"/>
      </g>
     </g>
    </g>
    <g id="ytick_9">
     <g id="line2d_81">
      <g>
       <use style="stroke:#000000;" x="99" xlink:href="#m19593473a9" y="122.07537"/>
      </g>
     </g>
     <g id="line2d_82">
      <g>
       <use style="stroke:#000000;" x="378" xlink:href="#m19593473a9" y="122.07537"/>
      </g>
     </g>
    </g>
    <g id="ytick_10">
     <g id="line2d_83">
      <g>
       <use style="stroke:#000000;" x="99" xlink:href="#m19593473a9" y="104.642668"/>
      </g>
     </g>
     <g id="line2d_84">
      <g>
       <use style="stroke:#000000;" x="378" xlink:href="#m19593473a9" y="104.642668"/>
      </g>
     </g>
    </g>
    <g id="ytick_11">
     <g id="line2d_85">
      <g>
       <use style="stroke:#000000;" x="99" xlink:href="#m19593473a9" y="89.903528"/>
      </g>
     </g>
     <g id="line2d_86">
      <g>
       <use style="stroke:#000000;" x="378" xlink:href="#m19593473a9" y="89.903528"/>
      </g>
     </g>
    </g>
    <g id="ytick_12">
     <g id="line2d_87">
      <g>
       <use style="stroke:#000000;" x="99" xlink:href="#m19593473a9" y="77.135904"/>
      </g>
     </g>
     <g id="line2d_88">
      <g>
       <use style="stroke:#000000;" x="378" xlink:href="#m19593473a9" y="77.135904"/>
      </g>
     </g>
    </g>
    <g id="ytick_13">
     <g id="line2d_89">
      <g>
       <use style="stroke:#000000;" x="99" xlink:href="#m19593473a9" y="65.874061"/>
      </g>
     </g>
     <g id="line2d_90">
      <g>
       <use style="stroke:#000000;" x="378" xlink:href="#m19593473a9" y="65.874061"/>
      </g>
     </g>
    </g>
   </g>
   <g id="line2d_91">
    <path clip-path="url(#p8774ec6797)" d="M 111.681818 55.8 
L 116.754545 143.08747 
L 121.827273 292.393502 
L 126.9 292.393502 
" style="fill:none;stroke:#1f77b4;stroke-linecap:square;stroke-width:1.5;"/>
   </g>
   <g id="line2d_92">
    <path clip-path="url(#p8774ec6797)" d="M 111.681818 55.8 
L 116.754545 143.08747 
L 121.827273 292.393502 
L 126.9 292.393502 
L 131.972727 292.393502 
" style="fill:none;stroke:#ff7f0e;stroke-linecap:square;stroke-width:1.5;"/>
   </g>
   <g id="line2d_93">
    <path clip-path="url(#p8774ec6797)" d="M 111.681818 55.8 
L 116.754545 143.08747 
L 121.827273 181.166141 
L 126.9 204.152306 
L 131.972727 219.547097 
L 137.045455 230.509394 
L 142.118182 238.661842 
L 147.190909 244.931322 
L 152.263636 249.885327 
L 157.336364 253.889404 
L 162.409091 257.188572 
L 167.481818 277.683491 
L 172.554545 282.881578 
L 177.627273 299.742681 
L 182.7 303.710144 
L 187.772727 307.657697 
L 192.845455 307.793717 
L 197.918182 307.799418 
L 202.990909 307.799953 
L 208.063636 307.799996 
L 213.136364 307.8 
L 218.209091 307.8 
L 223.281818 307.8 
L 228.354545 307.8 
L 233.427273 307.8 
L 238.5 307.8 
L 243.572727 307.8 
L 248.645455 307.8 
L 253.718182 307.8 
L 258.790909 307.8 
L 263.863636 307.8 
L 268.936364 307.8 
L 274.009091 307.8 
L 279.081818 307.8 
L 284.154545 307.8 
L 289.227273 307.8 
L 294.3 307.8 
L 299.372727 307.8 
L 304.445455 307.8 
L 309.518182 307.8 
L 314.590909 307.8 
L 319.663636 307.8 
L 324.736364 307.8 
L 329.809091 307.8 
L 334.881818 307.8 
L 339.954545 307.8 
L 345.027273 307.8 
L 350.1 307.8 
L 355.172727 307.8 
L 360.245455 307.8 
L 365.318182 307.8 
" style="fill:none;stroke:#2ca02c;stroke-linecap:square;stroke-width:1.5;"/>
   </g>
   <g id="line2d_94">
    <path clip-path="url(#p8774ec6797)" d="M 111.681818 55.8 
L 116.754545 292.393502 
" style="fill:none;stroke:#d62728;stroke-linecap:square;stroke-width:1.5;"/>
   </g>
   <g id="line2d_95">
    <path clip-path="url(#p8774ec6797)" d="M 111.681818 55.8 
L 116.754545 143.08747 
L 121.827273 245.260561 
L 126.9 276.558248 
L 131.972727 284.94508 
L 137.045455 288.648761 
L 142.118182 290.506113 
L 147.190909 291.44536 
L 152.263636 291.918269 
L 157.336364 292.155591 
L 162.409091 292.274473 
L 167.481818 292.333969 
L 172.554545 292.363731 
L 177.627273 292.378615 
L 182.7 292.386058 
L 187.772727 292.38978 
L 192.845455 292.391641 
L 197.918182 292.392572 
L 202.990909 292.393037 
L 208.063636 292.393269 
L 213.136364 292.393386 
L 218.209091 292.393444 
L 223.281818 292.393473 
L 228.354545 292.393488 
L 233.427273 292.393495 
L 238.5 292.393498 
L 243.572727 292.3935 
L 248.645455 292.393501 
L 253.718182 292.393502 
L 258.790909 292.393502 
L 263.863636 292.393502 
L 268.936364 292.393502 
L 274.009091 292.393502 
L 279.081818 292.393502 
L 284.154545 292.393502 
L 289.227273 292.393502 
L 294.3 292.393502 
L 299.372727 292.393502 
L 304.445455 292.393502 
L 309.518182 292.393502 
L 314.590909 292.393502 
L 319.663636 292.393502 
L 324.736364 292.393502 
L 329.809091 292.393502 
L 334.881818 292.393502 
L 339.954545 292.393502 
L 345.027273 292.393502 
L 350.1 292.393502 
L 355.172727 292.393502 
L 360.245455 292.393502 
L 365.318182 292.393502 
" style="fill:none;stroke:#9467bd;stroke-linecap:square;stroke-width:1.5;"/>
   </g>
   <g id="line2d_96">
    <path clip-path="url(#p8774ec6797)" d="M 111.681818 55.8 
L 116.754545 143.08747 
L 121.827273 245.260561 
L 126.9 276.558248 
L 131.972727 284.94508 
L 137.045455 288.648761 
L 142.118182 290.506113 
L 147.190909 291.44536 
L 152.263636 291.918269 
L 157.336364 292.155591 
L 162.409091 292.274473 
L 167.481818 292.333969 
L 172.554545 292.363731 
L 177.627273 292.378615 
L 182.7 292.386058 
L 187.772727 292.38978 
L 192.845455 292.391641 
L 197.918182 292.392572 
L 202.990909 292.393037 
L 208.063636 292.393269 
L 213.136364 292.393386 
L 218.209091 292.393444 
L 223.281818 292.393473 
L 228.354545 292.393488 
L 233.427273 292.393495 
L 238.5 292.393498 
L 243.572727 292.3935 
L 248.645455 292.393501 
L 253.718182 292.393502 
L 258.790909 292.393502 
L 263.863636 292.393502 
L 268.936364 292.393502 
L 274.009091 292.393502 
L 279.081818 292.393502 
L 284.154545 292.393502 
L 289.227273 292.393502 
L 294.3 292.393502 
L 299.372727 292.393502 
L 304.445455 292.393502 
L 309.518182 292.393502 
L 314.590909 292.393502 
L 319.663636 292.393502 
L 324.736364 292.393502 
L 329.809091 292.393502 
L 334.881818 292.393502 
L 339.954545 292.393502 
L 345.027273 292.393502 
L 350.1 292.393502 
L 355.172727 292.393502 
L 360.245455 292.393502 
L 365.318182 292.393502 
" style="fill:none;stroke:#8c564b;stroke-linecap:square;stroke-width:1.5;"/>
   </g>
   <g id="line2d_97">
    <path clip-path="url(#p8774ec6797)" d="M 111.681818 55.8 
L 116.754545 114.403214 
L 121.827273 165.349741 
L 126.9 206.09095 
L 131.972727 235.707109 
L 137.045455 255.588812 
L 142.118182 268.552657 
L 147.190909 277.586253 
L 152.263636 285.988512 
L 157.336364 307.386262 
L 162.409091 307.679941 
L 167.481818 307.767218 
L 172.554545 307.791395 
L 177.627273 307.797792 
L 182.7 307.799441 
L 187.772727 307.799859 
L 192.845455 307.799965 
L 197.918182 307.799991 
L 202.990909 307.799998 
L 208.063636 307.799999 
L 213.136364 307.8 
L 218.209091 307.8 
L 223.281818 307.8 
L 228.354545 307.8 
L 233.427273 307.8 
L 238.5 307.8 
L 243.572727 307.8 
L 248.645455 307.8 
L 253.718182 307.8 
L 258.790909 307.8 
L 263.863636 307.8 
L 268.936364 307.8 
L 274.009091 307.8 
L 279.081818 307.8 
L 284.154545 307.8 
L 289.227273 307.8 
L 294.3 307.8 
L 299.372727 307.8 
L 304.445455 307.8 
L 309.518182 307.8 
L 314.590909 307.8 
L 319.663636 307.8 
L 324.736364 307.8 
L 329.809091 307.8 
L 334.881818 307.8 
L 339.954545 307.8 
L 345.027273 307.8 
L 350.1 307.8 
L 355.172727 307.8 
L 360.245455 307.8 
L 365.318182 307.8 
" style="fill:none;stroke:#e377c2;stroke-linecap:square;stroke-width:1.5;"/>
   </g>
   <g id="patch_3">
    <path d="M 99 320.4 
L 99 43.2 
" style="fill:none;stroke:#000000;stroke-linecap:square;stroke-linejoin:miter;"/>
   </g>
   <g id="patch_4">
    <path d="M 378 320.4 
L 378 43.2 
" style="fill:none;stroke:#000000;stroke-linecap:square;stroke-linejoin:miter;"/>
   </g>
   <g id="patch_5">
    <path d="M 99 320.4 
L 378 320.4 
" style="fill:none;stroke:#000000;stroke-linecap:square;stroke-linejoin:miter;"/>
   </g>
   <g id="patch_6">
    <path d="M 99 43.2 
L 378 43.2 
" style="fill:none;stroke:#000000;stroke-linecap:square;stroke-linejoin:miter;"/>
   </g>
   <g id="text_9">
    <!-- Misfit Convergence x4 -->
    <g transform="translate(166.083906 37.2)scale(0.13 -0.13)">
     <defs>
      <path d="M 9.8125 72.90625 
L 24.515625 72.90625 
L 43.109375 23.296875 
L 61.8125 72.90625 
L 76.515625 72.90625 
L 76.515625 0 
L 66.890625 0 
L 66.890625 64.015625 
L 48.09375 14.015625 
L 38.1875 14.015625 
L 19.390625 64.015625 
L 19.390625 0 
L 9.8125 0 
z
" id="DejaVuSans-77"/>
      <path d="M 9.421875 54.6875 
L 18.40625 54.6875 
L 18.40625 0 
L 9.421875 0 
z
M 9.421875 75.984375 
L 18.40625 75.984375 
L 18.40625 64.59375 
L 9.421875 64.59375 
z
" id="DejaVuSans-105"/>
      <path d="M 44.28125 53.078125 
L 44.28125 44.578125 
Q 40.484375 46.53125 36.375 47.5 
Q 32.28125 48.484375 27.875 48.484375 
Q 21.1875 48.484375 17.84375 46.4375 
Q 14.5 44.390625 14.5 40.28125 
Q 14.5 37.15625 16.890625 35.375 
Q 19.28125 33.59375 26.515625 31.984375 
L 29.59375 31.296875 
Q 39.15625 29.25 43.1875 25.515625 
Q 47.21875 21.78125 47.21875 15.09375 
Q 47.21875 7.46875 41.1875 3.015625 
Q 35.15625 -1.421875 24.609375 -1.421875 
Q 20.21875 -1.421875 15.453125 -0.5625 
Q 10.6875 0.296875 5.421875 2 
L 5.421875 11.28125 
Q 10.40625 8.6875 15.234375 7.390625 
Q 20.0625 6.109375 24.8125 6.109375 
Q 31.15625 6.109375 34.5625 8.28125 
Q 37.984375 10.453125 37.984375 14.40625 
Q 37.984375 18.0625 35.515625 20.015625 
Q 33.0625 21.96875 24.703125 23.78125 
L 21.578125 24.515625 
Q 13.234375 26.265625 9.515625 29.90625 
Q 5.8125 33.546875 5.8125 39.890625 
Q 5.8125 47.609375 11.28125 51.796875 
Q 16.75 56 26.8125 56 
Q 31.78125 56 36.171875 55.265625 
Q 40.578125 54.546875 44.28125 53.078125 
z
" id="DejaVuSans-115"/>
      <path d="M 37.109375 75.984375 
L 37.109375 68.5 
L 28.515625 68.5 
Q 23.6875 68.5 21.796875 66.546875 
Q 19.921875 64.59375 19.921875 59.515625 
L 19.921875 54.6875 
L 34.71875 54.6875 
L 34.71875 47.703125 
L 19.921875 47.703125 
L 19.921875 0 
L 10.890625 0 
L 10.890625 47.703125 
L 2.296875 47.703125 
L 2.296875 54.6875 
L 10.890625 54.6875 
L 10.890625 58.5 
Q 10.890625 67.625 15.140625 71.796875 
Q 19.390625 75.984375 28.609375 75.984375 
z
" id="DejaVuSans-102"/>
      <path d="M 18.3125 70.21875 
L 18.3125 54.6875 
L 36.8125 54.6875 
L 36.8125 47.703125 
L 18.3125 47.703125 
L 18.3125 18.015625 
Q 18.3125 11.328125 20.140625 9.421875 
Q 21.96875 7.515625 27.59375 7.515625 
L 36.8125 7.515625 
L 36.8125 0 
L 27.59375 0 
Q 17.1875 0 13.234375 3.875 
Q 9.28125 7.765625 9.28125 18.015625 
L 9.28125 47.703125 
L 2.6875 47.703125 
L 2.6875 54.6875 
L 9.28125 54.6875 
L 9.28125 70.21875 
z
" id="DejaVuSans-116"/>
      <path id="DejaVuSans-32"/>
      <path d="M 64.40625 67.28125 
L 64.40625 56.890625 
Q 59.421875 61.53125 53.78125 63.8125 
Q 48.140625 66.109375 41.796875 66.109375 
Q 29.296875 66.109375 22.65625 58.46875 
Q 16.015625 50.828125 16.015625 36.375 
Q 16.015625 21.96875 22.65625 14.328125 
Q 29.296875 6.6875 41.796875 6.6875 
Q 48.140625 6.6875 53.78125 8.984375 
Q 59.421875 11.28125 64.40625 15.921875 
L 64.40625 5.609375 
Q 59.234375 2.09375 53.4375 0.328125 
Q 47.65625 -1.421875 41.21875 -1.421875 
Q 24.65625 -1.421875 15.125 8.703125 
Q 5.609375 18.84375 5.609375 36.375 
Q 5.609375 53.953125 15.125 64.078125 
Q 24.65625 74.21875 41.21875 74.21875 
Q 47.75 74.21875 53.53125 72.484375 
Q 59.328125 70.75 64.40625 67.28125 
z
" id="DejaVuSans-67"/>
      <path d="M 30.609375 48.390625 
Q 23.390625 48.390625 19.1875 42.75 
Q 14.984375 37.109375 14.984375 27.296875 
Q 14.984375 17.484375 19.15625 11.84375 
Q 23.34375 6.203125 30.609375 6.203125 
Q 37.796875 6.203125 41.984375 11.859375 
Q 46.1875 17.53125 46.1875 27.296875 
Q 46.1875 37.015625 41.984375 42.703125 
Q 37.796875 48.390625 30.609375 48.390625 
z
M 30.609375 56 
Q 42.328125 56 49.015625 48.375 
Q 55.71875 40.765625 55.71875 27.296875 
Q 55.71875 13.875 49.015625 6.21875 
Q 42.328125 -1.421875 30.609375 -1.421875 
Q 18.84375 -1.421875 12.171875 6.21875 
Q 5.515625 13.875 5.515625 27.296875 
Q 5.515625 40.765625 12.171875 48.375 
Q 18.84375 56 30.609375 56 
z
" id="DejaVuSans-111"/>
      <path d="M 54.890625 33.015625 
L 54.890625 0 
L 45.90625 0 
L 45.90625 32.71875 
Q 45.90625 40.484375 42.875 44.328125 
Q 39.84375 48.1875 33.796875 48.1875 
Q 26.515625 48.1875 22.3125 43.546875 
Q 18.109375 38.921875 18.109375 30.90625 
L 18.109375 0 
L 9.078125 0 
L 9.078125 54.6875 
L 18.109375 54.6875 
L 18.109375 46.1875 
Q 21.34375 51.125 25.703125 53.5625 
Q 30.078125 56 35.796875 56 
Q 45.21875 56 50.046875 50.171875 
Q 54.890625 44.34375 54.890625 33.015625 
z
" id="DejaVuSans-110"/>
      <path d="M 2.984375 54.6875 
L 12.5 54.6875 
L 29.59375 8.796875 
L 46.6875 54.6875 
L 56.203125 54.6875 
L 35.6875 0 
L 23.484375 0 
z
" id="DejaVuSans-118"/>
      <path d="M 56.203125 29.59375 
L 56.203125 25.203125 
L 14.890625 25.203125 
Q 15.484375 15.921875 20.484375 11.0625 
Q 25.484375 6.203125 34.421875 6.203125 
Q 39.59375 6.203125 44.453125 7.46875 
Q 49.3125 8.734375 54.109375 11.28125 
L 54.109375 2.78125 
Q 49.265625 0.734375 44.1875 -0.34375 
Q 39.109375 -1.421875 33.890625 -1.421875 
Q 20.796875 -1.421875 13.15625 6.1875 
Q 5.515625 13.8125 5.515625 26.8125 
Q 5.515625 40.234375 12.765625 48.109375 
Q 20.015625 56 32.328125 56 
Q 43.359375 56 49.78125 48.890625 
Q 56.203125 41.796875 56.203125 29.59375 
z
M 47.21875 32.234375 
Q 47.125 39.59375 43.09375 43.984375 
Q 39.0625 48.390625 32.421875 48.390625 
Q 24.90625 48.390625 20.390625 44.140625 
Q 15.875 39.890625 15.1875 32.171875 
z
" id="DejaVuSans-101"/>
      <path d="M 41.109375 46.296875 
Q 39.59375 47.171875 37.8125 47.578125 
Q 36.03125 48 33.890625 48 
Q 26.265625 48 22.1875 43.046875 
Q 18.109375 38.09375 18.109375 28.8125 
L 18.109375 0 
L 9.078125 0 
L 9.078125 54.6875 
L 18.109375 54.6875 
L 18.109375 46.1875 
Q 20.953125 51.171875 25.484375 53.578125 
Q 30.03125 56 36.53125 56 
Q 37.453125 56 38.578125 55.875 
Q 39.703125 55.765625 41.0625 55.515625 
z
" id="DejaVuSans-114"/>
      <path d="M 45.40625 27.984375 
Q 45.40625 37.75 41.375 43.109375 
Q 37.359375 48.484375 30.078125 48.484375 
Q 22.859375 48.484375 18.828125 43.109375 
Q 14.796875 37.75 14.796875 27.984375 
Q 14.796875 18.265625 18.828125 12.890625 
Q 22.859375 7.515625 30.078125 7.515625 
Q 37.359375 7.515625 41.375 12.890625 
Q 45.40625 18.265625 45.40625 27.984375 
z
M 54.390625 6.78125 
Q 54.390625 -7.171875 48.1875 -13.984375 
Q 42 -20.796875 29.203125 -20.796875 
Q 24.46875 -20.796875 20.265625 -20.09375 
Q 16.0625 -19.390625 12.109375 -17.921875 
L 12.109375 -9.1875 
Q 16.0625 -11.328125 19.921875 -12.34375 
Q 23.78125 -13.375 27.78125 -13.375 
Q 36.625 -13.375 41.015625 -8.765625 
Q 45.40625 -4.15625 45.40625 5.171875 
L 45.40625 9.625 
Q 42.625 4.78125 38.28125 2.390625 
Q 33.9375 0 27.875 0 
Q 17.828125 0 11.671875 7.65625 
Q 5.515625 15.328125 5.515625 27.984375 
Q 5.515625 40.671875 11.671875 48.328125 
Q 17.828125 56 27.875 56 
Q 33.9375 56 38.28125 53.609375 
Q 42.625 51.21875 45.40625 46.390625 
L 45.40625 54.6875 
L 54.390625 54.6875 
z
" id="DejaVuSans-103"/>
      <path d="M 48.78125 52.59375 
L 48.78125 44.1875 
Q 44.96875 46.296875 41.140625 47.34375 
Q 37.3125 48.390625 33.40625 48.390625 
Q 24.65625 48.390625 19.8125 42.84375 
Q 14.984375 37.3125 14.984375 27.296875 
Q 14.984375 17.28125 19.8125 11.734375 
Q 24.65625 6.203125 33.40625 6.203125 
Q 37.3125 6.203125 41.140625 7.25 
Q 44.96875 8.296875 48.78125 10.40625 
L 48.78125 2.09375 
Q 45.015625 0.34375 40.984375 -0.53125 
Q 36.96875 -1.421875 32.421875 -1.421875 
Q 20.0625 -1.421875 12.78125 6.34375 
Q 5.515625 14.109375 5.515625 27.296875 
Q 5.515625 40.671875 12.859375 48.328125 
Q 20.21875 56 33.015625 56 
Q 37.15625 56 41.109375 55.140625 
Q 45.0625 54.296875 48.78125 52.59375 
z
" id="DejaVuSans-99"/>
      <path d="M 54.890625 54.6875 
L 35.109375 28.078125 
L 55.90625 0 
L 45.3125 0 
L 29.390625 21.484375 
L 13.484375 0 
L 2.875 0 
L 24.125 28.609375 
L 4.6875 54.6875 
L 15.28125 54.6875 
L 29.78125 35.203125 
L 44.28125 54.6875 
z
" id="DejaVuSans-120"/>
     </defs>
     <use xlink:href="#DejaVuSans-77"/>
     <use x="86.279297" xlink:href="#DejaVuSans-105"/>
     <use x="114.0625" xlink:href="#DejaVuSans-115"/>
     <use x="166.162109" xlink:href="#DejaVuSans-102"/>
     <use x="201.367188" xlink:href="#DejaVuSans-105"/>
     <use x="229.150391" xlink:href="#DejaVuSans-116"/>
     <use x="268.359375" xlink:href="#DejaVuSans-32"/>
     <use x="300.146484" xlink:href="#DejaVuSans-67"/>
     <use x="369.970703" xlink:href="#DejaVuSans-111"/>
     <use x="431.152344" xlink:href="#DejaVuSans-110"/>
     <use x="494.53125" xlink:href="#DejaVuSans-118"/>
     <use x="553.710938" xlink:href="#DejaVuSans-101"/>
     <use x="615.234375" xlink:href="#DejaVuSans-114"/>
     <use x="654.597656" xlink:href="#DejaVuSans-103"/>
     <use x="718.074219" xlink:href="#DejaVuSans-101"/>
     <use x="779.597656" xlink:href="#DejaVuSans-110"/>
     <use x="842.976562" xlink:href="#DejaVuSans-99"/>
     <use x="897.957031" xlink:href="#DejaVuSans-101"/>
     <use x="959.480469" xlink:href="#DejaVuSans-32"/>
     <use x="991.267578" xlink:href="#DejaVuSans-120"/>
     <use x="1050.447266" xlink:href="#DejaVuSans-52"/>
    </g>
   </g>
   <g id="legend_1">
    <g id="patch_7">
     <path d="M 302.867188 315.4 
L 373 315.4 
L 373 209.653125 
L 302.867188 209.653125 
z
" style="fill:#ffffff;stroke:#000000;stroke-linejoin:miter;"/>
    </g>
    <g id="line2d_98">
     <path d="M 306.867188 217.751563 
L 326.867188 217.751563 
" style="fill:none;stroke:#1f77b4;stroke-linecap:square;stroke-width:1.5;"/>
    </g>
    <g id="line2d_99"/>
    <g id="text_10">
     <!-- bfgs -->
     <g transform="translate(334.867188 221.251563)scale(0.1 -0.1)">
      <defs>
       <path d="M 48.6875 27.296875 
Q 48.6875 37.203125 44.609375 42.84375 
Q 40.53125 48.484375 33.40625 48.484375 
Q 26.265625 48.484375 22.1875 42.84375 
Q 18.109375 37.203125 18.109375 27.296875 
Q 18.109375 17.390625 22.1875 11.75 
Q 26.265625 6.109375 33.40625 6.109375 
Q 40.53125 6.109375 44.609375 11.75 
Q 48.6875 17.390625 48.6875 27.296875 
z
M 18.109375 46.390625 
Q 20.953125 51.265625 25.265625 53.625 
Q 29.59375 56 35.59375 56 
Q 45.5625 56 51.78125 48.09375 
Q 58.015625 40.1875 58.015625 27.296875 
Q 58.015625 14.40625 51.78125 6.484375 
Q 45.5625 -1.421875 35.59375 -1.421875 
Q 29.59375 -1.421875 25.265625 0.953125 
Q 20.953125 3.328125 18.109375 8.203125 
L 18.109375 0 
L 9.078125 0 
L 9.078125 75.984375 
L 18.109375 75.984375 
z
" id="DejaVuSans-98"/>
      </defs>
      <use xlink:href="#DejaVuSans-98"/>
      <use x="63.476562" xlink:href="#DejaVuSans-102"/>
      <use x="98.681641" xlink:href="#DejaVuSans-103"/>
      <use x="162.158203" xlink:href="#DejaVuSans-115"/>
     </g>
    </g>
    <g id="line2d_100">
     <path d="M 306.867188 232.429688 
L 326.867188 232.429688 
" style="fill:none;stroke:#ff7f0e;stroke-linecap:square;stroke-width:1.5;"/>
    </g>
    <g id="line2d_101"/>
    <g id="text_11">
     <!-- pbfgs -->
     <g transform="translate(334.867188 235.929688)scale(0.1 -0.1)">
      <defs>
       <path d="M 18.109375 8.203125 
L 18.109375 -20.796875 
L 9.078125 -20.796875 
L 9.078125 54.6875 
L 18.109375 54.6875 
L 18.109375 46.390625 
Q 20.953125 51.265625 25.265625 53.625 
Q 29.59375 56 35.59375 56 
Q 45.5625 56 51.78125 48.09375 
Q 58.015625 40.1875 58.015625 27.296875 
Q 58.015625 14.40625 51.78125 6.484375 
Q 45.5625 -1.421875 35.59375 -1.421875 
Q 29.59375 -1.421875 25.265625 0.953125 
Q 20.953125 3.328125 18.109375 8.203125 
z
M 48.6875 27.296875 
Q 48.6875 37.203125 44.609375 42.84375 
Q 40.53125 48.484375 33.40625 48.484375 
Q 26.265625 48.484375 22.1875 42.84375 
Q 18.109375 37.203125 18.109375 27.296875 
Q 18.109375 17.390625 22.1875 11.75 
Q 26.265625 6.109375 33.40625 6.109375 
Q 40.53125 6.109375 44.609375 11.75 
Q 48.6875 17.390625 48.6875 27.296875 
z
" id="DejaVuSans-112"/>
      </defs>
      <use xlink:href="#DejaVuSans-112"/>
      <use x="63.476562" xlink:href="#DejaVuSans-98"/>
      <use x="126.953125" xlink:href="#DejaVuSans-102"/>
      <use x="162.158203" xlink:href="#DejaVuSans-103"/>
      <use x="225.634766" xlink:href="#DejaVuSans-115"/>
     </g>
    </g>
    <g id="line2d_102">
     <path d="M 306.867188 247.107813 
L 326.867188 247.107813 
" style="fill:none;stroke:#2ca02c;stroke-linecap:square;stroke-width:1.5;"/>
    </g>
    <g id="line2d_103"/>
    <g id="text_12">
     <!-- steep -->
     <g transform="translate(334.867188 250.607813)scale(0.1 -0.1)">
      <use xlink:href="#DejaVuSans-115"/>
      <use x="52.099609" xlink:href="#DejaVuSans-116"/>
      <use x="91.308594" xlink:href="#DejaVuSans-101"/>
      <use x="152.832031" xlink:href="#DejaVuSans-101"/>
      <use x="214.355469" xlink:href="#DejaVuSans-112"/>
     </g>
    </g>
    <g id="line2d_104">
     <path d="M 306.867188 261.785938 
L 326.867188 261.785938 
" style="fill:none;stroke:#d62728;stroke-linecap:square;stroke-width:1.5;"/>
    </g>
    <g id="line2d_105"/>
    <g id="text_13">
     <!-- psteep -->
     <g transform="translate(334.867188 265.285938)scale(0.1 -0.1)">
      <use xlink:href="#DejaVuSans-112"/>
      <use x="63.476562" xlink:href="#DejaVuSans-115"/>
      <use x="115.576172" xlink:href="#DejaVuSans-116"/>
      <use x="154.785156" xlink:href="#DejaVuSans-101"/>
      <use x="216.308594" xlink:href="#DejaVuSans-101"/>
      <use x="277.832031" xlink:href="#DejaVuSans-112"/>
     </g>
    </g>
    <g id="line2d_106">
     <path d="M 306.867188 276.464063 
L 326.867188 276.464063 
" style="fill:none;stroke:#9467bd;stroke-linecap:square;stroke-width:1.5;"/>
    </g>
    <g id="line2d_107"/>
    <g id="text_14">
     <!-- nlcg -->
     <g transform="translate(334.867188 279.964063)scale(0.1 -0.1)">
      <defs>
       <path d="M 9.421875 75.984375 
L 18.40625 75.984375 
L 18.40625 0 
L 9.421875 0 
z
" id="DejaVuSans-108"/>
      </defs>
      <use xlink:href="#DejaVuSans-110"/>
      <use x="63.378906" xlink:href="#DejaVuSans-108"/>
      <use x="91.162109" xlink:href="#DejaVuSans-99"/>
      <use x="146.142578" xlink:href="#DejaVuSans-103"/>
     </g>
    </g>
    <g id="line2d_108">
     <path d="M 306.867188 291.142188 
L 326.867188 291.142188 
" style="fill:none;stroke:#8c564b;stroke-linecap:square;stroke-width:1.5;"/>
    </g>
    <g id="line2d_109"/>
    <g id="text_15">
     <!-- pnlcg -->
     <g transform="translate(334.867188 294.642188)scale(0.1 -0.1)">
      <use xlink:href="#DejaVuSans-112"/>
      <use x="63.476562" xlink:href="#DejaVuSans-110"/>
      <use x="126.855469" xlink:href="#DejaVuSans-108"/>
      <use x="154.638672" xlink:href="#DejaVuSans-99"/>
      <use x="209.619141" xlink:href="#DejaVuSans-103"/>
     </g>
    </g>
    <g id="line2d_110">
     <path d="M 306.867188 305.820312 
L 326.867188 305.820312 
" style="fill:none;stroke:#e377c2;stroke-linecap:square;stroke-width:1.5;"/>
    </g>
    <g id="line2d_111"/>
    <g id="text_16">
     <!-- gn -->
     <g transform="translate(334.867188 309.320312)scale(0.1 -0.1)">
      <use xlink:href="#DejaVuSans-103"/>
      <use x="63.476562" xlink:href="#DejaVuSans-110"/>
     </g>
    </g>
   </g>
  </g>
  <g id="axes_2">
   <g id="patch_8">
    <path d="M 433.8 320.4 
L 712.8 320.4 
L 712.8 43.2 
L 433.8 43.2 
z
" style="fill:#ffffff;"/>
   </g>
   <g id="matplotlib.axis_3">
    <g id="xtick_29">
     <g id="line2d_112">
      <path clip-path="url(#p412939ef28)" d="M 446.481818 320.4 
L 446.481818 43.2 
" style="fill:none;stroke:#d3d3d3;stroke-linecap:square;stroke-width:0.8;"/>
     </g>
     <g id="line2d_113">
      <g>
       <use style="stroke:#000000;" x="446.481818" xlink:href="#m3906ce7e56" y="320.4"/>
      </g>
     </g>
     <g id="line2d_114">
      <g>
       <use style="stroke:#000000;" x="446.481818" xlink:href="#m3906ce7e56" y="43.2"/>
      </g>
     </g>
     <g id="text_17">
      <!-- −3 -->
      <g transform="translate(439.110724 335.498438)scale(0.1 -0.1)">
       <use xlink:href="#DejaVuSans-8722"/>
       <use x="83.789062" xlink:href="#DejaVuSans-51"/>
      </g>
     </g>
    </g>
    <g id="xtick_30">
     <g id="line2d_115">
      <path clip-path="url(#p412939ef28)" d="M 490.59249 320.4 
L 490.59249 43.2 
" style="fill:none;stroke:#d3d3d3;stroke-linecap:square;stroke-width:0.8;"/>
     </g>
     <g id="line2d_116">
      <g>
       <use style="stroke:#000000;" x="490.59249" xlink:href="#m3906ce7e56" y="320.4"/>
      </g>
     </g>
     <g id="line2d_117">
      <g>
       <use style="stroke:#000000;" x="490.59249" xlink:href="#m3906ce7e56" y="43.2"/>
      </g>
     </g>
     <g id="text_18">
      <!-- −2 -->
      <g transform="translate(483.221396 335.498438)scale(0.1 -0.1)">
       <use xlink:href="#DejaVuSans-8722"/>
       <use x="83.789062" xlink:href="#DejaVuSans-50"/>
      </g>
     </g>
    </g>
    <g id="xtick_31">
     <g id="line2d_118">
      <path clip-path="url(#p412939ef28)" d="M 534.703162 320.4 
L 534.703162 43.2 
" style="fill:none;stroke:#d3d3d3;stroke-linecap:square;stroke-width:0.8;"/>
     </g>
     <g id="line2d_119">
      <g>
       <use style="stroke:#000000;" x="534.703162" xlink:href="#m3906ce7e56" y="320.4"/>
      </g>
     </g>
     <g id="line2d_120">
      <g>
       <use style="stroke:#000000;" x="534.703162" xlink:href="#m3906ce7e56" y="43.2"/>
      </g>
     </g>
     <g id="text_19">
      <!-- −1 -->
      <g transform="translate(527.332068 335.498438)scale(0.1 -0.1)">
       <use xlink:href="#DejaVuSans-8722"/>
       <use x="83.789062" xlink:href="#DejaVuSans-49"/>
      </g>
     </g>
    </g>
    <g id="xtick_32">
     <g id="line2d_121">
      <path clip-path="url(#p412939ef28)" d="M 578.813834 320.4 
L 578.813834 43.2 
" style="fill:none;stroke:#d3d3d3;stroke-linecap:square;stroke-width:0.8;"/>
     </g>
     <g id="line2d_122">
      <g>
       <use style="stroke:#000000;" x="578.813834" xlink:href="#m3906ce7e56" y="320.4"/>
      </g>
     </g>
     <g id="line2d_123">
      <g>
       <use style="stroke:#000000;" x="578.813834" xlink:href="#m3906ce7e56" y="43.2"/>
      </g>
     </g>
     <g id="text_20">
      <!-- 0 -->
      <g transform="translate(575.632584 335.498438)scale(0.1 -0.1)">
       <use xlink:href="#DejaVuSans-48"/>
      </g>
     </g>
    </g>
    <g id="xtick_33">
     <g id="line2d_124">
      <path clip-path="url(#p412939ef28)" d="M 622.924506 320.4 
L 622.924506 43.2 
" style="fill:none;stroke:#d3d3d3;stroke-linecap:square;stroke-width:0.8;"/>
     </g>
     <g id="line2d_125">
      <g>
       <use style="stroke:#000000;" x="622.924506" xlink:href="#m3906ce7e56" y="320.4"/>
      </g>
     </g>
     <g id="line2d_126">
      <g>
       <use style="stroke:#000000;" x="622.924506" xlink:href="#m3906ce7e56" y="43.2"/>
      </g>
     </g>
     <g id="text_21">
      <!-- 1 -->
      <g transform="translate(619.743256 335.498438)scale(0.1 -0.1)">
       <use xlink:href="#DejaVuSans-49"/>
      </g>
     </g>
    </g>
    <g id="xtick_34">
     <g id="line2d_127">
      <path clip-path="url(#p412939ef28)" d="M 667.035178 320.4 
L 667.035178 43.2 
" style="fill:none;stroke:#d3d3d3;stroke-linecap:square;stroke-width:0.8;"/>
     </g>
     <g id="line2d_128">
      <g>
       <use style="stroke:#000000;" x="667.035178" xlink:href="#m3906ce7e56" y="320.4"/>
      </g>
     </g>
     <g id="line2d_129">
      <g>
       <use style="stroke:#000000;" x="667.035178" xlink:href="#m3906ce7e56" y="43.2"/>
      </g>
     </g>
     <g id="text_22">
      <!-- 2 -->
      <g transform="translate(663.853928 335.498438)scale(0.1 -0.1)">
       <use xlink:href="#DejaVuSans-50"/>
      </g>
     </g>
    </g>
    <g id="xtick_35">
     <g id="line2d_130">
      <path clip-path="url(#p412939ef28)" d="M 711.14585 320.4 
L 711.14585 43.2 
" style="fill:none;stroke:#d3d3d3;stroke-linecap:square;stroke-width:0.8;"/>
     </g>
     <g id="line2d_131">
      <g>
       <use style="stroke:#000000;" x="711.14585" xlink:href="#m3906ce7e56" y="320.4"/>
      </g>
     </g>
     <g id="line2d_132">
      <g>
       <use style="stroke:#000000;" x="711.14585" xlink:href="#m3906ce7e56" y="43.2"/>
      </g>
     </g>
     <g id="text_23">
      <!-- 3 -->
      <g transform="translate(707.9646 335.498438)scale(0.1 -0.1)">
       <use xlink:href="#DejaVuSans-51"/>
      </g>
     </g>
    </g>
    <g id="xtick_36">
     <g id="line2d_133">
      <g>
       <use style="stroke:#000000;" x="437.659684" xlink:href="#m15308bb93e" y="320.4"/>
      </g>
     </g>
     <g id="line2d_134">
      <g>
       <use style="stroke:#000000;" x="437.659684" xlink:href="#m15308bb93e" y="43.2"/>
      </g>
     </g>
    </g>
    <g id="xtick_37">
     <g id="line2d_135">
      <g>
       <use style="stroke:#000000;" x="455.303953" xlink:href="#m15308bb93e" y="320.4"/>
      </g>
     </g>
     <g id="line2d_136">
      <g>
       <use style="stroke:#000000;" x="455.303953" xlink:href="#m15308bb93e" y="43.2"/>
      </g>
     </g>
    </g>
    <g id="xtick_38">
     <g id="line2d_137">
      <g>
       <use style="stroke:#000000;" x="464.126087" xlink:href="#m15308bb93e" y="320.4"/>
      </g>
     </g>
     <g id="line2d_138">
      <g>
       <use style="stroke:#000000;" x="464.126087" xlink:href="#m15308bb93e" y="43.2"/>
      </g>
     </g>
    </g>
    <g id="xtick_39">
     <g id="line2d_139">
      <g>
       <use style="stroke:#000000;" x="472.948221" xlink:href="#m15308bb93e" y="320.4"/>
      </g>
     </g>
     <g id="line2d_140">
      <g>
       <use style="stroke:#000000;" x="472.948221" xlink:href="#m15308bb93e" y="43.2"/>
      </g>
     </g>
    </g>
    <g id="xtick_40">
     <g id="line2d_141">
      <g>
       <use style="stroke:#000000;" x="481.770356" xlink:href="#m15308bb93e" y="320.4"/>
      </g>
     </g>
     <g id="line2d_142">
      <g>
       <use style="stroke:#000000;" x="481.770356" xlink:href="#m15308bb93e" y="43.2"/>
      </g>
     </g>
    </g>
    <g id="xtick_41">
     <g id="line2d_143">
      <g>
       <use style="stroke:#000000;" x="499.414625" xlink:href="#m15308bb93e" y="320.4"/>
      </g>
     </g>
     <g id="line2d_144">
      <g>
       <use style="stroke:#000000;" x="499.414625" xlink:href="#m15308bb93e" y="43.2"/>
      </g>
     </g>
    </g>
    <g id="xtick_42">
     <g id="line2d_145">
      <g>
       <use style="stroke:#000000;" x="508.236759" xlink:href="#m15308bb93e" y="320.4"/>
      </g>
     </g>
     <g id="line2d_146">
      <g>
       <use style="stroke:#000000;" x="508.236759" xlink:href="#m15308bb93e" y="43.2"/>
      </g>
     </g>
    </g>
    <g id="xtick_43">
     <g id="line2d_147">
      <g>
       <use style="stroke:#000000;" x="517.058893" xlink:href="#m15308bb93e" y="320.4"/>
      </g>
     </g>
     <g id="line2d_148">
      <g>
       <use style="stroke:#000000;" x="517.058893" xlink:href="#m15308bb93e" y="43.2"/>
      </g>
     </g>
    </g>
    <g id="xtick_44">
     <g id="line2d_149">
      <g>
       <use style="stroke:#000000;" x="525.881028" xlink:href="#m15308bb93e" y="320.4"/>
      </g>
     </g>
     <g id="line2d_150">
      <g>
       <use style="stroke:#000000;" x="525.881028" xlink:href="#m15308bb93e" y="43.2"/>
      </g>
     </g>
    </g>
    <g id="xtick_45">
     <g id="line2d_151">
      <g>
       <use style="stroke:#000000;" x="543.525296" xlink:href="#m15308bb93e" y="320.4"/>
      </g>
     </g>
     <g id="line2d_152">
      <g>
       <use style="stroke:#000000;" x="543.525296" xlink:href="#m15308bb93e" y="43.2"/>
      </g>
     </g>
    </g>
    <g id="xtick_46">
     <g id="line2d_153">
      <g>
       <use style="stroke:#000000;" x="552.347431" xlink:href="#m15308bb93e" y="320.4"/>
      </g>
     </g>
     <g id="line2d_154">
      <g>
       <use style="stroke:#000000;" x="552.347431" xlink:href="#m15308bb93e" y="43.2"/>
      </g>
     </g>
    </g>
    <g id="xtick_47">
     <g id="line2d_155">
      <g>
       <use style="stroke:#000000;" x="561.169565" xlink:href="#m15308bb93e" y="320.4"/>
      </g>
     </g>
     <g id="line2d_156">
      <g>
       <use style="stroke:#000000;" x="561.169565" xlink:href="#m15308bb93e" y="43.2"/>
      </g>
     </g>
    </g>
    <g id="xtick_48">
     <g id="line2d_157">
      <g>
       <use style="stroke:#000000;" x="569.9917" xlink:href="#m15308bb93e" y="320.4"/>
      </g>
     </g>
     <g id="line2d_158">
      <g>
       <use style="stroke:#000000;" x="569.9917" xlink:href="#m15308bb93e" y="43.2"/>
      </g>
     </g>
    </g>
    <g id="xtick_49">
     <g id="line2d_159">
      <g>
       <use style="stroke:#000000;" x="587.635968" xlink:href="#m15308bb93e" y="320.4"/>
      </g>
     </g>
     <g id="line2d_160">
      <g>
       <use style="stroke:#000000;" x="587.635968" xlink:href="#m15308bb93e" y="43.2"/>
      </g>
     </g>
    </g>
    <g id="xtick_50">
     <g id="line2d_161">
      <g>
       <use style="stroke:#000000;" x="596.458103" xlink:href="#m15308bb93e" y="320.4"/>
      </g>
     </g>
     <g id="line2d_162">
      <g>
       <use style="stroke:#000000;" x="596.458103" xlink:href="#m15308bb93e" y="43.2"/>
      </g>
     </g>
    </g>
    <g id="xtick_51">
     <g id="line2d_163">
      <g>
       <use style="stroke:#000000;" x="605.280237" xlink:href="#m15308bb93e" y="320.4"/>
      </g>
     </g>
     <g id="line2d_164">
      <g>
       <use style="stroke:#000000;" x="605.280237" xlink:href="#m15308bb93e" y="43.2"/>
      </g>
     </g>
    </g>
    <g id="xtick_52">
     <g id="line2d_165">
      <g>
       <use style="stroke:#000000;" x="614.102372" xlink:href="#m15308bb93e" y="320.4"/>
      </g>
     </g>
     <g id="line2d_166">
      <g>
       <use style="stroke:#000000;" x="614.102372" xlink:href="#m15308bb93e" y="43.2"/>
      </g>
     </g>
    </g>
    <g id="xtick_53">
     <g id="line2d_167">
      <g>
       <use style="stroke:#000000;" x="631.74664" xlink:href="#m15308bb93e" y="320.4"/>
      </g>
     </g>
     <g id="line2d_168">
      <g>
       <use style="stroke:#000000;" x="631.74664" xlink:href="#m15308bb93e" y="43.2"/>
      </g>
     </g>
    </g>
    <g id="xtick_54">
     <g id="line2d_169">
      <g>
       <use style="stroke:#000000;" x="640.568775" xlink:href="#m15308bb93e" y="320.4"/>
      </g>
     </g>
     <g id="line2d_170">
      <g>
       <use style="stroke:#000000;" x="640.568775" xlink:href="#m15308bb93e" y="43.2"/>
      </g>
     </g>
    </g>
    <g id="xtick_55">
     <g id="line2d_171">
      <g>
       <use style="stroke:#000000;" x="649.390909" xlink:href="#m15308bb93e" y="320.4"/>
      </g>
     </g>
     <g id="line2d_172">
      <g>
       <use style="stroke:#000000;" x="649.390909" xlink:href="#m15308bb93e" y="43.2"/>
      </g>
     </g>
    </g>
    <g id="xtick_56">
     <g id="line2d_173">
      <g>
       <use style="stroke:#000000;" x="658.213043" xlink:href="#m15308bb93e" y="320.4"/>
      </g>
     </g>
     <g id="line2d_174">
      <g>
       <use style="stroke:#000000;" x="658.213043" xlink:href="#m15308bb93e" y="43.2"/>
      </g>
     </g>
    </g>
    <g id="xtick_57">
     <g id="line2d_175">
      <g>
       <use style="stroke:#000000;" x="675.857312" xlink:href="#m15308bb93e" y="320.4"/>
      </g>
     </g>
     <g id="line2d_176">
      <g>
       <use style="stroke:#000000;" x="675.857312" xlink:href="#m15308bb93e" y="43.2"/>
      </g>
     </g>
    </g>
    <g id="xtick_58">
     <g id="line2d_177">
      <g>
       <use style="stroke:#000000;" x="684.679447" xlink:href="#m15308bb93e" y="320.4"/>
      </g>
     </g>
     <g id="line2d_178">
      <g>
       <use style="stroke:#000000;" x="684.679447" xlink:href="#m15308bb93e" y="43.2"/>
      </g>
     </g>
    </g>
    <g id="xtick_59">
     <g id="line2d_179">
      <g>
       <use style="stroke:#000000;" x="693.501581" xlink:href="#m15308bb93e" y="320.4"/>
      </g>
     </g>
     <g id="line2d_180">
      <g>
       <use style="stroke:#000000;" x="693.501581" xlink:href="#m15308bb93e" y="43.2"/>
      </g>
     </g>
    </g>
    <g id="xtick_60">
     <g id="line2d_181">
      <g>
       <use style="stroke:#000000;" x="702.323715" xlink:href="#m15308bb93e" y="320.4"/>
      </g>
     </g>
     <g id="line2d_182">
      <g>
       <use style="stroke:#000000;" x="702.323715" xlink:href="#m15308bb93e" y="43.2"/>
      </g>
     </g>
    </g>
   </g>
   <g id="matplotlib.axis_4">
    <g id="ytick_14">
     <g id="line2d_183">
      <path clip-path="url(#p412939ef28)" d="M 433.8 270.108674 
L 712.8 270.108674 
" style="fill:none;stroke:#d3d3d3;stroke-linecap:square;stroke-width:0.8;"/>
     </g>
     <g id="line2d_184">
      <g>
       <use style="stroke:#000000;" x="433.8" xlink:href="#meac3724087" y="270.108674"/>
      </g>
     </g>
     <g id="line2d_185">
      <g>
       <use style="stroke:#000000;" x="712.8" xlink:href="#meac3724087" y="270.108674"/>
      </g>
     </g>
     <g id="text_24">
      <!-- 20 -->
      <g transform="translate(413.575 273.907893)scale(0.1 -0.1)">
       <use xlink:href="#DejaVuSans-50"/>
       <use x="63.623047" xlink:href="#DejaVuSans-48"/>
      </g>
     </g>
    </g>
    <g id="ytick_15">
     <g id="line2d_186">
      <path clip-path="url(#p412939ef28)" d="M 433.8 212.959694 
L 712.8 212.959694 
" style="fill:none;stroke:#d3d3d3;stroke-linecap:square;stroke-width:0.8;"/>
     </g>
     <g id="line2d_187">
      <g>
       <use style="stroke:#000000;" x="433.8" xlink:href="#meac3724087" y="212.959694"/>
      </g>
     </g>
     <g id="line2d_188">
      <g>
       <use style="stroke:#000000;" x="712.8" xlink:href="#meac3724087" y="212.959694"/>
      </g>
     </g>
     <g id="text_25">
      <!-- 40 -->
      <g transform="translate(413.575 216.758913)scale(0.1 -0.1)">
       <use xlink:href="#DejaVuSans-52"/>
       <use x="63.623047" xlink:href="#DejaVuSans-48"/>
      </g>
     </g>
    </g>
    <g id="ytick_16">
     <g id="line2d_189">
      <path clip-path="url(#p412939ef28)" d="M 433.8 155.810715 
L 712.8 155.810715 
" style="fill:none;stroke:#d3d3d3;stroke-linecap:square;stroke-width:0.8;"/>
     </g>
     <g id="line2d_190">
      <g>
       <use style="stroke:#000000;" x="433.8" xlink:href="#meac3724087" y="155.810715"/>
      </g>
     </g>
     <g id="line2d_191">
      <g>
       <use style="stroke:#000000;" x="712.8" xlink:href="#meac3724087" y="155.810715"/>
      </g>
     </g>
     <g id="text_26">
      <!-- 60 -->
      <g transform="translate(413.575 159.609933)scale(0.1 -0.1)">
       <defs>
        <path d="M 33.015625 40.375 
Q 26.375 40.375 22.484375 35.828125 
Q 18.609375 31.296875 18.609375 23.390625 
Q 18.609375 15.53125 22.484375 10.953125 
Q 26.375 6.390625 33.015625 6.390625 
Q 39.65625 6.390625 43.53125 10.953125 
Q 47.40625 15.53125 47.40625 23.390625 
Q 47.40625 31.296875 43.53125 35.828125 
Q 39.65625 40.375 33.015625 40.375 
z
M 52.59375 71.296875 
L 52.59375 62.3125 
Q 48.875 64.0625 45.09375 64.984375 
Q 41.3125 65.921875 37.59375 65.921875 
Q 27.828125 65.921875 22.671875 59.328125 
Q 17.53125 52.734375 16.796875 39.40625 
Q 19.671875 43.65625 24.015625 45.921875 
Q 28.375 48.1875 33.59375 48.1875 
Q 44.578125 48.1875 50.953125 41.515625 
Q 57.328125 34.859375 57.328125 23.390625 
Q 57.328125 12.15625 50.6875 5.359375 
Q 44.046875 -1.421875 33.015625 -1.421875 
Q 20.359375 -1.421875 13.671875 8.265625 
Q 6.984375 17.96875 6.984375 36.375 
Q 6.984375 53.65625 15.1875 63.9375 
Q 23.390625 74.21875 37.203125 74.21875 
Q 40.921875 74.21875 44.703125 73.484375 
Q 48.484375 72.75 52.59375 71.296875 
z
" id="DejaVuSans-54"/>
       </defs>
       <use xlink:href="#DejaVuSans-54"/>
       <use x="63.623047" xlink:href="#DejaVuSans-48"/>
      </g>
     </g>
    </g>
    <g id="ytick_17">
     <g id="line2d_192">
      <path clip-path="url(#p412939ef28)" d="M 433.8 98.661735 
L 712.8 98.661735 
" style="fill:none;stroke:#d3d3d3;stroke-linecap:square;stroke-width:0.8;"/>
     </g>
     <g id="line2d_193">
      <g>
       <use style="stroke:#000000;" x="433.8" xlink:href="#meac3724087" y="98.661735"/>
      </g>
     </g>
     <g id="line2d_194">
      <g>
       <use style="stroke:#000000;" x="712.8" xlink:href="#meac3724087" y="98.661735"/>
      </g>
     </g>
     <g id="text_27">
      <!-- 80 -->
      <g transform="translate(413.575 102.460954)scale(0.1 -0.1)">
       <defs>
        <path d="M 31.78125 34.625 
Q 24.75 34.625 20.71875 30.859375 
Q 16.703125 27.09375 16.703125 20.515625 
Q 16.703125 13.921875 20.71875 10.15625 
Q 24.75 6.390625 31.78125 6.390625 
Q 38.8125 6.390625 42.859375 10.171875 
Q 46.921875 13.96875 46.921875 20.515625 
Q 46.921875 27.09375 42.890625 30.859375 
Q 38.875 34.625 31.78125 34.625 
z
M 21.921875 38.8125 
Q 15.578125 40.375 12.03125 44.71875 
Q 8.5 49.078125 8.5 55.328125 
Q 8.5 64.0625 14.71875 69.140625 
Q 20.953125 74.21875 31.78125 74.21875 
Q 42.671875 74.21875 48.875 69.140625 
Q 55.078125 64.0625 55.078125 55.328125 
Q 55.078125 49.078125 51.53125 44.71875 
Q 48 40.375 41.703125 38.8125 
Q 48.828125 37.15625 52.796875 32.3125 
Q 56.78125 27.484375 56.78125 20.515625 
Q 56.78125 9.90625 50.3125 4.234375 
Q 43.84375 -1.421875 31.78125 -1.421875 
Q 19.734375 -1.421875 13.25 4.234375 
Q 6.78125 9.90625 6.78125 20.515625 
Q 6.78125 27.484375 10.78125 32.3125 
Q 14.796875 37.15625 21.921875 38.8125 
z
M 18.3125 54.390625 
Q 18.3125 48.734375 21.84375 45.5625 
Q 25.390625 42.390625 31.78125 42.390625 
Q 38.140625 42.390625 41.71875 45.5625 
Q 45.3125 48.734375 45.3125 54.390625 
Q 45.3125 60.0625 41.71875 63.234375 
Q 38.140625 66.40625 31.78125 66.40625 
Q 25.390625 66.40625 21.84375 63.234375 
Q 18.3125 60.0625 18.3125 54.390625 
z
" id="DejaVuSans-56"/>
       </defs>
       <use xlink:href="#DejaVuSans-56"/>
       <use x="63.623047" xlink:href="#DejaVuSans-48"/>
      </g>
     </g>
    </g>
    <g id="ytick_18">
     <g id="line2d_195">
      <g>
       <use style="stroke:#000000;" x="433.8" xlink:href="#m19593473a9" y="312.970409"/>
      </g>
     </g>
     <g id="line2d_196">
      <g>
       <use style="stroke:#000000;" x="712.8" xlink:href="#m19593473a9" y="312.970409"/>
      </g>
     </g>
    </g>
    <g id="ytick_19">
     <g id="line2d_197">
      <g>
       <use style="stroke:#000000;" x="433.8" xlink:href="#m19593473a9" y="298.683164"/>
      </g>
     </g>
     <g id="line2d_198">
      <g>
       <use style="stroke:#000000;" x="712.8" xlink:href="#m19593473a9" y="298.683164"/>
      </g>
     </g>
    </g>
    <g id="ytick_20">
     <g id="line2d_199">
      <g>
       <use style="stroke:#000000;" x="433.8" xlink:href="#m19593473a9" y="284.395919"/>
      </g>
     </g>
     <g id="line2d_200">
      <g>
       <use style="stroke:#000000;" x="712.8" xlink:href="#m19593473a9" y="284.395919"/>
      </g>
     </g>
    </g>
    <g id="ytick_21">
     <g id="line2d_201">
      <g>
       <use style="stroke:#000000;" x="433.8" xlink:href="#m19593473a9" y="255.821429"/>
      </g>
     </g>
     <g id="line2d_202">
      <g>
       <use style="stroke:#000000;" x="712.8" xlink:href="#m19593473a9" y="255.821429"/>
      </g>
     </g>
    </g>
    <g id="ytick_22">
     <g id="line2d_203">
      <g>
       <use style="stroke:#000000;" x="433.8" xlink:href="#m19593473a9" y="241.534184"/>
      </g>
     </g>
     <g id="line2d_204">
      <g>
       <use style="stroke:#000000;" x="712.8" xlink:href="#m19593473a9" y="241.534184"/>
      </g>
     </g>
    </g>
    <g id="ytick_23">
     <g id="line2d_205">
      <g>
       <use style="stroke:#000000;" x="433.8" xlink:href="#m19593473a9" y="227.246939"/>
      </g>
     </g>
     <g id="line2d_206">
      <g>
       <use style="stroke:#000000;" x="712.8" xlink:href="#m19593473a9" y="227.246939"/>
      </g>
     </g>
    </g>
    <g id="ytick_24">
     <g id="line2d_207">
      <g>
       <use style="stroke:#000000;" x="433.8" xlink:href="#m19593473a9" y="198.672449"/>
      </g>
     </g>
     <g id="line2d_208">
      <g>
       <use style="stroke:#000000;" x="712.8" xlink:href="#m19593473a9" y="198.672449"/>
      </g>
     </g>
    </g>
    <g id="ytick_25">
     <g id="line2d_209">
      <g>
       <use style="stroke:#000000;" x="433.8" xlink:href="#m19593473a9" y="184.385204"/>
      </g>
     </g>
     <g id="line2d_210">
      <g>
       <use style="stroke:#000000;" x="712.8" xlink:href="#m19593473a9" y="184.385204"/>
      </g>
     </g>
    </g>
    <g id="ytick_26">
     <g id="line2d_211">
      <g>
       <use style="stroke:#000000;" x="433.8" xlink:href="#m19593473a9" y="170.097959"/>
      </g>
     </g>
     <g id="line2d_212">
      <g>
       <use style="stroke:#000000;" x="712.8" xlink:href="#m19593473a9" y="170.097959"/>
      </g>
     </g>
    </g>
    <g id="ytick_27">
     <g id="line2d_213">
      <g>
       <use style="stroke:#000000;" x="433.8" xlink:href="#m19593473a9" y="141.52347"/>
      </g>
     </g>
     <g id="line2d_214">
      <g>
       <use style="stroke:#000000;" x="712.8" xlink:href="#m19593473a9" y="141.52347"/>
      </g>
     </g>
    </g>
    <g id="ytick_28">
     <g id="line2d_215">
      <g>
       <use style="stroke:#000000;" x="433.8" xlink:href="#m19593473a9" y="127.236225"/>
      </g>
     </g>
     <g id="line2d_216">
      <g>
       <use style="stroke:#000000;" x="712.8" xlink:href="#m19593473a9" y="127.236225"/>
      </g>
     </g>
    </g>
    <g id="ytick_29">
     <g id="line2d_217">
      <g>
       <use style="stroke:#000000;" x="433.8" xlink:href="#m19593473a9" y="112.94898"/>
      </g>
     </g>
     <g id="line2d_218">
      <g>
       <use style="stroke:#000000;" x="712.8" xlink:href="#m19593473a9" y="112.94898"/>
      </g>
     </g>
    </g>
    <g id="ytick_30">
     <g id="line2d_219">
      <g>
       <use style="stroke:#000000;" x="433.8" xlink:href="#m19593473a9" y="84.37449"/>
      </g>
     </g>
     <g id="line2d_220">
      <g>
       <use style="stroke:#000000;" x="712.8" xlink:href="#m19593473a9" y="84.37449"/>
      </g>
     </g>
    </g>
    <g id="ytick_31">
     <g id="line2d_221">
      <g>
       <use style="stroke:#000000;" x="433.8" xlink:href="#m19593473a9" y="70.087245"/>
      </g>
     </g>
     <g id="line2d_222">
      <g>
       <use style="stroke:#000000;" x="712.8" xlink:href="#m19593473a9" y="70.087245"/>
      </g>
     </g>
    </g>
    <g id="ytick_32">
     <g id="line2d_223">
      <g>
       <use style="stroke:#000000;" x="433.8" xlink:href="#m19593473a9" y="55.8"/>
      </g>
     </g>
     <g id="line2d_224">
      <g>
       <use style="stroke:#000000;" x="712.8" xlink:href="#m19593473a9" y="55.8"/>
      </g>
     </g>
    </g>
   </g>
   <g id="line2d_225">
    <path clip-path="url(#p412939ef28)" d="M 446.481818 55.8 
L 479.564822 218.306249 
L 578.813834 304.398062 
L 578.813834 304.398062 
" style="fill:none;stroke:#1f77b4;stroke-linecap:square;stroke-width:1.5;"/>
   </g>
   <g id="line2d_226">
    <path clip-path="url(#p412939ef28)" d="M 446.481818 55.8 
L 479.564822 218.306249 
L 578.813834 304.398062 
L 578.813834 304.398062 
L 578.813834 304.398062 
" style="fill:none;stroke:#ff7f0e;stroke-linecap:square;stroke-width:1.5;"/>
   </g>
   <g id="line2d_227">
    <path clip-path="url(#p412939ef28)" d="M 446.481818 55.8 
L 479.564822 218.306249 
L 493.869462 254.097377 
L 503.061997 269.730928 
L 509.75636 278.285994 
L 514.973949 283.590702 
L 519.222305 287.159575 
L 522.789975 289.704458 
L 525.856163 291.600616 
L 528.539419 293.062993 
L 530.922003 294.222744 
L 552.33372 300.596253 
L 560.951372 302.006997 
L 629.090787 306.08927 
L 599.594887 306.949659 
L 611.487883 307.77102 
L 614.302266 307.798721 
L 613.678195 307.799882 
L 613.865927 307.79999 
L 613.81248 307.799999 
L 613.82796 307.8 
L 613.823498 307.8 
L 613.824786 307.8 
L 613.824414 307.8 
L 613.824522 307.8 
L 613.824491 307.8 
L 613.8245 307.8 
L 613.824497 307.8 
L 613.824498 307.8 
L 613.824497 307.8 
L 613.824498 307.8 
L 613.824498 307.8 
L 613.824498 307.8 
L 613.824498 307.8 
L 613.824498 307.8 
L 613.824498 307.8 
L 613.824498 307.8 
L 613.824498 307.8 
L 613.824498 307.8 
L 613.824498 307.8 
L 613.824498 307.8 
L 613.824498 307.8 
L 613.824498 307.8 
L 613.824498 307.8 
L 613.824498 307.8 
L 613.824498 307.8 
L 613.824498 307.8 
L 613.824498 307.8 
L 613.824498 307.8 
L 613.824498 307.8 
" style="fill:none;stroke:#2ca02c;stroke-linecap:square;stroke-width:1.5;"/>
   </g>
   <g id="line2d_228">
    <path clip-path="url(#p412939ef28)" d="M 446.481818 55.8 
L 578.813834 304.398062 
" style="fill:none;stroke:#d62728;stroke-linecap:square;stroke-width:1.5;"/>
   </g>
   <g id="line2d_229">
    <path clip-path="url(#p412939ef28)" d="M 446.481818 55.8 
L 479.564822 218.306249 
L 522.986265 289.833546 
L 550.681973 300.280636 
L 564.747474 302.546102 
L 571.780654 303.485009 
L 575.297244 303.942343 
L 577.055539 304.170253 
L 577.934687 304.284161 
L 578.37426 304.341111 
L 578.594047 304.369587 
L 578.703941 304.383824 
L 578.758887 304.390943 
L 578.786361 304.394502 
L 578.800097 304.396282 
L 578.806966 304.397172 
L 578.8104 304.397617 
L 578.812117 304.397839 
L 578.812975 304.397951 
L 578.813405 304.398006 
L 578.813619 304.398034 
L 578.813727 304.398048 
L 578.81378 304.398055 
L 578.813807 304.398058 
L 578.813821 304.39806 
L 578.813827 304.398061 
L 578.813831 304.398061 
L 578.813832 304.398062 
L 578.813833 304.398062 
L 578.813834 304.398062 
L 578.813834 304.398062 
L 578.813834 304.398062 
L 578.813834 304.398062 
L 578.813834 304.398062 
L 578.813834 304.398062 
L 578.813834 304.398062 
L 578.813834 304.398062 
L 578.813834 304.398062 
L 578.813834 304.398062 
L 578.813834 304.398062 
L 578.813834 304.398062 
L 578.813834 304.398062 
L 578.813834 304.398062 
L 578.813834 304.398062 
L 578.813834 304.398062 
L 578.813834 304.398062 
L 578.813834 304.398062 
L 578.813834 304.398062 
L 578.813834 304.398062 
L 578.813834 304.398062 
" style="fill:none;stroke:#9467bd;stroke-linecap:square;stroke-width:1.5;"/>
   </g>
   <g id="line2d_230">
    <path clip-path="url(#p412939ef28)" d="M 446.481818 55.8 
L 479.564822 218.306249 
L 522.986265 289.833546 
L 550.681973 300.280636 
L 564.747474 302.546102 
L 571.780654 303.485009 
L 575.297244 303.942343 
L 577.055539 304.170253 
L 577.934687 304.284161 
L 578.37426 304.341111 
L 578.594047 304.369587 
L 578.703941 304.383824 
L 578.758887 304.390943 
L 578.786361 304.394502 
L 578.800097 304.396282 
L 578.806966 304.397172 
L 578.8104 304.397617 
L 578.812117 304.397839 
L 578.812975 304.397951 
L 578.813405 304.398006 
L 578.813619 304.398034 
L 578.813727 304.398048 
L 578.81378 304.398055 
L 578.813807 304.398058 
L 578.813821 304.39806 
L 578.813827 304.398061 
L 578.813831 304.398061 
L 578.813832 304.398062 
L 578.813833 304.398062 
L 578.813834 304.398062 
L 578.813834 304.398062 
L 578.813834 304.398062 
L 578.813834 304.398062 
L 578.813834 304.398062 
L 578.813834 304.398062 
L 578.813834 304.398062 
L 578.813834 304.398062 
L 578.813834 304.398062 
L 578.813834 304.398062 
L 578.813834 304.398062 
L 578.813834 304.398062 
L 578.813834 304.398062 
L 578.813834 304.398062 
L 578.813834 304.398062 
L 578.813834 304.398062 
L 578.813834 304.398062 
L 578.813834 304.398062 
L 578.813834 304.398062 
L 578.813834 304.398062 
L 578.813834 304.398062 
" style="fill:none;stroke:#8c564b;stroke-linecap:square;stroke-width:1.5;"/>
   </g>
   <g id="line2d_231">
    <path clip-path="url(#p412939ef28)" d="M 446.481818 55.8 
L 468.945586 180.189084 
L 487.849484 240.936913 
L 503.874594 270.885565 
L 517.638062 285.901106 
L 529.745157 293.665379 
L 540.893849 297.924672 
L 552.187934 300.569126 
L 566.714423 302.814309 
L 617.587373 307.715622 
L 615.882617 307.775553 
L 614.909635 307.793328 
L 614.383214 307.798249 
L 614.108221 307.799551 
L 613.967497 307.799886 
L 613.896287 307.799971 
L 613.860466 307.799993 
L 613.8425 307.799998 
L 613.833503 307.8 
L 613.829002 307.8 
L 613.82675 307.8 
L 613.825624 307.8 
L 613.825061 307.8 
L 613.824779 307.8 
L 613.824638 307.8 
L 613.824568 307.8 
L 613.824533 307.8 
L 613.824515 307.8 
L 613.824506 307.8 
L 613.824502 307.8 
L 613.8245 307.8 
L 613.824499 307.8 
L 613.824498 307.8 
L 613.824498 307.8 
L 613.824498 307.8 
L 613.824498 307.8 
L 613.824498 307.8 
L 613.824498 307.8 
L 613.824498 307.8 
L 613.824498 307.8 
L 613.824498 307.8 
L 613.824498 307.8 
L 613.824498 307.8 
L 613.824498 307.8 
L 613.824498 307.8 
L 613.824498 307.8 
L 613.824498 307.8 
L 613.824498 307.8 
L 613.824498 307.8 
L 613.824498 307.8 
" style="fill:none;stroke:#e377c2;stroke-linecap:square;stroke-width:1.5;"/>
   </g>
   <g id="line2d_232">
    <path clip-path="url(#p412939ef28)" d="M 446.481818 55.8 
L 450.305482 81.909022 
L 454.129146 105.830931 
L 456.678255 120.627274 
L 459.227364 134.54565 
L 461.776473 147.622324 
L 464.325582 159.892793 
L 466.874692 171.391791 
L 469.423801 182.153286 
L 471.97291 192.210483 
L 474.522019 201.595821 
L 477.071128 210.340973 
L 479.620238 218.47685 
L 482.169347 226.033596 
L 484.718456 233.04059 
L 487.267565 239.526447 
L 489.816674 245.519018 
L 492.365783 251.045387 
L 494.914893 256.131875 
L 497.464002 260.804038 
L 500.013111 265.086666 
L 502.56222 269.003785 
L 505.111329 272.578656 
L 507.660439 275.833775 
L 510.209548 278.790874 
L 512.758657 281.470919 
L 515.307766 283.894111 
L 517.856875 286.079888 
L 520.405984 288.046922 
L 522.955094 289.813119 
L 526.778757 292.123137 
L 530.602421 294.074292 
L 534.426085 295.717343 
L 538.249749 297.099172 
L 542.073413 298.262794 
L 547.171631 299.541948 
L 552.269849 300.584385 
L 558.642622 301.659768 
L 568.839059 303.098277 
L 594.330151 306.364579 
L 603.252033 307.295027 
L 609.624806 307.709693 
L 614.723024 307.795441 
L 618.546688 307.664717 
L 622.370352 307.324623 
L 626.194016 306.732988 
L 630.017679 305.84377 
L 632.566788 305.061143 
L 635.115898 304.108407 
L 637.665007 302.96905 
L 640.214116 301.625798 
L 642.763225 300.06061 
L 645.312334 298.254681 
L 647.861444 296.188441 
L 650.410553 293.841556 
L 652.959662 291.192926 
L 655.508771 288.220687 
L 658.05788 284.90221 
L 660.606989 281.2141 
L 663.156099 277.132199 
L 665.705208 272.631583 
L 668.254317 267.686563 
L 670.803426 262.270686 
L 673.352535 256.356734 
L 675.901645 249.916724 
L 678.450754 242.921908 
L 680.999863 235.342773 
L 683.548972 227.149042 
L 686.098081 218.309671 
L 688.64719 208.792855 
L 691.1963 198.566021 
L 693.745409 187.595832 
L 696.294518 175.848186 
L 698.843627 163.288216 
L 700.118182 156.692505 
L 700.118182 156.692505 
" style="fill:none;stroke:#7f7f7f;stroke-linecap:square;stroke-width:1.5;"/>
   </g>
   <g id="patch_9">
    <path d="M 433.8 320.4 
L 433.8 43.2 
" style="fill:none;stroke:#000000;stroke-linecap:square;stroke-linejoin:miter;"/>
   </g>
   <g id="patch_10">
    <path d="M 712.8 320.4 
L 712.8 43.2 
" style="fill:none;stroke:#000000;stroke-linecap:square;stroke-linejoin:miter;"/>
   </g>
   <g id="patch_11">
    <path d="M 433.8 320.4 
L 712.8 320.4 
" style="fill:none;stroke:#000000;stroke-linecap:square;stroke-linejoin:miter;"/>
   </g>
   <g id="patch_12">
    <path d="M 433.8 43.2 
L 712.8 43.2 
" style="fill:none;stroke:#000000;stroke-linecap:square;stroke-linejoin:miter;"/>
   </g>
   <g id="text_28">
    <!-- Model Movement -->
    <g transform="translate(517.28625 37.2)scale(0.13 -0.13)">
     <defs>
      <path d="M 45.40625 46.390625 
L 45.40625 75.984375 
L 54.390625 75.984375 
L 54.390625 0 
L 45.40625 0 
L 45.40625 8.203125 
Q 42.578125 3.328125 38.25 0.953125 
Q 33.9375 -1.421875 27.875 -1.421875 
Q 17.96875 -1.421875 11.734375 6.484375 
Q 5.515625 14.40625 5.515625 27.296875 
Q 5.515625 40.1875 11.734375 48.09375 
Q 17.96875 56 27.875 56 
Q 33.9375 56 38.25 53.625 
Q 42.578125 51.265625 45.40625 46.390625 
z
M 14.796875 27.296875 
Q 14.796875 17.390625 18.875 11.75 
Q 22.953125 6.109375 30.078125 6.109375 
Q 37.203125 6.109375 41.296875 11.75 
Q 45.40625 17.390625 45.40625 27.296875 
Q 45.40625 37.203125 41.296875 42.84375 
Q 37.203125 48.484375 30.078125 48.484375 
Q 22.953125 48.484375 18.875 42.84375 
Q 14.796875 37.203125 14.796875 27.296875 
z
" id="DejaVuSans-100"/>
      <path d="M 52 44.1875 
Q 55.375 50.25 60.0625 53.125 
Q 64.75 56 71.09375 56 
Q 79.640625 56 84.28125 50.015625 
Q 88.921875 44.046875 88.921875 33.015625 
L 88.921875 0 
L 79.890625 0 
L 79.890625 32.71875 
Q 79.890625 40.578125 77.09375 44.375 
Q 74.3125 48.1875 68.609375 48.1875 
Q 61.625 48.1875 57.5625 43.546875 
Q 53.515625 38.921875 53.515625 30.90625 
L 53.515625 0 
L 44.484375 0 
L 44.484375 32.71875 
Q 44.484375 40.625 41.703125 44.40625 
Q 38.921875 48.1875 33.109375 48.1875 
Q 26.21875 48.1875 22.15625 43.53125 
Q 18.109375 38.875 18.109375 30.90625 
L 18.109375 0 
L 9.078125 0 
L 9.078125 54.6875 
L 18.109375 54.6875 
L 18.109375 46.1875 
Q 21.1875 51.21875 25.484375 53.609375 
Q 29.78125 56 35.6875 56 
Q 41.65625 56 45.828125 52.96875 
Q 50 49.953125 52 44.1875 
z
" id="DejaVuSans-109"/>
     </defs>
     <use xlink:href="#DejaVuSans-77"/>
     <use x="86.279297" xlink:href="#DejaVuSans-111"/>
     <use x="147.460938" xlink:href="#DejaVuSans-100"/>
     <use x="210.9375" xlink:href="#DejaVuSans-101"/>
     <use x="272.460938" xlink:href="#DejaVuSans-108"/>
     <use x="300.244141" xlink:href="#DejaVuSans-32"/>
     <use x="332.03125" xlink:href="#DejaVuSans-77"/>
     <use x="418.310547" xlink:href="#DejaVuSans-111"/>
     <use x="479.492188" xlink:href="#DejaVuSans-118"/>
     <use x="538.671875" xlink:href="#DejaVuSans-101"/>
     <use x="600.195312" xlink:href="#DejaVuSans-109"/>
     <use x="697.607422" xlink:href="#DejaVuSans-101"/>
     <use x="759.130859" xlink:href="#DejaVuSans-110"/>
     <use x="822.509766" xlink:href="#DejaVuSans-116"/>
    </g>
   </g>
   <g id="legend_2">
    <g id="patch_13">
     <path d="M 576.9 169.446875 
L 707.8 169.446875 
L 707.8 48.2 
L 576.9 48.2 
z
" style="fill:#ffffff;stroke:#000000;stroke-linejoin:miter;"/>
    </g>
    <g id="line2d_233">
     <path d="M 580.9 56.298437 
L 600.9 56.298437 
" style="fill:none;stroke:#1f77b4;stroke-linecap:square;stroke-width:1.5;"/>
    </g>
    <g id="line2d_234"/>
    <g id="text_29">
     <!-- bfgs -->
     <g transform="translate(608.9 59.798437)scale(0.1 -0.1)">
      <use xlink:href="#DejaVuSans-98"/>
      <use x="63.476562" xlink:href="#DejaVuSans-102"/>
      <use x="98.681641" xlink:href="#DejaVuSans-103"/>
      <use x="162.158203" xlink:href="#DejaVuSans-115"/>
     </g>
    </g>
    <g id="line2d_235">
     <path d="M 580.9 70.976562 
L 600.9 70.976562 
" style="fill:none;stroke:#ff7f0e;stroke-linecap:square;stroke-width:1.5;"/>
    </g>
    <g id="line2d_236"/>
    <g id="text_30">
     <!-- pbfgs -->
     <g transform="translate(608.9 74.476562)scale(0.1 -0.1)">
      <use xlink:href="#DejaVuSans-112"/>
      <use x="63.476562" xlink:href="#DejaVuSans-98"/>
      <use x="126.953125" xlink:href="#DejaVuSans-102"/>
      <use x="162.158203" xlink:href="#DejaVuSans-103"/>
      <use x="225.634766" xlink:href="#DejaVuSans-115"/>
     </g>
    </g>
    <g id="line2d_237">
     <path d="M 580.9 85.654687 
L 600.9 85.654687 
" style="fill:none;stroke:#2ca02c;stroke-linecap:square;stroke-width:1.5;"/>
    </g>
    <g id="line2d_238"/>
    <g id="text_31">
     <!-- steep -->
     <g transform="translate(608.9 89.154687)scale(0.1 -0.1)">
      <use xlink:href="#DejaVuSans-115"/>
      <use x="52.099609" xlink:href="#DejaVuSans-116"/>
      <use x="91.308594" xlink:href="#DejaVuSans-101"/>
      <use x="152.832031" xlink:href="#DejaVuSans-101"/>
      <use x="214.355469" xlink:href="#DejaVuSans-112"/>
     </g>
    </g>
    <g id="line2d_239">
     <path d="M 580.9 100.332812 
L 600.9 100.332812 
" style="fill:none;stroke:#d62728;stroke-linecap:square;stroke-width:1.5;"/>
    </g>
    <g id="line2d_240"/>
    <g id="text_32">
     <!-- psteep -->
     <g transform="translate(608.9 103.832812)scale(0.1 -0.1)">
      <use xlink:href="#DejaVuSans-112"/>
      <use x="63.476562" xlink:href="#DejaVuSans-115"/>
      <use x="115.576172" xlink:href="#DejaVuSans-116"/>
      <use x="154.785156" xlink:href="#DejaVuSans-101"/>
      <use x="216.308594" xlink:href="#DejaVuSans-101"/>
      <use x="277.832031" xlink:href="#DejaVuSans-112"/>
     </g>
    </g>
    <g id="line2d_241">
     <path d="M 580.9 115.010937 
L 600.9 115.010937 
" style="fill:none;stroke:#9467bd;stroke-linecap:square;stroke-width:1.5;"/>
    </g>
    <g id="line2d_242"/>
    <g id="text_33">
     <!-- steep -->
     <g transform="translate(608.9 118.510937)scale(0.1 -0.1)">
      <use xlink:href="#DejaVuSans-115"/>
      <use x="52.099609" xlink:href="#DejaVuSans-116"/>
      <use x="91.308594" xlink:href="#DejaVuSans-101"/>
      <use x="152.832031" xlink:href="#DejaVuSans-101"/>
      <use x="214.355469" xlink:href="#DejaVuSans-112"/>
     </g>
    </g>
    <g id="line2d_243">
     <path d="M 580.9 129.689062 
L 600.9 129.689062 
" style="fill:none;stroke:#8c564b;stroke-linecap:square;stroke-width:1.5;"/>
    </g>
    <g id="line2d_244"/>
    <g id="text_34">
     <!-- psteep -->
     <g transform="translate(608.9 133.189062)scale(0.1 -0.1)">
      <use xlink:href="#DejaVuSans-112"/>
      <use x="63.476562" xlink:href="#DejaVuSans-115"/>
      <use x="115.576172" xlink:href="#DejaVuSans-116"/>
      <use x="154.785156" xlink:href="#DejaVuSans-101"/>
      <use x="216.308594" xlink:href="#DejaVuSans-101"/>
      <use x="277.832031" xlink:href="#DejaVuSans-112"/>
     </g>
    </g>
    <g id="line2d_245">
     <path d="M 580.9 144.367187 
L 600.9 144.367187 
" style="fill:none;stroke:#e377c2;stroke-linecap:square;stroke-width:1.5;"/>
    </g>
    <g id="line2d_246"/>
    <g id="text_35">
     <!-- gn -->
     <g transform="translate(608.9 147.867187)scale(0.1 -0.1)">
      <use xlink:href="#DejaVuSans-103"/>
      <use x="63.476562" xlink:href="#DejaVuSans-110"/>
     </g>
    </g>
    <g id="line2d_247">
     <path d="M 580.9 159.867187 
L 600.9 159.867187 
" style="fill:none;stroke:#7f7f7f;stroke-linecap:square;stroke-width:1.5;"/>
    </g>
    <g id="line2d_248"/>
    <g id="text_36">
     <!-- $f(x) = x^4 - 4x^2 -2x$ -->
     <g transform="translate(608.9 163.367187)scale(0.1 -0.1)">
      <defs>
       <path d="M 47.796875 75.984375 
L 46.390625 68.5 
L 37.796875 68.5 
Q 32.90625 68.5 30.6875 66.578125 
Q 28.46875 64.65625 27.390625 59.515625 
L 26.421875 54.6875 
L 41.21875 54.6875 
L 39.890625 47.703125 
L 25.09375 47.703125 
L 15.828125 0 
L 6.78125 0 
L 16.109375 47.703125 
L 7.515625 47.703125 
L 8.796875 54.6875 
L 17.390625 54.6875 
L 18.109375 58.5 
Q 19.96875 68.171875 24.625 72.078125 
Q 29.296875 75.984375 39.3125 75.984375 
z
" id="DejaVuSans-Oblique-102"/>
       <path d="M 31 75.875 
Q 24.46875 64.65625 21.28125 53.65625 
Q 18.109375 42.671875 18.109375 31.390625 
Q 18.109375 20.125 21.3125 9.0625 
Q 24.515625 -2 31 -13.1875 
L 23.1875 -13.1875 
Q 15.875 -1.703125 12.234375 9.375 
Q 8.59375 20.453125 8.59375 31.390625 
Q 8.59375 42.28125 12.203125 53.3125 
Q 15.828125 64.359375 23.1875 75.875 
z
" id="DejaVuSans-40"/>
       <path d="M 60.015625 54.6875 
L 34.90625 27.875 
L 50.296875 0 
L 39.984375 0 
L 28.421875 21.6875 
L 8.296875 0 
L -2.59375 0 
L 24.3125 28.8125 
L 10.015625 54.6875 
L 20.3125 54.6875 
L 30.8125 34.90625 
L 49.125 54.6875 
z
" id="DejaVuSans-Oblique-120"/>
       <path d="M 8.015625 75.875 
L 15.828125 75.875 
Q 23.140625 64.359375 26.78125 53.3125 
Q 30.421875 42.28125 30.421875 31.390625 
Q 30.421875 20.453125 26.78125 9.375 
Q 23.140625 -1.703125 15.828125 -13.1875 
L 8.015625 -13.1875 
Q 14.5 -2 17.703125 9.0625 
Q 20.90625 20.125 20.90625 31.390625 
Q 20.90625 42.671875 17.703125 53.65625 
Q 14.5 64.65625 8.015625 75.875 
z
" id="DejaVuSans-41"/>
       <path d="M 10.59375 45.40625 
L 73.1875 45.40625 
L 73.1875 37.203125 
L 10.59375 37.203125 
z
M 10.59375 25.484375 
L 73.1875 25.484375 
L 73.1875 17.1875 
L 10.59375 17.1875 
z
" id="DejaVuSans-61"/>
      </defs>
      <use transform="translate(0 0.765625)" xlink:href="#DejaVuSans-Oblique-102"/>
      <use transform="translate(35.205078 0.765625)" xlink:href="#DejaVuSans-40"/>
      <use transform="translate(74.21875 0.765625)" xlink:href="#DejaVuSans-Oblique-120"/>
      <use transform="translate(133.398438 0.765625)" xlink:href="#DejaVuSans-41"/>
      <use transform="translate(191.894531 0.765625)" xlink:href="#DejaVuSans-61"/>
      <use transform="translate(295.166016 0.765625)" xlink:href="#DejaVuSans-Oblique-120"/>
      <use transform="translate(358.811849 39.046875)scale(0.7)" xlink:href="#DejaVuSans-52"/>
      <use transform="translate(425.564779 0.765625)" xlink:href="#DejaVuSans-8722"/>
      <use transform="translate(528.836263 0.765625)" xlink:href="#DejaVuSans-52"/>
      <use transform="translate(592.45931 0.765625)" xlink:href="#DejaVuSans-Oblique-120"/>
      <use transform="translate(656.105143 39.046875)scale(0.7)" xlink:href="#DejaVuSans-50"/>
      <use transform="translate(722.858073 0.765625)" xlink:href="#DejaVuSans-8722"/>
      <use transform="translate(826.129557 0.765625)" xlink:href="#DejaVuSans-50"/>
      <use transform="translate(889.752604 0.765625)" xlink:href="#DejaVuSans-Oblique-120"/>
     </g>
    </g>
   </g>
  </g>
 </g>
 <defs>
  <clipPath id="p8774ec6797">
   <rect height="277.2" width="279" x="99" y="43.2"/>
  </clipPath>
  <clipPath id="p412939ef28">
   <rect height="277.2" width="279" x="433.8" y="43.2"/>
  </clipPath>
 </defs>
</svg>
