<?xml version="1.0" encoding="utf-8" standalone="no"?>
<!DOCTYPE svg PUBLIC "-//W3C//DTD SVG 1.1//EN"
  "http://www.w3.org/Graphics/SVG/1.1/DTD/svg11.dtd">
<!-- Created with matplotlib (https://matplotlib.org/) -->
<svg height="345.6pt" version="1.1" viewBox="0 0 460.8 345.6" width="460.8pt" xmlns="http://www.w3.org/2000/svg" xmlns:xlink="http://www.w3.org/1999/xlink">
 <defs>
  <style type="text/css">
*{stroke-linecap:butt;stroke-linejoin:round;}
  </style>
 </defs>
 <g id="figure_1">
  <g id="patch_1">
   <path d="M 0 345.6 
L 460.8 345.6 
L 460.8 0 
L 0 0 
z
" style="fill:#ffffff;"/>
  </g>
  <g id="axes_1">
   <g id="patch_2">
    <path d="M 57.6 166.701176 
L 225.656471 166.701176 
L 225.656471 41.472 
L 57.6 41.472 
z
" style="fill:#ffffff;"/>
   </g>
   <g id="matplotlib.axis_1">
    <g id="xtick_1">
     <g id="line2d_1">
      <path clip-path="url(#p5f8a0fe01b)" d="M 57.6 166.701176 
L 57.6 41.472 
" style="fill:none;stroke:#b0b0b0;stroke-linecap:square;stroke-width:0.8;"/>
     </g>
     <g id="line2d_2">
      <defs>
       <path d="M 0 0 
L 0 3.5 
" id="m1e048905ef" style="stroke:#000000;stroke-width:0.8;"/>
      </defs>
      <g>
       <use style="stroke:#000000;stroke-width:0.8;" x="57.6" xlink:href="#m1e048905ef" y="166.701176"/>
      </g>
     </g>
    </g>
    <g id="xtick_2">
     <g id="line2d_3">
      <path clip-path="url(#p5f8a0fe01b)" d="M 99.614118 166.701176 
L 99.614118 41.472 
" style="fill:none;stroke:#b0b0b0;stroke-linecap:square;stroke-width:0.8;"/>
     </g>
     <g id="line2d_4">
      <g>
       <use style="stroke:#000000;stroke-width:0.8;" x="99.614118" xlink:href="#m1e048905ef" y="166.701176"/>
      </g>
     </g>
    </g>
    <g id="xtick_3">
     <g id="line2d_5">
      <path clip-path="url(#p5f8a0fe01b)" d="M 141.628235 166.701176 
L 141.628235 41.472 
" style="fill:none;stroke:#b0b0b0;stroke-linecap:square;stroke-width:0.8;"/>
     </g>
     <g id="line2d_6">
      <g>
       <use style="stroke:#000000;stroke-width:0.8;" x="141.628235" xlink:href="#m1e048905ef" y="166.701176"/>
      </g>
     </g>
    </g>
    <g id="xtick_4">
     <g id="line2d_7">
      <path clip-path="url(#p5f8a0fe01b)" d="M 183.642353 166.701176 
L 183.642353 41.472 
" style="fill:none;stroke:#b0b0b0;stroke-linecap:square;stroke-width:0.8;"/>
     </g>
     <g id="line2d_8">
      <g>
       <use style="stroke:#000000;stroke-width:0.8;" x="183.642353" xlink:href="#m1e048905ef" y="166.701176"/>
      </g>
     </g>
    </g>
    <g id="xtick_5">
     <g id="line2d_9">
      <path clip-path="url(#p5f8a0fe01b)" d="M 225.656471 166.701176 
L 225.656471 41.472 
" style="fill:none;stroke:#b0b0b0;stroke-linecap:square;stroke-width:0.8;"/>
     </g>
     <g id="line2d_10">
      <g>
       <use style="stroke:#000000;stroke-width:0.8;" x="225.656471" xlink:href="#m1e048905ef" y="166.701176"/>
      </g>
     </g>
    </g>
   </g>
   <g id="matplotlib.axis_2">
    <g id="ytick_1">
     <g id="line2d_11">
      <path clip-path="url(#p5f8a0fe01b)" d="M 57.6 166.701176 
L 225.656471 166.701176 
" style="fill:none;stroke:#b0b0b0;stroke-linecap:square;stroke-width:0.8;"/>
     </g>
     <g id="line2d_12">
      <defs>
       <path d="M 0 0 
L -3.5 0 
" id="m3f62d853d7" style="stroke:#000000;stroke-width:0.8;"/>
      </defs>
      <g>
       <use style="stroke:#000000;stroke-width:0.8;" x="57.6" xlink:href="#m3f62d853d7" y="166.701176"/>
      </g>
     </g>
     <g id="text_1">
      <!-- −1.0 -->
      <defs>
       <path d="M 10.59375 35.5 
L 73.1875 35.5 
L 73.1875 27.203125 
L 10.59375 27.203125 
z
" id="DejaVuSans-8722"/>
       <path d="M 12.40625 8.296875 
L 28.515625 8.296875 
L 28.515625 63.921875 
L 10.984375 60.40625 
L 10.984375 69.390625 
L 28.421875 72.90625 
L 38.28125 72.90625 
L 38.28125 8.296875 
L 54.390625 8.296875 
L 54.390625 0 
L 12.40625 0 
z
" id="DejaVuSans-49"/>
       <path d="M 10.6875 12.40625 
L 21 12.40625 
L 21 0 
L 10.6875 0 
z
" id="DejaVuSans-46"/>
       <path d="M 31.78125 66.40625 
Q 24.171875 66.40625 20.328125 58.90625 
Q 16.5 51.421875 16.5 36.375 
Q 16.5 21.390625 20.328125 13.890625 
Q 24.171875 6.390625 31.78125 6.390625 
Q 39.453125 6.390625 43.28125 13.890625 
Q 47.125 21.390625 47.125 36.375 
Q 47.125 51.421875 43.28125 58.90625 
Q 39.453125 66.40625 31.78125 66.40625 
z
M 31.78125 74.21875 
Q 44.046875 74.21875 50.515625 64.515625 
Q 56.984375 54.828125 56.984375 36.375 
Q 56.984375 17.96875 50.515625 8.265625 
Q 44.046875 -1.421875 31.78125 -1.421875 
Q 19.53125 -1.421875 13.0625 8.265625 
Q 6.59375 17.96875 6.59375 36.375 
Q 6.59375 54.828125 13.0625 64.515625 
Q 19.53125 74.21875 31.78125 74.21875 
z
" id="DejaVuSans-48"/>
      </defs>
      <g transform="translate(26.317187 170.500395)scale(0.1 -0.1)">
       <use xlink:href="#DejaVuSans-8722"/>
       <use x="83.789062" xlink:href="#DejaVuSans-49"/>
       <use x="147.412109" xlink:href="#DejaVuSans-46"/>
       <use x="179.199219" xlink:href="#DejaVuSans-48"/>
      </g>
     </g>
    </g>
    <g id="ytick_2">
     <g id="line2d_13">
      <path clip-path="url(#p5f8a0fe01b)" d="M 57.6 135.393882 
L 225.656471 135.393882 
" style="fill:none;stroke:#b0b0b0;stroke-linecap:square;stroke-width:0.8;"/>
     </g>
     <g id="line2d_14">
      <g>
       <use style="stroke:#000000;stroke-width:0.8;" x="57.6" xlink:href="#m3f62d853d7" y="135.393882"/>
      </g>
     </g>
     <g id="text_2">
      <!-- −0.5 -->
      <defs>
       <path d="M 10.796875 72.90625 
L 49.515625 72.90625 
L 49.515625 64.59375 
L 19.828125 64.59375 
L 19.828125 46.734375 
Q 21.96875 47.46875 24.109375 47.828125 
Q 26.265625 48.1875 28.421875 48.1875 
Q 40.625 48.1875 47.75 41.5 
Q 54.890625 34.8125 54.890625 23.390625 
Q 54.890625 11.625 47.5625 5.09375 
Q 40.234375 -1.421875 26.90625 -1.421875 
Q 22.3125 -1.421875 17.546875 -0.640625 
Q 12.796875 0.140625 7.71875 1.703125 
L 7.71875 11.625 
Q 12.109375 9.234375 16.796875 8.0625 
Q 21.484375 6.890625 26.703125 6.890625 
Q 35.15625 6.890625 40.078125 11.328125 
Q 45.015625 15.765625 45.015625 23.390625 
Q 45.015625 31 40.078125 35.4375 
Q 35.15625 39.890625 26.703125 39.890625 
Q 22.75 39.890625 18.8125 39.015625 
Q 14.890625 38.140625 10.796875 36.28125 
z
" id="DejaVuSans-53"/>
      </defs>
      <g transform="translate(26.317187 139.193101)scale(0.1 -0.1)">
       <use xlink:href="#DejaVuSans-8722"/>
       <use x="83.789062" xlink:href="#DejaVuSans-48"/>
       <use x="147.412109" xlink:href="#DejaVuSans-46"/>
       <use x="179.199219" xlink:href="#DejaVuSans-53"/>
      </g>
     </g>
    </g>
    <g id="ytick_3">
     <g id="line2d_15">
      <path clip-path="url(#p5f8a0fe01b)" d="M 57.6 104.086588 
L 225.656471 104.086588 
" style="fill:none;stroke:#b0b0b0;stroke-linecap:square;stroke-width:0.8;"/>
     </g>
     <g id="line2d_16">
      <g>
       <use style="stroke:#000000;stroke-width:0.8;" x="57.6" xlink:href="#m3f62d853d7" y="104.086588"/>
      </g>
     </g>
     <g id="text_3">
      <!-- 0.0 -->
      <g transform="translate(34.696875 107.885807)scale(0.1 -0.1)">
       <use xlink:href="#DejaVuSans-48"/>
       <use x="63.623047" xlink:href="#DejaVuSans-46"/>
       <use x="95.410156" xlink:href="#DejaVuSans-48"/>
      </g>
     </g>
    </g>
    <g id="ytick_4">
     <g id="line2d_17">
      <path clip-path="url(#p5f8a0fe01b)" d="M 57.6 72.779294 
L 225.656471 72.779294 
" style="fill:none;stroke:#b0b0b0;stroke-linecap:square;stroke-width:0.8;"/>
     </g>
     <g id="line2d_18">
      <g>
       <use style="stroke:#000000;stroke-width:0.8;" x="57.6" xlink:href="#m3f62d853d7" y="72.779294"/>
      </g>
     </g>
     <g id="text_4">
      <!-- 0.5 -->
      <g transform="translate(34.696875 76.578513)scale(0.1 -0.1)">
       <use xlink:href="#DejaVuSans-48"/>
       <use x="63.623047" xlink:href="#DejaVuSans-46"/>
       <use x="95.410156" xlink:href="#DejaVuSans-53"/>
      </g>
     </g>
    </g>
    <g id="ytick_5">
     <g id="line2d_19">
      <path clip-path="url(#p5f8a0fe01b)" d="M 57.6 41.472 
L 225.656471 41.472 
" style="fill:none;stroke:#b0b0b0;stroke-linecap:square;stroke-width:0.8;"/>
     </g>
     <g id="line2d_20">
      <g>
       <use style="stroke:#000000;stroke-width:0.8;" x="57.6" xlink:href="#m3f62d853d7" y="41.472"/>
      </g>
     </g>
     <g id="text_5">
      <!-- 1.0 -->
      <g transform="translate(34.696875 45.271219)scale(0.1 -0.1)">
       <use xlink:href="#DejaVuSans-49"/>
       <use x="63.623047" xlink:href="#DejaVuSans-46"/>
       <use x="95.410156" xlink:href="#DejaVuSans-48"/>
      </g>
     </g>
    </g>
    <g id="text_6">
     <!-- y -->
     <defs>
      <path d="M 32.171875 -5.078125 
Q 28.375 -14.84375 24.75 -17.8125 
Q 21.140625 -20.796875 15.09375 -20.796875 
L 7.90625 -20.796875 
L 7.90625 -13.28125 
L 13.1875 -13.28125 
Q 16.890625 -13.28125 18.9375 -11.515625 
Q 21 -9.765625 23.484375 -3.21875 
L 25.09375 0.875 
L 2.984375 54.6875 
L 12.5 54.6875 
L 29.59375 11.921875 
L 46.6875 54.6875 
L 56.203125 54.6875 
z
" id="DejaVuSans-121"/>
     </defs>
     <g transform="translate(20.2375 107.045963)rotate(-90)scale(0.1 -0.1)">
      <use xlink:href="#DejaVuSans-121"/>
     </g>
    </g>
   </g>
   <g id="line2d_21">
    <path clip-path="url(#p5f8a0fe01b)" d="M 57.6 166.701176 
L 59.29754 165.436235 
L 60.99508 164.171294 
L 62.69262 162.906353 
L 64.39016 161.641412 
L 66.087701 160.376471 
L 67.785241 159.111529 
L 69.482781 157.846588 
L 71.180321 156.581647 
L 72.877861 155.316706 
L 74.575401 154.051765 
L 76.272941 152.786824 
L 77.970481 151.521882 
L 79.668021 150.256941 
L 81.365561 148.992 
L 83.063102 147.727059 
L 84.760642 146.462118 
L 86.458182 145.197176 
L 88.155722 143.932235 
L 89.853262 142.667294 
L 91.550802 141.402353 
L 93.248342 140.137412 
L 94.945882 138.872471 
L 96.643422 137.607529 
L 98.340963 136.342588 
L 100.038503 135.077647 
L 101.736043 133.812706 
L 103.433583 132.547765 
L 105.131123 131.282824 
L 106.828663 130.017882 
L 108.526203 128.752941 
L 110.223743 127.488 
L 111.921283 126.223059 
L 113.618824 124.958118 
L 115.316364 123.693176 
L 117.013904 122.428235 
L 118.711444 121.163294 
L 120.408984 119.898353 
L 122.106524 118.633412 
L 123.804064 117.368471 
L 125.501604 116.103529 
L 127.199144 114.838588 
L 128.896684 113.573647 
L 130.594225 112.308706 
L 132.291765 111.043765 
L 133.989305 109.778824 
L 135.686845 108.513882 
L 137.384385 107.248941 
L 139.081925 105.984 
L 140.779465 104.719059 
L 142.477005 103.454118 
L 144.174545 102.189176 
L 145.872086 100.924235 
L 147.569626 99.659294 
L 149.267166 98.394353 
L 150.964706 97.129412 
L 152.662246 95.864471 
L 154.359786 94.599529 
L 156.057326 93.334588 
L 157.754866 92.069647 
L 159.452406 90.804706 
L 161.149947 89.539765 
L 162.847487 88.274824 
L 164.545027 87.009882 
L 166.242567 85.744941 
L 167.940107 84.48 
L 169.637647 83.215059 
L 171.335187 81.950118 
L 173.032727 80.685176 
L 174.730267 79.420235 
L 176.427807 78.155294 
L 178.125348 76.890353 
L 179.822888 75.625412 
L 181.520428 74.360471 
L 183.217968 73.095529 
L 184.915508 71.830588 
L 186.613048 70.565647 
L 188.310588 69.300706 
L 190.008128 68.035765 
L 191.705668 66.770824 
L 193.403209 65.505882 
L 195.100749 64.240941 
L 196.798289 62.976 
L 198.495829 61.711059 
L 200.193369 60.446118 
L 201.890909 59.181176 
L 203.588449 57.916235 
L 205.285989 56.651294 
L 206.983529 55.386353 
L 208.68107 54.121412 
L 210.37861 52.856471 
L 212.07615 51.591529 
L 213.77369 50.326588 
L 215.47123 49.061647 
L 217.16877 47.796706 
L 218.86631 46.531765 
L 220.56385 45.266824 
L 222.26139 44.001882 
L 223.95893 42.736941 
L 225.656471 41.472 
" style="fill:none;stroke:#1f77b4;stroke-linecap:square;stroke-width:1.5;"/>
   </g>
   <g id="patch_3">
    <path d="M 57.6 166.701176 
L 57.6 41.472 
" style="fill:none;stroke:#000000;stroke-linecap:square;stroke-linejoin:miter;stroke-width:0.8;"/>
   </g>
   <g id="patch_4">
    <path d="M 225.656471 166.701176 
L 225.656471 41.472 
" style="fill:none;stroke:#000000;stroke-linecap:square;stroke-linejoin:miter;stroke-width:0.8;"/>
   </g>
   <g id="patch_5">
    <path d="M 57.6 166.701176 
L 225.656471 166.701176 
" style="fill:none;stroke:#000000;stroke-linecap:square;stroke-linejoin:miter;stroke-width:0.8;"/>
   </g>
   <g id="patch_6">
    <path d="M 57.6 41.472 
L 225.656471 41.472 
" style="fill:none;stroke:#000000;stroke-linecap:square;stroke-linejoin:miter;stroke-width:0.8;"/>
   </g>
   <g id="legend_1">
    <g id="patch_7">
     <path d="M 155.356471 161.701176 
L 220.656471 161.701176 
L 220.656471 142.601176 
L 155.356471 142.601176 
z
" style="fill:#ffffff;opacity:0.8;stroke:#000000;stroke-linejoin:miter;"/>
    </g>
    <g id="line2d_22">
     <path d="M 159.356471 152.101176 
L 179.356471 152.101176 
" style="fill:none;stroke:#1f77b4;stroke-linecap:square;stroke-width:1.5;"/>
    </g>
    <g id="line2d_23"/>
    <g id="text_7">
     <!-- $y = x^1$ -->
     <defs>
      <path d="M 24.8125 -5.078125 
Q 18.5625 -15.578125 14.625 -18.1875 
Q 10.6875 -20.796875 4.59375 -20.796875 
L -2.484375 -20.796875 
L -0.984375 -13.28125 
L 4.203125 -13.28125 
Q 7.953125 -13.28125 10.59375 -11.234375 
Q 13.234375 -9.1875 16.5 -3.21875 
L 19.28125 2 
L 7.171875 54.6875 
L 16.703125 54.6875 
L 25.78125 12.796875 
L 50.875 54.6875 
L 60.296875 54.6875 
z
" id="DejaVuSans-Oblique-121"/>
      <path d="M 10.59375 45.40625 
L 73.1875 45.40625 
L 73.1875 37.203125 
L 10.59375 37.203125 
z
M 10.59375 25.484375 
L 73.1875 25.484375 
L 73.1875 17.1875 
L 10.59375 17.1875 
z
" id="DejaVuSans-61"/>
      <path d="M 60.015625 54.6875 
L 34.90625 27.875 
L 50.296875 0 
L 39.984375 0 
L 28.421875 21.6875 
L 8.296875 0 
L -2.59375 0 
L 24.3125 28.8125 
L 10.015625 54.6875 
L 20.3125 54.6875 
L 30.8125 34.90625 
L 49.125 54.6875 
z
" id="DejaVuSans-Oblique-120"/>
     </defs>
     <g transform="translate(187.356471 155.601176)scale(0.1 -0.1)">
      <use transform="translate(0 0.684375)" xlink:href="#DejaVuSans-Oblique-121"/>
      <use transform="translate(78.662109 0.684375)" xlink:href="#DejaVuSans-61"/>
      <use transform="translate(181.933594 0.684375)" xlink:href="#DejaVuSans-Oblique-120"/>
      <use transform="translate(245.579427 38.965625)scale(0.7)" xlink:href="#DejaVuSans-49"/>
     </g>
    </g>
   </g>
  </g>
  <g id="axes_2">
   <g id="patch_8">
    <path d="M 246.663529 166.701176 
L 414.72 166.701176 
L 414.72 41.472 
L 246.663529 41.472 
z
" style="fill:#ffffff;"/>
   </g>
   <g id="matplotlib.axis_3">
    <g id="xtick_6">
     <g id="line2d_24">
      <path clip-path="url(#p8436a6665e)" d="M 246.663529 166.701176 
L 246.663529 41.472 
" style="fill:none;stroke:#b0b0b0;stroke-linecap:square;stroke-width:0.8;"/>
     </g>
     <g id="line2d_25">
      <g>
       <use style="stroke:#000000;stroke-width:0.8;" x="246.663529" xlink:href="#m1e048905ef" y="166.701176"/>
      </g>
     </g>
    </g>
    <g id="xtick_7">
     <g id="line2d_26">
      <path clip-path="url(#p8436a6665e)" d="M 288.677647 166.701176 
L 288.677647 41.472 
" style="fill:none;stroke:#b0b0b0;stroke-linecap:square;stroke-width:0.8;"/>
     </g>
     <g id="line2d_27">
      <g>
       <use style="stroke:#000000;stroke-width:0.8;" x="288.677647" xlink:href="#m1e048905ef" y="166.701176"/>
      </g>
     </g>
    </g>
    <g id="xtick_8">
     <g id="line2d_28">
      <path clip-path="url(#p8436a6665e)" d="M 330.691765 166.701176 
L 330.691765 41.472 
" style="fill:none;stroke:#b0b0b0;stroke-linecap:square;stroke-width:0.8;"/>
     </g>
     <g id="line2d_29">
      <g>
       <use style="stroke:#000000;stroke-width:0.8;" x="330.691765" xlink:href="#m1e048905ef" y="166.701176"/>
      </g>
     </g>
    </g>
    <g id="xtick_9">
     <g id="line2d_30">
      <path clip-path="url(#p8436a6665e)" d="M 372.705882 166.701176 
L 372.705882 41.472 
" style="fill:none;stroke:#b0b0b0;stroke-linecap:square;stroke-width:0.8;"/>
     </g>
     <g id="line2d_31">
      <g>
       <use style="stroke:#000000;stroke-width:0.8;" x="372.705882" xlink:href="#m1e048905ef" y="166.701176"/>
      </g>
     </g>
    </g>
    <g id="xtick_10">
     <g id="line2d_32">
      <path clip-path="url(#p8436a6665e)" d="M 414.72 166.701176 
L 414.72 41.472 
" style="fill:none;stroke:#b0b0b0;stroke-linecap:square;stroke-width:0.8;"/>
     </g>
     <g id="line2d_33">
      <g>
       <use style="stroke:#000000;stroke-width:0.8;" x="414.72" xlink:href="#m1e048905ef" y="166.701176"/>
      </g>
     </g>
    </g>
   </g>
   <g id="matplotlib.axis_4">
    <g id="ytick_6">
     <g id="line2d_34">
      <path clip-path="url(#p8436a6665e)" d="M 246.663529 166.701176 
L 414.72 166.701176 
" style="fill:none;stroke:#b0b0b0;stroke-linecap:square;stroke-width:0.8;"/>
     </g>
     <g id="line2d_35">
      <g>
       <use style="stroke:#000000;stroke-width:0.8;" x="246.663529" xlink:href="#m3f62d853d7" y="166.701176"/>
      </g>
     </g>
    </g>
    <g id="ytick_7">
     <g id="line2d_36">
      <path clip-path="url(#p8436a6665e)" d="M 246.663529 135.393882 
L 414.72 135.393882 
" style="fill:none;stroke:#b0b0b0;stroke-linecap:square;stroke-width:0.8;"/>
     </g>
     <g id="line2d_37">
      <g>
       <use style="stroke:#000000;stroke-width:0.8;" x="246.663529" xlink:href="#m3f62d853d7" y="135.393882"/>
      </g>
     </g>
    </g>
    <g id="ytick_8">
     <g id="line2d_38">
      <path clip-path="url(#p8436a6665e)" d="M 246.663529 104.086588 
L 414.72 104.086588 
" style="fill:none;stroke:#b0b0b0;stroke-linecap:square;stroke-width:0.8;"/>
     </g>
     <g id="line2d_39">
      <g>
       <use style="stroke:#000000;stroke-width:0.8;" x="246.663529" xlink:href="#m3f62d853d7" y="104.086588"/>
      </g>
     </g>
    </g>
    <g id="ytick_9">
     <g id="line2d_40">
      <path clip-path="url(#p8436a6665e)" d="M 246.663529 72.779294 
L 414.72 72.779294 
" style="fill:none;stroke:#b0b0b0;stroke-linecap:square;stroke-width:0.8;"/>
     </g>
     <g id="line2d_41">
      <g>
       <use style="stroke:#000000;stroke-width:0.8;" x="246.663529" xlink:href="#m3f62d853d7" y="72.779294"/>
      </g>
     </g>
    </g>
    <g id="ytick_10">
     <g id="line2d_42">
      <path clip-path="url(#p8436a6665e)" d="M 246.663529 41.472 
L 414.72 41.472 
" style="fill:none;stroke:#b0b0b0;stroke-linecap:square;stroke-width:0.8;"/>
     </g>
     <g id="line2d_43">
      <g>
       <use style="stroke:#000000;stroke-width:0.8;" x="246.663529" xlink:href="#m3f62d853d7" y="41.472"/>
      </g>
     </g>
    </g>
   </g>
   <g id="line2d_44">
    <path clip-path="url(#p8436a6665e)" d="M 246.663529 41.472 
L 248.36107 43.976328 
L 250.05861 46.429547 
L 251.75615 48.831658 
L 253.45369 51.18266 
L 255.15123 53.482553 
L 256.84877 55.731337 
L 258.54631 57.929012 
L 260.24385 60.075579 
L 261.94139 62.171037 
L 263.63893 64.215387 
L 265.336471 66.208627 
L 267.034011 68.150759 
L 268.731551 70.041783 
L 270.429091 71.881697 
L 272.126631 73.670503 
L 273.824171 75.4082 
L 275.521711 77.094788 
L 277.219251 78.730267 
L 278.916791 80.314638 
L 280.614332 81.8479 
L 282.311872 83.330053 
L 284.009412 84.761098 
L 285.706952 86.141034 
L 287.404492 87.469861 
L 289.102032 88.747579 
L 290.799572 89.974189 
L 292.497112 91.14969 
L 294.194652 92.274082 
L 295.892193 93.347365 
L 297.589733 94.36954 
L 299.287273 95.340606 
L 300.984813 96.260563 
L 302.682353 97.129412 
L 304.379893 97.947152 
L 306.077433 98.713783 
L 307.774973 99.429305 
L 309.472513 100.093718 
L 311.170053 100.707023 
L 312.867594 101.269219 
L 314.565134 101.780307 
L 316.262674 102.240285 
L 317.960214 102.649155 
L 319.657754 103.006916 
L 321.355294 103.313569 
L 323.052834 103.569112 
L 324.750374 103.773547 
L 326.447914 103.926873 
L 328.145455 104.029091 
L 329.842995 104.0802 
L 331.540535 104.0802 
L 333.238075 104.029091 
L 334.935615 103.926873 
L 336.633155 103.773547 
L 338.330695 103.569112 
L 340.028235 103.313569 
L 341.725775 103.006916 
L 343.423316 102.649155 
L 345.120856 102.240285 
L 346.818396 101.780307 
L 348.515936 101.269219 
L 350.213476 100.707023 
L 351.911016 100.093718 
L 353.608556 99.429305 
L 355.306096 98.713783 
L 357.003636 97.947152 
L 358.701176 97.129412 
L 360.398717 96.260563 
L 362.096257 95.340606 
L 363.793797 94.36954 
L 365.491337 93.347365 
L 367.188877 92.274082 
L 368.886417 91.14969 
L 370.583957 89.974189 
L 372.281497 88.747579 
L 373.979037 87.469861 
L 375.676578 86.141034 
L 377.374118 84.761098 
L 379.071658 83.330053 
L 380.769198 81.8479 
L 382.466738 80.314638 
L 384.164278 78.730267 
L 385.861818 77.094788 
L 387.559358 75.4082 
L 389.256898 73.670503 
L 390.954439 71.881697 
L 392.651979 70.041783 
L 394.349519 68.150759 
L 396.047059 66.208627 
L 397.744599 64.215387 
L 399.442139 62.171037 
L 401.139679 60.075579 
L 402.837219 57.929012 
L 404.534759 55.731337 
L 406.232299 53.482553 
L 407.92984 51.18266 
L 409.62738 48.831658 
L 411.32492 46.429547 
L 413.02246 43.976328 
L 414.72 41.472 
" style="fill:none;stroke:#1f77b4;stroke-linecap:square;stroke-width:1.5;"/>
   </g>
   <g id="patch_9">
    <path d="M 246.663529 166.701176 
L 246.663529 41.472 
" style="fill:none;stroke:#000000;stroke-linecap:square;stroke-linejoin:miter;stroke-width:0.8;"/>
   </g>
   <g id="patch_10">
    <path d="M 414.72 166.701176 
L 414.72 41.472 
" style="fill:none;stroke:#000000;stroke-linecap:square;stroke-linejoin:miter;stroke-width:0.8;"/>
   </g>
   <g id="patch_11">
    <path d="M 246.663529 166.701176 
L 414.72 166.701176 
" style="fill:none;stroke:#000000;stroke-linecap:square;stroke-linejoin:miter;stroke-width:0.8;"/>
   </g>
   <g id="patch_12">
    <path d="M 246.663529 41.472 
L 414.72 41.472 
" style="fill:none;stroke:#000000;stroke-linecap:square;stroke-linejoin:miter;stroke-width:0.8;"/>
   </g>
   <g id="legend_2">
    <g id="patch_13">
     <path d="M 344.42 161.701176 
L 409.72 161.701176 
L 409.72 142.501176 
L 344.42 142.501176 
z
" style="fill:#ffffff;opacity:0.8;stroke:#000000;stroke-linejoin:miter;"/>
    </g>
    <g id="line2d_45">
     <path d="M 348.42 152.101176 
L 368.42 152.101176 
" style="fill:none;stroke:#1f77b4;stroke-linecap:square;stroke-width:1.5;"/>
    </g>
    <g id="line2d_46"/>
    <g id="text_8">
     <!-- $y = x^2$ -->
     <defs>
      <path d="M 19.1875 8.296875 
L 53.609375 8.296875 
L 53.609375 0 
L 7.328125 0 
L 7.328125 8.296875 
Q 12.9375 14.109375 22.625 23.890625 
Q 32.328125 33.6875 34.8125 36.53125 
Q 39.546875 41.84375 41.421875 45.53125 
Q 43.3125 49.21875 43.3125 52.78125 
Q 43.3125 58.59375 39.234375 62.25 
Q 35.15625 65.921875 28.609375 65.921875 
Q 23.96875 65.921875 18.8125 64.3125 
Q 13.671875 62.703125 7.8125 59.421875 
L 7.8125 69.390625 
Q 13.765625 71.78125 18.9375 73 
Q 24.125 74.21875 28.421875 74.21875 
Q 39.75 74.21875 46.484375 68.546875 
Q 53.21875 62.890625 53.21875 53.421875 
Q 53.21875 48.921875 51.53125 44.890625 
Q 49.859375 40.875 45.40625 35.40625 
Q 44.1875 33.984375 37.640625 27.21875 
Q 31.109375 20.453125 19.1875 8.296875 
z
" id="DejaVuSans-50"/>
     </defs>
     <g transform="translate(376.42 155.601176)scale(0.1 -0.1)">
      <use transform="translate(0 0.765625)" xlink:href="#DejaVuSans-Oblique-121"/>
      <use transform="translate(78.662109 0.765625)" xlink:href="#DejaVuSans-61"/>
      <use transform="translate(181.933594 0.765625)" xlink:href="#DejaVuSans-Oblique-120"/>
      <use transform="translate(245.579427 39.046875)scale(0.7)" xlink:href="#DejaVuSans-50"/>
     </g>
    </g>
   </g>
  </g>
  <g id="axes_3">
   <g id="patch_14">
    <path d="M 57.6 307.584 
L 225.656471 307.584 
L 225.656471 182.354824 
L 57.6 182.354824 
z
" style="fill:#ffffff;"/>
   </g>
   <g id="matplotlib.axis_5">
    <g id="xtick_11">
     <g id="line2d_47">
      <path clip-path="url(#p3cfefa4688)" d="M 57.6 307.584 
L 57.6 182.354824 
" style="fill:none;stroke:#b0b0b0;stroke-linecap:square;stroke-width:0.8;"/>
     </g>
     <g id="line2d_48">
      <g>
       <use style="stroke:#000000;stroke-width:0.8;" x="57.6" xlink:href="#m1e048905ef" y="307.584"/>
      </g>
     </g>
     <g id="text_9">
      <!-- −1.0 -->
      <g transform="translate(45.458594 322.182437)scale(0.1 -0.1)">
       <use xlink:href="#DejaVuSans-8722"/>
       <use x="83.789062" xlink:href="#DejaVuSans-49"/>
       <use x="147.412109" xlink:href="#DejaVuSans-46"/>
       <use x="179.199219" xlink:href="#DejaVuSans-48"/>
      </g>
     </g>
    </g>
    <g id="xtick_12">
     <g id="line2d_49">
      <path clip-path="url(#p3cfefa4688)" d="M 99.614118 307.584 
L 99.614118 182.354824 
" style="fill:none;stroke:#b0b0b0;stroke-linecap:square;stroke-width:0.8;"/>
     </g>
     <g id="line2d_50">
      <g>
       <use style="stroke:#000000;stroke-width:0.8;" x="99.614118" xlink:href="#m1e048905ef" y="307.584"/>
      </g>
     </g>
     <g id="text_10">
      <!-- −0.5 -->
      <g transform="translate(87.472711 322.182437)scale(0.1 -0.1)">
       <use xlink:href="#DejaVuSans-8722"/>
       <use x="83.789062" xlink:href="#DejaVuSans-48"/>
       <use x="147.412109" xlink:href="#DejaVuSans-46"/>
       <use x="179.199219" xlink:href="#DejaVuSans-53"/>
      </g>
     </g>
    </g>
    <g id="xtick_13">
     <g id="line2d_51">
      <path clip-path="url(#p3cfefa4688)" d="M 141.628235 307.584 
L 141.628235 182.354824 
" style="fill:none;stroke:#b0b0b0;stroke-linecap:square;stroke-width:0.8;"/>
     </g>
     <g id="line2d_52">
      <g>
       <use style="stroke:#000000;stroke-width:0.8;" x="141.628235" xlink:href="#m1e048905ef" y="307.584"/>
      </g>
     </g>
     <g id="text_11">
      <!-- 0.0 -->
      <g transform="translate(133.676673 322.182437)scale(0.1 -0.1)">
       <use xlink:href="#DejaVuSans-48"/>
       <use x="63.623047" xlink:href="#DejaVuSans-46"/>
       <use x="95.410156" xlink:href="#DejaVuSans-48"/>
      </g>
     </g>
    </g>
    <g id="xtick_14">
     <g id="line2d_53">
      <path clip-path="url(#p3cfefa4688)" d="M 183.642353 307.584 
L 183.642353 182.354824 
" style="fill:none;stroke:#b0b0b0;stroke-linecap:square;stroke-width:0.8;"/>
     </g>
     <g id="line2d_54">
      <g>
       <use style="stroke:#000000;stroke-width:0.8;" x="183.642353" xlink:href="#m1e048905ef" y="307.584"/>
      </g>
     </g>
     <g id="text_12">
      <!-- 0.5 -->
      <g transform="translate(175.69079 322.182437)scale(0.1 -0.1)">
       <use xlink:href="#DejaVuSans-48"/>
       <use x="63.623047" xlink:href="#DejaVuSans-46"/>
       <use x="95.410156" xlink:href="#DejaVuSans-53"/>
      </g>
     </g>
    </g>
    <g id="xtick_15">
     <g id="line2d_55">
      <path clip-path="url(#p3cfefa4688)" d="M 225.656471 307.584 
L 225.656471 182.354824 
" style="fill:none;stroke:#b0b0b0;stroke-linecap:square;stroke-width:0.8;"/>
     </g>
     <g id="line2d_56">
      <g>
       <use style="stroke:#000000;stroke-width:0.8;" x="225.656471" xlink:href="#m1e048905ef" y="307.584"/>
      </g>
     </g>
     <g id="text_13">
      <!-- 1.0 -->
      <g transform="translate(217.704908 322.182437)scale(0.1 -0.1)">
       <use xlink:href="#DejaVuSans-49"/>
       <use x="63.623047" xlink:href="#DejaVuSans-46"/>
       <use x="95.410156" xlink:href="#DejaVuSans-48"/>
      </g>
     </g>
    </g>
    <g id="text_14">
     <!-- x -->
     <defs>
      <path d="M 54.890625 54.6875 
L 35.109375 28.078125 
L 55.90625 0 
L 45.3125 0 
L 29.390625 21.484375 
L 13.484375 0 
L 2.875 0 
L 24.125 28.609375 
L 4.6875 54.6875 
L 15.28125 54.6875 
L 29.78125 35.203125 
L 44.28125 54.6875 
z
" id="DejaVuSans-120"/>
     </defs>
     <g transform="translate(138.66886 335.860562)scale(0.1 -0.1)">
      <use xlink:href="#DejaVuSans-120"/>
     </g>
    </g>
   </g>
   <g id="matplotlib.axis_6">
    <g id="ytick_11">
     <g id="line2d_57">
      <path clip-path="url(#p3cfefa4688)" d="M 57.6 307.584 
L 225.656471 307.584 
" style="fill:none;stroke:#b0b0b0;stroke-linecap:square;stroke-width:0.8;"/>
     </g>
     <g id="line2d_58">
      <g>
       <use style="stroke:#000000;stroke-width:0.8;" x="57.6" xlink:href="#m3f62d853d7" y="307.584"/>
      </g>
     </g>
     <g id="text_15">
      <!-- −1.0 -->
      <g transform="translate(26.317187 311.383219)scale(0.1 -0.1)">
       <use xlink:href="#DejaVuSans-8722"/>
       <use x="83.789062" xlink:href="#DejaVuSans-49"/>
       <use x="147.412109" xlink:href="#DejaVuSans-46"/>
       <use x="179.199219" xlink:href="#DejaVuSans-48"/>
      </g>
     </g>
    </g>
    <g id="ytick_12">
     <g id="line2d_59">
      <path clip-path="url(#p3cfefa4688)" d="M 57.6 276.276706 
L 225.656471 276.276706 
" style="fill:none;stroke:#b0b0b0;stroke-linecap:square;stroke-width:0.8;"/>
     </g>
     <g id="line2d_60">
      <g>
       <use style="stroke:#000000;stroke-width:0.8;" x="57.6" xlink:href="#m3f62d853d7" y="276.276706"/>
      </g>
     </g>
     <g id="text_16">
      <!-- −0.5 -->
      <g transform="translate(26.317187 280.075925)scale(0.1 -0.1)">
       <use xlink:href="#DejaVuSans-8722"/>
       <use x="83.789062" xlink:href="#DejaVuSans-48"/>
       <use x="147.412109" xlink:href="#DejaVuSans-46"/>
       <use x="179.199219" xlink:href="#DejaVuSans-53"/>
      </g>
     </g>
    </g>
    <g id="ytick_13">
     <g id="line2d_61">
      <path clip-path="url(#p3cfefa4688)" d="M 57.6 244.969412 
L 225.656471 244.969412 
" style="fill:none;stroke:#b0b0b0;stroke-linecap:square;stroke-width:0.8;"/>
     </g>
     <g id="line2d_62">
      <g>
       <use style="stroke:#000000;stroke-width:0.8;" x="57.6" xlink:href="#m3f62d853d7" y="244.969412"/>
      </g>
     </g>
     <g id="text_17">
      <!-- 0.0 -->
      <g transform="translate(34.696875 248.768631)scale(0.1 -0.1)">
       <use xlink:href="#DejaVuSans-48"/>
       <use x="63.623047" xlink:href="#DejaVuSans-46"/>
       <use x="95.410156" xlink:href="#DejaVuSans-48"/>
      </g>
     </g>
    </g>
    <g id="ytick_14">
     <g id="line2d_63">
      <path clip-path="url(#p3cfefa4688)" d="M 57.6 213.662118 
L 225.656471 213.662118 
" style="fill:none;stroke:#b0b0b0;stroke-linecap:square;stroke-width:0.8;"/>
     </g>
     <g id="line2d_64">
      <g>
       <use style="stroke:#000000;stroke-width:0.8;" x="57.6" xlink:href="#m3f62d853d7" y="213.662118"/>
      </g>
     </g>
     <g id="text_18">
      <!-- 0.5 -->
      <g transform="translate(34.696875 217.461336)scale(0.1 -0.1)">
       <use xlink:href="#DejaVuSans-48"/>
       <use x="63.623047" xlink:href="#DejaVuSans-46"/>
       <use x="95.410156" xlink:href="#DejaVuSans-53"/>
      </g>
     </g>
    </g>
    <g id="ytick_15">
     <g id="line2d_65">
      <path clip-path="url(#p3cfefa4688)" d="M 57.6 182.354824 
L 225.656471 182.354824 
" style="fill:none;stroke:#b0b0b0;stroke-linecap:square;stroke-width:0.8;"/>
     </g>
     <g id="line2d_66">
      <g>
       <use style="stroke:#000000;stroke-width:0.8;" x="57.6" xlink:href="#m3f62d853d7" y="182.354824"/>
      </g>
     </g>
     <g id="text_19">
      <!-- 1.0 -->
      <g transform="translate(34.696875 186.154042)scale(0.1 -0.1)">
       <use xlink:href="#DejaVuSans-49"/>
       <use x="63.623047" xlink:href="#DejaVuSans-46"/>
       <use x="95.410156" xlink:href="#DejaVuSans-48"/>
      </g>
     </g>
    </g>
    <g id="text_20">
     <!-- y -->
     <g transform="translate(20.2375 247.928787)rotate(-90)scale(0.1 -0.1)">
      <use xlink:href="#DejaVuSans-121"/>
     </g>
    </g>
   </g>
   <g id="line2d_67">
    <path clip-path="url(#p3cfefa4688)" d="M 57.6 307.584 
L 59.29754 303.865323 
L 60.99508 300.296875 
L 62.69262 296.875559 
L 64.39016 293.598276 
L 66.087701 290.461929 
L 67.785241 287.463421 
L 69.482781 284.599654 
L 71.180321 281.86753 
L 72.877861 279.263953 
L 74.575401 276.785825 
L 76.272941 274.430048 
L 77.970481 272.193525 
L 79.668021 270.073157 
L 81.365561 268.065849 
L 83.063102 266.168502 
L 84.760642 264.378018 
L 86.458182 262.691301 
L 88.155722 261.105252 
L 89.853262 259.616775 
L 91.550802 258.222771 
L 93.248342 256.920144 
L 94.945882 255.705795 
L 96.643422 254.576628 
L 98.340963 253.529544 
L 100.038503 252.561446 
L 101.736043 251.669238 
L 103.433583 250.84982 
L 105.131123 250.100096 
L 106.828663 249.416969 
L 108.526203 248.79734 
L 110.223743 248.238112 
L 111.921283 247.736188 
L 113.618824 247.288471 
L 115.316364 246.891862 
L 117.013904 246.543264 
L 118.711444 246.23958 
L 120.408984 245.977712 
L 122.106524 245.754563 
L 123.804064 245.567035 
L 125.501604 245.412031 
L 127.199144 245.286454 
L 128.896684 245.187205 
L 130.594225 245.111187 
L 132.291765 245.055303 
L 133.989305 245.016455 
L 135.686845 244.991546 
L 137.384385 244.977478 
L 139.081925 244.971154 
L 140.779465 244.969476 
L 142.477005 244.969347 
L 144.174545 244.967669 
L 145.872086 244.961345 
L 147.569626 244.947278 
L 149.267166 244.922368 
L 150.964706 244.883521 
L 152.662246 244.827637 
L 154.359786 244.751619 
L 156.057326 244.65237 
L 157.754866 244.526792 
L 159.452406 244.371788 
L 161.149947 244.18426 
L 162.847487 243.961111 
L 164.545027 243.699244 
L 166.242567 243.39556 
L 167.940107 243.046962 
L 169.637647 242.650353 
L 171.335187 242.202635 
L 173.032727 241.700711 
L 174.730267 241.141484 
L 176.427807 240.521855 
L 178.125348 239.838727 
L 179.822888 239.089003 
L 181.520428 238.269586 
L 183.217968 237.377377 
L 184.915508 236.40928 
L 186.613048 235.362196 
L 188.310588 234.233028 
L 190.008128 233.01868 
L 191.705668 231.716052 
L 193.403209 230.322049 
L 195.100749 228.833571 
L 196.798289 227.247523 
L 198.495829 225.560805 
L 200.193369 223.770322 
L 201.890909 221.872975 
L 203.588449 219.865666 
L 205.285989 217.745299 
L 206.983529 215.508776 
L 208.68107 213.152999 
L 210.37861 210.67487 
L 212.07615 208.071293 
L 213.77369 205.33917 
L 215.47123 202.475403 
L 217.16877 199.476895 
L 218.86631 196.340548 
L 220.56385 193.063265 
L 222.26139 189.641948 
L 223.95893 186.0735 
L 225.656471 182.354824 
" style="fill:none;stroke:#1f77b4;stroke-linecap:square;stroke-width:1.5;"/>
   </g>
   <g id="patch_15">
    <path d="M 57.6 307.584 
L 57.6 182.354824 
" style="fill:none;stroke:#000000;stroke-linecap:square;stroke-linejoin:miter;stroke-width:0.8;"/>
   </g>
   <g id="patch_16">
    <path d="M 225.656471 307.584 
L 225.656471 182.354824 
" style="fill:none;stroke:#000000;stroke-linecap:square;stroke-linejoin:miter;stroke-width:0.8;"/>
   </g>
   <g id="patch_17">
    <path d="M 57.6 307.584 
L 225.656471 307.584 
" style="fill:none;stroke:#000000;stroke-linecap:square;stroke-linejoin:miter;stroke-width:0.8;"/>
   </g>
   <g id="patch_18">
    <path d="M 57.6 182.354824 
L 225.656471 182.354824 
" style="fill:none;stroke:#000000;stroke-linecap:square;stroke-linejoin:miter;stroke-width:0.8;"/>
   </g>
   <g id="legend_3">
    <g id="patch_19">
     <path d="M 155.356471 302.584 
L 220.656471 302.584 
L 220.656471 283.384 
L 155.356471 283.384 
z
" style="fill:#ffffff;opacity:0.8;stroke:#000000;stroke-linejoin:miter;"/>
    </g>
    <g id="line2d_68">
     <path d="M 159.356471 292.984 
L 179.356471 292.984 
" style="fill:none;stroke:#1f77b4;stroke-linecap:square;stroke-width:1.5;"/>
    </g>
    <g id="line2d_69"/>
    <g id="text_21">
     <!-- $y = x^3$ -->
     <defs>
      <path d="M 40.578125 39.3125 
Q 47.65625 37.796875 51.625 33 
Q 55.609375 28.21875 55.609375 21.1875 
Q 55.609375 10.40625 48.1875 4.484375 
Q 40.765625 -1.421875 27.09375 -1.421875 
Q 22.515625 -1.421875 17.65625 -0.515625 
Q 12.796875 0.390625 7.625 2.203125 
L 7.625 11.71875 
Q 11.71875 9.328125 16.59375 8.109375 
Q 21.484375 6.890625 26.8125 6.890625 
Q 36.078125 6.890625 40.9375 10.546875 
Q 45.796875 14.203125 45.796875 21.1875 
Q 45.796875 27.640625 41.28125 31.265625 
Q 36.765625 34.90625 28.71875 34.90625 
L 20.21875 34.90625 
L 20.21875 43.015625 
L 29.109375 43.015625 
Q 36.375 43.015625 40.234375 45.921875 
Q 44.09375 48.828125 44.09375 54.296875 
Q 44.09375 59.90625 40.109375 62.90625 
Q 36.140625 65.921875 28.71875 65.921875 
Q 24.65625 65.921875 20.015625 65.03125 
Q 15.375 64.15625 9.8125 62.3125 
L 9.8125 71.09375 
Q 15.4375 72.65625 20.34375 73.4375 
Q 25.25 74.21875 29.59375 74.21875 
Q 40.828125 74.21875 47.359375 69.109375 
Q 53.90625 64.015625 53.90625 55.328125 
Q 53.90625 49.265625 50.4375 45.09375 
Q 46.96875 40.921875 40.578125 39.3125 
z
" id="DejaVuSans-51"/>
     </defs>
     <g transform="translate(187.356471 296.484)scale(0.1 -0.1)">
      <use transform="translate(0 0.765625)" xlink:href="#DejaVuSans-Oblique-121"/>
      <use transform="translate(78.662109 0.765625)" xlink:href="#DejaVuSans-61"/>
      <use transform="translate(181.933594 0.765625)" xlink:href="#DejaVuSans-Oblique-120"/>
      <use transform="translate(245.579427 39.046875)scale(0.7)" xlink:href="#DejaVuSans-51"/>
     </g>
    </g>
   </g>
  </g>
  <g id="axes_4">
   <g id="patch_20">
    <path d="M 246.663529 307.584 
L 414.72 307.584 
L 414.72 182.354824 
L 246.663529 182.354824 
z
" style="fill:#ffffff;"/>
   </g>
   <g id="matplotlib.axis_7">
    <g id="xtick_16">
     <g id="line2d_70">
      <path clip-path="url(#pf7783a338f)" d="M 246.663529 307.584 
L 246.663529 182.354824 
" style="fill:none;stroke:#b0b0b0;stroke-linecap:square;stroke-width:0.8;"/>
     </g>
     <g id="line2d_71">
      <g>
       <use style="stroke:#000000;stroke-width:0.8;" x="246.663529" xlink:href="#m1e048905ef" y="307.584"/>
      </g>
     </g>
     <g id="text_22">
      <!-- −1.0 -->
      <g transform="translate(234.522123 322.182437)scale(0.1 -0.1)">
       <use xlink:href="#DejaVuSans-8722"/>
       <use x="83.789062" xlink:href="#DejaVuSans-49"/>
       <use x="147.412109" xlink:href="#DejaVuSans-46"/>
       <use x="179.199219" xlink:href="#DejaVuSans-48"/>
      </g>
     </g>
    </g>
    <g id="xtick_17">
     <g id="line2d_72">
      <path clip-path="url(#pf7783a338f)" d="M 288.677647 307.584 
L 288.677647 182.354824 
" style="fill:none;stroke:#b0b0b0;stroke-linecap:square;stroke-width:0.8;"/>
     </g>
     <g id="line2d_73">
      <g>
       <use style="stroke:#000000;stroke-width:0.8;" x="288.677647" xlink:href="#m1e048905ef" y="307.584"/>
      </g>
     </g>
     <g id="text_23">
      <!-- −0.5 -->
      <g transform="translate(276.536241 322.182437)scale(0.1 -0.1)">
       <use xlink:href="#DejaVuSans-8722"/>
       <use x="83.789062" xlink:href="#DejaVuSans-48"/>
       <use x="147.412109" xlink:href="#DejaVuSans-46"/>
       <use x="179.199219" xlink:href="#DejaVuSans-53"/>
      </g>
     </g>
    </g>
    <g id="xtick_18">
     <g id="line2d_74">
      <path clip-path="url(#pf7783a338f)" d="M 330.691765 307.584 
L 330.691765 182.354824 
" style="fill:none;stroke:#b0b0b0;stroke-linecap:square;stroke-width:0.8;"/>
     </g>
     <g id="line2d_75">
      <g>
       <use style="stroke:#000000;stroke-width:0.8;" x="330.691765" xlink:href="#m1e048905ef" y="307.584"/>
      </g>
     </g>
     <g id="text_24">
      <!-- 0.0 -->
      <g transform="translate(322.740202 322.182437)scale(0.1 -0.1)">
       <use xlink:href="#DejaVuSans-48"/>
       <use x="63.623047" xlink:href="#DejaVuSans-46"/>
       <use x="95.410156" xlink:href="#DejaVuSans-48"/>
      </g>
     </g>
    </g>
    <g id="xtick_19">
     <g id="line2d_76">
      <path clip-path="url(#pf7783a338f)" d="M 372.705882 307.584 
L 372.705882 182.354824 
" style="fill:none;stroke:#b0b0b0;stroke-linecap:square;stroke-width:0.8;"/>
     </g>
     <g id="line2d_77">
      <g>
       <use style="stroke:#000000;stroke-width:0.8;" x="372.705882" xlink:href="#m1e048905ef" y="307.584"/>
      </g>
     </g>
     <g id="text_25">
      <!-- 0.5 -->
      <g transform="translate(364.75432 322.182437)scale(0.1 -0.1)">
       <use xlink:href="#DejaVuSans-48"/>
       <use x="63.623047" xlink:href="#DejaVuSans-46"/>
       <use x="95.410156" xlink:href="#DejaVuSans-53"/>
      </g>
     </g>
    </g>
    <g id="xtick_20">
     <g id="line2d_78">
      <path clip-path="url(#pf7783a338f)" d="M 414.72 307.584 
L 414.72 182.354824 
" style="fill:none;stroke:#b0b0b0;stroke-linecap:square;stroke-width:0.8;"/>
     </g>
     <g id="line2d_79">
      <g>
       <use style="stroke:#000000;stroke-width:0.8;" x="414.72" xlink:href="#m1e048905ef" y="307.584"/>
      </g>
     </g>
     <g id="text_26">
      <!-- 1.0 -->
      <g transform="translate(406.768438 322.182437)scale(0.1 -0.1)">
       <use xlink:href="#DejaVuSans-49"/>
       <use x="63.623047" xlink:href="#DejaVuSans-46"/>
       <use x="95.410156" xlink:href="#DejaVuSans-48"/>
      </g>
     </g>
    </g>
    <g id="text_27">
     <!-- x -->
     <g transform="translate(327.73239 335.860562)scale(0.1 -0.1)">
      <use xlink:href="#DejaVuSans-120"/>
     </g>
    </g>
   </g>
   <g id="matplotlib.axis_8">
    <g id="ytick_16">
     <g id="line2d_80">
      <path clip-path="url(#pf7783a338f)" d="M 246.663529 307.584 
L 414.72 307.584 
" style="fill:none;stroke:#b0b0b0;stroke-linecap:square;stroke-width:0.8;"/>
     </g>
     <g id="line2d_81">
      <g>
       <use style="stroke:#000000;stroke-width:0.8;" x="246.663529" xlink:href="#m3f62d853d7" y="307.584"/>
      </g>
     </g>
    </g>
    <g id="ytick_17">
     <g id="line2d_82">
      <path clip-path="url(#pf7783a338f)" d="M 246.663529 276.276706 
L 414.72 276.276706 
" style="fill:none;stroke:#b0b0b0;stroke-linecap:square;stroke-width:0.8;"/>
     </g>
     <g id="line2d_83">
      <g>
       <use style="stroke:#000000;stroke-width:0.8;" x="246.663529" xlink:href="#m3f62d853d7" y="276.276706"/>
      </g>
     </g>
    </g>
    <g id="ytick_18">
     <g id="line2d_84">
      <path clip-path="url(#pf7783a338f)" d="M 246.663529 244.969412 
L 414.72 244.969412 
" style="fill:none;stroke:#b0b0b0;stroke-linecap:square;stroke-width:0.8;"/>
     </g>
     <g id="line2d_85">
      <g>
       <use style="stroke:#000000;stroke-width:0.8;" x="246.663529" xlink:href="#m3f62d853d7" y="244.969412"/>
      </g>
     </g>
    </g>
    <g id="ytick_19">
     <g id="line2d_86">
      <path clip-path="url(#pf7783a338f)" d="M 246.663529 213.662118 
L 414.72 213.662118 
" style="fill:none;stroke:#b0b0b0;stroke-linecap:square;stroke-width:0.8;"/>
     </g>
     <g id="line2d_87">
      <g>
       <use style="stroke:#000000;stroke-width:0.8;" x="246.663529" xlink:href="#m3f62d853d7" y="213.662118"/>
      </g>
     </g>
    </g>
    <g id="ytick_20">
     <g id="line2d_88">
      <path clip-path="url(#pf7783a338f)" d="M 246.663529 182.354824 
L 414.72 182.354824 
" style="fill:none;stroke:#b0b0b0;stroke-linecap:square;stroke-width:0.8;"/>
     </g>
     <g id="line2d_89">
      <g>
       <use style="stroke:#000000;stroke-width:0.8;" x="246.663529" xlink:href="#m3f62d853d7" y="182.354824"/>
      </g>
     </g>
    </g>
   </g>
   <g id="line2d_90">
    <path clip-path="url(#pf7783a338f)" d="M 246.663529 182.354824 
L 248.36107 187.263317 
L 250.05861 191.877401 
L 251.75615 196.209092 
L 253.45369 200.270153 
L 255.15123 204.072099 
L 256.84877 207.626192 
L 258.54631 210.943447 
L 260.24385 214.034625 
L 261.94139 216.910241 
L 263.63893 219.580557 
L 265.336471 222.055584 
L 267.034011 224.345084 
L 268.731551 226.458569 
L 270.429091 228.4053 
L 272.126631 230.194288 
L 273.824171 231.834294 
L 275.521711 233.333828 
L 277.219251 234.70115 
L 278.916791 235.944269 
L 280.614332 237.070945 
L 282.311872 238.088687 
L 284.009412 239.004754 
L 285.706952 239.826155 
L 287.404492 240.559647 
L 289.102032 241.211738 
L 290.799572 241.788686 
L 292.497112 242.296499 
L 294.194652 242.740933 
L 295.892193 243.127494 
L 297.589733 243.46144 
L 299.287273 243.747776 
L 300.984813 243.991258 
L 302.682353 244.196392 
L 304.379893 244.367433 
L 306.077433 244.508384 
L 307.774973 244.623002 
L 309.472513 244.71479 
L 311.170053 244.787003 
L 312.867594 244.842643 
L 314.565134 244.884465 
L 316.262674 244.91497 
L 317.960214 244.936413 
L 319.657754 244.950795 
L 321.355294 244.959868 
L 323.052834 244.965135 
L 324.750374 244.967847 
L 326.447914 244.969004 
L 328.145455 244.969359 
L 329.842995 244.969411 
L 331.540535 244.969411 
L 333.238075 244.969359 
L 334.935615 244.969004 
L 336.633155 244.967847 
L 338.330695 244.965135 
L 340.028235 244.959868 
L 341.725775 244.950795 
L 343.423316 244.936413 
L 345.120856 244.91497 
L 346.818396 244.884465 
L 348.515936 244.842643 
L 350.213476 244.787003 
L 351.911016 244.71479 
L 353.608556 244.623002 
L 355.306096 244.508384 
L 357.003636 244.367433 
L 358.701176 244.196392 
L 360.398717 243.991258 
L 362.096257 243.747776 
L 363.793797 243.46144 
L 365.491337 243.127494 
L 367.188877 242.740933 
L 368.886417 242.296499 
L 370.583957 241.788686 
L 372.281497 241.211738 
L 373.979037 240.559647 
L 375.676578 239.826155 
L 377.374118 239.004754 
L 379.071658 238.088687 
L 380.769198 237.070945 
L 382.466738 235.944269 
L 384.164278 234.70115 
L 385.861818 233.333828 
L 387.559358 231.834294 
L 389.256898 230.194288 
L 390.954439 228.4053 
L 392.651979 226.458569 
L 394.349519 224.345084 
L 396.047059 222.055584 
L 397.744599 219.580557 
L 399.442139 216.910241 
L 401.139679 214.034625 
L 402.837219 210.943447 
L 404.534759 207.626192 
L 406.232299 204.072099 
L 407.92984 200.270153 
L 409.62738 196.209092 
L 411.32492 191.877401 
L 413.02246 187.263317 
L 414.72 182.354824 
" style="fill:none;stroke:#1f77b4;stroke-linecap:square;stroke-width:1.5;"/>
   </g>
   <g id="patch_21">
    <path d="M 246.663529 307.584 
L 246.663529 182.354824 
" style="fill:none;stroke:#000000;stroke-linecap:square;stroke-linejoin:miter;stroke-width:0.8;"/>
   </g>
   <g id="patch_22">
    <path d="M 414.72 307.584 
L 414.72 182.354824 
" style="fill:none;stroke:#000000;stroke-linecap:square;stroke-linejoin:miter;stroke-width:0.8;"/>
   </g>
   <g id="patch_23">
    <path d="M 246.663529 307.584 
L 414.72 307.584 
" style="fill:none;stroke:#000000;stroke-linecap:square;stroke-linejoin:miter;stroke-width:0.8;"/>
   </g>
   <g id="patch_24">
    <path d="M 246.663529 182.354824 
L 414.72 182.354824 
" style="fill:none;stroke:#000000;stroke-linecap:square;stroke-linejoin:miter;stroke-width:0.8;"/>
   </g>
   <g id="legend_4">
    <g id="patch_25">
     <path d="M 344.42 302.584 
L 409.72 302.584 
L 409.72 283.484 
L 344.42 283.484 
z
" style="fill:#ffffff;opacity:0.8;stroke:#000000;stroke-linejoin:miter;"/>
    </g>
    <g id="line2d_91">
     <path d="M 348.42 292.984 
L 368.42 292.984 
" style="fill:none;stroke:#1f77b4;stroke-linecap:square;stroke-width:1.5;"/>
    </g>
    <g id="line2d_92"/>
    <g id="text_28">
     <!-- $y = x^4$ -->
     <defs>
      <path d="M 37.796875 64.3125 
L 12.890625 25.390625 
L 37.796875 25.390625 
z
M 35.203125 72.90625 
L 47.609375 72.90625 
L 47.609375 25.390625 
L 58.015625 25.390625 
L 58.015625 17.1875 
L 47.609375 17.1875 
L 47.609375 0 
L 37.796875 0 
L 37.796875 17.1875 
L 4.890625 17.1875 
L 4.890625 26.703125 
z
" id="DejaVuSans-52"/>
     </defs>
     <g transform="translate(376.42 296.484)scale(0.1 -0.1)">
      <use transform="translate(0 0.684375)" xlink:href="#DejaVuSans-Oblique-121"/>
      <use transform="translate(78.662109 0.684375)" xlink:href="#DejaVuSans-61"/>
      <use transform="translate(181.933594 0.684375)" xlink:href="#DejaVuSans-Oblique-120"/>
      <use transform="translate(245.579427 38.965625)scale(0.7)" xlink:href="#DejaVuSans-52"/>
     </g>
    </g>
   </g>
  </g>
 </g>
 <defs>
  <clipPath id="p5f8a0fe01b">
   <rect height="125.229176" width="168.056471" x="57.6" y="41.472"/>
  </clipPath>
  <clipPath id="p8436a6665e">
   <rect height="125.229176" width="168.056471" x="246.663529" y="41.472"/>
  </clipPath>
  <clipPath id="p3cfefa4688">
   <rect height="125.229176" width="168.056471" x="57.6" y="182.354824"/>
  </clipPath>
  <clipPath id="pf7783a338f">
   <rect height="125.229176" width="168.056471" x="246.663529" y="182.354824"/>
  </clipPath>
 </defs>
</svg>
