<?xml version="1.0" encoding="utf-8" standalone="no"?>
<!DOCTYPE svg PUBLIC "-//W3C//DTD SVG 1.1//EN"
  "http://www.w3.org/Graphics/SVG/1.1/DTD/svg11.dtd">
<svg height="345.6pt" version="1.1" viewBox="0 0 460.8 345.6" width="460.8pt" xmlns="http://www.w3.org/2000/svg" xmlns:xlink="http://www.w3.org/1999/xlink">
 <metadata>
  <rdf:RDF xmlns:cc="http://creativecommons.org/ns#" xmlns:dc="http://purl.org/dc/elements/1.1/" xmlns:rdf="http://www.w3.org/1999/02/22-rdf-syntax-ns#">
   <cc:Work>
    <dc:type rdf:resource="http://purl.org/dc/dcmitype/StillImage"/>
    <dc:date>2021-10-04T12:00:50.916466</dc:date>
    <dc:format>image/svg+xml</dc:format>
    <dc:creator>
     <cc:Agent>
      <dc:title>Matplotlib v3.4.2, https://matplotlib.org/</dc:title>
     </cc:Agent>
    </dc:creator>
   </cc:Work>
  </rdf:RDF>
 </metadata>
 <defs>
  <style type="text/css">*{stroke-linecap:butt;stroke-linejoin:round;}</style>
 </defs>
 <g id="figure_1">
  <g id="patch_1">
   <path d="M 0 345.6 
L 460.8 345.6 
L 460.8 0 
L 0 0 
z
" style="fill:none;"/>
  </g>
  <g id="patch_2">
   <path d="M 103.104 307.584 
L 369.216 307.584 
L 369.216 41.472 
L 103.104 41.472 
z
" style="fill:none;"/>
  </g>
  <g id="pane3d_1">
   <g id="patch_3">
    <path d="M 249.40215 188.377584 
L 359.380797 234.353763 
L 363.116634 112.911984 
L 249.67912 75.401058 
" style="fill:#f2f2f2;opacity:0.5;stroke:#f2f2f2;stroke-linejoin:miter;"/>
   </g>
  </g>
  <g id="pane3d_2">
   <g id="patch_4">
    <path d="M 249.40215 188.377584 
L 121.745103 226.435771 
L 118.110905 106.438797 
L 249.67912 75.401058 
" style="fill:#e6e6e6;opacity:0.5;stroke:#e6e6e6;stroke-linejoin:miter;"/>
   </g>
  </g>
  <g id="pane3d_3">
   <g id="patch_5">
    <path d="M 249.40215 188.377584 
L 121.745103 226.435771 
L 228.486678 279.424972 
L 359.380797 234.353763 
" style="fill:#ececec;opacity:0.5;stroke:#ececec;stroke-linejoin:miter;"/>
   </g>
  </g>
  <g id="axis3d_1">
   <g id="line2d_1">
    <path d="M 359.380797 234.353763 
L 228.486678 279.424972 
" style="fill:none;stroke:#000000;stroke-linecap:square;"/>
   </g>
   <g id="Line3DCollection_1">
    <path d="M 351.609895 237.029543 
L 241.780566 190.649794 
L 241.838946 77.250602 
" style="fill:none;stroke:#000000;stroke-dasharray:0.8,1.32;stroke-dashoffset:0;stroke-width:0.8;"/>
    <path d="M 324.420389 246.391797 
L 215.156274 198.587251 
L 214.436212 83.715073 
" style="fill:none;stroke:#000000;stroke-dasharray:0.8,1.32;stroke-dashoffset:0;stroke-width:0.8;"/>
    <path d="M 296.35354 256.056149 
L 187.742455 206.760088 
L 186.196718 90.376941 
" style="fill:none;stroke:#000000;stroke-dasharray:0.8,1.32;stroke-dashoffset:0;stroke-width:0.8;"/>
    <path d="M 267.366186 266.037461 
L 159.503461 215.178933 
L 157.081542 97.245388 
" style="fill:none;stroke:#000000;stroke-dasharray:0.8,1.32;stroke-dashoffset:0;stroke-width:0.8;"/>
    <path d="M 237.412287 276.351587 
L 130.401465 223.855064 
L 127.049312 104.330173 
" style="fill:none;stroke:#000000;stroke-dasharray:0.8,1.32;stroke-dashoffset:0;stroke-width:0.8;"/>
    <path d="M 356.946124 235.192102 
L 247.013674 189.089656 
L 247.222345 75.980626 
" style="fill:none;stroke:#000000;stroke-dasharray:0.8,1.32;stroke-dashoffset:0;stroke-width:0.8;"/>
    <path d="M 346.240201 238.878508 
L 236.517228 192.218945 
L 236.42355 78.528127 
" style="fill:none;stroke:#000000;stroke-dasharray:0.8,1.32;stroke-dashoffset:0;stroke-width:0.8;"/>
    <path d="M 340.836725 240.739105 
L 231.223397 193.797186 
L 230.975869 79.813268 
" style="fill:none;stroke:#000000;stroke-dasharray:0.8,1.32;stroke-dashoffset:0;stroke-width:0.8;"/>
    <path d="M 335.399147 242.611444 
L 225.898807 195.384597 
L 225.495616 81.106093 
" style="fill:none;stroke:#000000;stroke-dasharray:0.8,1.32;stroke-dashoffset:0;stroke-width:0.8;"/>
    <path d="M 329.927145 244.495637 
L 220.54319 196.981258 
L 219.982495 82.406671 
" style="fill:none;stroke:#000000;stroke-dasharray:0.8,1.32;stroke-dashoffset:0;stroke-width:0.8;"/>
    <path d="M 318.878548 248.300037 
L 209.737783 200.202657 
L 208.856466 85.031369 
" style="fill:none;stroke:#000000;stroke-dasharray:0.8,1.32;stroke-dashoffset:0;stroke-width:0.8;"/>
    <path d="M 313.301286 250.220475 
L 204.287439 201.827559 
L 203.242952 86.355631 
" style="fill:none;stroke:#000000;stroke-dasharray:0.8,1.32;stroke-dashoffset:0;stroke-width:0.8;"/>
    <path d="M 307.688261 252.153226 
L 198.80496 203.462041 
L 197.595365 87.687931 
" style="fill:none;stroke:#000000;stroke-dasharray:0.8,1.32;stroke-dashoffset:0;stroke-width:0.8;"/>
    <path d="M 302.039129 254.098411 
L 193.290062 205.106189 
L 191.913391 89.028343 
" style="fill:none;stroke:#000000;stroke-dasharray:0.8,1.32;stroke-dashoffset:0;stroke-width:0.8;"/>
    <path d="M 290.63114 258.026562 
L 182.161848 208.423825 
L 180.445024 91.733801 
" style="fill:none;stroke:#000000;stroke-dasharray:0.8,1.32;stroke-dashoffset:0;stroke-width:0.8;"/>
    <path d="M 284.87157 260.009774 
L 176.547946 210.097489 
L 174.657989 93.098997 
" style="fill:none;stroke:#000000;stroke-dasharray:0.8,1.32;stroke-dashoffset:0;stroke-width:0.8;"/>
    <path d="M 279.074467 262.00591 
L 170.90045 211.781168 
L 168.835285 94.472609 
" style="fill:none;stroke:#000000;stroke-dasharray:0.8,1.32;stroke-dashoffset:0;stroke-width:0.8;"/>
    <path d="M 273.239463 264.015096 
L 165.219057 213.474952 
L 162.976581 95.854712 
" style="fill:none;stroke:#000000;stroke-dasharray:0.8,1.32;stroke-dashoffset:0;stroke-width:0.8;"/>
    <path d="M 261.454256 268.073136 
L 153.753352 216.893204 
L 151.14983 98.644715 
" style="fill:none;stroke:#000000;stroke-dasharray:0.8,1.32;stroke-dashoffset:0;stroke-width:0.8;"/>
    <path d="M 255.503292 270.122251 
L 147.968418 218.617857 
L 145.1811 100.052774 
" style="fill:none;stroke:#000000;stroke-dasharray:0.8,1.32;stroke-dashoffset:0;stroke-width:0.8;"/>
    <path d="M 249.512905 272.184941 
L 142.14834 220.352987 
L 139.175006 101.469648 
" style="fill:none;stroke:#000000;stroke-dasharray:0.8,1.32;stroke-dashoffset:0;stroke-width:0.8;"/>
    <path d="M 243.482703 274.261341 
L 136.292797 222.09869 
L 133.131196 102.89542 
" style="fill:none;stroke:#000000;stroke-dasharray:0.8,1.32;stroke-dashoffset:0;stroke-width:0.8;"/>
   </g>
   <g id="xtick_1">
    <g id="line2d_2">
     <path d="M 350.656901 236.627104 
L 353.519794 237.836073 
" style="fill:none;stroke:#000000;stroke-linecap:square;"/>
    </g>
    <g id="text_1">
     <!-- -1.0 -->
     <g transform="translate(352.650966 258.234305)scale(0.09996 -0.09996)">
      <defs>
       <path d="M 203 1375 
L 203 1941 
L 1931 1941 
L 1931 1375 
L 203 1375 
z
" id="ArialMT-2d" transform="scale(0.015625)"/>
       <path d="M 2384 0 
L 1822 0 
L 1822 3584 
Q 1619 3391 1289 3197 
Q 959 3003 697 2906 
L 697 3450 
Q 1169 3672 1522 3987 
Q 1875 4303 2022 4600 
L 2384 4600 
L 2384 0 
z
" id="ArialMT-31" transform="scale(0.015625)"/>
       <path d="M 581 0 
L 581 641 
L 1222 641 
L 1222 0 
L 581 0 
z
" id="ArialMT-2e" transform="scale(0.015625)"/>
       <path d="M 266 2259 
Q 266 3072 433 3567 
Q 600 4063 929 4331 
Q 1259 4600 1759 4600 
Q 2128 4600 2406 4451 
Q 2684 4303 2865 4023 
Q 3047 3744 3150 3342 
Q 3253 2941 3253 2259 
Q 3253 1453 3087 958 
Q 2922 463 2592 192 
Q 2263 -78 1759 -78 
Q 1097 -78 719 397 
Q 266 969 266 2259 
z
M 844 2259 
Q 844 1131 1108 757 
Q 1372 384 1759 384 
Q 2147 384 2411 759 
Q 2675 1134 2675 2259 
Q 2675 3391 2411 3762 
Q 2147 4134 1753 4134 
Q 1366 4134 1134 3806 
Q 844 3388 844 2259 
z
" id="ArialMT-30" transform="scale(0.015625)"/>
      </defs>
      <use xlink:href="#ArialMT-2d"/>
      <use x="33.300781" xlink:href="#ArialMT-31"/>
      <use x="88.916016" xlink:href="#ArialMT-2e"/>
      <use x="116.699219" xlink:href="#ArialMT-30"/>
     </g>
    </g>
   </g>
   <g id="xtick_2">
    <g id="line2d_3">
     <path d="M 323.471126 245.976481 
L 326.322874 247.22416 
" style="fill:none;stroke:#000000;stroke-linecap:square;"/>
    </g>
    <g id="text_2">
     <!-- -0.5 -->
     <g transform="translate(325.488912 267.864241)scale(0.09996 -0.09996)">
      <defs>
       <path d="M 266 1200 
L 856 1250 
Q 922 819 1161 601 
Q 1400 384 1738 384 
Q 2144 384 2425 690 
Q 2706 997 2706 1503 
Q 2706 1984 2436 2262 
Q 2166 2541 1728 2541 
Q 1456 2541 1237 2417 
Q 1019 2294 894 2097 
L 366 2166 
L 809 4519 
L 3088 4519 
L 3088 3981 
L 1259 3981 
L 1013 2750 
Q 1425 3038 1878 3038 
Q 2478 3038 2890 2622 
Q 3303 2206 3303 1553 
Q 3303 931 2941 478 
Q 2500 -78 1738 -78 
Q 1113 -78 717 272 
Q 322 622 266 1200 
z
" id="ArialMT-35" transform="scale(0.015625)"/>
      </defs>
      <use xlink:href="#ArialMT-2d"/>
      <use x="33.300781" xlink:href="#ArialMT-30"/>
      <use x="88.916016" xlink:href="#ArialMT-2e"/>
      <use x="116.699219" xlink:href="#ArialMT-35"/>
     </g>
    </g>
   </g>
   <g id="xtick_3">
    <g id="line2d_4">
     <path d="M 295.408745 255.627328 
L 298.247131 256.915606 
" style="fill:none;stroke:#000000;stroke-linecap:square;"/>
    </g>
    <g id="text_3">
     <!-- 0.0 -->
     <g transform="translate(299.110434 277.806381)scale(0.09996 -0.09996)">
      <use xlink:href="#ArialMT-30"/>
      <use x="55.615234" xlink:href="#ArialMT-2e"/>
      <use x="83.398438" xlink:href="#ArialMT-30"/>
     </g>
    </g>
   </g>
   <g id="xtick_4">
    <g id="line2d_5">
     <path d="M 266.426666 265.594467 
L 269.249271 266.925358 
" style="fill:none;stroke:#000000;stroke-linecap:square;"/>
    </g>
    <g id="text_4">
     <!-- 0.5 -->
     <g transform="translate(270.143646 288.07616)scale(0.09996 -0.09996)">
      <use xlink:href="#ArialMT-30"/>
      <use x="55.615234" xlink:href="#ArialMT-2e"/>
      <use x="83.398438" xlink:href="#ArialMT-35"/>
     </g>
    </g>
   </g>
   <g id="xtick_5">
    <g id="line2d_6">
     <path d="M 236.478921 275.893704 
L 239.283105 277.269358 
" style="fill:none;stroke:#000000;stroke-linecap:square;"/>
    </g>
    <g id="text_5">
     <!-- 1.0 -->
     <g transform="translate(240.20628 298.690045)scale(0.09996 -0.09996)">
      <use xlink:href="#ArialMT-31"/>
      <use x="55.615234" xlink:href="#ArialMT-2e"/>
      <use x="83.398438" xlink:href="#ArialMT-30"/>
     </g>
    </g>
   </g>
   <g id="xtick_6">
    <g id="line2d_7">
     <path d="M 355.992467 234.792166 
L 358.857339 235.993609 
" style="fill:none;stroke:#000000;stroke-linecap:square;"/>
    </g>
   </g>
   <g id="xtick_7">
    <g id="line2d_8">
     <path d="M 345.287896 238.473542 
L 348.148729 239.690108 
" style="fill:none;stroke:#000000;stroke-linecap:square;"/>
    </g>
   </g>
   <g id="xtick_8">
    <g id="line2d_9">
     <path d="M 339.885138 240.331588 
L 342.743827 241.555822 
" style="fill:none;stroke:#000000;stroke-linecap:square;"/>
    </g>
   </g>
   <g id="xtick_9">
    <g id="line2d_10">
     <path d="M 334.448306 242.201352 
L 337.304768 243.433327 
" style="fill:none;stroke:#000000;stroke-linecap:square;"/>
    </g>
   </g>
   <g id="xtick_10">
    <g id="line2d_11">
     <path d="M 328.977078 244.082946 
L 331.831226 245.322735 
" style="fill:none;stroke:#000000;stroke-linecap:square;"/>
    </g>
   </g>
   <g id="xtick_11">
    <g id="line2d_12">
     <path d="M 317.930117 247.882072 
L 320.779377 249.137716 
" style="fill:none;stroke:#000000;stroke-linecap:square;"/>
    </g>
   </g>
   <g id="xtick_12">
    <g id="line2d_13">
     <path d="M 312.353718 249.799835 
L 315.200398 251.06352 
" style="fill:none;stroke:#000000;stroke-linecap:square;"/>
    </g>
   </g>
   <g id="xtick_13">
    <g id="line2d_14">
     <path d="M 306.741586 251.729886 
L 309.585596 253.001689 
" style="fill:none;stroke:#000000;stroke-linecap:square;"/>
    </g>
   </g>
   <g id="xtick_14">
    <g id="line2d_15">
     <path d="M 301.093378 253.672344 
L 303.934624 254.952345 
" style="fill:none;stroke:#000000;stroke-linecap:square;"/>
    </g>
   </g>
   <g id="xtick_15">
    <g id="line2d_16">
     <path d="M 289.687333 257.594962 
L 292.522764 258.891597 
" style="fill:none;stroke:#000000;stroke-linecap:square;"/>
    </g>
   </g>
   <g id="xtick_16">
    <g id="line2d_17">
     <path d="M 283.928784 259.575367 
L 286.761161 260.880441 
" style="fill:none;stroke:#000000;stroke-linecap:square;"/>
    </g>
   </g>
   <g id="xtick_17">
    <g id="line2d_18">
     <path d="M 278.132736 261.568668 
L 280.961958 262.882264 
" style="fill:none;stroke:#000000;stroke-linecap:square;"/>
    </g>
   </g>
   <g id="xtick_18">
    <g id="line2d_19">
     <path d="M 272.298821 263.574992 
L 275.124786 264.897193 
" style="fill:none;stroke:#000000;stroke-linecap:square;"/>
    </g>
   </g>
   <g id="xtick_19">
    <g id="line2d_20">
     <path d="M 260.515894 267.627222 
L 263.335034 268.96689 
" style="fill:none;stroke:#000000;stroke-linecap:square;"/>
    </g>
   </g>
   <g id="xtick_20">
    <g id="line2d_21">
     <path d="M 254.566124 269.67339 
L 257.381691 271.02192 
" style="fill:none;stroke:#000000;stroke-linecap:square;"/>
    </g>
   </g>
   <g id="xtick_21">
    <g id="line2d_22">
     <path d="M 248.576967 271.733102 
L 251.388852 273.090584 
" style="fill:none;stroke:#000000;stroke-linecap:square;"/>
    </g>
   </g>
   <g id="xtick_22">
    <g id="line2d_23">
     <path d="M 242.548032 273.806495 
L 245.356123 275.173018 
" style="fill:none;stroke:#000000;stroke-linecap:square;"/>
    </g>
   </g>
  </g>
  <g id="axis3d_2">
   <g id="line2d_24">
    <path d="M 121.745103 226.435771 
L 228.486678 279.424972 
" style="fill:none;stroke:#000000;stroke-linecap:square;"/>
   </g>
   <g id="Line3DCollection_2">
    <path d="M 256.350415 77.607087 
L 255.884917 191.087682 
L 128.001647 229.541677 
" style="fill:none;stroke:#000000;stroke-dasharray:0.8,1.32;stroke-dashoffset:0;stroke-width:0.8;"/>
    <path d="M 279.754897 85.346359 
L 278.613257 200.589182 
L 149.971744 240.448185 
" style="fill:none;stroke:#000000;stroke-dasharray:0.8,1.32;stroke-dashoffset:0;stroke-width:0.8;"/>
    <path d="M 304.016844 93.369173 
L 302.1501 210.428675 
L 172.780757 251.771153 
" style="fill:none;stroke:#000000;stroke-dasharray:0.8,1.32;stroke-dashoffset:0;stroke-width:0.8;"/>
    <path d="M 329.184257 101.691402 
L 326.539369 220.624522 
L 196.477672 263.534897 
" style="fill:none;stroke:#000000;stroke-dasharray:0.8,1.32;stroke-dashoffset:0;stroke-width:0.8;"/>
    <path d="M 355.308789 110.330126 
L 351.828226 231.196438 
L 221.115364 275.765667 
" style="fill:none;stroke:#000000;stroke-dasharray:0.8,1.32;stroke-dashoffset:0;stroke-width:0.8;"/>
    <path d="M 251.768428 76.091939 
L 251.432617 189.226413 
L 123.704239 227.408336 
" style="fill:none;stroke:#000000;stroke-dasharray:0.8,1.32;stroke-dashoffset:0;stroke-width:0.8;"/>
    <path d="M 260.964904 79.132982 
L 260.367911 192.961781 
L 132.330783 231.690769 
" style="fill:none;stroke:#000000;stroke-dasharray:0.8,1.32;stroke-dashoffset:0;stroke-width:0.8;"/>
    <path d="M 265.612242 80.669739 
L 264.881917 194.848845 
L 136.692 233.855786 
" style="fill:none;stroke:#000000;stroke-dasharray:0.8,1.32;stroke-dashoffset:0;stroke-width:0.8;"/>
    <path d="M 270.292781 82.217476 
L 269.427258 196.749008 
L 141.085656 236.036908 
" style="fill:none;stroke:#000000;stroke-dasharray:0.8,1.32;stroke-dashoffset:0;stroke-width:0.8;"/>
    <path d="M 275.006879 83.776309 
L 274.00426 198.662408 
L 145.512114 238.234313 
" style="fill:none;stroke:#000000;stroke-dasharray:0.8,1.32;stroke-dashoffset:0;stroke-width:0.8;"/>
    <path d="M 284.537203 86.927747 
L 283.254584 202.529472 
L 154.464918 242.67871 
" style="fill:none;stroke:#000000;stroke-dasharray:0.8,1.32;stroke-dashoffset:0;stroke-width:0.8;"/>
    <path d="M 289.35417 88.520596 
L 287.928583 204.483421 
L 158.992019 244.926076 
" style="fill:none;stroke:#000000;stroke-dasharray:0.8,1.32;stroke-dashoffset:0;stroke-width:0.8;"/>
    <path d="M 294.206175 90.125032 
L 292.635601 206.451173 
L 163.55343 247.190476 
" style="fill:none;stroke:#000000;stroke-dasharray:0.8,1.32;stroke-dashoffset:0;stroke-width:0.8;"/>
    <path d="M 299.093604 91.741182 
L 297.375988 208.432875 
L 168.149543 249.472102 
" style="fill:none;stroke:#000000;stroke-dasharray:0.8,1.32;stroke-dashoffset:0;stroke-width:0.8;"/>
    <path d="M 308.976291 95.009137 
L 306.958299 212.438726 
L 177.447474 254.087828 
" style="fill:none;stroke:#000000;stroke-dasharray:0.8,1.32;stroke-dashoffset:0;stroke-width:0.8;"/>
    <path d="M 313.972346 96.661206 
L 311.800951 214.463179 
L 182.150105 256.422333 
" style="fill:none;stroke:#000000;stroke-dasharray:0.8,1.32;stroke-dashoffset:0;stroke-width:0.8;"/>
    <path d="M 319.005416 98.325516 
L 316.678428 216.502191 
L 186.889065 258.774872 
" style="fill:none;stroke:#000000;stroke-dasharray:0.8,1.32;stroke-dashoffset:0;stroke-width:0.8;"/>
    <path d="M 324.075913 100.002201 
L 321.591106 218.555918 
L 191.664778 261.145655 
" style="fill:none;stroke:#000000;stroke-dasharray:0.8,1.32;stroke-dashoffset:0;stroke-width:0.8;"/>
    <path d="M 334.330873 103.393258 
L 331.523604 222.708163 
L 201.328183 265.942813 
" style="fill:none;stroke:#000000;stroke-dasharray:0.8,1.32;stroke-dashoffset:0;stroke-width:0.8;"/>
    <path d="M 339.516192 105.107912 
L 336.544205 224.807007 
L 206.216755 268.369623 
" style="fill:none;stroke:#000000;stroke-dasharray:0.8,1.32;stroke-dashoffset:0;stroke-width:0.8;"/>
    <path d="M 344.740654 106.83551 
L 341.601571 226.921221 
L 211.143836 270.81555 
" style="fill:none;stroke:#000000;stroke-dasharray:0.8,1.32;stroke-dashoffset:0;stroke-width:0.8;"/>
    <path d="M 350.004702 108.576198 
L 346.696107 229.050974 
L 216.109885 273.280821 
" style="fill:none;stroke:#000000;stroke-dasharray:0.8,1.32;stroke-dashoffset:0;stroke-width:0.8;"/>
   </g>
   <g id="xtick_23">
    <g id="line2d_25">
     <path d="M 129.09645 229.212473 
L 125.808318 230.201202 
" style="fill:none;stroke:#000000;stroke-linecap:square;"/>
    </g>
    <g id="text_6">
     <!-- -1.0 -->
     <g transform="translate(108.26995 249.86043)scale(0.09996 -0.09996)">
      <use xlink:href="#ArialMT-2d"/>
      <use x="33.300781" xlink:href="#ArialMT-31"/>
      <use x="88.916016" xlink:href="#ArialMT-2e"/>
      <use x="116.699219" xlink:href="#ArialMT-30"/>
     </g>
    </g>
   </g>
   <g id="xtick_24">
    <g id="line2d_26">
     <path d="M 151.07439 240.106535 
L 147.762633 241.132668 
" style="fill:none;stroke:#000000;stroke-linecap:square;"/>
    </g>
    <g id="text_7">
     <!-- -0.5 -->
     <g transform="translate(130.106819 261.052049)scale(0.09996 -0.09996)">
      <use xlink:href="#ArialMT-2d"/>
      <use x="33.300781" xlink:href="#ArialMT-30"/>
      <use x="88.916016" xlink:href="#ArialMT-2e"/>
      <use x="116.699219" xlink:href="#ArialMT-35"/>
     </g>
    </g>
   </g>
   <g id="xtick_25">
    <g id="line2d_27">
     <path d="M 173.891052 251.416336 
L 170.556248 252.482038 
" style="fill:none;stroke:#000000;stroke-linecap:square;"/>
    </g>
    <g id="text_8">
     <!-- 0.0 -->
     <g transform="translate(154.444628 272.672517)scale(0.09996 -0.09996)">
      <use xlink:href="#ArialMT-30"/>
      <use x="55.615234" xlink:href="#ArialMT-2e"/>
      <use x="83.398438" xlink:href="#ArialMT-30"/>
     </g>
    </g>
   </g>
   <g id="xtick_26">
    <g id="line2d_28">
     <path d="M 197.595383 263.166138 
L 194.238229 264.273741 
" style="fill:none;stroke:#000000;stroke-linecap:square;"/>
    </g>
    <g id="text_9">
     <!-- 0.5 -->
     <g transform="translate(178.004056 284.746964)scale(0.09996 -0.09996)">
      <use xlink:href="#ArialMT-30"/>
      <use x="55.615234" xlink:href="#ArialMT-2e"/>
      <use x="83.398438" xlink:href="#ArialMT-35"/>
     </g>
    </g>
   </g>
   <g id="xtick_27">
    <g id="line2d_29">
     <path d="M 222.24021 275.382127 
L 218.861544 276.534153 
" style="fill:none;stroke:#000000;stroke-linecap:square;"/>
    </g>
    <g id="text_10">
     <!-- 1.0 -->
     <g transform="translate(202.502224 297.302526)scale(0.09996 -0.09996)">
      <use xlink:href="#ArialMT-31"/>
      <use x="55.615234" xlink:href="#ArialMT-2e"/>
      <use x="83.398438" xlink:href="#ArialMT-30"/>
     </g>
    </g>
   </g>
   <g id="xtick_28">
    <g id="line2d_30">
     <path d="M 124.797455 227.08154 
L 121.514107 228.063033 
" style="fill:none;stroke:#000000;stroke-linecap:square;"/>
    </g>
   </g>
   <g id="xtick_29">
    <g id="line2d_31">
     <path d="M 133.427168 231.359131 
L 130.134271 232.355175 
" style="fill:none;stroke:#000000;stroke-linecap:square;"/>
    </g>
   </g>
   <g id="xtick_30">
    <g id="line2d_32">
     <path d="M 137.789961 233.521687 
L 134.492317 234.525128 
" style="fill:none;stroke:#000000;stroke-linecap:square;"/>
    </g>
   </g>
   <g id="xtick_31">
    <g id="line2d_33">
     <path d="M 142.185186 235.70032 
L 138.882816 236.71124 
" style="fill:none;stroke:#000000;stroke-linecap:square;"/>
    </g>
   </g>
   <g id="xtick_32">
    <g id="line2d_34">
     <path d="M 146.613206 237.895208 
L 143.306132 238.913692 
" style="fill:none;stroke:#000000;stroke-linecap:square;"/>
    </g>
   </g>
   <g id="xtick_33">
    <g id="line2d_35">
     <path d="M 155.569111 242.334486 
L 152.252695 243.368354 
" style="fill:none;stroke:#000000;stroke-linecap:square;"/>
    </g>
   </g>
   <g id="xtick_34">
    <g id="line2d_36">
     <path d="M 160.09775 244.579249 
L 156.776699 245.620941 
" style="fill:none;stroke:#000000;stroke-linecap:square;"/>
    </g>
   </g>
   <g id="xtick_35">
    <g id="line2d_37">
     <path d="M 164.660691 246.841016 
L 161.335029 247.890619 
" style="fill:none;stroke:#000000;stroke-linecap:square;"/>
    </g>
   </g>
   <g id="xtick_36">
    <g id="line2d_38">
     <path d="M 169.258326 249.119979 
L 165.92808 250.177585 
" style="fill:none;stroke:#000000;stroke-linecap:square;"/>
    </g>
   </g>
   <g id="xtick_37">
    <g id="line2d_39">
     <path d="M 178.559273 253.730288 
L 175.219939 254.804177 
" style="fill:none;stroke:#000000;stroke-linecap:square;"/>
    </g>
   </g>
   <g id="xtick_38">
    <g id="line2d_40">
     <path d="M 183.263397 256.062036 
L 179.919562 257.144207 
" style="fill:none;stroke:#000000;stroke-linecap:square;"/>
    </g>
   </g>
   <g id="xtick_39">
    <g id="line2d_41">
     <path d="M 188.003841 258.411787 
L 184.655535 259.502337 
" style="fill:none;stroke:#000000;stroke-linecap:square;"/>
    </g>
   </g>
   <g id="xtick_40">
    <g id="line2d_42">
     <path d="M 192.781026 260.77975 
L 189.42828 261.878777 
" style="fill:none;stroke:#000000;stroke-linecap:square;"/>
    </g>
   </g>
   <g id="xtick_41">
    <g id="line2d_43">
     <path d="M 202.447345 265.571167 
L 199.085817 266.687447 
" style="fill:none;stroke:#000000;stroke-linecap:square;"/>
    </g>
   </g>
   <g id="xtick_42">
    <g id="line2d_44">
     <path d="M 207.337356 267.995056 
L 203.971489 269.120114 
" style="fill:none;stroke:#000000;stroke-linecap:square;"/>
    </g>
   </g>
   <g id="xtick_43">
    <g id="line2d_45">
     <path d="M 212.265865 270.438028 
L 208.895694 271.571969 
" style="fill:none;stroke:#000000;stroke-linecap:square;"/>
    </g>
   </g>
   <g id="xtick_44">
    <g id="line2d_46">
     <path d="M 217.233329 272.900308 
L 213.858891 274.043238 
" style="fill:none;stroke:#000000;stroke-linecap:square;"/>
    </g>
   </g>
  </g>
  <g id="axis3d_3">
   <g id="line2d_47">
    <path d="M 121.745103 226.435771 
L 118.110905 106.438797 
" style="fill:none;stroke:#000000;stroke-linecap:square;"/>
   </g>
   <g id="Line3DCollection_3">
    <path d="M 121.674548 224.106138 
L 249.407538 186.179894 
L 359.453295 231.997054 
" style="fill:none;stroke:#000000;stroke-dasharray:0.8,1.32;stroke-dashoffset:0;stroke-width:0.8;"/>
    <path d="M 121.249442 210.069636 
L 249.439991 172.942027 
L 359.890134 217.796598 
" style="fill:none;stroke:#000000;stroke-dasharray:0.8,1.32;stroke-dashoffset:0;stroke-width:0.8;"/>
    <path d="M 120.821264 195.931703 
L 249.472664 159.614833 
L 360.330174 203.492111 
" style="fill:none;stroke:#000000;stroke-dasharray:0.8,1.32;stroke-dashoffset:0;stroke-width:0.8;"/>
    <path d="M 120.389981 181.691235 
L 249.505558 146.197405 
L 360.77345 189.082447 
" style="fill:none;stroke:#000000;stroke-dasharray:0.8,1.32;stroke-dashoffset:0;stroke-width:0.8;"/>
    <path d="M 119.955559 167.347114 
L 249.538675 132.688824 
L 361.219997 174.566442 
" style="fill:none;stroke:#000000;stroke-dasharray:0.8,1.32;stroke-dashoffset:0;stroke-width:0.8;"/>
    <path d="M 119.517963 152.898203 
L 249.572018 119.088158 
L 361.669851 159.942913 
" style="fill:none;stroke:#000000;stroke-dasharray:0.8,1.32;stroke-dashoffset:0;stroke-width:0.8;"/>
    <path d="M 119.077158 138.343349 
L 249.605589 105.394461 
L 362.12305 145.210662 
" style="fill:none;stroke:#000000;stroke-dasharray:0.8,1.32;stroke-dashoffset:0;stroke-width:0.8;"/>
    <path d="M 118.63311 123.681385 
L 249.63939 91.606776 
L 362.579631 130.368472 
" style="fill:none;stroke:#000000;stroke-dasharray:0.8,1.32;stroke-dashoffset:0;stroke-width:0.8;"/>
    <path d="M 118.185781 108.911121 
L 249.673424 77.724133 
L 363.039632 115.415107 
" style="fill:none;stroke:#000000;stroke-dasharray:0.8,1.32;stroke-dashoffset:0;stroke-width:0.8;"/>
    <path d="M 121.589771 221.3069 
L 249.414011 183.539424 
L 359.540408 229.165231 
" style="fill:none;stroke:#000000;stroke-dasharray:0.8,1.32;stroke-dashoffset:0;stroke-width:0.8;"/>
    <path d="M 121.504872 218.503639 
L 249.420493 180.895409 
L 359.627649 226.329283 
" style="fill:none;stroke:#000000;stroke-dasharray:0.8,1.32;stroke-dashoffset:0;stroke-width:0.8;"/>
    <path d="M 121.419851 215.696347 
L 249.426984 178.247843 
L 359.715016 223.4892 
" style="fill:none;stroke:#000000;stroke-dasharray:0.8,1.32;stroke-dashoffset:0;stroke-width:0.8;"/>
    <path d="M 121.334708 212.885016 
L 249.433483 175.596718 
L 359.802512 220.644975 
" style="fill:none;stroke:#000000;stroke-dasharray:0.8,1.32;stroke-dashoffset:0;stroke-width:0.8;"/>
    <path d="M 121.164053 207.250199 
L 249.446508 170.283763 
L 359.977885 214.944059 
" style="fill:none;stroke:#000000;stroke-dasharray:0.8,1.32;stroke-dashoffset:0;stroke-width:0.8;"/>
    <path d="M 121.078541 204.426696 
L 249.453034 167.621919 
L 360.065764 212.087351 
" style="fill:none;stroke:#000000;stroke-dasharray:0.8,1.32;stroke-dashoffset:0;stroke-width:0.8;"/>
    <path d="M 120.992906 201.599118 
L 249.459569 164.956488 
L 360.153772 209.226462 
" style="fill:none;stroke:#000000;stroke-dasharray:0.8,1.32;stroke-dashoffset:0;stroke-width:0.8;"/>
    <path d="M 120.907147 198.767457 
L 249.466112 162.287461 
L 360.241909 206.361386 
" style="fill:none;stroke:#000000;stroke-dasharray:0.8,1.32;stroke-dashoffset:0;stroke-width:0.8;"/>
    <path d="M 120.735257 193.091848 
L 249.479225 156.938595 
L 360.41857 200.61863 
" style="fill:none;stroke:#000000;stroke-dasharray:0.8,1.32;stroke-dashoffset:0;stroke-width:0.8;"/>
    <path d="M 120.649126 190.247882 
L 249.485795 154.258741 
L 360.507094 197.740932 
" style="fill:none;stroke:#000000;stroke-dasharray:0.8,1.32;stroke-dashoffset:0;stroke-width:0.8;"/>
    <path d="M 120.562869 187.399798 
L 249.492374 151.575263 
L 360.595749 194.859008 
" style="fill:none;stroke:#000000;stroke-dasharray:0.8,1.32;stroke-dashoffset:0;stroke-width:0.8;"/>
    <path d="M 120.476488 184.547585 
L 249.498961 148.888153 
L 360.684534 191.97285 
" style="fill:none;stroke:#000000;stroke-dasharray:0.8,1.32;stroke-dashoffset:0;stroke-width:0.8;"/>
    <path d="M 120.303349 178.830739 
L 249.512163 143.503011 
L 360.862496 186.187791 
" style="fill:none;stroke:#000000;stroke-dasharray:0.8,1.32;stroke-dashoffset:0;stroke-width:0.8;"/>
    <path d="M 120.216591 175.966088 
L 249.518778 140.804963 
L 360.951674 183.288872 
" style="fill:none;stroke:#000000;stroke-dasharray:0.8,1.32;stroke-dashoffset:0;stroke-width:0.8;"/>
    <path d="M 120.129707 173.097273 
L 249.525401 138.103254 
L 361.040983 180.38568 
" style="fill:none;stroke:#000000;stroke-dasharray:0.8,1.32;stroke-dashoffset:0;stroke-width:0.8;"/>
    <path d="M 120.042696 170.224285 
L 249.532033 135.397877 
L 361.130424 177.478207 
" style="fill:none;stroke:#000000;stroke-dasharray:0.8,1.32;stroke-dashoffset:0;stroke-width:0.8;"/>
    <path d="M 119.868295 164.465751 
L 249.545325 129.976088 
L 361.309702 171.650376 
" style="fill:none;stroke:#000000;stroke-dasharray:0.8,1.32;stroke-dashoffset:0;stroke-width:0.8;"/>
    <path d="M 119.780903 161.580188 
L 249.551985 127.25966 
L 361.39954 168.73 
" style="fill:none;stroke:#000000;stroke-dasharray:0.8,1.32;stroke-dashoffset:0;stroke-width:0.8;"/>
    <path d="M 119.693384 158.690415 
L 249.558653 124.539535 
L 361.48951 165.805304 
" style="fill:none;stroke:#000000;stroke-dasharray:0.8,1.32;stroke-dashoffset:0;stroke-width:0.8;"/>
    <path d="M 119.605738 155.796423 
L 249.565331 121.815703 
L 361.579614 162.876278 
" style="fill:none;stroke:#000000;stroke-dasharray:0.8,1.32;stroke-dashoffset:0;stroke-width:0.8;"/>
    <path d="M 119.43006 149.995745 
L 249.578714 116.356891 
L 361.760222 157.0052 
" style="fill:none;stroke:#000000;stroke-dasharray:0.8,1.32;stroke-dashoffset:0;stroke-width:0.8;"/>
    <path d="M 119.342028 147.08904 
L 249.585419 113.621896 
L 361.850727 154.063127 
" style="fill:none;stroke:#000000;stroke-dasharray:0.8,1.32;stroke-dashoffset:0;stroke-width:0.8;"/>
    <path d="M 119.253867 144.178078 
L 249.592133 110.883164 
L 361.941367 151.116687 
" style="fill:none;stroke:#000000;stroke-dasharray:0.8,1.32;stroke-dashoffset:0;stroke-width:0.8;"/>
    <path d="M 119.165578 141.262851 
L 249.598856 108.140688 
L 362.032141 148.165868 
" style="fill:none;stroke:#000000;stroke-dasharray:0.8,1.32;stroke-dashoffset:0;stroke-width:0.8;"/>
    <path d="M 118.988609 135.419563 
L 249.612331 102.644474 
L 362.214095 142.251059 
" style="fill:none;stroke:#000000;stroke-dasharray:0.8,1.32;stroke-dashoffset:0;stroke-width:0.8;"/>
    <path d="M 118.89993 132.491483 
L 249.619082 99.89072 
L 362.305275 139.287048 
" style="fill:none;stroke:#000000;stroke-dasharray:0.8,1.32;stroke-dashoffset:0;stroke-width:0.8;"/>
    <path d="M 118.811121 129.5591 
L 249.625842 97.13319 
L 362.396591 136.31862 
" style="fill:none;stroke:#000000;stroke-dasharray:0.8,1.32;stroke-dashoffset:0;stroke-width:0.8;"/>
    <path d="M 118.722181 126.622403 
L 249.632611 94.371879 
L 362.488043 133.345764 
" style="fill:none;stroke:#000000;stroke-dasharray:0.8,1.32;stroke-dashoffset:0;stroke-width:0.8;"/>
    <path d="M 118.543908 120.736034 
L 249.646178 88.837875 
L 362.671357 127.386733 
" style="fill:none;stroke:#000000;stroke-dasharray:0.8,1.32;stroke-dashoffset:0;stroke-width:0.8;"/>
    <path d="M 118.454574 117.786342 
L 249.652976 86.065169 
L 362.763219 124.400537 
" style="fill:none;stroke:#000000;stroke-dasharray:0.8,1.32;stroke-dashoffset:0;stroke-width:0.8;"/>
    <path d="M 118.365109 114.832299 
L 249.659783 83.288648 
L 362.855219 121.409874 
" style="fill:none;stroke:#000000;stroke-dasharray:0.8,1.32;stroke-dashoffset:0;stroke-width:0.8;"/>
    <path d="M 118.275511 111.873895 
L 249.666599 80.508305 
L 362.947357 118.414734 
" style="fill:none;stroke:#000000;stroke-dasharray:0.8,1.32;stroke-dashoffset:0;stroke-width:0.8;"/>
   </g>
   <g id="xtick_45">
    <g id="line2d_48">
     <path d="M 122.767726 223.781554 
L 119.484495 224.756405 
" style="fill:none;stroke:#000000;stroke-linecap:square;"/>
    </g>
    <g id="text_11">
     <!-- -1.00 -->
     <g transform="translate(90.842745 230.615918)scale(0.09996 -0.09996)">
      <use xlink:href="#ArialMT-2d"/>
      <use x="33.300781" xlink:href="#ArialMT-31"/>
      <use x="88.916016" xlink:href="#ArialMT-2e"/>
      <use x="116.699219" xlink:href="#ArialMT-30"/>
      <use x="172.314453" xlink:href="#ArialMT-30"/>
     </g>
    </g>
   </g>
   <g id="xtick_46">
    <g id="line2d_49">
     <path d="M 122.346793 209.751812 
L 119.051014 210.706363 
" style="fill:none;stroke:#000000;stroke-linecap:square;"/>
    </g>
    <g id="text_12">
     <!-- -0.75 -->
     <g transform="translate(90.348206 216.592854)scale(0.09996 -0.09996)">
      <defs>
       <path d="M 303 3981 
L 303 4522 
L 3269 4522 
L 3269 4084 
Q 2831 3619 2401 2847 
Q 1972 2075 1738 1259 
Q 1569 684 1522 0 
L 944 0 
Q 953 541 1156 1306 
Q 1359 2072 1739 2783 
Q 2119 3494 2547 3981 
L 303 3981 
z
" id="ArialMT-37" transform="scale(0.015625)"/>
      </defs>
      <use xlink:href="#ArialMT-2d"/>
      <use x="33.300781" xlink:href="#ArialMT-30"/>
      <use x="88.916016" xlink:href="#ArialMT-2e"/>
      <use x="116.699219" xlink:href="#ArialMT-37"/>
      <use x="172.314453" xlink:href="#ArialMT-35"/>
     </g>
    </g>
   </g>
   <g id="xtick_47">
    <g id="line2d_50">
     <path d="M 121.922821 195.620746 
L 118.614398 196.554677 
" style="fill:none;stroke:#000000;stroke-linecap:square;"/>
    </g>
    <g id="text_13">
     <!-- -0.50 -->
     <g transform="translate(89.850096 202.468571)scale(0.09996 -0.09996)">
      <use xlink:href="#ArialMT-2d"/>
      <use x="33.300781" xlink:href="#ArialMT-30"/>
      <use x="88.916016" xlink:href="#ArialMT-2e"/>
      <use x="116.699219" xlink:href="#ArialMT-35"/>
      <use x="172.314453" xlink:href="#ArialMT-30"/>
     </g>
    </g>
   </g>
   <g id="xtick_48">
    <g id="line2d_51">
     <path d="M 121.495775 181.387253 
L 118.174612 182.30024 
" style="fill:none;stroke:#000000;stroke-linecap:square;"/>
    </g>
    <g id="text_14">
     <!-- -0.25 -->
     <g transform="translate(89.348378 188.241968)scale(0.09996 -0.09996)">
      <defs>
       <path d="M 3222 541 
L 3222 0 
L 194 0 
Q 188 203 259 391 
Q 375 700 629 1000 
Q 884 1300 1366 1694 
Q 2113 2306 2375 2664 
Q 2638 3022 2638 3341 
Q 2638 3675 2398 3904 
Q 2159 4134 1775 4134 
Q 1369 4134 1125 3890 
Q 881 3647 878 3216 
L 300 3275 
Q 359 3922 746 4261 
Q 1134 4600 1788 4600 
Q 2447 4600 2831 4234 
Q 3216 3869 3216 3328 
Q 3216 3053 3103 2787 
Q 2991 2522 2730 2228 
Q 2469 1934 1863 1422 
Q 1356 997 1212 845 
Q 1069 694 975 541 
L 3222 541 
z
" id="ArialMT-32" transform="scale(0.015625)"/>
      </defs>
      <use xlink:href="#ArialMT-2d"/>
      <use x="33.300781" xlink:href="#ArialMT-30"/>
      <use x="88.916016" xlink:href="#ArialMT-2e"/>
      <use x="116.699219" xlink:href="#ArialMT-32"/>
      <use x="172.314453" xlink:href="#ArialMT-35"/>
     </g>
    </g>
   </g>
   <g id="xtick_49">
    <g id="line2d_52">
     <path d="M 121.065623 167.050216 
L 117.731621 167.941928 
" style="fill:none;stroke:#000000;stroke-linecap:square;"/>
    </g>
    <g id="text_15">
     <!-- 0.00 -->
     <g transform="translate(90.50719 173.91193)scale(0.09996 -0.09996)">
      <use xlink:href="#ArialMT-30"/>
      <use x="55.615234" xlink:href="#ArialMT-2e"/>
      <use x="83.398438" xlink:href="#ArialMT-30"/>
      <use x="139.013672" xlink:href="#ArialMT-30"/>
     </g>
    </g>
   </g>
   <g id="xtick_50">
    <g id="line2d_53">
     <path d="M 120.63233 152.608502 
L 117.28539 153.478603 
" style="fill:none;stroke:#000000;stroke-linecap:square;"/>
    </g>
    <g id="text_16">
     <!-- 0.25 -->
     <g transform="translate(89.998137 159.477325)scale(0.09996 -0.09996)">
      <use xlink:href="#ArialMT-30"/>
      <use x="55.615234" xlink:href="#ArialMT-2e"/>
      <use x="83.398438" xlink:href="#ArialMT-32"/>
      <use x="139.013672" xlink:href="#ArialMT-35"/>
     </g>
    </g>
   </g>
   <g id="xtick_51">
    <g id="line2d_54">
     <path d="M 120.195862 138.060958 
L 116.835883 138.909108 
" style="fill:none;stroke:#000000;stroke-linecap:square;"/>
    </g>
    <g id="text_17">
     <!-- 0.50 -->
     <g transform="translate(89.485356 144.937003)scale(0.09996 -0.09996)">
      <use xlink:href="#ArialMT-30"/>
      <use x="55.615234" xlink:href="#ArialMT-2e"/>
      <use x="83.398438" xlink:href="#ArialMT-35"/>
      <use x="139.013672" xlink:href="#ArialMT-30"/>
     </g>
    </g>
   </g>
   <g id="xtick_52">
    <g id="line2d_55">
     <path d="M 119.756184 123.406419 
L 116.383064 124.232269 
" style="fill:none;stroke:#000000;stroke-linecap:square;"/>
    </g>
    <g id="text_18">
     <!-- 0.75 -->
     <g transform="translate(88.968805 130.289799)scale(0.09996 -0.09996)">
      <use xlink:href="#ArialMT-30"/>
      <use x="55.615234" xlink:href="#ArialMT-2e"/>
      <use x="83.398438" xlink:href="#ArialMT-37"/>
      <use x="139.013672" xlink:href="#ArialMT-35"/>
     </g>
    </g>
   </g>
   <g id="xtick_53">
    <g id="line2d_56">
     <path d="M 119.31326 108.643699 
L 115.926897 109.446896 
" style="fill:none;stroke:#000000;stroke-linecap:square;"/>
    </g>
    <g id="text_19">
     <!-- 1.00 -->
     <g transform="translate(88.448443 115.53453)scale(0.09996 -0.09996)">
      <use xlink:href="#ArialMT-31"/>
      <use x="55.615234" xlink:href="#ArialMT-2e"/>
      <use x="83.398438" xlink:href="#ArialMT-30"/>
      <use x="139.013672" xlink:href="#ArialMT-30"/>
     </g>
    </g>
   </g>
   <g id="xtick_54">
    <g id="line2d_57">
     <path d="M 122.683781 220.983659 
L 119.398048 221.954476 
" style="fill:none;stroke:#000000;stroke-linecap:square;"/>
    </g>
   </g>
   <g id="xtick_55">
    <g id="line2d_58">
     <path d="M 122.599715 218.181746 
L 119.311477 219.148515 
" style="fill:none;stroke:#000000;stroke-linecap:square;"/>
    </g>
   </g>
   <g id="xtick_56">
    <g id="line2d_59">
     <path d="M 122.515529 215.375807 
L 119.224781 216.338516 
" style="fill:none;stroke:#000000;stroke-linecap:square;"/>
    </g>
   </g>
   <g id="xtick_57">
    <g id="line2d_60">
     <path d="M 122.431222 212.565832 
L 119.13796 213.524468 
" style="fill:none;stroke:#000000;stroke-linecap:square;"/>
    </g>
   </g>
   <g id="xtick_58">
    <g id="line2d_61">
     <path d="M 122.262243 206.93374 
L 118.963943 207.884192 
" style="fill:none;stroke:#000000;stroke-linecap:square;"/>
    </g>
   </g>
   <g id="xtick_59">
    <g id="line2d_62">
     <path d="M 122.177571 204.111606 
L 118.876746 205.057947 
" style="fill:none;stroke:#000000;stroke-linecap:square;"/>
    </g>
   </g>
   <g id="xtick_60">
    <g id="line2d_63">
     <path d="M 122.092777 201.285401 
L 118.789423 202.227619 
" style="fill:none;stroke:#000000;stroke-linecap:square;"/>
    </g>
   </g>
   <g id="xtick_61">
    <g id="line2d_64">
     <path d="M 122.00786 198.455117 
L 118.701974 199.393198 
" style="fill:none;stroke:#000000;stroke-linecap:square;"/>
    </g>
   </g>
   <g id="xtick_62">
    <g id="line2d_65">
     <path d="M 121.837659 192.782277 
L 118.526696 193.712045 
" style="fill:none;stroke:#000000;stroke-linecap:square;"/>
    </g>
   </g>
   <g id="xtick_63">
    <g id="line2d_66">
     <path d="M 121.752373 189.939702 
L 118.438866 190.865295 
" style="fill:none;stroke:#000000;stroke-linecap:square;"/>
    </g>
   </g>
   <g id="xtick_64">
    <g id="line2d_67">
     <path d="M 121.666964 187.093012 
L 118.350909 188.014416 
" style="fill:none;stroke:#000000;stroke-linecap:square;"/>
    </g>
   </g>
   <g id="xtick_65">
    <g id="line2d_68">
     <path d="M 121.581432 184.242199 
L 118.262824 185.159401 
" style="fill:none;stroke:#000000;stroke-linecap:square;"/>
    </g>
   </g>
   <g id="xtick_66">
    <g id="line2d_69">
     <path d="M 121.409994 178.528165 
L 118.086271 179.436923 
" style="fill:none;stroke:#000000;stroke-linecap:square;"/>
    </g>
   </g>
   <g id="xtick_67">
    <g id="line2d_70">
     <path d="M 121.324089 175.664927 
L 117.997802 176.569443 
" style="fill:none;stroke:#000000;stroke-linecap:square;"/>
    </g>
   </g>
   <g id="xtick_68">
    <g id="line2d_71">
     <path d="M 121.238059 172.797528 
L 117.909204 173.69779 
" style="fill:none;stroke:#000000;stroke-linecap:square;"/>
    </g>
   </g>
   <g id="xtick_69">
    <g id="line2d_72">
     <path d="M 121.151904 169.925961 
L 117.820477 170.821955 
" style="fill:none;stroke:#000000;stroke-linecap:square;"/>
    </g>
   </g>
   <g id="xtick_70">
    <g id="line2d_73">
     <path d="M 120.979217 164.170284 
L 117.642635 165.057701 
" style="fill:none;stroke:#000000;stroke-linecap:square;"/>
    </g>
   </g>
   <g id="xtick_71">
    <g id="line2d_74">
     <path d="M 120.892685 161.286156 
L 117.553519 162.169264 
" style="fill:none;stroke:#000000;stroke-linecap:square;"/>
    </g>
   </g>
   <g id="xtick_72">
    <g id="line2d_75">
     <path d="M 120.806026 158.397822 
L 117.464273 159.276608 
" style="fill:none;stroke:#000000;stroke-linecap:square;"/>
    </g>
   </g>
   <g id="xtick_73">
    <g id="line2d_76">
     <path d="M 120.719242 155.505274 
L 117.374897 156.379724 
" style="fill:none;stroke:#000000;stroke-linecap:square;"/>
    </g>
   </g>
   <g id="xtick_74">
    <g id="line2d_77">
     <path d="M 120.545292 149.707496 
L 117.195751 150.573235 
" style="fill:none;stroke:#000000;stroke-linecap:square;"/>
    </g>
   </g>
   <g id="xtick_75">
    <g id="line2d_78">
     <path d="M 120.458126 146.802249 
L 117.105982 147.663611 
" style="fill:none;stroke:#000000;stroke-linecap:square;"/>
    </g>
   </g>
   <g id="xtick_76">
    <g id="line2d_79">
     <path d="M 120.370833 143.892749 
L 117.016081 144.749721 
" style="fill:none;stroke:#000000;stroke-linecap:square;"/>
    </g>
   </g>
   <g id="xtick_77">
    <g id="line2d_80">
     <path d="M 120.283412 140.978989 
L 116.926048 141.831556 
" style="fill:none;stroke:#000000;stroke-linecap:square;"/>
    </g>
   </g>
   <g id="xtick_78">
    <g id="line2d_81">
     <path d="M 120.108185 135.138648 
L 116.745585 135.982365 
" style="fill:none;stroke:#000000;stroke-linecap:square;"/>
    </g>
   </g>
   <g id="xtick_79">
    <g id="line2d_82">
     <path d="M 120.020378 132.212048 
L 116.655155 133.05132 
" style="fill:none;stroke:#000000;stroke-linecap:square;"/>
    </g>
   </g>
   <g id="xtick_80">
    <g id="line2d_83">
     <path d="M 119.932443 129.28115 
L 116.564591 130.115962 
" style="fill:none;stroke:#000000;stroke-linecap:square;"/>
    </g>
   </g>
   <g id="xtick_81">
    <g id="line2d_84">
     <path d="M 119.844378 126.345943 
L 116.473895 127.176281 
" style="fill:none;stroke:#000000;stroke-linecap:square;"/>
    </g>
   </g>
   <g id="xtick_82">
    <g id="line2d_85">
     <path d="M 119.66786 120.462568 
L 116.2921 121.283916 
" style="fill:none;stroke:#000000;stroke-linecap:square;"/>
    </g>
   </g>
   <g id="xtick_83">
    <g id="line2d_86">
     <path d="M 119.579406 117.51438 
L 116.201001 118.331211 
" style="fill:none;stroke:#000000;stroke-linecap:square;"/>
    </g>
   </g>
   <g id="xtick_84">
    <g id="line2d_87">
     <path d="M 119.490822 114.561846 
L 116.109768 115.374146 
" style="fill:none;stroke:#000000;stroke-linecap:square;"/>
    </g>
   </g>
   <g id="xtick_85">
    <g id="line2d_88">
     <path d="M 119.402107 111.604955 
L 116.0184 112.412711 
" style="fill:none;stroke:#000000;stroke-linecap:square;"/>
    </g>
   </g>
  </g>
  <g id="axes_1">
   <g id="line2d_89">
    <path clip-path="url(#p45ef945e38)" d="M 295.256773 155.003813 
L 180.659637 187.891928 
" style="fill:none;stroke:#000000;stroke-linecap:square;stroke-width:1.5;"/>
   </g>
   <g id="line2d_90">
    <path clip-path="url(#p45ef945e38)" d="M 193.455627 152.059643 
L 289.653886 191.270413 
" style="fill:none;stroke:#000000;stroke-linecap:square;stroke-width:1.5;"/>
   </g>
   <g id="line2d_91">
    <path clip-path="url(#p45ef945e38)" d="M 239.756108 228.024788 
L 239.756108 112.140361 
" style="fill:none;stroke:#000000;stroke-linecap:square;stroke-width:1.5;"/>
   </g>
   <g id="line2d_92">
    <path clip-path="url(#p45ef945e38)" d="M 229.614456 115.635363 
L 230.164921 115.825098 
L 230.753913 116.003947 
L 231.379106 116.171179 
L 232.038021 116.326108 
L 232.728037 116.468097 
L 233.4464 116.596562 
L 234.190232 116.710973 
L 234.956547 116.810859 
L 235.742262 116.895805 
L 236.54421 116.96546 
L 237.359153 117.019535 
L 238.183798 117.057807 
L 239.014808 117.080117 
L 239.848819 117.086371 
L 240.682456 117.076544 
L 241.512341 117.050677 
L 242.335117 117.008877 
L 243.147455 116.951318 
L 243.946073 116.878238 
L 244.727748 116.789939 
L 245.48933 116.686788 
L 246.227757 116.569211 
L 246.940064 116.437693 
L 247.623403 116.292776 
L 248.275046 116.135056 
L 248.892403 115.965182 
L 249.473029 115.783849 
L 250.014634 115.591798 
L 250.515094 115.389814 
L 250.972457 115.178719 
L 251.384952 114.959368 
L 251.750994 114.732651 
L 252.069189 114.499482 
L 252.338343 114.260799 
L 252.557459 114.017561 
L 252.725746 113.770741 
L 252.842616 113.521322 
L 252.907689 113.270297 
L 252.920792 113.018659 
L 252.881957 112.767404 
L 252.791421 112.517519 
L 252.649623 112.269987 
L 252.457202 112.025774 
L 252.214991 111.785833 
L 251.924017 111.551098 
L 251.585489 111.322477 
L 251.2008 111.100853 
L 250.771514 110.887081 
L 250.299363 110.681982 
L 249.786241 110.48634 
L 249.234189 110.300905 
L 248.645396 110.126381 
L 248.022182 109.963433 
L 247.366994 109.81268 
L 246.682397 109.67469 
L 245.971059 109.549987 
L 245.235745 109.43904 
L 244.479309 109.342267 
L 243.704677 109.260032 
L 242.914842 109.192644 
L 242.112849 109.140356 
L 241.30179 109.103363 
L 240.484785 109.081805 
L 239.664978 109.075762 
L 238.845521 109.085257 
L 238.029567 109.110254 
L 237.220253 109.150659 
L 236.420697 109.206322 
L 235.633979 109.277033 
L 234.863134 109.362528 
L 234.111141 109.462484 
L 233.380912 109.576526 
L 232.67528 109.704224 
L 231.996991 109.845097 
L 231.348691 109.998611 
L 230.732919 110.164186 
L 230.152094 110.341194 
L 229.60851 110.52896 
L 229.104321 110.726769 
L 228.641538 110.933865 
L 228.222018 111.149454 
L 227.847458 111.372707 
L 227.519383 111.602764 
L 227.239147 111.838736 
L 227.007919 112.079707 
L 226.826682 112.324741 
L 226.696227 112.57288 
L 226.61715 112.823155 
L 226.589843 113.074581 
L 226.6145 113.326168 
L 226.691106 113.576922 
L 226.819442 113.825849 
L 226.999082 114.071958 
L 227.229393 114.314268 
L 227.509538 114.551807 
L 227.838476 114.783623 
L 228.214968 115.008781 
L 228.637578 115.226373 
L 229.104677 115.435517 
" style="fill:none;stroke:#1f77b4;stroke-linecap:square;stroke-width:1.5;"/>
   </g>
   <g id="line2d_93">
    <path clip-path="url(#p45ef945e38)" d="M 181.738456 197.935283 
L 182.253026 198.146111 
L 182.765411 198.315676 
L 183.273595 198.443259 
L 183.775577 198.528301 
L 184.269372 198.570412 
L 184.753022 198.569367 
L 185.224604 198.525112 
L 185.68224 198.437764 
L 186.124099 198.30761 
L 186.548408 198.135109 
L 186.953461 197.920888 
L 187.337623 197.665745 
L 187.699339 197.370643 
L 188.037142 197.036707 
L 188.349653 196.665221 
L 188.635597 196.257626 
L 188.893801 195.81551 
L 189.123201 195.340604 
L 189.32285 194.834778 
L 189.491918 194.30003 
L 189.6297 193.738479 
L 189.735616 193.152359 
L 189.809216 192.544006 
L 189.850183 191.915852 
L 189.85833 191.270413 
L 189.833608 190.610277 
L 189.776101 189.938097 
L 189.686029 189.256577 
L 189.563745 188.568462 
L 189.409735 187.876525 
L 189.224617 187.183554 
L 189.009136 186.492345 
L 188.764161 185.805684 
L 188.490685 185.126338 
L 188.189816 184.457045 
L 187.862774 183.800497 
L 187.510888 183.159336 
L 187.135585 182.536135 
L 186.738388 181.933391 
L 186.320908 181.353517 
L 185.884837 180.798826 
L 185.431941 180.271527 
L 184.964051 179.773711 
L 184.483055 179.307349 
L 183.990893 178.874277 
L 183.489546 178.476195 
L 182.981026 178.114654 
L 182.467373 177.791058 
L 181.950639 177.506652 
L 181.432887 177.262522 
L 180.916178 177.059587 
L 180.402563 176.898603 
L 179.894075 176.780152 
L 179.392722 176.704648 
L 178.90048 176.672332 
L 178.41928 176.683273 
L 177.951007 176.73737 
L 177.497488 176.834351 
L 177.060489 176.973777 
L 176.641705 177.155042 
L 176.242756 177.377382 
L 175.86518 177.63987 
L 175.510428 177.941428 
L 175.179859 178.280828 
L 174.874736 178.6567 
L 174.596218 179.067535 
L 174.345361 179.511694 
L 174.123113 179.987412 
L 173.930309 180.492807 
L 173.76767 181.025889 
L 173.6358 181.584563 
L 173.535186 182.166642 
L 173.466194 182.769853 
L 173.429069 183.391846 
L 173.423936 184.030202 
L 173.450797 184.682444 
L 173.509535 185.346043 
L 173.59991 186.018431 
L 173.721565 186.697007 
L 173.874023 187.37915 
L 174.056691 188.062223 
L 174.268863 188.74359 
L 174.50972 189.420618 
L 174.778336 190.090691 
L 175.07368 190.75122 
L 175.394617 191.399648 
L 175.739917 192.033464 
L 176.108255 192.65021 
L 176.498219 193.247489 
L 176.90831 193.822977 
L 177.336954 194.374429 
L 177.782503 194.899686 
L 178.243242 195.39669 
L 178.717393 195.863483 
L 179.203126 196.298222 
L 179.698561 196.699182 
L 180.20178 197.064763 
L 180.710826 197.393501 
L 181.223718 197.684069 
" style="fill:none;stroke:#ff7f0e;stroke-linecap:square;stroke-width:1.5;"/>
   </g>
   <g id="line2d_94">
    <path clip-path="url(#p45ef945e38)" d="M 278.767484 194.042085 
L 278.781014 194.691492 
L 278.834554 195.325808 
L 278.927866 195.942498 
L 279.060549 196.539103 
L 279.232044 197.11325 
L 279.441635 197.662658 
L 279.688453 198.185152 
L 279.971477 198.67867 
L 280.289547 199.141267 
L 280.641358 199.571132 
L 281.025478 199.966584 
L 281.440342 200.326087 
L 281.88427 200.648251 
L 282.355466 200.931838 
L 282.852033 201.175767 
L 283.371974 201.379119 
L 283.913205 201.541134 
L 284.473563 201.661223 
L 285.050813 201.738959 
L 285.642661 201.774086 
L 286.246758 201.766516 
L 286.860714 201.716328 
L 287.482107 201.623768 
L 288.10849 201.489247 
L 288.737402 201.313338 
L 289.366378 201.096774 
L 289.992957 200.840446 
L 290.614694 200.545395 
L 291.229167 200.212811 
L 291.833986 199.844024 
L 292.426803 199.440504 
L 293.00532 199.003851 
L 293.567297 198.535788 
L 294.110563 198.038159 
L 294.633018 197.512915 
L 295.132647 196.962113 
L 295.607523 196.387902 
L 296.055817 195.792522 
L 296.475801 195.178288 
L 296.865856 194.547588 
L 297.22448 193.902869 
L 297.550288 193.246631 
L 297.842022 192.581418 
L 298.098555 191.909806 
L 298.31889 191.234397 
L 298.502171 190.557806 
L 298.647681 189.882655 
L 298.754846 189.21156 
L 298.823239 188.547124 
L 298.852579 187.891928 
L 298.842735 187.248516 
L 298.793723 186.619394 
L 298.705711 186.007014 
L 298.579016 185.413766 
L 298.414103 184.841972 
L 298.211584 184.293875 
L 297.972218 183.771629 
L 297.696904 183.277293 
L 297.386686 182.812824 
L 297.04274 182.380064 
L 296.666379 181.980737 
L 296.259042 181.616443 
L 295.822291 181.288646 
L 295.357809 180.998673 
L 294.867388 180.747706 
L 294.352927 180.536775 
L 293.816425 180.366758 
L 293.259969 180.238374 
L 292.685732 180.152176 
L 292.095963 180.108557 
L 291.492976 180.107737 
L 290.879143 180.149771 
L 290.256886 180.23454 
L 289.628665 180.361757 
L 288.996969 180.530963 
L 288.364309 180.741531 
L 287.733201 180.992665 
L 287.106164 181.283407 
L 286.485703 181.612634 
L 285.874302 181.979067 
L 285.274414 182.381276 
L 284.688446 182.817681 
L 284.118757 183.286561 
L 283.567641 183.786062 
L 283.03732 184.314201 
L 282.529933 184.868877 
L 282.047529 185.447879 
L 281.592057 186.048893 
L 281.165359 186.669512 
L 280.769157 187.307251 
L 280.405053 187.959549 
L 280.074517 188.623788 
L 279.77888 189.297298 
L 279.519334 189.977371 
L 279.296921 190.661273 
L 279.11253 191.346254 
L 278.966896 192.02956 
L 278.860595 192.708446 
L 278.794041 193.380186 
" style="fill:none;stroke:#2ca02c;stroke-linecap:square;stroke-width:1.5;"/>
   </g>
   <g id="line2d_95">
    <path clip-path="url(#p45ef945e38)" d="M 236.885009 187.042616 
L 237.401086 187.608846 
L 237.958807 188.145988 
L 238.55596 188.651923 
L 239.19018 189.124655 
L 239.858952 189.562322 
L 240.559629 189.963199 
L 241.289437 190.325709 
L 242.045487 190.648427 
L 242.824788 190.930086 
L 243.62426 191.16958 
L 244.440741 191.365972 
L 245.271005 191.518494 
L 246.111773 191.626554 
L 246.959726 191.689732 
L 247.811516 191.707789 
L 248.663783 191.680661 
L 249.513166 191.608464 
L 250.356316 191.49149 
L 251.18991 191.33021 
L 252.010664 191.125265 
L 252.815346 190.877472 
L 253.600788 190.587813 
L 254.363897 190.257437 
L 255.101672 189.887651 
L 255.811211 189.479917 
L 256.489722 189.035847 
L 257.134539 188.557192 
L 257.743127 188.045842 
L 258.313093 187.503813 
L 258.842198 186.933242 
L 259.328363 186.336377 
L 259.769679 185.715569 
L 260.164411 185.073263 
L 260.511008 184.411988 
L 260.80811 183.734346 
L 261.054548 183.043004 
L 261.249354 182.340684 
L 261.391762 181.630147 
L 261.481211 180.914191 
L 261.517349 180.195633 
L 261.500032 179.477299 
L 261.429326 178.762016 
L 261.305506 178.052599 
L 261.129058 177.351841 
L 260.900671 176.662499 
L 260.62124 175.987289 
L 260.29186 175.32887 
L 259.913824 174.689835 
L 259.488613 174.072702 
L 259.017896 173.479905 
L 258.503521 172.913782 
L 257.947509 172.376565 
L 257.352043 171.870375 
L 256.719464 171.397212 
L 256.052258 170.958946 
L 255.353049 170.557309 
L 254.624588 170.193891 
L 253.869742 169.870132 
L 253.091482 169.587316 
L 252.292875 169.346565 
L 251.477066 169.148838 
L 250.647272 168.994922 
L 249.806764 168.885433 
L 248.958858 168.820812 
L 248.1069 168.801322 
L 247.254253 168.827048 
L 246.404284 168.897898 
L 245.560351 169.0136 
L 244.72579 169.173704 
L 243.9039 169.377586 
L 243.097931 169.624447 
L 242.311071 169.913319 
L 241.546435 170.243067 
L 240.807049 170.612392 
L 240.09584 171.019839 
L 239.415626 171.463804 
L 238.7691 171.942533 
L 238.158825 172.454138 
L 237.587219 172.996598 
L 237.056548 173.567769 
L 236.568914 174.165393 
L 236.126252 174.787108 
L 235.730317 175.430455 
L 235.382677 176.092889 
L 235.084711 176.771787 
L 234.837601 177.464464 
L 234.642325 178.168178 
L 234.499656 178.880144 
L 234.410161 179.597543 
L 234.374191 180.317535 
L 234.391888 181.03727 
L 234.46318 181.753901 
L 234.587782 182.464589 
L 234.765197 183.166524 
L 234.99472 183.856928 
L 235.275438 184.53307 
L 235.606236 185.192276 
L 235.9858 185.831939 
L 236.412622 186.449533 
" style="fill:none;stroke:#d62728;stroke-linecap:square;stroke-width:1.5;"/>
   </g>
  </g>
 </g>
 <defs>
  <clipPath id="p45ef945e38">
   <rect height="266.112" width="266.112" x="103.104" y="41.472"/>
  </clipPath>
 </defs>
</svg>
